{
	"asset":{
		"version":"2.0",
		"generator":"Created using the official Cinema 4D glTF Exporter 1.000x290161"
	},
	"scenes":[{
		"nodes":[0]
	}],
	"nodes":[{
		"name":"1D0001",
		"mesh":0
	}],
	"meshes":[{
		"primitives":[{
			"attributes":{
				"POSITION":1,
				"TEXCOORD_0":2
			},
			"indices":0,
			"material":0
		}]
	}],
	"accessors":[{
		"bufferView":0,
		"type":"SCALAR",
		"componentType":5123,
		"count":11436,
		"byteOffset":0,
		"min":[0],
		"max":[7103]
	},
	{
		"bufferView":1,
		"type":"VEC3",
		"componentType":5126,
		"count":7104,
		"byteOffset":0,
		"min":[-10.0,
		0.0,
		-1757.1124267578126],
		"max":[4702.5244140625,
		300.0,
		10.0]
	},
	{
		"bufferView":1,
		"type":"VEC2",
		"componentType":5126,
		"count":7104,
		"byteOffset":12,
		"min":[-423.5125732421875,
		-419.8951416015625],
		"max":[16.627559661865236,
		268.00335693359377]
	}],
	"bufferViews":[{
		"buffer":0,
		"byteOffset":0,
		"byteLength":22872,
		"target":34963
	},
	{
		"buffer":0,
		"byteOffset":22872,
		"byteLength":142080,
		"target":34962,
		"byteStride":20
	}],
	"buffers":[{
		"uri":"data:application/octet-stream;base64,",
		"byteLength":164952
	}],
	"materials":[{
		"pbrMetallicRoughness":{
			"baseColorFactor":[1.0,
			1.0,
			1.0,
			1.0],
			"metallicFactor":1.0,
			"roughnessFactor":1.0
		},
		"emissiveFactor":[0.0,
		0.0,
		0.0],
		"alphaMode":"OPAQUE",
		"doubleSided":false,
		"name":""
	}]
}