{
	"asset":{
		"version":"2.0",
		"generator":"Created using the official Cinema 4D glTF Exporter 1.000x290161"
	},
	"scenes":[{
		"nodes":[0]
	}],
	"nodes":[{
		"name":"1D0001",
		"mesh":0
	}],
	"meshes":[{
		"primitives":[{
			"attributes":{
				"POSITION":1,
				"TEXCOORD_0":2
			},
			"indices":0,
			"material":0
		}]
	}],
	"accessors":[{
		"bufferView":0,
		"type":"SCALAR",
		"componentType":5123,
		"count":11733,
		"byteOffset":0,
		"min":[0],
		"max":[7314]
	},
	{
		"bufferView":1,
		"type":"VEC3",
		"componentType":5126,
		"count":7315,
		"byteOffset":0,
		"min":[-10.0,
		0.0,
		-1755.9920654296876],
		"max":[4710.30078125,
		300.0,
		10.0]
	},
	{
		"bufferView":1,
		"type":"VEC2",
		"componentType":5126,
		"count":7315,
		"byteOffset":12,
		"min":[-423.55145263671877,
		-419.42694091796877],
		"max":[18.07740020751953,
		268.00335693359377]
	}],
	"bufferViews":[{
		"buffer":0,
		"byteOffset":0,
		"byteLength":23466,
		"target":34963
	},
	{
		"buffer":0,
		"byteOffset":23468,
		"byteLength":146300,
		"target":34962,
		"byteStride":20
	}],
	"buffers":[{
		"uri":"data:application/octet-stream;base64,",
		"byteLength":169768
	}],
	"materials":[{
		"pbrMetallicRoughness":{
			"baseColorFactor":[1.0,
			1.0,
			1.0,
			1.0],
			"metallicFactor":1.0,
			"roughnessFactor":1.0
		},
		"emissiveFactor":[0.0,
		0.0,
		0.0],
		"alphaMode":"OPAQUE",
		"doubleSided":false,
		"name":""
	}]
}