{
	"asset":{
		"version":"2.0",
		"generator":"Created using the official Cinema 4D glTF Exporter 1.000x290161"
	},
	"scenes":[{
		"nodes":[0]
	}],
	"nodes":[{
		"name":"1D0001",
		"mesh":0
	}],
	"meshes":[{
		"primitives":[{
			"attributes":{
				"POSITION":1,
				"TEXCOORD_0":2
			},
			"indices":0,
			"material":0
		}]
	}],
	"accessors":[{
		"bufferView":0,
		"type":"SCALAR",
		"componentType":5123,
		"count":11466,
		"byteOffset":0,
		"min":[0],
		"max":[7231]
	},
	{
		"bufferView":1,
		"type":"VEC3",
		"componentType":5126,
		"count":7232,
		"byteOffset":0,
		"min":[-10.0,
		-1.1859120938098716e-18,
		-1962.0],
		"max":[4848.16943359375,
		300.0,
		10.0]
	},
	{
		"bufferView":1,
		"type":"VEC2",
		"componentType":5126,
		"count":7232,
		"byteOffset":12,
		"min":[-423.90081787109377,
		-420.42303466796877],
		"max":[10.305839538574219,
		268.00335693359377]
	}],
	"bufferViews":[{
		"buffer":0,
		"byteOffset":0,
		"byteLength":22932,
		"target":34963
	},
	{
		"buffer":0,
		"byteOffset":22932,
		"byteLength":144640,
		"target":34962,
		"byteStride":20
	}],
	"buffers":[{
		"uri":"data:application/octet-stream;base64,",
		"byteLength":167572
	}],
	"materials":[{
		"pbrMetallicRoughness":{
			"baseColorFactor":[1.0,
			1.0,
			1.0,
			1.0],
			"metallicFactor":1.0,
			"roughnessFactor":1.0
		},
		"emissiveFactor":[0.0,
		0.0,
		0.0],
		"alphaMode":"OPAQUE",
		"doubleSided":false,
		"name":""
	}]
}