{"asset":{"version":"2.0","generator":"Created using the official Cinema 4D glTF Exporter 1.000x290161"},"scenes":[{"nodes":[0]}],"nodes":[{"name":"build3-500","mesh":0}],"meshes":[{"primitives":[{"attributes":{"POSITION":1,"TEXCOORD_0":2},"indices":0,"material":0}]}],"accessors":[{"bufferView":0,"type":"SCALAR","componentType":5123,"count":13056,"byteOffset":0,"min":[0],"max":[8195]},{"bufferView":1,"type":"VEC3","componentType":5126,"count":8196,"byteOffset":0,"min":[-0.7485542297363281,0,-1135.0831298828125],"max":[5583.33642578125,300,773.2091064453125]},{"bufferView":1,"type":"VEC2","componentType":5126,"count":8196,"byteOffset":12,"min":[-427.9166259765625,-426.203857421875],"max":[26.1224365234375,268.00335693359375]}],"bufferViews":[{"buffer":0,"byteOffset":0,"byteLength":26112,"target":34963},{"buffer":0,"byteOffset":26112,"byteLength":163920,"target":34962,"byteStride":20}],"buffers":[{"uri":"data:application/octet-stream;base64,","byteLength":190032}],"materials":[{"pbrMetallicRoughness":{"baseColorFactor":[1,1,1,1],"metallicFactor":1,"roughnessFactor":1},"emissiveFactor":[0,0,0],"alphaMode":"OPAQUE","doubleSided":false,"name":""}]}