{"asset":{"version":"2.0","generator":"Created using the official Cinema 4D glTF Exporter 1.000x290161"},"scenes":[{"nodes":[0]}],"nodes":[{"name":"build11-200","mesh":0}],"meshes":[{"primitives":[{"attributes":{"POSITION":1,"TEXCOORD_0":2},"indices":0,"material":0}]}],"accessors":[{"bufferView":0,"type":"SCALAR","componentType":5123,"count":15099,"byteOffset":0,"min":[0],"max":[9454]},{"bufferView":1,"type":"VEC3","componentType":5126,"count":9455,"byteOffset":0,"min":[-2.492929458618164,0,-1677.492919921875],"max":[4674.5,300,4.272068023681641]},{"bufferView":1,"type":"VEC2","componentType":5126,"count":9455,"byteOffset":12,"min":[-423.37249755859375,-422.30926513671875],"max":[33.75,268.00335693359375]}],"bufferViews":[{"buffer":0,"byteOffset":0,"byteLength":30198,"target":34963},{"buffer":0,"byteOffset":30200,"byteLength":189100,"target":34962,"byteStride":20}],"buffers":[{"uri":"data:application/octet-stream;base64,","byteLength":219300}],"materials":[{"pbrMetallicRoughness":{"baseColorFactor":[1,1,1,1],"metallicFactor":1,"roughnessFactor":1},"emissiveFactor":[0,0,0],"alphaMode":"OPAQUE","doubleSided":false,"name":""}]}