{"asset":{"version":"2.0","generator":"Created using the official Cinema 4D glTF Exporter 1.000x290161"},"scenes":[{"nodes":[0]}],"nodes":[{"name":"build11-300","mesh":0}],"meshes":[{"primitives":[{"attributes":{"POSITION":1,"TEXCOORD_0":2},"indices":0,"material":0}]}],"accessors":[{"bufferView":0,"type":"SCALAR","componentType":5123,"count":10284,"byteOffset":0,"min":[0],"max":[6525]},{"bufferView":1,"type":"VEC3","componentType":5126,"count":6526,"byteOffset":0,"min":[-12.492927551269531,0,-1679.2996826171875],"max":[4674.5,300,3.2378997802734375]},{"bufferView":1,"type":"VEC2","componentType":5126,"count":6526,"byteOffset":12,"min":[-423.37249755859375,-422.30926513671875],"max":[15.549999237060547,268.00335693359375]}],"bufferViews":[{"buffer":0,"byteOffset":0,"byteLength":20568,"target":34963},{"buffer":0,"byteOffset":20568,"byteLength":130520,"target":34962,"byteStride":20}],"buffers":[{"uri":"data:application/octet-stream;base64,","byteLength":151088}],"materials":[{"pbrMetallicRoughness":{"baseColorFactor":[1,1,1,1],"metallicFactor":1,"roughnessFactor":1},"emissiveFactor":[0,0,0],"alphaMode":"OPAQUE","doubleSided":false,"name":""}]}