{"asset":{"version":"2.0","generator":"Created using the official Cinema 4D glTF Exporter 1.000x290161"},"scenes":[{"nodes":[0]}],"nodes":[{"name":"build2-400","mesh":0}],"meshes":[{"primitives":[{"attributes":{"POSITION":1,"TEXCOORD_0":2},"indices":0,"material":0}]}],"accessors":[{"bufferView":0,"type":"SCALAR","componentType":5123,"count":20412,"byteOffset":0,"min":[0],"max":[12701]},{"bufferView":1,"type":"VEC3","componentType":5126,"count":12702,"byteOffset":0,"min":[5.507070541381836,0,-1724.992919921875],"max":[6220.35009765625,300,-5.507070541381836]},{"bufferView":1,"type":"VEC2","componentType":5126,"count":12702,"byteOffset":12,"min":[-431.10174560546875,-428.47607421875],"max":[14.750308990478516,268.00335693359375]}],"bufferViews":[{"buffer":0,"byteOffset":0,"byteLength":40824,"target":34963},{"buffer":0,"byteOffset":40824,"byteLength":254040,"target":34962,"byteStride":20}],"buffers":[{"uri":"data:application/octet-stream;base64,","byteLength":294864}],"materials":[{"pbrMetallicRoughness":{"baseColorFactor":[1,1,1,1],"metallicFactor":1,"roughnessFactor":1},"emissiveFactor":[0,0,0],"alphaMode":"OPAQUE","doubleSided":false,"name":""}]}