{"asset":{"version":"2.0","generator":"Created using the official Cinema 4D glTF Exporter 1.000x290161"},"scenes":[{"nodes":[0]}],"nodes":[{"name":"build9-100","mesh":0}],"meshes":[{"primitives":[{"attributes":{"POSITION":1,"TEXCOORD_0":2},"indices":0,"material":0}]}],"accessors":[{"bufferView":0,"type":"SCALAR","componentType":5123,"count":10770,"byteOffset":0,"min":[0],"max":[6771]},{"bufferView":1,"type":"VEC3","componentType":5126,"count":6772,"byteOffset":0,"min":[8.5,0,-937.5703735351562],"max":[5878.5,300,9.500024795532227]},{"bufferView":1,"type":"VEC2","componentType":5126,"count":6772,"byteOffset":12,"min":[-429.3924560546875,-422.36126708984375],"max":[8.49625015258789,268.00335693359375]}],"bufferViews":[{"buffer":0,"byteOffset":0,"byteLength":21540,"target":34963},{"buffer":0,"byteOffset":21540,"byteLength":135440,"target":34962,"byteStride":20}],"buffers":[{"uri":"data:application/octet-stream;base64,","byteLength":156980}],"materials":[{"pbrMetallicRoughness":{"baseColorFactor":[1,1,1,1],"metallicFactor":1,"roughnessFactor":1},"emissiveFactor":[0,0,0],"alphaMode":"OPAQUE","doubleSided":false,"name":""}]}