{
	"asset":{
		"version":"2.0",
		"generator":"Created using the official Cinema 4D glTF Exporter 1.000x290161"
	},
	"scenes":[{
		"nodes":[0]
	}],
	"nodes":[{
		"name":"10号楼",
		"translation":[40.0280647277832,
		10.055929183959961,
		108.72338104248047],
		"rotation":[0.0,
		0.0,
		0.0,
		-1.0],
		"scale":[1.0,
		1.0,
		1.0],
		"children":[1,
		3,
		5]
	},
	{
		"name":"build",
		"children":[2]
	},
	{
		"name":"subject",
		"translation":[0.8403505086898804,
		-1.0696730613708497,
		-48.55515670776367],
		"rotation":[0.0,
		-1.2246468525851679e-16,
		0.0,
		-1.0],
		"scale":[1.0,
		1.0,
		1.0],
		"mesh":0
	},
	{
		"name":"mark",
		"translation":[15.229999542236329,
		13.620525360107422,
		6.263973236083984],
		"rotation":[1.0,
		-6.123234262925839e-17,
		6.123234262925839e-17,
		-6.123234262925839e-17],
		"scale":[1.0,
		1.0,
		1.0],
		"children":[4]
	},
	{
		"name":"fire-mark",
		"translation":[0.0,
		1.2896478962596669e-16,
		0.0],
		"rotation":[5.665538686387998e-16,
		0.0,
		0.0,
		-1.0],
		"scale":[1.0,
		1.0,
		1.0],
		"mesh":1
	},
	{
		"name":"fire",
		"translation":[0.8403505086898804,
		-1.0696730613708497,
		-48.55515670776367],
		"rotation":[0.0,
		-1.2246468525851679e-16,
		0.0,
		-1.0],
		"scale":[1.0,
		1.0,
		1.0],
		"children":[6]
	},
	{
		"name":"0",
		"translation":[-5.261105335666895e-16,
		0.0,
		0.0],
		"rotation":[0.0,
		-1.2246468525851679e-16,
		0.0,
		-1.0],
		"scale":[1.0,
		1.0,
		1.0],
		"mesh":2
	}],
	"meshes":[{
		"primitives":[{
			"attributes":{
				"POSITION":1,
				"TEXCOORD_0":2
			},
			"indices":0,
			"material":0
		}]
	},
	{
		"primitives":[{
			"attributes":{
				"POSITION":4,
				"TEXCOORD_0":5
			},
			"indices":3,
			"material":1
		}]
	},
	{
		"primitives":[{
			"attributes":{
				"POSITION":7,
				"TEXCOORD_0":8
			},
			"indices":6,
			"material":1
		}]
	}],
	"accessors":[{
		"bufferView":0,
		"type":"SCALAR",
		"componentType":5123,
		"count":17262,
		"byteOffset":0,
		"min":[0],
		"max":[8156]
	},
	{
		"bufferView":1,
		"type":"VEC3",
		"componentType":5126,
		"count":8157,
		"byteOffset":0,
		"min":[-12.91866683959961,
		-7.065314769744873,
		48.30901336669922],
		"max":[44.50178527832031,
		11.689935684204102,
		62.49006652832031]
	},
	{
		"bufferView":1,
		"type":"VEC2",
		"componentType":5126,
		"count":8157,
		"byteOffset":12,
		"min":[0.0,
		0.0],
		"max":[1.0,
		1.0]
	},
	{
		"bufferView":2,
		"type":"SCALAR",
		"componentType":5123,
		"count":18,
		"byteOffset":0,
		"min":[0],
		"max":[7]
	},
	{
		"bufferView":3,
		"type":"VEC3",
		"componentType":5126,
		"count":8,
		"byteOffset":0,
		"min":[-2.92252254486084,
		-2.92252254486084,
		-2.92252254486084],
		"max":[2.92252254486084,
		2.92252254486084,
		2.92252254486084]
	},
	{
		"bufferView":3,
		"type":"VEC2",
		"componentType":5126,
		"count":8,
		"byteOffset":12,
		"min":[0.0,
		0.0],
		"max":[1.0,
		1.0]
	},
	{
		"bufferView":4,
		"type":"SCALAR",
		"componentType":5123,
		"count":17262,
		"byteOffset":0,
		"min":[0],
		"max":[8156]
	},
	{
		"bufferView":5,
		"type":"VEC3",
		"componentType":5126,
		"count":8157,
		"byteOffset":0,
		"min":[-12.91866683959961,
		-7.065314769744873,
		48.30901336669922],
		"max":[44.50178527832031,
		11.689935684204102,
		62.49006652832031]
	},
	{
		"bufferView":5,
		"type":"VEC2",
		"componentType":5126,
		"count":8157,
		"byteOffset":12,
		"min":[0.0,
		0.0],
		"max":[1.0,
		1.0]
	}],
	"bufferViews":[{
		"buffer":0,
		"byteOffset":0,
		"byteLength":34524,
		"target":34963
	},
	{
		"buffer":0,
		"byteOffset":34524,
		"byteLength":163140,
		"target":34962,
		"byteStride":20
	},
	{
		"buffer":1,
		"byteOffset":0,
		"byteLength":36,
		"target":34963
	},
	{
		"buffer":1,
		"byteOffset":36,
		"byteLength":160,
		"target":34962,
		"byteStride":20
	},
	{
		"buffer":2,
		"byteOffset":0,
		"byteLength":34524,
		"target":34963
	},
	{
		"buffer":2,
		"byteOffset":34524,
		"byteLength":163140,
		"target":34962,
		"byteStride":20
	}],
	"buffers":[{
		"uri":"data:application/octet-stream;base64,",
		"byteLength":197664
	},
	{
		"uri":"data:application/octet-stream;base64,",
		"byteLength":196
	},
	{
		"uri":"data:application/octet-stream;base64,",
		"byteLength":197664
	}],
	"materials":[{
		"pbrMetallicRoughness":{
			"baseColorFactor":[0.20009999999999998,
			0.5685449999999999,
			0.87,
			1.0],
			"metallicFactor":1.0,
			"roughnessFactor":0.1
		},
		"emissiveFactor":[0.028400000000000024,
		0.48279999999999997,
		0.71],
		"alphaMode":"OPAQUE",
		"doubleSided":false,
		"name":"材质.4"
	},
	{
		"pbrMetallicRoughness":{
			"baseColorFactor":[0.74,
			0.36815,
			0.24419999999999998,
			1.0],
			"metallicFactor":1.0,
			"roughnessFactor":0.1
		},
		"emissiveFactor":[0.9400000000000001,
		0.11280000000000011,
		0.037600000000000039],
		"alphaMode":"OPAQUE",
		"doubleSided":false,
		"name":"楼2"
	}]
}