{
	"asset":{
		"version":"2.0",
		"generator":"Created using the official Cinema 4D glTF Exporter 1.000x290161"
	},
	"scenes":[{
		"nodes":[0]
	}],
	"nodes":[{
		"name":"15号楼",
		"translation":[-15.261048316955567,
		6.548837661743164,
		95.7466812133789],
		"rotation":[0.0,
		0.0,
		0.0,
		-1.0],
		"scale":[1.0,
		1.0,
		1.0],
		"children":[1,
		3,
		5]
	},
	{
		"name":"build",
		"children":[2]
	},
	{
		"name":"subject",
		"translation":[5.179677963256836,
		0.364455908536911,
		-47.60057067871094],
		"rotation":[0.0,
		0.0,
		0.0,
		-1.0],
		"scale":[1.0,
		1.0,
		1.0],
		"mesh":0
	},
	{
		"name":"mark",
		"translation":[-3.9774889945983888,
		17.12761688232422,
		0.288664847612381],
		"rotation":[1.0,
		-6.123234262925839e-17,
		6.123234262925839e-17,
		-6.123234262925839e-17],
		"scale":[1.0,
		1.0,
		1.0],
		"children":[4]
	},
	{
		"name":"fire-mark",
		"translation":[0.0,
		-1.102796557380986e-15,
		0.0],
		"rotation":[5.665538686387998e-16,
		0.0,
		0.0,
		-1.0],
		"scale":[1.0,
		1.0,
		1.0],
		"mesh":1
	},
	{
		"name":"fire",
		"translation":[5.179677963256836,
		0.364455908536911,
		-47.60057067871094],
		"rotation":[0.0,
		0.0,
		0.0,
		-1.0],
		"scale":[1.0,
		1.0,
		1.0],
		"children":[6]
	},
	{
		"name":"0",
		"mesh":2
	}],
	"meshes":[{
		"primitives":[{
			"attributes":{
				"POSITION":1,
				"TEXCOORD_0":2
			},
			"indices":0,
			"material":0
		}]
	},
	{
		"primitives":[{
			"attributes":{
				"POSITION":4,
				"TEXCOORD_0":5
			},
			"indices":3,
			"material":1
		}]
	},
	{
		"primitives":[{
			"attributes":{
				"POSITION":7,
				"TEXCOORD_0":8
			},
			"indices":6,
			"material":1
		}]
	}],
	"accessors":[{
		"bufferView":0,
		"type":"SCALAR",
		"componentType":5123,
		"count":7632,
		"byteOffset":0,
		"min":[0],
		"max":[1714]
	},
	{
		"bufferView":1,
		"type":"VEC3",
		"componentType":5126,
		"count":1715,
		"byteOffset":0,
		"min":[-21.081371307373048,
		-9.937259674072266,
		38.33077621459961],
		"max":[4.28168249130249,
		7.146024703979492,
		55.524070739746097]
	},
	{
		"bufferView":1,
		"type":"VEC2",
		"componentType":5126,
		"count":1715,
		"byteOffset":12,
		"min":[0.0,
		0.0],
		"max":[1.0,
		1.0]
	},
	{
		"bufferView":2,
		"type":"SCALAR",
		"componentType":5123,
		"count":18,
		"byteOffset":0,
		"min":[0],
		"max":[7]
	},
	{
		"bufferView":3,
		"type":"VEC3",
		"componentType":5126,
		"count":8,
		"byteOffset":0,
		"min":[-2.92252254486084,
		-2.92252254486084,
		-2.92252254486084],
		"max":[2.92252254486084,
		2.92252254486084,
		2.92252254486084]
	},
	{
		"bufferView":3,
		"type":"VEC2",
		"componentType":5126,
		"count":8,
		"byteOffset":12,
		"min":[0.0,
		0.0],
		"max":[1.0,
		1.0]
	},
	{
		"bufferView":4,
		"type":"SCALAR",
		"componentType":5123,
		"count":7632,
		"byteOffset":0,
		"min":[0],
		"max":[1714]
	},
	{
		"bufferView":5,
		"type":"VEC3",
		"componentType":5126,
		"count":1715,
		"byteOffset":0,
		"min":[-21.081371307373048,
		-9.937259674072266,
		38.33077621459961],
		"max":[4.28168249130249,
		7.146024703979492,
		55.524070739746097]
	},
	{
		"bufferView":5,
		"type":"VEC2",
		"componentType":5126,
		"count":1715,
		"byteOffset":12,
		"min":[0.0,
		0.0],
		"max":[1.0,
		1.0]
	}],
	"bufferViews":[{
		"buffer":0,
		"byteOffset":0,
		"byteLength":15264,
		"target":34963
	},
	{
		"buffer":0,
		"byteOffset":15264,
		"byteLength":34300,
		"target":34962,
		"byteStride":20
	},
	{
		"buffer":1,
		"byteOffset":0,
		"byteLength":36,
		"target":34963
	},
	{
		"buffer":1,
		"byteOffset":36,
		"byteLength":160,
		"target":34962,
		"byteStride":20
	},
	{
		"buffer":2,
		"byteOffset":0,
		"byteLength":15264,
		"target":34963
	},
	{
		"buffer":2,
		"byteOffset":15264,
		"byteLength":34300,
		"target":34962,
		"byteStride":20
	}],
	"buffers":[{
		"uri":"data:application/octet-stream;base64,",
		"byteLength":49564
	},
	{
		"uri":"data:application/octet-stream;base64,",
		"byteLength":196
	},
	{
		"uri":"data:application/octet-stream;base64,",
		"byteLength":49564
	}],
	"materials":[{
		"pbrMetallicRoughness":{
			"baseColorFactor":[0.20009999999999998,
			0.5685449999999999,
			0.87,
			1.0],
			"metallicFactor":0.79,
			"roughnessFactor":0.12
		},
		"emissiveFactor":[0.028400000000000024,
		0.34648000000000009,
		0.71],
		"alphaMode":"OPAQUE",
		"doubleSided":false,
		"name":"楼2"
	},
	{
		"pbrMetallicRoughness":{
			"baseColorFactor":[0.74,
			0.36815,
			0.24419999999999998,
			1.0],
			"metallicFactor":1.0,
			"roughnessFactor":0.1
		},
		"emissiveFactor":[0.9400000000000001,
		0.11280000000000011,
		0.037600000000000039],
		"alphaMode":"OPAQUE",
		"doubleSided":false,
		"name":"楼2"
	}]
}