{
	"asset":{
		"version":"2.0",
		"generator":"Created using the official Cinema 4D glTF Exporter 1.000x290161"
	},
	"scenes":[{
		"nodes":[0]
	}],
	"nodes":[{
		"name":"19号楼",
		"translation":[-99.9003677368164,
		5.5248026847839359,
		93.51315307617188],
		"rotation":[0.0,
		0.0,
		0.0,
		-1.0],
		"scale":[1.0,
		1.0,
		1.0],
		"children":[1]
	},
	{
		"name":"立方体.15",
		"translation":[-3.1616008281707765,
		0.24214579164981843,
		3.835266590118408],
		"rotation":[0.0,
		0.0,
		0.0,
		-1.0],
		"scale":[1.0,
		1.0,
		1.0],
		"mesh":0
	}],
	"meshes":[{
		"primitives":[{
			"attributes":{
				"POSITION":1,
				"TEXCOORD_0":2
			},
			"indices":0,
			"material":0
		}]
	}],
	"accessors":[{
		"bufferView":0,
		"type":"SCALAR",
		"componentType":5123,
		"count":4566,
		"byteOffset":0,
		"min":[0],
		"max":[1361]
	},
	{
		"bufferView":1,
		"type":"VEC3",
		"componentType":5126,
		"count":1362,
		"byteOffset":0,
		"min":[-14.763413429260254,
		-3.8478338718414308,
		-5.595259189605713],
		"max":[13.132137298583985,
		5.953294277191162,
		5.123283863067627]
	},
	{
		"bufferView":1,
		"type":"VEC2",
		"componentType":5126,
		"count":1362,
		"byteOffset":12,
		"min":[0.0,
		0.0],
		"max":[1.0,
		1.0]
	}],
	"bufferViews":[{
		"buffer":0,
		"byteOffset":0,
		"byteLength":9132,
		"target":34963
	},
	{
		"buffer":0,
		"byteOffset":9132,
		"byteLength":27240,
		"target":34962,
		"byteStride":20
	}],
	"buffers":[{
		"uri":"data:application/octet-stream;base64,",
		"byteLength":36372
	}],
	"materials":[{
		"pbrMetallicRoughness":{
			"baseColorFactor":[0.20009999999999998,
			0.5685449999999999,
			0.87,
			1.0],
			"metallicFactor":1.0,
			"roughnessFactor":0.1
		},
		"emissiveFactor":[0.028400000000000024,
		0.48279999999999997,
		0.71],
		"alphaMode":"OPAQUE",
		"doubleSided":false,
		"name":"材质.4"
	}]
}