{
	"asset":{
		"version":"2.0",
		"generator":"Created using the official Cinema 4D glTF Exporter 1.000x290161"
	},
	"scenes":[{
		"nodes":[0]
	}],
	"nodes":[{
		"name":"20号楼",
		"translation":[-117.70507049560547,
		4.294618606567383,
		72.35833740234375],
		"rotation":[0.0,
		0.0,
		0.0,
		-1.0],
		"scale":[1.0,
		1.0,
		1.0],
		"children":[1]
	},
	{
		"name":"空白.31",
		"children":[2]
	},
	{
		"name":"立方体.71",
		"translation":[-1.8996509313583375,
		1.5782142877578736,
		-0.7012539505958557],
		"rotation":[0.0,
		0.0,
		0.0,
		-1.0],
		"scale":[1.0,
		1.0,
		1.0],
		"mesh":0
	}],
	"meshes":[{
		"primitives":[{
			"attributes":{
				"POSITION":1,
				"TEXCOORD_0":2
			},
			"indices":0,
			"material":0
		}]
	}],
	"accessors":[{
		"bufferView":0,
		"type":"SCALAR",
		"componentType":5123,
		"count":5550,
		"byteOffset":0,
		"min":[0],
		"max":[1804]
	},
	{
		"bufferView":1,
		"type":"VEC3",
		"componentType":5126,
		"count":1805,
		"byteOffset":0,
		"min":[-7.753844738006592,
		-4.187076091766357,
		-22.582735061645509],
		"max":[3.4698047637939455,
		4.72899055480957,
		22.48964500427246]
	},
	{
		"bufferView":1,
		"type":"VEC2",
		"componentType":5126,
		"count":1805,
		"byteOffset":12,
		"min":[0.0,
		0.0],
		"max":[1.0,
		1.0]
	}],
	"bufferViews":[{
		"buffer":0,
		"byteOffset":0,
		"byteLength":11100,
		"target":34963
	},
	{
		"buffer":0,
		"byteOffset":11100,
		"byteLength":36100,
		"target":34962,
		"byteStride":20
	}],
	"buffers":[{
		"uri":"data:application/octet-stream;base64,",
		"byteLength":47200
	}],
	"materials":[{
		"pbrMetallicRoughness":{
			"baseColorFactor":[0.20009999999999998,
			0.5685449999999999,
			0.87,
			1.0],
			"metallicFactor":0.79,
			"roughnessFactor":0.12
		},
		"emissiveFactor":[0.028400000000000024,
		0.34648000000000009,
		0.71],
		"alphaMode":"OPAQUE",
		"doubleSided":false,
		"name":"楼2"
	}]
}