{
	"asset":{
		"version":"2.0",
		"generator":"Created using the official Cinema 4D glTF Exporter 1.000x290161"
	},
	"scenes":[{
		"nodes":[0]
	}],
	"nodes":[{
		"name":"2号楼",
		"translation":[57.760589599609378,
		13.733307838439942,
		201.57159423828126],
		"rotation":[0.0,
		0.0,
		0.0,
		-1.0],
		"scale":[1.0,
		1.0,
		1.0],
		"children":[1,
		3,
		5]
	},
	{
		"name":"build",
		"translation":[-4.612331867218018,
		4.598470687866211,
		3.916121006011963],
		"rotation":[0.0,
		0.0,
		0.0,
		-1.0],
		"scale":[1.0,
		1.0,
		1.0],
		"children":[2]
	},
	{
		"name":"subject",
		"translation":[4.881533145904541,
		4.352409839630127,
		-14.99675464630127],
		"rotation":[0.0,
		0.0,
		0.0,
		-1.0],
		"scale":[1.0,
		1.0,
		1.0],
		"mesh":0
	},
	{
		"name":"mark",
		"translation":[4.732478141784668,
		40.5581169128418,
		-2.3601951599121095],
		"rotation":[1.0,
		-6.123234262925839e-17,
		6.123234262925839e-17,
		-6.123234262925839e-17],
		"scale":[1.0,
		1.0,
		1.0],
		"children":[4]
	},
	{
		"name":"fire-mark",
		"translation":[0.0,
		-3.080078823353258e-15,
		0.0],
		"rotation":[5.665538686387998e-16,
		0.0,
		0.0,
		-1.0],
		"scale":[1.0,
		1.0,
		1.0],
		"mesh":1
	},
	{
		"name":"fire",
		"translation":[-0.12014631927013397,
		-3.125722646713257,
		-1.5559258460998536],
		"rotation":[0.0,
		0.0,
		0.0,
		-1.0],
		"scale":[1.0,
		1.0,
		1.0],
		"children":[6,
		7,
		8,
		9,
		10,
		11,
		12,
		13,
		14,
		15,
		16]
	},
	{
		"name":"10001",
		"translation":[-0.1029658392071724,
		30.37639617919922,
		-1.1917673349380494],
		"rotation":[0.0,
		0.0,
		0.0,
		-1.0],
		"scale":[1.0,
		1.0,
		1.0],
		"mesh":2
	},
	{
		"name":"800",
		"translation":[2.033745288848877,
		25.076108932495118,
		2.9202900812602339e-14],
		"rotation":[0.0,
		0.0,
		0.0,
		-1.0],
		"scale":[1.0,
		1.0,
		1.0],
		"mesh":3
	},
	{
		"name":"700",
		"translation":[2.033745288848877,
		20.97812271118164,
		2.9202900812602339e-14],
		"rotation":[0.0,
		0.0,
		0.0,
		-1.0],
		"scale":[1.0,
		1.0,
		1.0],
		"mesh":4
	},
	{
		"name":"600",
		"translation":[2.033745288848877,
		16.83354377746582,
		2.9202900812602339e-14],
		"rotation":[0.0,
		0.0,
		0.0,
		-1.0],
		"scale":[1.0,
		1.0,
		1.0],
		"mesh":5
	},
	{
		"name":"500",
		"translation":[2.033745288848877,
		12.70107364654541,
		2.9202900812602339e-14],
		"rotation":[0.0,
		0.0,
		0.0,
		-1.0],
		"scale":[1.0,
		1.0,
		1.0],
		"mesh":6
	},
	{
		"name":"400",
		"translation":[2.033745288848877,
		8.726387023925782,
		2.9202900812602339e-14],
		"rotation":[0.0,
		0.0,
		0.0,
		-1.0],
		"scale":[1.0,
		1.0,
		1.0],
		"mesh":7
	},
	{
		"name":"300",
		"translation":[2.033745288848877,
		4.826554298400879,
		2.9202900812602339e-14],
		"rotation":[0.0,
		0.0,
		0.0,
		-1.0],
		"scale":[1.0,
		1.0,
		1.0],
		"mesh":8
	},
	{
		"name":"202",
		"translation":[2.033745288848877,
		1.7854398488998414,
		2.9202900812602339e-14],
		"rotation":[0.0,
		0.0,
		0.0,
		-1.0],
		"scale":[1.0,
		1.0,
		1.0],
		"mesh":9
	},
	{
		"name":"201",
		"translation":[2.033745288848877,
		-0.7150724530220032,
		2.9202900812602339e-14],
		"rotation":[0.0,
		0.0,
		0.0,
		-1.0],
		"scale":[1.0,
		1.0,
		1.0],
		"mesh":10
	},
	{
		"name":"200",
		"translation":[2.033745288848877,
		0.496521532535553,
		2.9202900812602339e-14],
		"rotation":[0.0,
		0.0,
		0.0,
		-1.0],
		"scale":[1.0,
		1.0,
		1.0],
		"mesh":11
	},
	{
		"name":"100",
		"translation":[2.033745288848877,
		-5.323075771331787,
		2.9202900812602339e-14],
		"rotation":[0.0,
		0.0,
		0.0,
		-1.0],
		"scale":[1.0,
		1.0,
		1.0],
		"mesh":12
	}],
	"meshes":[{
		"primitives":[{
			"attributes":{
				"POSITION":1,
				"TEXCOORD_0":2
			},
			"indices":0,
			"material":0
		}]
	},
	{
		"primitives":[{
			"attributes":{
				"POSITION":4,
				"TEXCOORD_0":5
			},
			"indices":3,
			"material":1
		}]
	},
	{
		"primitives":[{
			"attributes":{
				"POSITION":7,
				"TEXCOORD_0":8
			},
			"indices":6,
			"material":1
		}]
	},
	{
		"primitives":[{
			"attributes":{
				"POSITION":10,
				"TEXCOORD_0":11
			},
			"indices":9,
			"material":1
		}]
	},
	{
		"primitives":[{
			"attributes":{
				"POSITION":13,
				"TEXCOORD_0":14
			},
			"indices":12,
			"material":1
		}]
	},
	{
		"primitives":[{
			"attributes":{
				"POSITION":16,
				"TEXCOORD_0":17
			},
			"indices":15,
			"material":1
		}]
	},
	{
		"primitives":[{
			"attributes":{
				"POSITION":19,
				"TEXCOORD_0":20
			},
			"indices":18,
			"material":1
		}]
	},
	{
		"primitives":[{
			"attributes":{
				"POSITION":22,
				"TEXCOORD_0":23
			},
			"indices":21,
			"material":1
		}]
	},
	{
		"primitives":[{
			"attributes":{
				"POSITION":25,
				"TEXCOORD_0":26
			},
			"indices":24,
			"material":1
		}]
	},
	{
		"primitives":[{
			"attributes":{
				"POSITION":28,
				"TEXCOORD_0":29
			},
			"indices":27,
			"material":1
		}]
	},
	{
		"primitives":[{
			"attributes":{
				"POSITION":31,
				"TEXCOORD_0":32
			},
			"indices":30,
			"material":1
		}]
	},
	{
		"primitives":[{
			"attributes":{
				"POSITION":34,
				"TEXCOORD_0":35
			},
			"indices":33,
			"material":1
		}]
	},
	{
		"primitives":[{
			"attributes":{
				"POSITION":37,
				"TEXCOORD_0":38
			},
			"indices":36,
			"material":1
		}]
	}],
	"accessors":[{
		"bufferView":0,
		"type":"SCALAR",
		"componentType":5123,
		"count":45384,
		"byteOffset":0,
		"min":[0],
		"max":[19505]
	},
	{
		"bufferView":1,
		"type":"VEC3",
		"componentType":5126,
		"count":19506,
		"byteOffset":0,
		"min":[-29.628244400024415,
		-20.9713134765625,
		-0.3334426283836365],
		"max":[29.980548858642579,
		21.574016571044923,
		21.237411499023439]
	},
	{
		"bufferView":1,
		"type":"VEC2",
		"componentType":5126,
		"count":19506,
		"byteOffset":12,
		"min":[0.0,
		0.0],
		"max":[1.0,
		1.0]
	},
	{
		"bufferView":2,
		"type":"SCALAR",
		"componentType":5123,
		"count":18,
		"byteOffset":0,
		"min":[0],
		"max":[7]
	},
	{
		"bufferView":3,
		"type":"VEC3",
		"componentType":5126,
		"count":8,
		"byteOffset":0,
		"min":[-5.0,
		-5.0,
		-5.0],
		"max":[5.0,
		5.0,
		5.0]
	},
	{
		"bufferView":3,
		"type":"VEC2",
		"componentType":5126,
		"count":8,
		"byteOffset":12,
		"min":[0.0,
		0.0],
		"max":[1.0,
		1.0]
	},
	{
		"bufferView":4,
		"type":"SCALAR",
		"componentType":5123,
		"count":108,
		"byteOffset":0,
		"min":[0],
		"max":[59]
	},
	{
		"bufferView":5,
		"type":"VEC3",
		"componentType":5126,
		"count":60,
		"byteOffset":0,
		"min":[-25.046222686767579,
		-3.3471567630767824,
		-6.933948516845703],
		"max":[25.046222686767579,
		3.3471567630767824,
		6.933948516845703]
	},
	{
		"bufferView":5,
		"type":"VEC2",
		"componentType":5126,
		"count":60,
		"byteOffset":12,
		"min":[0.0,
		0.0],
		"max":[1.0,
		1.0]
	},
	{
		"bufferView":6,
		"type":"SCALAR",
		"componentType":5123,
		"count":36,
		"byteOffset":0,
		"min":[0],
		"max":[19]
	},
	{
		"bufferView":7,
		"type":"VEC3",
		"componentType":5126,
		"count":20,
		"byteOffset":0,
		"min":[-28.57386589050293,
		-1.8780158758163453,
		-11.986741065979004],
		"max":[28.57386589050293,
		1.8780158758163453,
		11.986741065979004]
	},
	{
		"bufferView":7,
		"type":"VEC2",
		"componentType":5126,
		"count":20,
		"byteOffset":12,
		"min":[0.0,
		0.0],
		"max":[1.0,
		1.0]
	},
	{
		"bufferView":8,
		"type":"SCALAR",
		"componentType":5123,
		"count":36,
		"byteOffset":0,
		"min":[0],
		"max":[19]
	},
	{
		"bufferView":9,
		"type":"VEC3",
		"componentType":5126,
		"count":20,
		"byteOffset":0,
		"min":[-28.57386589050293,
		-1.8780158758163453,
		-11.986741065979004],
		"max":[28.57386589050293,
		1.8780158758163453,
		11.986741065979004]
	},
	{
		"bufferView":9,
		"type":"VEC2",
		"componentType":5126,
		"count":20,
		"byteOffset":12,
		"min":[0.0,
		0.0],
		"max":[1.0,
		1.0]
	},
	{
		"bufferView":10,
		"type":"SCALAR",
		"componentType":5123,
		"count":36,
		"byteOffset":0,
		"min":[0],
		"max":[19]
	},
	{
		"bufferView":11,
		"type":"VEC3",
		"componentType":5126,
		"count":20,
		"byteOffset":0,
		"min":[-28.57386589050293,
		-1.8780158758163453,
		-11.986741065979004],
		"max":[28.57386589050293,
		1.8780158758163453,
		11.986741065979004]
	},
	{
		"bufferView":11,
		"type":"VEC2",
		"componentType":5126,
		"count":20,
		"byteOffset":12,
		"min":[0.0,
		0.0],
		"max":[1.0,
		1.0]
	},
	{
		"bufferView":12,
		"type":"SCALAR",
		"componentType":5123,
		"count":36,
		"byteOffset":0,
		"min":[0],
		"max":[19]
	},
	{
		"bufferView":13,
		"type":"VEC3",
		"componentType":5126,
		"count":20,
		"byteOffset":0,
		"min":[-28.57386589050293,
		-1.8780158758163453,
		-11.986741065979004],
		"max":[28.57386589050293,
		1.8780158758163453,
		11.986741065979004]
	},
	{
		"bufferView":13,
		"type":"VEC2",
		"componentType":5126,
		"count":20,
		"byteOffset":12,
		"min":[0.0,
		0.0],
		"max":[1.0,
		1.0]
	},
	{
		"bufferView":14,
		"type":"SCALAR",
		"componentType":5123,
		"count":36,
		"byteOffset":0,
		"min":[0],
		"max":[19]
	},
	{
		"bufferView":15,
		"type":"VEC3",
		"componentType":5126,
		"count":20,
		"byteOffset":0,
		"min":[-28.57386589050293,
		-1.8780158758163453,
		-11.986741065979004],
		"max":[28.57386589050293,
		1.8780158758163453,
		11.986741065979004]
	},
	{
		"bufferView":15,
		"type":"VEC2",
		"componentType":5126,
		"count":20,
		"byteOffset":12,
		"min":[0.0,
		0.0],
		"max":[1.0,
		1.0]
	},
	{
		"bufferView":16,
		"type":"SCALAR",
		"componentType":5123,
		"count":36,
		"byteOffset":0,
		"min":[0],
		"max":[19]
	},
	{
		"bufferView":17,
		"type":"VEC3",
		"componentType":5126,
		"count":20,
		"byteOffset":0,
		"min":[-28.57386589050293,
		-1.8780158758163453,
		-11.986741065979004],
		"max":[28.57386589050293,
		1.8780158758163453,
		11.986741065979004]
	},
	{
		"bufferView":17,
		"type":"VEC2",
		"componentType":5126,
		"count":20,
		"byteOffset":12,
		"min":[0.0,
		0.0],
		"max":[1.0,
		1.0]
	},
	{
		"bufferView":18,
		"type":"SCALAR",
		"componentType":5123,
		"count":36,
		"byteOffset":0,
		"min":[0],
		"max":[19]
	},
	{
		"bufferView":19,
		"type":"VEC3",
		"componentType":5126,
		"count":20,
		"byteOffset":0,
		"min":[-28.57386589050293,
		-1.10079026222229,
		-11.986741065979004],
		"max":[28.57386589050293,
		1.10079026222229,
		11.986741065979004]
	},
	{
		"bufferView":19,
		"type":"VEC2",
		"componentType":5126,
		"count":20,
		"byteOffset":12,
		"min":[0.0,
		0.0],
		"max":[1.0,
		1.0]
	},
	{
		"bufferView":20,
		"type":"SCALAR",
		"componentType":5123,
		"count":36,
		"byteOffset":0,
		"min":[0],
		"max":[19]
	},
	{
		"bufferView":21,
		"type":"VEC3",
		"componentType":5126,
		"count":20,
		"byteOffset":0,
		"min":[-28.57386589050293,
		-1.10079026222229,
		-11.986741065979004],
		"max":[28.57386589050293,
		1.10079026222229,
		11.986741065979004]
	},
	{
		"bufferView":21,
		"type":"VEC2",
		"componentType":5126,
		"count":20,
		"byteOffset":12,
		"min":[0.0,
		0.0],
		"max":[1.0,
		1.0]
	},
	{
		"bufferView":22,
		"type":"SCALAR",
		"componentType":5123,
		"count":36,
		"byteOffset":0,
		"min":[0],
		"max":[19]
	},
	{
		"bufferView":23,
		"type":"VEC3",
		"componentType":5126,
		"count":20,
		"byteOffset":0,
		"min":[-28.57386589050293,
		-2.511092185974121,
		-11.986741065979004],
		"max":[28.57386589050293,
		2.511092185974121,
		11.986741065979004]
	},
	{
		"bufferView":23,
		"type":"VEC2",
		"componentType":5126,
		"count":20,
		"byteOffset":12,
		"min":[0.0,
		0.0],
		"max":[1.0,
		1.0]
	},
	{
		"bufferView":24,
		"type":"SCALAR",
		"componentType":5123,
		"count":36,
		"byteOffset":0,
		"min":[0],
		"max":[19]
	},
	{
		"bufferView":25,
		"type":"VEC3",
		"componentType":5126,
		"count":20,
		"byteOffset":0,
		"min":[-28.57386589050293,
		-3.265928268432617,
		-11.986741065979004],
		"max":[28.57386589050293,
		3.265928268432617,
		11.986741065979004]
	},
	{
		"bufferView":25,
		"type":"VEC2",
		"componentType":5126,
		"count":20,
		"byteOffset":12,
		"min":[0.0,
		0.0],
		"max":[1.0,
		1.0]
	}],
	"bufferViews":[{
		"buffer":0,
		"byteOffset":0,
		"byteLength":90768,
		"target":34963
	},
	{
		"buffer":0,
		"byteOffset":90768,
		"byteLength":390120,
		"target":34962,
		"byteStride":20
	},
	{
		"buffer":1,
		"byteOffset":0,
		"byteLength":36,
		"target":34963
	},
	{
		"buffer":1,
		"byteOffset":36,
		"byteLength":160,
		"target":34962,
		"byteStride":20
	},
	{
		"buffer":2,
		"byteOffset":0,
		"byteLength":216,
		"target":34963
	},
	{
		"buffer":2,
		"byteOffset":216,
		"byteLength":1200,
		"target":34962,
		"byteStride":20
	},
	{
		"buffer":3,
		"byteOffset":0,
		"byteLength":72,
		"target":34963
	},
	{
		"buffer":3,
		"byteOffset":72,
		"byteLength":400,
		"target":34962,
		"byteStride":20
	},
	{
		"buffer":4,
		"byteOffset":0,
		"byteLength":72,
		"target":34963
	},
	{
		"buffer":4,
		"byteOffset":72,
		"byteLength":400,
		"target":34962,
		"byteStride":20
	},
	{
		"buffer":5,
		"byteOffset":0,
		"byteLength":72,
		"target":34963
	},
	{
		"buffer":5,
		"byteOffset":72,
		"byteLength":400,
		"target":34962,
		"byteStride":20
	},
	{
		"buffer":6,
		"byteOffset":0,
		"byteLength":72,
		"target":34963
	},
	{
		"buffer":6,
		"byteOffset":72,
		"byteLength":400,
		"target":34962,
		"byteStride":20
	},
	{
		"buffer":7,
		"byteOffset":0,
		"byteLength":72,
		"target":34963
	},
	{
		"buffer":7,
		"byteOffset":72,
		"byteLength":400,
		"target":34962,
		"byteStride":20
	},
	{
		"buffer":8,
		"byteOffset":0,
		"byteLength":72,
		"target":34963
	},
	{
		"buffer":8,
		"byteOffset":72,
		"byteLength":400,
		"target":34962,
		"byteStride":20
	},
	{
		"buffer":9,
		"byteOffset":0,
		"byteLength":72,
		"target":34963
	},
	{
		"buffer":9,
		"byteOffset":72,
		"byteLength":400,
		"target":34962,
		"byteStride":20
	},
	{
		"buffer":10,
		"byteOffset":0,
		"byteLength":72,
		"target":34963
	},
	{
		"buffer":10,
		"byteOffset":72,
		"byteLength":400,
		"target":34962,
		"byteStride":20
	},
	{
		"buffer":11,
		"byteOffset":0,
		"byteLength":72,
		"target":34963
	},
	{
		"buffer":11,
		"byteOffset":72,
		"byteLength":400,
		"target":34962,
		"byteStride":20
	},
	{
		"buffer":12,
		"byteOffset":0,
		"byteLength":72,
		"target":34963
	},
	{
		"buffer":12,
		"byteOffset":72,
		"byteLength":400,
		"target":34962,
		"byteStride":20
	}],
	"buffers":[{
		"uri":"data:application/octet-stream;base64,",
		"byteLength":480888
	},
	{
		"uri":"data:application/octet-stream;base64,",
		"byteLength":196
	},
	{
		"uri":"data:application/octet-stream;base64,",
		"byteLength":1416
	},
	{
		"uri":"data:application/octet-stream;base64,",
		"byteLength":472
	},
	{
		"uri":"data:application/octet-stream;base64,",
		"byteLength":472
	},
	{
		"uri":"data:application/octet-stream;base64,",
		"byteLength":472
	},
	{
		"uri":"data:application/octet-stream;base64,",
		"byteLength":472
	},
	{
		"uri":"data:application/octet-stream;base64,",
		"byteLength":472
	},
	{
		"uri":"data:application/octet-stream;base64,",
		"byteLength":472
	},
	{
		"uri":"data:application/octet-stream;base64,",
		"byteLength":472
	},
	{
		"uri":"data:application/octet-stream;base64,",
		"byteLength":472
	},
	{
		"uri":"data:application/octet-stream;base64,",
		"byteLength":472
	},
	{
		"uri":"data:application/octet-stream;base64,",
		"byteLength":472
	}],
	"materials":[{
		"pbrMetallicRoughness":{
			"baseColorFactor":[0.20009999999999998,
			0.5685449999999999,
			0.87,
			1.0],
			"metallicFactor":1.0,
			"roughnessFactor":0.1
		},
		"emissiveFactor":[0.028400000000000024,
		0.48279999999999997,
		0.71],
		"alphaMode":"OPAQUE",
		"doubleSided":false,
		"name":"材质.4"
	},
	{
		"pbrMetallicRoughness":{
			"baseColorFactor":[0.74,
			0.36815,
			0.24419999999999998,
			1.0],
			"metallicFactor":1.0,
			"roughnessFactor":0.1
		},
		"emissiveFactor":[0.9400000000000001,
		0.11280000000000011,
		0.037600000000000039],
		"alphaMode":"OPAQUE",
		"doubleSided":false,
		"name":"楼2"
	}]
}