{
	"asset":{
		"version":"2.0",
		"generator":"Created using the official Cinema 4D glTF Exporter 1.000x290161"
	},
	"scenes":[{
		"nodes":[0]
	}],
	"nodes":[{
		"name":"9号楼",
		"translation":[14.496234893798829,
		8.145866394042969,
		130.00314331054688],
		"rotation":[0.0,
		0.0,
		0.0,
		-1.0],
		"scale":[1.0,
		1.0,
		1.0],
		"children":[1,
		3,
		5]
	},
	{
		"name":"build",
		"children":[2]
	},
	{
		"name":"subject",
		"translation":[-2.796128511428833,
		-11.778213500976563,
		26.587574005126954],
		"rotation":[0.0,
		0.0,
		0.0,
		-1.0],
		"scale":[1.0,
		1.0,
		1.0],
		"mesh":0
	},
	{
		"name":"mark",
		"translation":[0.5691949129104614,
		15.530588150024414,
		-0.10664081573486328],
		"rotation":[1.0,
		-6.123234262925839e-17,
		6.123234262925839e-17,
		-6.123234262925839e-17],
		"scale":[1.0,
		1.0,
		1.0],
		"children":[4]
	},
	{
		"name":"fire-mark",
		"translation":[0.0,
		-1.6968786791681954e-15,
		0.0],
		"rotation":[5.665538686387998e-16,
		0.0,
		0.0,
		-1.0],
		"scale":[1.0,
		1.0,
		1.0],
		"mesh":1
	},
	{
		"name":"fire",
		"translation":[-2.796128511428833,
		-11.778213500976563,
		26.587574005126954],
		"rotation":[0.0,
		0.0,
		0.0,
		-1.0],
		"scale":[1.0,
		1.0,
		1.0],
		"children":[6]
	},
	{
		"name":"0",
		"mesh":2
	}],
	"meshes":[{
		"primitives":[{
			"attributes":{
				"POSITION":1,
				"TEXCOORD_0":2
			},
			"indices":0,
			"material":0
		}]
	},
	{
		"primitives":[{
			"attributes":{
				"POSITION":4,
				"TEXCOORD_0":5
			},
			"indices":3,
			"material":1
		}]
	},
	{
		"primitives":[{
			"attributes":{
				"POSITION":7,
				"TEXCOORD_0":8
			},
			"indices":6,
			"material":1
		}]
	}],
	"accessors":[{
		"bufferView":0,
		"type":"SCALAR",
		"componentType":5123,
		"count":30792,
		"byteOffset":0,
		"min":[0],
		"max":[8490]
	},
	{
		"bufferView":1,
		"type":"VEC3",
		"componentType":5126,
		"count":8491,
		"byteOffset":0,
		"min":[-0.03276756778359413,
		5.461565971374512,
		-53.31199645996094],
		"max":[7.622666358947754,
		16.448469161987306,
		0.43679699301719668]
	},
	{
		"bufferView":1,
		"type":"VEC2",
		"componentType":5126,
		"count":8491,
		"byteOffset":12,
		"min":[0.0,
		0.0],
		"max":[1.0,
		1.0]
	},
	{
		"bufferView":2,
		"type":"SCALAR",
		"componentType":5123,
		"count":18,
		"byteOffset":0,
		"min":[0],
		"max":[7]
	},
	{
		"bufferView":3,
		"type":"VEC3",
		"componentType":5126,
		"count":8,
		"byteOffset":0,
		"min":[-2.92252254486084,
		-2.92252254486084,
		-2.92252254486084],
		"max":[2.92252254486084,
		2.92252254486084,
		2.92252254486084]
	},
	{
		"bufferView":3,
		"type":"VEC2",
		"componentType":5126,
		"count":8,
		"byteOffset":12,
		"min":[0.0,
		0.0],
		"max":[1.0,
		1.0]
	},
	{
		"bufferView":4,
		"type":"SCALAR",
		"componentType":5123,
		"count":30792,
		"byteOffset":0,
		"min":[0],
		"max":[8490]
	},
	{
		"bufferView":5,
		"type":"VEC3",
		"componentType":5126,
		"count":8491,
		"byteOffset":0,
		"min":[-0.03276756778359413,
		5.461565971374512,
		-53.31199645996094],
		"max":[7.622666358947754,
		16.448469161987306,
		0.43679699301719668]
	},
	{
		"bufferView":5,
		"type":"VEC2",
		"componentType":5126,
		"count":8491,
		"byteOffset":12,
		"min":[0.0,
		0.0],
		"max":[1.0,
		1.0]
	}],
	"bufferViews":[{
		"buffer":0,
		"byteOffset":0,
		"byteLength":61584,
		"target":34963
	},
	{
		"buffer":0,
		"byteOffset":61584,
		"byteLength":169820,
		"target":34962,
		"byteStride":20
	},
	{
		"buffer":1,
		"byteOffset":0,
		"byteLength":36,
		"target":34963
	},
	{
		"buffer":1,
		"byteOffset":36,
		"byteLength":160,
		"target":34962,
		"byteStride":20
	},
	{
		"buffer":2,
		"byteOffset":0,
		"byteLength":61584,
		"target":34963
	},
	{
		"buffer":2,
		"byteOffset":61584,
		"byteLength":169820,
		"target":34962,
		"byteStride":20
	}],
	"buffers":[{
		"uri":"data:application/octet-stream;base64,",
		"byteLength":231404
	},
	{
		"uri":"data:application/octet-stream;base64,",
		"byteLength":196
	},
	{
		"uri":"data:application/octet-stream;base64,",
		"byteLength":231404
	}],
	"materials":[{
		"pbrMetallicRoughness":{
			"baseColorFactor":[0.20009999999999998,
			0.5685449999999999,
			0.87,
			1.0],
			"metallicFactor":0.79,
			"roughnessFactor":0.12
		},
		"emissiveFactor":[0.028400000000000024,
		0.34648000000000009,
		0.71],
		"alphaMode":"OPAQUE",
		"doubleSided":false,
		"name":"楼2"
	},
	{
		"pbrMetallicRoughness":{
			"baseColorFactor":[0.74,
			0.36815,
			0.24419999999999998,
			1.0],
			"metallicFactor":1.0,
			"roughnessFactor":0.1
		},
		"emissiveFactor":[0.9400000000000001,
		0.11280000000000011,
		0.037600000000000039],
		"alphaMode":"OPAQUE",
		"doubleSided":false,
		"name":"楼2"
	}]
}