{
	"asset":{
		"version":"2.0",
		"generator":"Created using the official Cinema 4D glTF Exporter 1.000x284978"
	},
	"scenes":[{
		"nodes":[0]
	}],
	"textures":[{
		"sampler":0,
		"source":0
	}],
	"nodes":[{
		"children":[1,
		2,
		3,
		4,
		5],
		"name":"A2-1.obj"
	},
	{
		"name":"Rectangle05",
		"translation":[227.3514862060547,
		-325.8844299316406,
		853.713623046875],
		"rotation":[0.0,
		0.0,
		0.0,
		-1.0],
		"scale":[1.0,
		1.0,
		1.0],
		"mesh":0
	},
	{
		"name":"Rectangle07",
		"translation":[-124.65070343017578,
		640.4456787109375,
		31.03447914123535],
		"rotation":[0.0,
		0.0,
		0.0,
		-1.0],
		"scale":[1.0,
		1.0,
		1.0],
		"mesh":1
	},
	{
		"name":"Rectangle02",
		"translation":[1123.6282958984376,
		254.5611114501953,
		840.5304565429688],
		"rotation":[0.0,
		0.0,
		0.0,
		-1.0],
		"scale":[1.0,
		1.0,
		1.0],
		"mesh":2
	},
	{
		"name":"Rectangle03",
		"translation":[-338.9234924316406,
		-9.27604866027832,
		-1029.982666015625],
		"rotation":[0.0,
		0.0,
		0.0,
		-1.0],
		"scale":[1.0,
		1.0,
		1.0],
		"mesh":3
	},
	{
		"name":"Line03",
		"translation":[308.3812255859375,
		278.8421630859375,
		929.0626220703125],
		"rotation":[0.0,
		0.0,
		0.0,
		-1.0],
		"scale":[1.0,
		1.0,
		1.0],
		"mesh":4
	}],
	"meshes":[{
		"name":"Rectangle05",
		"primitives":[{
			"attributes":{
				"POSITION":1
			},
			"indices":0
		}]
	},
	{
		"name":"Rectangle07",
		"primitives":[{
			"attributes":{
				"POSITION":3,
				"TEXCOORD_0":4
			},
			"indices":2,
			"material":0
		}]
	},
	{
		"name":"Rectangle02",
		"primitives":[{
			"attributes":{
				"POSITION":6
			},
			"indices":5
		}]
	},
	{
		"name":"Rectangle03",
		"primitives":[{
			"attributes":{
				"POSITION":8,
				"TEXCOORD_0":9
			},
			"indices":7,
			"material":1
		}]
	},
	{
		"name":"Line03",
		"primitives":[{
			"attributes":{
				"POSITION":11
			},
			"indices":10
		}]
	}],
	"accessors":[{
		"bufferView":0,
		"type":"SCALAR",
		"componentType":5123,
		"count":72,
		"min":[0],
		"byteOffset":0,
		"max":[15]
	},
	{
		"bufferView":1,
		"type":"VEC3",
		"componentType":5126,
		"count":16,
		"min":[-1063.0,
		299.99993896484377,
		-290.499755859375],
		"byteOffset":0,
		"max":[935.0,
		315.0,
		310.5000915527344]
	},
	{
		"bufferView":2,
		"type":"SCALAR",
		"componentType":5123,
		"count":3000,
		"min":[0],
		"byteOffset":0,
		"max":[543]
	},
	{
		"bufferView":3,
		"type":"VEC3",
		"componentType":5126,
		"count":544,
		"min":[-935.0,
		300.0,
		-310.49981689453127],
		"byteOffset":0,
		"max":[935.0,
		574.0,
		302.50006103515627]
	},
	{
		"bufferView":3,
		"type":"VEC2",
		"componentType":5126,
		"count":544,
		"min":[0.0,
		8.881784197001253e-16],
		"byteOffset":12,
		"max":[1.0,
		1.0]
	},
	{
		"bufferView":4,
		"type":"SCALAR",
		"componentType":5123,
		"count":72,
		"min":[0],
		"byteOffset":0,
		"max":[15]
	},
	{
		"bufferView":5,
		"type":"VEC3",
		"componentType":5126,
		"count":16,
		"min":[-935.0,
		0.0,
		-290.4998474121094],
		"byteOffset":0,
		"max":[935.0,
		19.0,
		310.50018310546877]
	},
	{
		"bufferView":6,
		"type":"SCALAR",
		"componentType":5123,
		"count":3132,
		"min":[0],
		"byteOffset":0,
		"max":[571]
	},
	{
		"bufferView":7,
		"type":"VEC3",
		"componentType":5126,
		"count":572,
		"min":[-935.0,
		0.0,
		-310.49981689453127],
		"byteOffset":0,
		"max":[935.0,
		300.0,
		302.50006103515627]
	},
	{
		"bufferView":7,
		"type":"VEC2",
		"componentType":5126,
		"count":572,
		"min":[0.0,
		1.1102230246251566e-16],
		"byteOffset":12,
		"max":[1.0,
		1.0]
	},
	{
		"bufferView":8,
		"type":"SCALAR",
		"componentType":5123,
		"count":48,
		"min":[0],
		"byteOffset":0,
		"max":[9]
	},
	{
		"bufferView":9,
		"type":"VEC3",
		"componentType":5126,
		"count":10,
		"min":[-940.0001220703125,
		573.9998779296875,
		-322.49822998046877],
		"byteOffset":0,
		"max":[940.0,
		626.0,
		319.5021057128906]
	}],
	"bufferViews":[{
		"buffer":0,
		"byteOffset":0,
		"byteLength":144,
		"target":34963
	},
	{
		"buffer":0,
		"byteOffset":144,
		"byteLength":192,
		"target":34962
	},
	{
		"buffer":1,
		"byteOffset":0,
		"byteLength":6000,
		"target":34963
	},
	{
		"buffer":1,
		"byteOffset":6000,
		"byteLength":10880,
		"target":34962,
		"byteStride":20
	},
	{
		"buffer":2,
		"byteOffset":0,
		"byteLength":144,
		"target":34963
	},
	{
		"buffer":2,
		"byteOffset":144,
		"byteLength":192,
		"target":34962
	},
	{
		"buffer":3,
		"byteOffset":0,
		"byteLength":6264,
		"target":34963
	},
	{
		"buffer":3,
		"byteOffset":6264,
		"byteLength":11440,
		"target":34962,
		"byteStride":20
	},
	{
		"buffer":4,
		"byteOffset":0,
		"byteLength":96,
		"target":34963
	},
	{
		"buffer":4,
		"byteOffset":96,
		"byteLength":120,
		"target":34962
	}],
	"buffers":[{
		"uri":"data:application/octet-stream;base64,",
		"byteLength":336
	},
	{
		"uri":"data:application/octet-stream;base64,",
		"byteLength":16880
	},
	{
		"uri":"data:application/octet-stream;base64,",
		"byteLength":336
	},
	{
		"uri":"data:application/octet-stream;base64,",
		"byteLength":17704
	},
	{
		"uri":"data:application/octet-stream;base64,",
		"byteLength":216
	}],
	"samplers":[{
		"magFilter":9729,
		"wrapS":10497,
		"minFilter":9729,
		"wrapT":10497
	}],
	"images":[{
		"uri":"data:image/jpeg;base64,"
	}],
	"materials":[{
		"pbrMetallicRoughness":{
			"baseColorTexture":{
				"index":0
			},
			"baseColorFactor":[1.0,
			1.0,
			1.0,
			1.0],
			"metallicFactor":0.0,
			"roughnessFactor":0.9
		},
		"emissiveFactor":[0.0,
		0.0,
		0.0],
		"alphaMode":"OPAQUE",
		"doubleSided":true,
		"name":""
	},
	{
		"pbrMetallicRoughness":{
			"baseColorFactor":[1.0,
			0.0,
			0.0,
			1.0],
			"metallicFactor":0.5,
			"roughnessFactor":0.9
		},
		"emissiveFactor":[0.0,
		0.0,
		0.0],
		"alphaMode":"OPAQUE",
		"doubleSided":true,
		"name":".1"
	}]
}