{"asset":{"version":"2.0","generator":"Created using the official Cinema 4D glTF Exporter 1.000x290161"},"scenes":[{"nodes":[0]}],"nodes":[{"name":"build1","translation":[17.963476181030273,12.93973159790039,199.2789764404297],"rotation":[0,0,0,-1],"scale":[1,1,1],"children":[1,3,5]},{"name":"build","translation":[0.9184650182723999,-6.430963039398193,0.4149695038795471],"rotation":[0,0,0,-1],"scale":[1,1,1],"children":[2]},{"name":"subject","mesh":0},{"name":"mark","translation":[-0.9184650182723999,6.430963039398193,-0.4149695038795471],"rotation":[1,-6.123234262925839e-17,6.123234262925839e-17,-6.123234262925839e-17],"scale":[1,1,1],"children":[4]},{"name":"fire-mark","translation":[0,5.151782498933927e-16,0],"rotation":[5.665538686387998e-16,0,0,-1],"scale":[1,1,1],"mesh":1},{"name":"fire","translation":[0.9184650182723999,-6.430963039398193,0.4149695038795471],"rotation":[0,0,0,-1],"scale":[1,1,1],"children":[6]},{"name":"0","mesh":2}],"meshes":[{"primitives":[{"attributes":{"POSITION":1},"indices":0,"material":0}]},{"primitives":[{"attributes":{"POSITION":3,"TEXCOORD_0":4},"indices":2,"material":1}]},{"primitives":[{"attributes":{"POSITION":6},"indices":5,"material":1}]}],"accessors":[{"bufferView":0,"type":"SCALAR","componentType":5123,"count":6252,"byteOffset":0,"min":[0],"max":[1195]},{"bufferView":1,"type":"VEC3","componentType":5126,"count":1196,"byteOffset":0,"min":[-7.19288969039917,-4.5630412101745605,-7.740019798278809],"max":[2.613734722137451,5.302937984466553,7.774497032165527]},{"bufferView":2,"type":"SCALAR","componentType":5123,"count":18,"byteOffset":0,"min":[0],"max":[7]},{"bufferView":3,"type":"VEC3","componentType":5126,"count":8,"byteOffset":0,"min":[-2.21763277053833,-2.21763277053833,-2.21763277053833],"max":[2.21763277053833,2.21763277053833,2.21763277053833]},{"bufferView":3,"type":"VEC2","componentType":5126,"count":8,"byteOffset":12,"min":[0,0],"max":[1,1]},{"bufferView":4,"type":"SCALAR","componentType":5123,"count":6252,"byteOffset":0,"min":[0],"max":[1195]},{"bufferView":5,"type":"VEC3","componentType":5126,"count":1196,"byteOffset":0,"min":[-7.19288969039917,-4.5630412101745605,-7.740019798278809],"max":[2.613734722137451,5.302937984466553,7.774497032165527]}],"bufferViews":[{"buffer":0,"byteOffset":0,"byteLength":12504,"target":34963},{"buffer":0,"byteOffset":12504,"byteLength":14352,"target":34962},{"buffer":1,"byteOffset":0,"byteLength":36,"target":34963},{"buffer":1,"byteOffset":36,"byteLength":160,"target":34962,"byteStride":20},{"buffer":2,"byteOffset":0,"byteLength":12504,"target":34963},{"buffer":2,"byteOffset":12504,"byteLength":14352,"target":34962}],"buffers":[{"uri":"data:application/octet-stream;base64,","byteLength":26856},{"uri":"data:application/octet-stream;base64,","byteLength":196},{"uri":"data:application/octet-stream;base64,","byteLength":26856}],"materials":[{"pbrMetallicRoughness":{"baseColorFactor":[0.20009999999999997,0.5685449999999999,0.87,1],"metallicFactor":0.79,"roughnessFactor":0.12},"emissiveFactor":[0.028400000000000022,0.34648000000000007,0.71],"alphaMode":"OPAQUE","doubleSided":false,"name":"2"},{"pbrMetallicRoughness":{"baseColorFactor":[0.74,0.36815,0.24419999999999997,1],"metallicFactor":1,"roughnessFactor":0.1},"emissiveFactor":[0.9400000000000001,0.11280000000000011,0.037600000000000036],"alphaMode":"OPAQUE","doubleSided":false,"name":"2"}]}