{
  "asset": {
    "version": "2.0",
    "generator": "Created using the official Cinema 4D glTF Exporter 1.000x290161"
  },
  "scenes": [
    {
      "nodes": [
        0
      ]
    }
  ],
  "nodes": [
    {
      "name": "build21",
      "translation": [
        21.249223709106445,
        6.548837661743164,
        42.534698486328125
      ],
      "rotation": [
        0,
        0,
        0,
        -1
      ],
      "scale": [
        1,
        1,
        1
      ],
      "children": [
        1,
        3,
        5
      ]
    },
    {
      "name": "build",
      "children": [
        2
      ]
    },
    {
      "name": "subject",
      "translation": [
        -20.59095001220703,
        1.681670904159546,
        -1.094020962715149
      ],
      "rotation": [
        0,
        -1.2246468525851679e-16,
        0,
        -1
      ],
      "scale": [
        1,
        1,
        1
      ],
      "mesh": 0
    },
    {
      "name": "mark",
      "translation": [
        -22.17228126525879,
        17.12761688232422,
        0.6799489855766296
      ],
      "rotation": [
        1,
        -6.123234262925839e-17,
        6.123234262925839e-17,
        -6.123234262925839e-17
      ],
      "scale": [
        1,
        1,
        1
      ],
      "children": [
        4
      ]
    },
    {
      "name": "fire-mark",
      "translation": [
        0,
        -1.7395541048749984e-15,
        0
      ],
      "rotation": [
        5.665538686387998e-16,
        0,
        0,
        -1
      ],
      "scale": [
        1,
        1,
        1
      ],
      "mesh": 1
    },
    {
      "name": "fire",
      "translation": [
        -20.59095001220703,
        1.681670904159546,
        -1.094020962715149
      ],
      "rotation": [
        0,
        -1.2246468525851679e-16,
        0,
        -1
      ],
      "scale": [
        1,
        1,
        1
      ],
      "children": [
        6
      ]
    },
    {
      "name": "0",
      "translation": [
        -4.7008700681168164e-17,
        0,
        0
      ],
      "rotation": [
        0,
        -1.2246468525851679e-16,
        0,
        -1
      ],
      "scale": [
        1,
        1,
        1
      ],
      "mesh": 2
    }
  ],
  "meshes": [
    {
      "primitives": [
        {
          "attributes": {
            "POSITION": 1,
            "TEXCOORD_0": 2
          },
          "indices": 0,
          "material": 0
        }
      ]
    },
    {
      "primitives": [
        {
          "attributes": {
            "POSITION": 4,
            "TEXCOORD_0": 5
          },
          "indices": 3,
          "material": 1
        }
      ]
    },
    {
      "primitives": [
        {
          "attributes": {
            "POSITION": 7,
            "TEXCOORD_0": 8
          },
          "indices": 6,
          "material": 1
        }
      ]
    }
  ],
  "accessors": [
    {
      "bufferView": 0,
      "type": "SCALAR",
      "componentType": 5123,
      "count": 18960,
      "byteOffset": 0,
      "min": [
        0
      ],
      "max": [
        10495
      ]
    },
    {
      "bufferView": 1,
      "type": "VEC3",
      "componentType": 5126,
      "count": 10496,
      "byteOffset": 0,
      "min": [
        -31.037273406982422,
        -6.396612167358398,
        -9.736416816711426
      ],
      "max": [
        29.685535430908203,
        6.263476848602295,
        9.117074012756348
      ]
    },
    {
      "bufferView": 1,
      "type": "VEC2",
      "componentType": 5126,
      "count": 10496,
      "byteOffset": 12,
      "min": [
        0,
        0
      ],
      "max": [
        1,
        1
      ]
    },
    {
      "bufferView": 2,
      "type": "SCALAR",
      "componentType": 5123,
      "count": 18,
      "byteOffset": 0,
      "min": [
        0
      ],
      "max": [
        7
      ]
    },
    {
      "bufferView": 3,
      "type": "VEC3",
      "componentType": 5126,
      "count": 8,
      "byteOffset": 0,
      "min": [
        -2.92252254486084,
        -2.92252254486084,
        -2.92252254486084
      ],
      "max": [
        2.92252254486084,
        2.92252254486084,
        2.92252254486084
      ]
    },
    {
      "bufferView": 3,
      "type": "VEC2",
      "componentType": 5126,
      "count": 8,
      "byteOffset": 12,
      "min": [
        0,
        0
      ],
      "max": [
        1,
        1
      ]
    },
    {
      "bufferView": 4,
      "type": "SCALAR",
      "componentType": 5123,
      "count": 18960,
      "byteOffset": 0,
      "min": [
        0
      ],
      "max": [
        10495
      ]
    },
    {
      "bufferView": 5,
      "type": "VEC3",
      "componentType": 5126,
      "count": 10496,
      "byteOffset": 0,
      "min": [
        -31.037273406982422,
        -6.396612167358398,
        -9.736416816711426
      ],
      "max": [
        29.685535430908203,
        6.263476848602295,
        9.117074012756348
      ]
    },
    {
      "bufferView": 5,
      "type": "VEC2",
      "componentType": 5126,
      "count": 10496,
      "byteOffset": 12,
      "min": [
        0,
        0
      ],
      "max": [
        1,
        1
      ]
    }
  ],
  "bufferViews": [
    {
      "buffer": 0,
      "byteOffset": 0,
      "byteLength": 37920,
      "target": 34963
    },
    {
      "buffer": 0,
      "byteOffset": 37920,
      "byteLength": 209920,
      "target": 34962,
      "byteStride": 20
    },
    {
      "buffer": 1,
      "byteOffset": 0,
      "byteLength": 36,
      "target": 34963
    },
    {
      "buffer": 1,
      "byteOffset": 36,
      "byteLength": 160,
      "target": 34962,
      "byteStride": 20
    },
    {
      "buffer": 2,
      "byteOffset": 0,
      "byteLength": 37920,
      "target": 34963
    },
    {
      "buffer": 2,
      "byteOffset": 37920,
      "byteLength": 209920,
      "target": 34962,
      "byteStride": 20
    }
  ],
  "buffers": [
    {
      "uri": "data:application/octet-stream;base64,",
      "byteLength": 247840
    },
    {
      "uri": "data:application/octet-stream;base64,",
      "byteLength": 196
    },
    {
      "uri": "data:application/octet-stream;base64,",
      "byteLength": 247840
    }
  ],
  "materials": [
    {
      "pbrMetallicRoughness": {
        "baseColorFactor": [
          0.20009999999999997,
          0.5685449999999999,
          0.87,
          1
        ],
        "metallicFactor": 1,
        "roughnessFactor": 0.1
      },
      "emissiveFactor": [
        0.028400000000000022,
        0.48279999999999995,
        0.71
      ],
      "alphaMode": "OPAQUE",
      "doubleSided": false,
      "name": ".4"
    },
    {
      "pbrMetallicRoughness": {
        "baseColorFactor": [
          0.74,
          0.36815,
          0.24419999999999997,
          1
        ],
        "metallicFactor": 1,
        "roughnessFactor": 0.1
      },
      "emissiveFactor": [
        0.9400000000000001,
        0.11280000000000011,
        0.037600000000000036
      ],
      "alphaMode": "OPAQUE",
      "doubleSided": false,
      "name": "2"
    }
  ]
}
