{"asset":{"version":"2.0","generator":"Created using the official Cinema 4D glTF Exporter 1.000x290161"},"scenes":[{"nodes":[0]}],"nodes":[{"name":"build3","translation":[98.44745635986328,28.374399185180664,184.4546356201172],"rotation":[0,0,0,-1],"scale":[1,1,1],"children":[1,3,12,14]},{"name":"build","translation":[-10.040618896484375,-8.284092903137207,-21.820768356323242],"rotation":[0,0,0,-1],"scale":[1,1,1],"children":[2]},{"name":"subject","translation":[-34.0905647277832,-2.429797410964966,-56.670982360839844],"rotation":[0,0,0,-1],"scale":[1,1,1],"mesh":0},{"name":"fire","translation":[4.600079536437988,-17.766815185546875,15.561033248901367],"rotation":[0,0,0,-1],"scale":[1,1,1],"children":[4,5,6,7,8,9,10,11]},{"name":"-100","translation":[0.7510470747947693,-13.538243293762207,-14.515323638916016],"rotation":[0,0,0,-1],"scale":[1,1,1],"mesh":1},{"name":"100","translation":[0.17582187056541443,-4.93567419052124,-13.625557899475098],"rotation":[0,0,0,-1],"scale":[1,1,1],"mesh":2},{"name":"200","translation":[0.17582187056541443,0.2376646250486374,-13.625557899475098],"rotation":[0,0,0,-1],"scale":[1,1,1],"mesh":3},{"name":"300","translation":[0.17582187056541443,6.619248867034912,-13.625557899475098],"rotation":[0,0,0,-1],"scale":[1,1,1],"mesh":4},{"name":"400","translation":[0.17582187056541443,10.356143951416016,-13.625557899475098],"rotation":[0,0,0,-1],"scale":[1,1,1],"mesh":5},{"name":"500","translation":[0.17582187056541443,14.23460578918457,-13.625557899475098],"rotation":[0,0,0,-1],"scale":[1,1,1],"mesh":6},{"name":"10001","translation":[0.7479386925697327,18.86259651184082,-13.076583862304688],"rotation":[0,0,0,-1],"scale":[1,1,1],"mesh":7},{"name":"201","translation":[0.17582187056541443,3.061872959136963,-13.625557899475098],"rotation":[0,0,0,-1],"scale":[1,1,1],"mesh":8},{"name":"mark","translation":[5.4405388832092285,25.91702651977539,6.259734153747559],"rotation":[1,-6.123234262925839e-17,6.123234262925839e-17,-6.123234262925839e-17],"scale":[1,1,1],"children":[13]},{"name":"fire-mark","translation":[0,-2.0394927066624824e-15,0],"rotation":[5.665538686387998e-16,0,0,-1],"scale":[1,1,1],"mesh":9},{"name":"3号楼","translation":[-10.040618896484375,-8.150211334228516,-21.820768356323242],"rotation":[0,0,0,-1],"scale":[1,1,1],"children":[15]},{"name":"前窗户","translation":[-34.0905647277832,-2.429797410964966,-56.670982360839844],"rotation":[0,0,0,-1],"scale":[1,1,1],"mesh":10}],"meshes":[{"primitives":[{"attributes":{"POSITION":1,"TEXCOORD_0":2},"indices":0,"material":0}]},{"primitives":[{"attributes":{"POSITION":4,"TEXCOORD_0":5},"indices":3,"material":1}]},{"primitives":[{"attributes":{"POSITION":7,"TEXCOORD_0":8},"indices":6,"material":1}]},{"primitives":[{"attributes":{"POSITION":10,"TEXCOORD_0":11},"indices":9,"material":1}]},{"primitives":[{"attributes":{"POSITION":13,"TEXCOORD_0":14},"indices":12,"material":1}]},{"primitives":[{"attributes":{"POSITION":16,"TEXCOORD_0":17},"indices":15,"material":1}]},{"primitives":[{"attributes":{"POSITION":19,"TEXCOORD_0":20},"indices":18,"material":1}]},{"primitives":[{"attributes":{"POSITION":22,"TEXCOORD_0":23},"indices":21,"material":1}]},{"primitives":[{"attributes":{"POSITION":25,"TEXCOORD_0":26},"indices":24,"material":1}]},{"primitives":[{"attributes":{"POSITION":28,"TEXCOORD_0":29},"indices":27,"material":1}]},{"primitives":[{"attributes":{"POSITION":31,"TEXCOORD_0":32},"indices":30,"material":0}]}],"accessors":[{"bufferView":0,"type":"SCALAR","componentType":5123,"count":17634,"byteOffset":0,"min":[0],"max":[8072]},{"bufferView":1,"type":"VEC3","componentType":5126,"count":8073,"byteOffset":0,"min":[39.07576370239258,-15.702620506286621,54.85630798339844],"max":[58.41310501098633,13.948214530944824,107.4528579711914]},{"bufferView":1,"type":"VEC2","componentType":5126,"count":8073,"byteOffset":12,"min":[0,0],"max":[1,1]},{"bufferView":2,"type":"SCALAR","componentType":5123,"count":36,"byteOffset":0,"min":[0],"max":[19]},{"bufferView":3,"type":"VEC3","componentType":5126,"count":20,"byteOffset":0,"min":[-9.81066608428955,-4.827904224395752,-24.41597557067871],"max":[9.81066608428955,4.827904224395752,24.41597557067871]},{"bufferView":3,"type":"VEC2","componentType":5126,"count":20,"byteOffset":12,"min":[0,0],"max":[1,1]},{"bufferView":4,"type":"SCALAR","componentType":5123,"count":36,"byteOffset":0,"min":[0],"max":[19]},{"bufferView":5,"type":"VEC3","componentType":5126,"count":20,"byteOffset":0,"min":[-9.824185371398926,-3.3782846927642822,-26.311668395996094],"max":[9.824185371398926,3.3782846927642822,26.311668395996094]},{"bufferView":5,"type":"VEC2","componentType":5126,"count":20,"byteOffset":12,"min":[0,0],"max":[1,1]},{"bufferView":6,"type":"SCALAR","componentType":5123,"count":36,"byteOffset":0,"min":[0],"max":[19]},{"bufferView":7,"type":"VEC3","componentType":5126,"count":20,"byteOffset":0,"min":[-9.824185371398926,-1.1381490230560303,-26.311668395996094],"max":[9.824185371398926,1.1381490230560303,26.311668395996094]},{"bufferView":7,"type":"VEC2","componentType":5126,"count":20,"byteOffset":12,"min":[0,0],"max":[1,1]},{"bufferView":8,"type":"SCALAR","componentType":5123,"count":36,"byteOffset":0,"min":[0],"max":[19]},{"bufferView":9,"type":"VEC3","componentType":5126,"count":20,"byteOffset":0,"min":[-9.824185371398926,-1.7935258150100708,-26.311668395996094],"max":[9.824185371398926,1.7935258150100708,26.311668395996094]},{"bufferView":9,"type":"VEC2","componentType":5126,"count":20,"byteOffset":12,"min":[0,0],"max":[1,1]},{"bufferView":10,"type":"SCALAR","componentType":5123,"count":36,"byteOffset":0,"min":[0],"max":[19]},{"bufferView":11,"type":"VEC3","componentType":5126,"count":20,"byteOffset":0,"min":[-9.824185371398926,-1.7935258150100708,-26.311668395996094],"max":[9.824185371398926,1.7935258150100708,26.311668395996094]},{"bufferView":11,"type":"VEC2","componentType":5126,"count":20,"byteOffset":12,"min":[0,0],"max":[1,1]},{"bufferView":12,"type":"SCALAR","componentType":5123,"count":36,"byteOffset":0,"min":[0],"max":[19]},{"bufferView":13,"type":"VEC3","componentType":5126,"count":20,"byteOffset":0,"min":[-9.824185371398926,-1.7935258150100708,-26.311668395996094],"max":[9.824185371398926,1.7935258150100708,26.311668395996094]},{"bufferView":13,"type":"VEC2","componentType":5126,"count":20,"byteOffset":12,"min":[0,0],"max":[1,1]},{"bufferView":14,"type":"SCALAR","componentType":5123,"count":180,"byteOffset":0,"min":[0],"max":[99]},{"bufferView":15,"type":"VEC3","componentType":5126,"count":100,"byteOffset":0,"min":[-8.542525291442871,-2.2009384632110596,-25.17333984375],"max":[8.542525291442871,2.395685911178589,25.17333984375]},{"bufferView":15,"type":"VEC2","componentType":5126,"count":100,"byteOffset":12,"min":[0,0],"max":[1,1]},{"bufferView":16,"type":"SCALAR","componentType":5123,"count":36,"byteOffset":0,"min":[0],"max":[19]},{"bufferView":17,"type":"VEC3","componentType":5126,"count":20,"byteOffset":0,"min":[-9.824185371398926,-1.1381490230560303,-26.311668395996094],"max":[9.824185371398926,1.1381490230560303,26.311668395996094]},{"bufferView":17,"type":"VEC2","componentType":5126,"count":20,"byteOffset":12,"min":[0,0],"max":[1,1]},{"bufferView":18,"type":"SCALAR","componentType":5123,"count":18,"byteOffset":0,"min":[0],"max":[7]},{"bufferView":19,"type":"VEC3","componentType":5126,"count":8,"byteOffset":0,"min":[-5,-5,-5],"max":[5,5,5]},{"bufferView":19,"type":"VEC2","componentType":5126,"count":8,"byteOffset":12,"min":[0,0],"max":[1,1]},{"bufferView":20,"type":"SCALAR","componentType":5123,"count":17634,"byteOffset":0,"min":[0],"max":[8072]},{"bufferView":21,"type":"VEC3","componentType":5126,"count":8073,"byteOffset":0,"min":[39.07576370239258,-15.702620506286621,54.85630798339844],"max":[58.41310501098633,13.948214530944824,107.4528579711914]},{"bufferView":21,"type":"VEC2","componentType":5126,"count":8073,"byteOffset":12,"min":[0,0],"max":[1,1]}],"bufferViews":[{"buffer":0,"byteOffset":0,"byteLength":35268,"target":34963},{"buffer":0,"byteOffset":35268,"byteLength":161460,"target":34962,"byteStride":20},{"buffer":1,"byteOffset":0,"byteLength":72,"target":34963},{"buffer":1,"byteOffset":72,"byteLength":400,"target":34962,"byteStride":20},{"buffer":2,"byteOffset":0,"byteLength":72,"target":34963},{"buffer":2,"byteOffset":72,"byteLength":400,"target":34962,"byteStride":20},{"buffer":3,"byteOffset":0,"byteLength":72,"target":34963},{"buffer":3,"byteOffset":72,"byteLength":400,"target":34962,"byteStride":20},{"buffer":4,"byteOffset":0,"byteLength":72,"target":34963},{"buffer":4,"byteOffset":72,"byteLength":400,"target":34962,"byteStride":20},{"buffer":5,"byteOffset":0,"byteLength":72,"target":34963},{"buffer":5,"byteOffset":72,"byteLength":400,"target":34962,"byteStride":20},{"buffer":6,"byteOffset":0,"byteLength":72,"target":34963},{"buffer":6,"byteOffset":72,"byteLength":400,"target":34962,"byteStride":20},{"buffer":7,"byteOffset":0,"byteLength":360,"target":34963},{"buffer":7,"byteOffset":360,"byteLength":2000,"target":34962,"byteStride":20},{"buffer":8,"byteOffset":0,"byteLength":72,"target":34963},{"buffer":8,"byteOffset":72,"byteLength":400,"target":34962,"byteStride":20},{"buffer":9,"byteOffset":0,"byteLength":36,"target":34963},{"buffer":9,"byteOffset":36,"byteLength":160,"target":34962,"byteStride":20},{"buffer":10,"byteOffset":0,"byteLength":35268,"target":34963},{"buffer":10,"byteOffset":35268,"byteLength":161460,"target":34962,"byteStride":20}],"buffers":[{"uri":"data:application/octet-stream;base64,","byteLength":196728},{"uri":"data:application/octet-stream;base64,","byteLength":472},{"uri":"data:application/octet-stream;base64,","byteLength":472},{"uri":"data:application/octet-stream;base64,","byteLength":472},{"uri":"data:application/octet-stream;base64,","byteLength":472},{"uri":"data:application/octet-stream;base64,","byteLength":472},{"uri":"data:application/octet-stream;base64,","byteLength":472},{"uri":"data:application/octet-stream;base64,","byteLength":2360},{"uri":"data:application/octet-stream;base64,","byteLength":472},{"uri":"data:application/octet-stream;base64,","byteLength":196},{"uri":"data:application/octet-stream;base64,","byteLength":196728}],"materials":[{"pbrMetallicRoughness":{"baseColorFactor":[0.20009999999999997,0.5685449999999999,0.87,1],"metallicFactor":0.03,"roughnessFactor":0.63},"emissiveFactor":[0.028400000000000022,0.71,0.5736799999999999],"alphaMode":"OPAQUE","doubleSided":false,"name":"楼2"},{"pbrMetallicRoughness":{"baseColorFactor":[0.74,0.36815,0.24419999999999997,1],"metallicFactor":1,"roughnessFactor":0.1},"emissiveFactor":[0.9400000000000001,0.11280000000000011,0.037600000000000036],"alphaMode":"OPAQUE","doubleSided":false,"name":"楼2"}]}