{
  "asset": {
    "version": "2.0",
    "generator": "Created using the official Cinema 4D glTF Exporter 1.000x290161"
  },
  "scenes": [
    {
      "nodes": [
        0
      ]
    }
  ],
  "nodes": [
    {
      "name": "build11p",
      "translation": [
        81.81344604492188,
        7.037722587585449,
        100.04447174072266
      ],
      "rotation": [
        0,
        0,
        0,
        -1
      ],
      "scale": [
        1,
        1,
        1
      ],
      "children": [
        1,
        3,
        5
      ]
    },
    {
      "name": "build",
      "translation": [
        -1.3670538663864136,
        0,
        2.2245843410491943
      ],
      "rotation": [
        0,
        -0.7071067690849304,
        0,
        -0.7071067690849304
      ],
      "scale": [
        1,
        1,
        1
      ],
      "children": [
        2
      ]
    },
    {
      "name": "subject",
      "translation": [
        -0.5368304252624512,
        -0.4241611063480377,
        2.5054988861083984
      ],
      "rotation": [
        0,
        -2.4492937051703357e-16,
        0,
        -1
      ],
      "scale": [
        1,
        1,
        1
      ],
      "mesh": 0
    },
    {
      "name": "mark",
      "translation": [
        -0.11907672882080078,
        16.63873291015625,
        4.67254114151001
      ],
      "rotation": [
        1,
        -6.123234262925839e-17,
        6.123234262925839e-17,
        -6.123234262925839e-17
      ],
      "scale": [
        1,
        1,
        1
      ],
      "children": [
        4
      ]
    },
    {
      "name": "fire-mark",
      "translation": [
        0,
        -1.0955606725499478e-15,
        0
      ],
      "rotation": [
        5.665538686387998e-16,
        0,
        0,
        -1
      ],
      "scale": [
        1,
        1,
        1
      ],
      "mesh": 1
    },
    {
      "name": "fire",
      "translation": [
        1.1384451389312744,
        -0.4241611063480377,
        2.7614147663116455
      ],
      "rotation": [
        0,
        -0.7071067690849304,
        0,
        -0.7071067690849304
      ],
      "scale": [
        1,
        1,
        1
      ],
      "children": [
        6
      ]
    },
    {
      "name": "0",
      "translation": [
        0,
        0,
        6.2950451024579215e-15
      ],
      "rotation": [
        0,
        -2.4492937051703357e-16,
        0,
        -1
      ],
      "scale": [
        1,
        1,
        1
      ],
      "mesh": 2
    }
  ],
  "meshes": [
    {
      "primitives": [
        {
          "attributes": {
            "POSITION": 1,
            "TEXCOORD_0": 2
          },
          "indices": 0,
          "material": 0
        }
      ]
    },
    {
      "primitives": [
        {
          "attributes": {
            "POSITION": 4,
            "TEXCOORD_0": 5
          },
          "indices": 3,
          "material": 1
        }
      ]
    },
    {
      "primitives": [
        {
          "attributes": {
            "POSITION": 7,
            "TEXCOORD_0": 8
          },
          "indices": 6,
          "material": 1
        }
      ]
    }
  ],
  "accessors": [
    {
      "bufferView": 0,
      "type": "SCALAR",
      "componentType": 5123,
      "count": 1428,
      "byteOffset": 0,
      "min": [
        0
      ],
      "max": [
        771
      ]
    },
    {
      "bufferView": 1,
      "type": "VEC3",
      "componentType": 5126,
      "count": 772,
      "byteOffset": 0,
      "min": [
        -9.469243049621582,
        -4.616345405578613,
        -3.7062182426452637
      ],
      "max": [
        9.706443786621094,
        5.048783302307129,
        3.7087337970733643
      ]
    },
    {
      "bufferView": 1,
      "type": "VEC2",
      "componentType": 5126,
      "count": 772,
      "byteOffset": 12,
      "min": [
        0,
        0
      ],
      "max": [
        1,
        1
      ]
    },
    {
      "bufferView": 2,
      "type": "SCALAR",
      "componentType": 5123,
      "count": 18,
      "byteOffset": 0,
      "min": [
        0
      ],
      "max": [
        7
      ]
    },
    {
      "bufferView": 3,
      "type": "VEC3",
      "componentType": 5126,
      "count": 8,
      "byteOffset": 0,
      "min": [
        -2.92252254486084,
        -2.92252254486084,
        -2.92252254486084
      ],
      "max": [
        2.92252254486084,
        2.92252254486084,
        2.92252254486084
      ]
    },
    {
      "bufferView": 3,
      "type": "VEC2",
      "componentType": 5126,
      "count": 8,
      "byteOffset": 12,
      "min": [
        0,
        0
      ],
      "max": [
        1,
        1
      ]
    },
    {
      "bufferView": 4,
      "type": "SCALAR",
      "componentType": 5123,
      "count": 1428,
      "byteOffset": 0,
      "min": [
        0
      ],
      "max": [
        771
      ]
    },
    {
      "bufferView": 5,
      "type": "VEC3",
      "componentType": 5126,
      "count": 772,
      "byteOffset": 0,
      "min": [
        -9.469243049621582,
        -4.616345405578613,
        -3.7062182426452637
      ],
      "max": [
        9.706443786621094,
        5.048783302307129,
        3.7087337970733643
      ]
    },
    {
      "bufferView": 5,
      "type": "VEC2",
      "componentType": 5126,
      "count": 772,
      "byteOffset": 12,
      "min": [
        0,
        0
      ],
      "max": [
        1,
        1
      ]
    }
  ],
  "bufferViews": [
    {
      "buffer": 0,
      "byteOffset": 0,
      "byteLength": 2856,
      "target": 34963
    },
    {
      "buffer": 0,
      "byteOffset": 2856,
      "byteLength": 15440,
      "target": 34962,
      "byteStride": 20
    },
    {
      "buffer": 1,
      "byteOffset": 0,
      "byteLength": 36,
      "target": 34963
    },
    {
      "buffer": 1,
      "byteOffset": 36,
      "byteLength": 160,
      "target": 34962,
      "byteStride": 20
    },
    {
      "buffer": 2,
      "byteOffset": 0,
      "byteLength": 2856,
      "target": 34963
    },
    {
      "buffer": 2,
      "byteOffset": 2856,
      "byteLength": 15440,
      "target": 34962,
      "byteStride": 20
    }
  ],
  "buffers": [
    {
      "uri": "data:application/octet-stream;base64,",
      "byteLength": 18296
    },
    {
      "uri": "data:application/octet-stream;base64,",
      "byteLength": 196
    },
    {
      "uri": "data:application/octet-stream;base64,",
      "byteLength": 18296
    }
  ],
  "materials": [
    {
      "pbrMetallicRoughness": {
        "baseColorFactor": [
          0.20009999999999997,
          0.5685449999999999,
          0.87,
          1
        ],
        "metallicFactor": 0.79,
        "roughnessFactor": 0.12
      },
      "emissiveFactor": [
        0.028400000000000022,
        0.34648000000000007,
        0.71
      ],
      "alphaMode": "OPAQUE",
      "doubleSided": false,
      "name": "2"
    },
    {
      "pbrMetallicRoughness": {
        "baseColorFactor": [
          0.74,
          0.36815,
          0.24419999999999997,
          1
        ],
        "metallicFactor": 1,
        "roughnessFactor": 0.1
      },
      "emissiveFactor": [
        0.9400000000000001,
        0.11280000000000011,
        0.037600000000000036
      ],
      "alphaMode": "OPAQUE",
      "doubleSided": false,
      "name": "2"
    }
  ]
}
