{
  "asset": {
    "version": "2.0",
    "generator": "Created using the official Cinema 4D glTF Exporter 1.000x290161"
  },
  "scenes": [
    {
      "nodes": [
        0
      ]
    }
  ],
  "nodes": [
    {
      "name": "build3",
      "translation": [
        98.44745635986328,
        28.374399185180665,
        184.4546356201172
      ],
      "rotation": [
        0.0,
        0.0,
        0.0,
        -1.0
      ],
      "scale": [
        1.0,
        1.0,
        1.0
      ],
      "children": [
        1,
        3,
        12,
        14
      ]
    },
    {
      "name": "build",
      "translation": [
        -10.040618896484375,
        -8.284092903137207,
        -21.820768356323243
      ],
      "rotation": [
        0.0,
        0.0,
        0.0,
        -1.0
      ],
      "scale": [
        1.0,
        1.0,
        1.0
      ],
      "children": [
        2
      ]
    },
    {
      "name": "subject",
      "translation": [
        -34.0905647277832,
        -2.429797410964966,
        -56.670982360839847
      ],
      "rotation": [
        0.0,
        0.0,
        0.0,
        -1.0
      ],
      "scale": [
        1.0,
        1.0,
        1.0
      ],
      "mesh": 0
    },
    {
      "name": "fire",
      "translation": [
        4.600079536437988,
        -17.766815185546876,
        15.561033248901368
      ],
      "rotation": [
        0.0,
        0.0,
        0.0,
        -1.0
      ],
      "scale": [
        1.0,
        1.0,
        1.0
      ],
      "children": [
        4,
        5,
        6,
        7,
        8,
        9,
        10,
        11
      ]
    },
    {
      "name": "-100",
      "translation": [
        0.7510470747947693,
        -13.538243293762207,
        -14.515323638916016
      ],
      "rotation": [
        0.0,
        0.0,
        0.0,
        -1.0
      ],
      "scale": [
        1.0,
        1.0,
        1.0
      ],
      "mesh": 1
    },
    {
      "name": "100",
      "translation": [
        0.17582187056541444,
        -4.93567419052124,
        -13.625557899475098
      ],
      "rotation": [
        0.0,
        0.0,
        0.0,
        -1.0
      ],
      "scale": [
        1.0,
        1.0,
        1.0
      ],
      "mesh": 2
    },
    {
      "name": "200",
      "translation": [
        0.17582187056541444,
        0.2376646250486374,
        -13.625557899475098
      ],
      "rotation": [
        0.0,
        0.0,
        0.0,
        -1.0
      ],
      "scale": [
        1.0,
        1.0,
        1.0
      ],
      "mesh": 3
    },
    {
      "name": "300",
      "translation": [
        0.17582187056541444,
        6.619248867034912,
        -13.625557899475098
      ],
      "rotation": [
        0.0,
        0.0,
        0.0,
        -1.0
      ],
      "scale": [
        1.0,
        1.0,
        1.0
      ],
      "mesh": 4
    },
    {
      "name": "400",
      "translation": [
        0.17582187056541444,
        10.356143951416016,
        -13.625557899475098
      ],
      "rotation": [
        0.0,
        0.0,
        0.0,
        -1.0
      ],
      "scale": [
        1.0,
        1.0,
        1.0
      ],
      "mesh": 5
    },
    {
      "name": "500",
      "translation": [
        0.17582187056541444,
        14.23460578918457,
        -13.625557899475098
      ],
      "rotation": [
        0.0,
        0.0,
        0.0,
        -1.0
      ],
      "scale": [
        1.0,
        1.0,
        1.0
      ],
      "mesh": 6
    },
    {
      "name": "10001",
      "translation": [
        0.7479386925697327,
        18.86259651184082,
        -13.076583862304688
      ],
      "rotation": [
        0.0,
        0.0,
        0.0,
        -1.0
      ],
      "scale": [
        1.0,
        1.0,
        1.0
      ],
      "mesh": 7
    },
    {
      "name": "201",
      "translation": [
        0.17582187056541444,
        3.061872959136963,
        -13.625557899475098
      ],
      "rotation": [
        0.0,
        0.0,
        0.0,
        -1.0
      ],
      "scale": [
        1.0,
        1.0,
        1.0
      ],
      "mesh": 8
    },
    {
      "name": "mark",
      "translation": [
        5.4405388832092289,
        25.91702651977539,
        6.259734153747559
      ],
      "rotation": [
        1.0,
        -6.123234262925839e-17,
        6.123234262925839e-17,
        -6.123234262925839e-17
      ],
      "scale": [
        1.0,
        1.0,
        1.0
      ],
      "children": [
        13
      ]
    },
    {
      "name": "fire-mark",
      "translation": [
        0.0,
        -2.0394927066624825e-15,
        0.0
      ],
      "rotation": [
        5.665538686387998e-16,
        0.0,
        0.0,
        -1.0
      ],
      "scale": [
        1.0,
        1.0,
        1.0
      ],
      "mesh": 9
    },
    {
      "name": "3号楼",
      "translation": [
        -10.040618896484375,
        -8.150211334228516,
        -21.820768356323243
      ],
      "rotation": [
        0.0,
        0.0,
        0.0,
        -1.0
      ],
      "scale": [
        1.0,
        1.0,
        1.0
      ],
      "children": [
        15
      ]
    },
    {
      "name": "前窗户",
      "translation": [
        -34.0905647277832,
        -2.429797410964966,
        -56.670982360839847
      ],
      "rotation": [
        0.0,
        0.0,
        0.0,
        -1.0
      ],
      "scale": [
        1.0,
        1.0,
        1.0
      ],
      "mesh": 10
    }
  ],
  "meshes": [
    {
      "primitives": [
        {
          "attributes": {
            "POSITION": 1
          },
          "indices": 0,
          "material": 0
        }
      ]
    },
    {
      "primitives": [
        {
          "attributes": {
            "POSITION": 3
          },
          "indices": 2,
          "material": 1
        }
      ]
    },
    {
      "primitives": [
        {
          "attributes": {
            "POSITION": 5
          },
          "indices": 4,
          "material": 2
        }
      ]
    },
    {
      "primitives": [
        {
          "attributes": {
            "POSITION": 7
          },
          "indices": 6,
          "material": 3
        }
      ]
    },
    {
      "primitives": [
        {
          "attributes": {
            "POSITION": 9
          },
          "indices": 8,
          "material": 4
        }
      ]
    },
    {
      "primitives": [
        {
          "attributes": {
            "POSITION": 11
          },
          "indices": 10,
          "material": 5
        }
      ]
    },
    {
      "primitives": [
        {
          "attributes": {
            "POSITION": 13
          },
          "indices": 12,
          "material": 6
        }
      ]
    },
    {
      "primitives": [
        {
          "attributes": {
            "POSITION": 15
          },
          "indices": 14,
          "material": 7
        }
      ]
    },
    {
      "primitives": [
        {
          "attributes": {
            "POSITION": 17
          },
          "indices": 16,
          "material": 8
        }
      ]
    },
    {
      "primitives": [
        {
          "attributes": {
            "POSITION": 19,
            "TEXCOORD_0": 20
          },
          "indices": 18,
          "material": 9
        }
      ]
    },
    {
      "primitives": [
        {
          "attributes": {
            "POSITION": 22
          },
          "indices": 21,
          "material": 10
        }
      ]
    }
  ],
  "accessors": [
    {
      "min": [
        0
      ],
      "bufferView": 0,
      "type": "SCALAR",
      "componentType": 5123,
      "count": 17634,
      "byteOffset": 0,
      "max": [
        3638
      ]
    },
    {
      "min": [
        39.07576370239258,
        -15.702620506286621,
        54.85630798339844
      ],
      "bufferView": 1,
      "type": "VEC3",
      "componentType": 5126,
      "count": 3639,
      "byteOffset": 0,
      "max": [
        58.41310501098633,
        13.948214530944825,
        107.4528579711914
      ]
    },
    {
      "min": [
        0
      ],
      "bufferView": 2,
      "type": "SCALAR",
      "componentType": 5123,
      "count": 36,
      "byteOffset": 0,
      "max": [
        7
      ]
    },
    {
      "min": [
        -9.81066608428955,
        -4.827904224395752,
        -24.41597557067871
      ],
      "bufferView": 3,
      "type": "VEC3",
      "componentType": 5126,
      "count": 8,
      "byteOffset": 0,
      "max": [
        9.81066608428955,
        4.827904224395752,
        24.41597557067871
      ]
    },
    {
      "min": [
        0
      ],
      "bufferView": 4,
      "type": "SCALAR",
      "componentType": 5123,
      "count": 36,
      "byteOffset": 0,
      "max": [
        7
      ]
    },
    {
      "min": [
        -9.824185371398926,
        -3.3782846927642824,
        -26.311668395996095
      ],
      "bufferView": 5,
      "type": "VEC3",
      "componentType": 5126,
      "count": 8,
      "byteOffset": 0,
      "max": [
        9.824185371398926,
        3.3782846927642824,
        26.311668395996095
      ]
    },
    {
      "min": [
        0
      ],
      "bufferView": 6,
      "type": "SCALAR",
      "componentType": 5123,
      "count": 36,
      "byteOffset": 0,
      "max": [
        7
      ]
    },
    {
      "min": [
        -9.824185371398926,
        -1.1381490230560303,
        -26.311668395996095
      ],
      "bufferView": 7,
      "type": "VEC3",
      "componentType": 5126,
      "count": 8,
      "byteOffset": 0,
      "max": [
        9.824185371398926,
        1.1381490230560303,
        26.311668395996095
      ]
    },
    {
      "min": [
        0
      ],
      "bufferView": 8,
      "type": "SCALAR",
      "componentType": 5123,
      "count": 36,
      "byteOffset": 0,
      "max": [
        7
      ]
    },
    {
      "min": [
        -9.824185371398926,
        -1.7935258150100709,
        -26.311668395996095
      ],
      "bufferView": 9,
      "type": "VEC3",
      "componentType": 5126,
      "count": 8,
      "byteOffset": 0,
      "max": [
        9.824185371398926,
        1.7935258150100709,
        26.311668395996095
      ]
    },
    {
      "min": [
        0
      ],
      "bufferView": 10,
      "type": "SCALAR",
      "componentType": 5123,
      "count": 36,
      "byteOffset": 0,
      "max": [
        7
      ]
    },
    {
      "min": [
        -9.824185371398926,
        -1.7935258150100709,
        -26.311668395996095
      ],
      "bufferView": 11,
      "type": "VEC3",
      "componentType": 5126,
      "count": 8,
      "byteOffset": 0,
      "max": [
        9.824185371398926,
        1.7935258150100709,
        26.311668395996095
      ]
    },
    {
      "min": [
        0
      ],
      "bufferView": 12,
      "type": "SCALAR",
      "componentType": 5123,
      "count": 36,
      "byteOffset": 0,
      "max": [
        7
      ]
    },
    {
      "min": [
        -9.824185371398926,
        -1.7935258150100709,
        -26.311668395996095
      ],
      "bufferView": 13,
      "type": "VEC3",
      "componentType": 5126,
      "count": 8,
      "byteOffset": 0,
      "max": [
        9.824185371398926,
        1.7935258150100709,
        26.311668395996095
      ]
    },
    {
      "min": [
        0
      ],
      "bufferView": 14,
      "type": "SCALAR",
      "componentType": 5123,
      "count": 180,
      "byteOffset": 0,
      "max": [
        39
      ]
    },
    {
      "min": [
        -8.542525291442871,
        -2.2009384632110597,
        -25.17333984375
      ],
      "bufferView": 15,
      "type": "VEC3",
      "componentType": 5126,
      "count": 40,
      "byteOffset": 0,
      "max": [
        8.542525291442871,
        2.395685911178589,
        25.17333984375
      ]
    },
    {
      "min": [
        0
      ],
      "bufferView": 16,
      "type": "SCALAR",
      "componentType": 5123,
      "count": 36,
      "byteOffset": 0,
      "max": [
        7
      ]
    },
    {
      "min": [
        -9.824185371398926,
        -1.1381490230560303,
        -26.311668395996095
      ],
      "bufferView": 17,
      "type": "VEC3",
      "componentType": 5126,
      "count": 8,
      "byteOffset": 0,
      "max": [
        9.824185371398926,
        1.1381490230560303,
        26.311668395996095
      ]
    },
    {
      "min": [
        0
      ],
      "bufferView": 18,
      "type": "SCALAR",
      "componentType": 5123,
      "count": 18,
      "byteOffset": 0,
      "max": [
        7
      ]
    },
    {
      "min": [
        -5.0,
        -5.0,
        -5.0
      ],
      "bufferView": 19,
      "type": "VEC3",
      "componentType": 5126,
      "count": 8,
      "byteOffset": 0,
      "max": [
        5.0,
        5.0,
        5.0
      ]
    },
    {
      "min": [
        0.0,
        0.0
      ],
      "bufferView": 19,
      "type": "VEC2",
      "componentType": 5126,
      "count": 8,
      "byteOffset": 12,
      "max": [
        1.0,
        1.0
      ]
    },
    {
      "min": [
        0
      ],
      "bufferView": 20,
      "type": "SCALAR",
      "componentType": 5123,
      "count": 17634,
      "byteOffset": 0,
      "max": [
        3638
      ]
    },
    {
      "min": [
        39.07576370239258,
        -15.702620506286621,
        54.85630798339844
      ],
      "bufferView": 21,
      "type": "VEC3",
      "componentType": 5126,
      "count": 3639,
      "byteOffset": 0,
      "max": [
        58.41310501098633,
        13.948214530944825,
        107.4528579711914
      ]
    }
  ],
  "bufferViews": [
    {
      "buffer": 0,
      "byteOffset": 0,
      "byteLength": 35268,
      "target": 34963
    },
    {
      "buffer": 0,
      "byteOffset": 35268,
      "byteLength": 43668,
      "target": 34962
    },
    {
      "buffer": 1,
      "byteOffset": 0,
      "byteLength": 72,
      "target": 34963
    },
    {
      "buffer": 1,
      "byteOffset": 72,
      "byteLength": 96,
      "target": 34962
    },
    {
      "buffer": 2,
      "byteOffset": 0,
      "byteLength": 72,
      "target": 34963
    },
    {
      "buffer": 2,
      "byteOffset": 72,
      "byteLength": 96,
      "target": 34962
    },
    {
      "buffer": 3,
      "byteOffset": 0,
      "byteLength": 72,
      "target": 34963
    },
    {
      "buffer": 3,
      "byteOffset": 72,
      "byteLength": 96,
      "target": 34962
    },
    {
      "buffer": 4,
      "byteOffset": 0,
      "byteLength": 72,
      "target": 34963
    },
    {
      "buffer": 4,
      "byteOffset": 72,
      "byteLength": 96,
      "target": 34962
    },
    {
      "buffer": 5,
      "byteOffset": 0,
      "byteLength": 72,
      "target": 34963
    },
    {
      "buffer": 5,
      "byteOffset": 72,
      "byteLength": 96,
      "target": 34962
    },
    {
      "buffer": 6,
      "byteOffset": 0,
      "byteLength": 72,
      "target": 34963
    },
    {
      "buffer": 6,
      "byteOffset": 72,
      "byteLength": 96,
      "target": 34962
    },
    {
      "buffer": 7,
      "byteOffset": 0,
      "byteLength": 360,
      "target": 34963
    },
    {
      "buffer": 7,
      "byteOffset": 360,
      "byteLength": 480,
      "target": 34962
    },
    {
      "buffer": 8,
      "byteOffset": 0,
      "byteLength": 72,
      "target": 34963
    },
    {
      "buffer": 8,
      "byteOffset": 72,
      "byteLength": 96,
      "target": 34962
    },
    {
      "buffer": 9,
      "byteOffset": 0,
      "byteLength": 36,
      "target": 34963
    },
    {
      "buffer": 9,
      "byteOffset": 36,
      "byteLength": 160,
      "target": 34962,
      "byteStride": 20
    },
    {
      "buffer": 10,
      "byteOffset": 0,
      "byteLength": 35268,
      "target": 34963
    },
    {
      "buffer": 10,
      "byteOffset": 35268,
      "byteLength": 43668,
      "target": 34962
    }
  ],
  "buffers": [
    {
      "uri": "data:application/octet-stream;base64,",
      "byteLength": 78936
    },
    {
      "uri": "data:application/octet-stream;base64,",
      "byteLength": 168
    },
    {
      "uri": "data:application/octet-stream;base64,",
      "byteLength": 168
    },
    {
      "uri": "data:application/octet-stream;base64,",
      "byteLength": 168
    },
    {
      "uri": "data:application/octet-stream;base64,",
      "byteLength": 168
    },
    {
      "uri": "data:application/octet-stream;base64,",
      "byteLength": 168
    },
    {
      "uri": "data:application/octet-stream;base64,",
      "byteLength": 168
    },
    {
      "uri": "data:application/octet-stream;base64,",
      "byteLength": 840
    },
    {
      "uri": "data:application/octet-stream;base64,",
      "byteLength": 168
    },
    {
      "uri": "data:application/octet-stream;base64,",
      "byteLength": 196
    },
    {
      "uri": "data:application/octet-stream;base64,",
      "byteLength": 78936
    }
  ],
  "materials": [
    {
      "pbrMetallicRoughness": {
        "baseColorFactor": [
          1.0,
          1.0,
          1.0,
          1.0
        ],
        "metallicFactor": 1.0,
        "roughnessFactor": 1.0
      },
      "emissiveFactor": [
        0.0,
        0.0,
        0.0
      ],
      "alphaMode": "OPAQUE",
      "doubleSided": true,
      "name": ""
    },
    {
      "pbrMetallicRoughness": {
        "baseColorFactor": [
          1.0,
          1.0,
          1.0,
          1.0
        ],
        "metallicFactor": 1.0,
        "roughnessFactor": 1.0
      },
      "emissiveFactor": [
        0.0,
        0.0,
        0.0
      ],
      "alphaMode": "OPAQUE",
      "doubleSided": true,
      "name": ""
    },
    {
      "pbrMetallicRoughness": {
        "baseColorFactor": [
          1.0,
          1.0,
          1.0,
          1.0
        ],
        "metallicFactor": 1.0,
        "roughnessFactor": 1.0
      },
      "emissiveFactor": [
        0.0,
        0.0,
        0.0
      ],
      "alphaMode": "OPAQUE",
      "doubleSided": true,
      "name": ""
    },
    {
      "pbrMetallicRoughness": {
        "baseColorFactor": [
          1.0,
          1.0,
          1.0,
          1.0
        ],
        "metallicFactor": 1.0,
        "roughnessFactor": 1.0
      },
      "emissiveFactor": [
        0.0,
        0.0,
        0.0
      ],
      "alphaMode": "OPAQUE",
      "doubleSided": true,
      "name": ""
    },
    {
      "pbrMetallicRoughness": {
        "baseColorFactor": [
          1.0,
          1.0,
          1.0,
          1.0
        ],
        "metallicFactor": 1.0,
        "roughnessFactor": 1.0
      },
      "emissiveFactor": [
        0.0,
        0.0,
        0.0
      ],
      "alphaMode": "OPAQUE",
      "doubleSided": true,
      "name": ""
    },
    {
      "pbrMetallicRoughness": {
        "baseColorFactor": [
          1.0,
          1.0,
          1.0,
          1.0
        ],
        "metallicFactor": 1.0,
        "roughnessFactor": 1.0
      },
      "emissiveFactor": [
        0.0,
        0.0,
        0.0
      ],
      "alphaMode": "OPAQUE",
      "doubleSided": true,
      "name": ""
    },
    {
      "pbrMetallicRoughness": {
        "baseColorFactor": [
          1.0,
          1.0,
          1.0,
          1.0
        ],
        "metallicFactor": 1.0,
        "roughnessFactor": 1.0
      },
      "emissiveFactor": [
        0.0,
        0.0,
        0.0
      ],
      "alphaMode": "OPAQUE",
      "doubleSided": true,
      "name": ""
    },
    {
      "pbrMetallicRoughness": {
        "baseColorFactor": [
          1.0,
          1.0,
          1.0,
          1.0
        ],
        "metallicFactor": 1.0,
        "roughnessFactor": 1.0
      },
      "emissiveFactor": [
        0.0,
        0.0,
        0.0
      ],
      "alphaMode": "OPAQUE",
      "doubleSided": true,
      "name": ""
    },
    {
      "pbrMetallicRoughness": {
        "baseColorFactor": [
          1.0,
          1.0,
          1.0,
          1.0
        ],
        "metallicFactor": 1.0,
        "roughnessFactor": 1.0
      },
      "emissiveFactor": [
        0.0,
        0.0,
        0.0
      ],
      "alphaMode": "OPAQUE",
      "doubleSided": true,
      "name": ""
    },
    {
      "pbrMetallicRoughness": {
        "baseColorFactor": [
          1.0,
          1.0,
          1.0,
          1.0
        ],
        "metallicFactor": 1.0,
        "roughnessFactor": 1.0
      },
      "emissiveFactor": [
        0.0,
        0.0,
        0.0
      ],
      "alphaMode": "OPAQUE",
      "doubleSided": true,
      "name": ""
    },
    {
      "pbrMetallicRoughness": {
        "baseColorFactor": [
          1.0,
          1.0,
          1.0,
          1.0
        ],
        "metallicFactor": 1.0,
        "roughnessFactor": 1.0
      },
      "emissiveFactor": [
        0.0,
        0.0,
        0.0
      ],
      "alphaMode": "OPAQUE",
      "doubleSided": true,
      "name": ""
    }
  ]
}
