{"asset":{"version":"2.0","generator":"Created using the official Cinema 4D glTF Exporter 1.000x290161"},"scenes":[{"nodes":[0]}],"nodes":[{"name":"build8","translation":[33.72327423095703,7.627354145050049,133.9465789794922],"rotation":[0,0,0,-1],"scale":[1,1,1],"children":[1,3,5]},{"name":"build","children":[2]},{"name":"subject","translation":[19.109098434448242,0.2723242938518524,2.2758474349975586],"rotation":[0,0,0,-1],"scale":[1,1,1],"mesh":0},{"name":"mark","translation":[21.534788131713867,16.049100875854492,4.040785312652588],"rotation":[1,-6.123234262925839e-17,6.123234262925839e-17,-6.123234262925839e-17],"scale":[1,1,1],"children":[4]},{"name":"fire-mark","translation":[0,8.649908398294796e-16,0],"rotation":[5.665538686387998e-16,0,0,-1],"scale":[1,1,1],"mesh":1},{"name":"fire","translation":[19.109098434448242,0.2723242938518524,2.2758474349975586],"rotation":[0,0,0,-1],"scale":[1,1,1],"children":[6]},{"name":"0","mesh":2}],"meshes":[{"primitives":[{"attributes":{"POSITION":1,"TEXCOORD_0":2},"indices":0,"material":0}]},{"primitives":[{"attributes":{"POSITION":4,"TEXCOORD_0":5},"indices":3,"material":1}]},{"primitives":[{"attributes":{"POSITION":7,"TEXCOORD_0":8},"indices":6,"material":1}]}],"accessors":[{"bufferView":0,"type":"SCALAR","componentType":5123,"count":6588,"byteOffset":0,"min":[0],"max":[3599]},{"bufferView":1,"type":"VEC3","componentType":5126,"count":3600,"byteOffset":0,"min":[-25.83743667602539,-5.9891462326049805,-12.707232475280762],"max":[26.083637237548828,2.703531265258789,15.512901306152344]},{"bufferView":1,"type":"VEC2","componentType":5126,"count":3600,"byteOffset":12,"min":[0,0],"max":[1,1]},{"bufferView":2,"type":"SCALAR","componentType":5123,"count":18,"byteOffset":0,"min":[0],"max":[7]},{"bufferView":3,"type":"VEC3","componentType":5126,"count":8,"byteOffset":0,"min":[-2.92252254486084,-2.92252254486084,-2.92252254486084],"max":[2.92252254486084,2.92252254486084,2.92252254486084]},{"bufferView":3,"type":"VEC2","componentType":5126,"count":8,"byteOffset":12,"min":[0,0],"max":[1,1]},{"bufferView":4,"type":"SCALAR","componentType":5123,"count":6588,"byteOffset":0,"min":[0],"max":[3599]},{"bufferView":5,"type":"VEC3","componentType":5126,"count":3600,"byteOffset":0,"min":[-25.83743667602539,-5.9891462326049805,-12.707232475280762],"max":[26.083637237548828,2.703531265258789,15.512901306152344]},{"bufferView":5,"type":"VEC2","componentType":5126,"count":3600,"byteOffset":12,"min":[0,0],"max":[1,1]}],"bufferViews":[{"buffer":0,"byteOffset":0,"byteLength":13176,"target":34963},{"buffer":0,"byteOffset":13176,"byteLength":72000,"target":34962,"byteStride":20},{"buffer":1,"byteOffset":0,"byteLength":36,"target":34963},{"buffer":1,"byteOffset":36,"byteLength":160,"target":34962,"byteStride":20},{"buffer":2,"byteOffset":0,"byteLength":13176,"target":34963},{"buffer":2,"byteOffset":13176,"byteLength":72000,"target":34962,"byteStride":20}],"buffers":[{"uri":"data:application/octet-stream;base64,","byteLength":85176},{"uri":"data:application/octet-stream;base64,","byteLength":196},{"uri":"data:application/octet-stream;base64,","byteLength":85176}],"materials":[{"pbrMetallicRoughness":{"baseColorFactor":[0.20009999999999997,0.5685449999999999,0.87,1],"metallicFactor":0.79,"roughnessFactor":0.12},"emissiveFactor":[0.028400000000000022,0.34648000000000007,0.71],"alphaMode":"OPAQUE","doubleSided":false,"name":"2"},{"pbrMetallicRoughness":{"baseColorFactor":[0.74,0.36815,0.24419999999999997,1],"metallicFactor":1,"roughnessFactor":0.1},"emissiveFactor":[0.9400000000000001,0.11280000000000011,0.037600000000000036],"alphaMode":"OPAQUE","doubleSided":false,"name":"2"}]}