{"asset":{"version":"2.0","generator":"Created using the official Cinema 4D glTF Exporter 1.000x290161"},"scenes":[{"nodes":[0]}],"nodes":[{"name":"build5","translation":[17.203413009643555,6.067335605621338,172.39825439453125],"rotation":[0,0,0,-1],"scale":[1,1,1],"children":[1,3,5]},{"name":"build","children":[2]},{"name":"subject","translation":[-1.1645959615707397,-0.30181387066841125,-1.3402971029281616],"rotation":[0,0,0,-1],"scale":[1,1,1],"mesh":0},{"name":"mark","translation":[-0.9961148500442505,13.303359031677246,-1.2575573921203613],"rotation":[1,-6.123234262925839e-17,6.123234262925839e-17,-6.123234262925839e-17],"scale":[1,1,1],"children":[4]},{"name":"fire-mark","translation":[0,3.5759155523521315e-16,0],"rotation":[5.665538686387998e-16,0,0,-1],"scale":[1,1,1],"mesh":1},{"name":"fire","translation":[-1.1645959615707397,-0.30181387066841125,-1.3402971029281616],"rotation":[0,0,0,-1],"scale":[1,1,1],"children":[6]},{"name":"0","mesh":2}],"meshes":[{"primitives":[{"attributes":{"POSITION":1,"TEXCOORD_0":2},"indices":0,"material":0}]},{"primitives":[{"attributes":{"POSITION":4,"TEXCOORD_0":5},"indices":3,"material":1}]},{"primitives":[{"attributes":{"POSITION":7,"TEXCOORD_0":8},"indices":6,"material":1}]}],"accessors":[{"bufferView":0,"type":"SCALAR","componentType":5123,"count":8664,"byteOffset":0,"min":[0],"max":[3153]},{"bufferView":1,"type":"VEC3","componentType":5126,"count":3154,"byteOffset":0,"min":[-4.00745153427124,-5.385260105133057,-7.895047187805176],"max":[4.684689521789551,6.247652530670166,7.348202705383301]},{"bufferView":1,"type":"VEC2","componentType":5126,"count":3154,"byteOffset":12,"min":[0,0],"max":[1,1]},{"bufferView":2,"type":"SCALAR","componentType":5123,"count":18,"byteOffset":0,"min":[0],"max":[7]},{"bufferView":3,"type":"VEC3","componentType":5126,"count":8,"byteOffset":0,"min":[-2.21763277053833,-2.21763277053833,-2.21763277053833],"max":[2.21763277053833,2.21763277053833,2.21763277053833]},{"bufferView":3,"type":"VEC2","componentType":5126,"count":8,"byteOffset":12,"min":[0,0],"max":[1,1]},{"bufferView":4,"type":"SCALAR","componentType":5123,"count":8664,"byteOffset":0,"min":[0],"max":[3153]},{"bufferView":5,"type":"VEC3","componentType":5126,"count":3154,"byteOffset":0,"min":[-4.00745153427124,-5.385260105133057,-7.895047187805176],"max":[4.684689521789551,6.247652530670166,7.348202705383301]},{"bufferView":5,"type":"VEC2","componentType":5126,"count":3154,"byteOffset":12,"min":[0,0],"max":[1,1]}],"bufferViews":[{"buffer":0,"byteOffset":0,"byteLength":17328,"target":34963},{"buffer":0,"byteOffset":17328,"byteLength":63080,"target":34962,"byteStride":20},{"buffer":1,"byteOffset":0,"byteLength":36,"target":34963},{"buffer":1,"byteOffset":36,"byteLength":160,"target":34962,"byteStride":20},{"buffer":2,"byteOffset":0,"byteLength":17328,"target":34963},{"buffer":2,"byteOffset":17328,"byteLength":63080,"target":34962,"byteStride":20}],"buffers":[{"uri":"data:application/octet-stream;base64,","byteLength":80408},{"uri":"data:application/octet-stream;base64,","byteLength":196},{"uri":"data:application/octet-stream;base64,","byteLength":80408}],"materials":[{"pbrMetallicRoughness":{"baseColorFactor":[0.20009999999999997,0.5685449999999999,0.87,1],"metallicFactor":1,"roughnessFactor":0.1},"emissiveFactor":[0.028400000000000022,0.48279999999999995,0.71],"alphaMode":"OPAQUE","doubleSided":false,"name":".4"},{"pbrMetallicRoughness":{"baseColorFactor":[0.74,0.36815,0.24419999999999997,1],"metallicFactor":1,"roughnessFactor":0.1},"emissiveFactor":[0.9400000000000001,0.11280000000000011,0.037600000000000036],"alphaMode":"OPAQUE","doubleSided":false,"name":"2"}]}