{
	"asset":{
		"version":"2.0",
		"generator":"Created using the official Cinema 4D glTF Exporter 1.000x284978"
	},
	"scenes":[{
		"nodes":[0]
	}],
	"nodes":[{
		"name":"Default",
		"mesh":0
	}],
	"meshes":[{
		"name":"Default",
		"primitives":[{
			"attributes":{
				"POSITION":1,
				"NORMAL":2,
				"TEXCOORD_0":3
			},
			"indices":0,
			"material":0
		}]
	}],
	"bufferViews":[{
		"buffer":0,
		"byteOffset":0,
		"byteLength":45000,
		"target":34963
	},
	{
		"buffer":0,
		"byteOffset":45000,
		"byteLength":341600,
		"target":34962,
		"byteStride":32
	}],
	"accessors":[{
		"bufferView":0,
		"count":22500,
		"type":"SCALAR",
		"componentType":5123,
		"byteOffset":0,
		"min":[0],
		"max":[10674]
	},
	{
		"bufferView":1,
		"count":10675,
		"type":"VEC3",
		"componentType":5126,
		"byteOffset":0,
		"min":[-24350.0,
		0.0,
		-15819.9970703125],
		"max":[24350.0,
		12199.97265625,
		15820.0029296875]
	},
	{
		"bufferView":1,
		"count":10675,
		"type":"VEC3",
		"componentType":5126,
		"byteOffset":12,
		"min":[-1.0,
		-1.0,
		-1.0],
		"max":[1.0,
		1.0,
		1.0]
	},
	{
		"bufferView":1,
		"count":10675,
		"type":"VEC2",
		"componentType":5126,
		"byteOffset":24,
		"min":[0.0,
		0.0],
		"max":[1.0,
		1.0]
	}],
	"buffers":[{
		"uri":"data:application/octet-stream;base64,",
		"byteLength":386600
	}],
	"materials":[{
		"pbrMetallicRoughness":{
			"baseColorFactor":[0.047058823529411788,
			0.627450980392157,
			0.8627450980392157,
			1.0],
			"metallicFactor":1.0,
			"roughnessFactor":1.0
		},
		"name":".1",
		"emissiveFactor":[0.0,
		0.0,
		0.0],
		"alphaMode":"OPAQUE",
		"doubleSided":true
	}]
}