{"asset":{"version":"2.0","generator":"babylon.js glTF exporter for 3dsmax 2022 v20210811.2"},"scene":0,"scenes":[{"nodes":[0]}],"nodes":[{"mesh":0,"translation":[0.0,-4.153804E-09,0.0],"rotation":[0.495495915,-0.50446403,0.5044639,0.495495826],"scale":[0.99999994,0.99999994,1.0],"name":"ProjectedWindow001"}],"meshes":[{"primitives":[{"attributes":{"POSITION":1,"NORMAL":2,"TEXCOORD_0":3},"indices":0}],"name":"ProjectedWindow001"}],"accessors":[{"bufferView":0,"componentType":5123,"count":1020,"type":"SCALAR","name":"accessorIndices"},{"bufferView":1,"componentType":5126,"count":680,"max":[0.6355405,0.468516648,0.0],"min":[-0.6355405,-0.468516648,-1.20562887],"type":"VEC3","name":"accessorPositions"},{"bufferView":1,"byteOffset":8160,"componentType":5126,"count":680,"type":"VEC3","name":"accessorNormals"},{"bufferView":2,"componentType":5126,"count":680,"type":"VEC2","name":"accessorUVs"}],"bufferViews":[{"buffer":0,"byteLength":2040,"name":"bufferViewScalar"},{"buffer":0,"byteOffset":2040,"byteLength":16320,"byteStride":12,"name":"bufferViewFloatVec3"},{"buffer":0,"byteOffset":18360,"byteLength":5440,"byteStride":8,"name":"bufferViewFloatVec2"}],"buffers":[{"uri":"test.bin","byteLength":23800}]}