{
	"asset":{
		"version":"2.0",
		"generator":"Created using the official Cinema 4D glTF Exporter 1.000x290161"
	},
	"scenes":[{
		"nodes":[0]
	}],
	"nodes":[{
		"name":"平面",
		"translation":[1.1655596494674683,
		1.9286353588104249,
		61.994449615478519],
		"rotation":[0.0,
		0.0,
		0.0,
		-1.0],
		"scale":[1.0,
		1.0,
		1.0],
		"mesh":0
	}],
	"meshes":[{
		"primitives":[{
			"attributes":{
				"POSITION":1,
				"TEXCOORD_0":2
			},
			"indices":0,
			"material":0
		}]
	}],
	"accessors":[{
		"bufferView":0,
		"type":"SCALAR",
		"componentType":5123,
		"count":600,
		"byteOffset":0,
		"min":[0],
		"max":[120]
	},
	{
		"bufferView":1,
		"type":"VEC3",
		"componentType":5126,
		"count":121,
		"byteOffset":0,
		"min":[-603.4096069335938,
		0.0,
		-554.4439086914063],
		"max":[603.40966796875,
		0.0,
		554.4439086914063]
	},
	{
		"bufferView":1,
		"type":"VEC2",
		"componentType":5126,
		"count":121,
		"byteOffset":12,
		"min":[0.0,
		0.0],
		"max":[1.0,
		1.0]
	}],
	"bufferViews":[{
		"buffer":0,
		"byteOffset":0,
		"byteLength":1200,
		"target":34963
	},
	{
		"buffer":0,
		"byteOffset":1200,
		"byteLength":2420,
		"target":34962,
		"byteStride":20
	}],
	"buffers":[{
		"uri":"data:application/octet-stream;base64,",
		"byteLength":3620
	}],
	"materials":[{
		"pbrMetallicRoughness":{
			"baseColorFactor":[0.032500000000000018,
			0.0,
			0.15,
			1.0],
			"metallicFactor":1.0,
			"roughnessFactor":0.23
		},
		"emissiveFactor":[0.0,
		0.0,
		0.0],
		"alphaMode":"OPAQUE",
		"doubleSided":false,
		"name":"材质.10"
	}]
}