{
	"asset":{
		"version":"2.0",
		"generator":"Created using the official Cinema 4D glTF Exporter 1.000x290161"
	},
	"scenes":[{
		"nodes":[0]
	}],
	"nodes":[{
		"name":"18号楼",
		"translation":[-57.719600677490237,
		10.497700691223145,
		91.43897247314453],
		"rotation":[0.0,
		0.0,
		0.0,
		-1.0],
		"scale":[1.0,
		1.0,
		1.0],
		"children":[1]
	},
	{
		"name":"克隆.4",
		"translation":[1.7067573070526124,
		3.6353886127471926,
		3.013216972351074],
		"rotation":[0.0,
		0.0,
		0.0,
		-1.0],
		"scale":[1.0,
		1.0,
		1.0],
		"mesh":0
	}],
	"meshes":[{
		"primitives":[{
			"attributes":{
				"POSITION":1,
				"TEXCOORD_0":2
			},
			"indices":0,
			"material":0
		}]
	}],
	"accessors":[{
		"bufferView":0,
		"type":"SCALAR",
		"componentType":5123,
		"count":20964,
		"byteOffset":0,
		"min":[0],
		"max":[11603]
	},
	{
		"bufferView":1,
		"type":"VEC3",
		"componentType":5126,
		"count":11604,
		"byteOffset":0,
		"min":[-23.048608779907228,
		-12.18622875213623,
		-8.904925346374512],
		"max":[22.42425537109375,
		12.4723482131958,
		9.217987060546875]
	},
	{
		"bufferView":1,
		"type":"VEC2",
		"componentType":5126,
		"count":11604,
		"byteOffset":12,
		"min":[0.0,
		0.0],
		"max":[1.0,
		1.0]
	}],
	"bufferViews":[{
		"buffer":0,
		"byteOffset":0,
		"byteLength":41928,
		"target":34963
	},
	{
		"buffer":0,
		"byteOffset":41928,
		"byteLength":232080,
		"target":34962,
		"byteStride":20
	}],
	"buffers":[{
		"uri":"data:application/octet-stream;base64,",
		"byteLength":274008
	}],
	"materials":[{
		"pbrMetallicRoughness":{
			"metallicFactor":1.0,
			"baseColorFactor":[0.20009999999999998,
			0.5685449999999999,
			0.87,
			1.0],
			"roughnessFactor":0.1
		},
		"emissiveFactor":[0.028400000000000024,
		0.48279999999999997,
		0.71],
		"alphaMode":"OPAQUE",
		"doubleSided":false,
		"name":"材质.4"
	}]
}