{
	"asset":{
		"version":"2.0",
		"generator":"Created using the official Cinema 4D glTF Exporter 1.000x290161"
	},
	"scenes":[{
		"nodes":[0]
	}],
	"nodes":[{
		"name":"道路",
		"translation":[-423.7158203125,
		1.9242558479309083,
		515.0427856445313],
		"rotation":[0.0,
		-1.0,
		0.0,
		-6.123234262925839e-17],
		"scale":[1.0,
		1.0,
		1.0],
		"children":[1]
	},
	{
		"name":"190408048",
		"translation":[6.307455236278029e-14,
		-4.785406589508057,
		2.2737367544323208e-13],
		"rotation":[0.0,
		-1.0,
		0.0,
		-6.123234262925839e-17],
		"scale":[1.0,
		1.0,
		1.0],
		"mesh":0
	}],
	"meshes":[{
		"primitives":[{
			"attributes":{
				"POSITION":1
			},
			"indices":0,
			"material":0
		}]
	}],
	"accessors":[{
		"bufferView":0,
		"type":"SCALAR",
		"componentType":5123,
		"count":26376,
		"byteOffset":0,
		"min":[0],
		"max":[5892]
	},
	{
		"bufferView":1,
		"type":"VEC3",
		"componentType":5126,
		"count":5893,
		"byteOffset":0,
		"min":[-2.775489330291748,
		0.0,
		-913.8320922851563],
		"max":[907.5623779296875,
		4.820691108703613,
		-0.13991141319274903]
	}],
	"bufferViews":[{
		"buffer":0,
		"byteOffset":0,
		"byteLength":52752,
		"target":34963
	},
	{
		"buffer":0,
		"byteOffset":52752,
		"byteLength":70716,
		"target":34962
	}],
	"buffers":[{
		"uri":"data:application/octet-stream;base64,",
		"byteLength":123468
	}],
	"images":[{
		"uri":"data:image/jpeg;base64,"
	}],
	"samplers":[{
		"magFilter":9729,
		"minFilter":9729,
		"wrapS":10497,
		"wrapT":10497
	}],
	"textures":[{
		"sampler":0,
		"source":0
	}],
	"materials":[{
		"pbrMetallicRoughness":{
			"baseColorTexture":{
				"index":0
			},
			"baseColorFactor":[1.0,
			1.0,
			1.0,
			1.0],
			"metallicFactor":0.0,
			"roughnessFactor":0.5
		},
		"emissiveFactor":[0.0,
		0.007799999999999921,
		0.117],
		"alphaMode":"OPAQUE",
		"doubleSided":false,
		"name":"材质.9"
	}]
}