{
	"asset":{
		"version":"2.0",
		"generator":"Created using the official Cinema 4D glTF Exporter 1.000x290161"
	},
	"scenes":[{
		"nodes":[0]
	}],
	"nodes":[{
		"name":"2号楼",
		"translation":[53.148258209228519,
		18.331777572631837,
		205.4877166748047],
		"rotation":[0.0,
		0.0,
		0.0,
		-1.0],
		"scale":[1.0,
		1.0,
		1.0],
		"children":[1]
	},
	{
		"name":"外框",
		"translation":[4.881533145904541,
		4.352409839630127,
		-14.99675464630127],
		"rotation":[0.0,
		0.0,
		0.0,
		-1.0],
		"scale":[1.0,
		1.0,
		1.0],
		"mesh":0
	}],
	"meshes":[{
		"primitives":[{
			"attributes":{
				"POSITION":1,
				"TEXCOORD_0":2
			},
			"indices":0,
			"material":0
		}]
	}],
	"accessors":[{
		"bufferView":0,
		"type":"SCALAR",
		"componentType":5123,
		"count":45420,
		"byteOffset":0,
		"min":[0],
		"max":[19525]
	},
	{
		"bufferView":1,
		"type":"VEC3",
		"componentType":5126,
		"count":19526,
		"byteOffset":0,
		"min":[-32.43333435058594,
		-20.9713134765625,
		-0.3334426283836365],
		"max":[29.980548858642579,
		88.27621459960938,
		259.04534912109377]
	},
	{
		"bufferView":1,
		"type":"VEC2",
		"componentType":5126,
		"count":19526,
		"byteOffset":12,
		"min":[0.0,
		0.0],
		"max":[1.0,
		1.0]
	}],
	"bufferViews":[{
		"buffer":0,
		"byteOffset":0,
		"byteLength":90840,
		"target":34963
	},
	{
		"buffer":0,
		"byteOffset":90840,
		"byteLength":390520,
		"target":34962,
		"byteStride":20
	}],
	"buffers":[{
		"uri":"data:application/octet-stream;base64,",
		"byteLength":481360
	}],
	"materials":[{
		"pbrMetallicRoughness":{
			"baseColorFactor":[0.20009999999999998,
			0.5685449999999999,
			0.87,
			1.0],
			"metallicFactor":1.0,
			"roughnessFactor":0.1
		},
		"emissiveFactor":[0.028400000000000024,
		0.48279999999999997,
		0.71],
		"alphaMode":"OPAQUE",
		"doubleSided":false,
		"name":"材质.4"
	}]
}