{
	"asset":{
		"version":"2.0",
		"generator":"Created using the official Cinema 4D glTF Exporter 1.000x290161"
	},
	"scenes":[{
		"nodes":[0]
	}],
	"nodes":[{
		"name":"1D0410",
		"mesh":0
	}],
	"meshes":[{
		"primitives":[{
			"attributes":{
				"POSITION":1,
				"TEXCOORD_0":2
			},
			"indices":0,
			"material":0
		}]
	}],
	"accessors":[{
		"bufferView":0,
		"type":"SCALAR",
		"componentType":5123,
		"count":11784,
		"byteOffset":0,
		"min":[0],
		"max":[7459]
	},
	{
		"bufferView":1,
		"type":"VEC3",
		"componentType":5126,
		"count":7460,
		"byteOffset":0,
		"min":[11.0,
		0.0,
		-1682.036376953125],
		"max":[6167.7001953125,
		300.0,
		-37.3499755859375]
	},
	{
		"bufferView":1,
		"type":"VEC2",
		"componentType":5126,
		"count":7460,
		"byteOffset":12,
		"min":[-430.8385009765625,
		-421.7025146484375],
		"max":[18.02599334716797,
		268.00335693359377]
	}],
	"bufferViews":[{
		"buffer":0,
		"byteOffset":0,
		"byteLength":23568,
		"target":34963
	},
	{
		"buffer":0,
		"byteOffset":23568,
		"byteLength":149200,
		"target":34962,
		"byteStride":20
	}],
	"buffers":[{
		"uri":"data:application/octet-stream;base64,",
		"byteLength":172768
	}],
	"materials":[{
		"pbrMetallicRoughness":{
			"baseColorFactor":[1.0,
			1.0,
			1.0,
			1.0],
			"metallicFactor":1.0,
			"roughnessFactor":1.0
		},
		"emissiveFactor":[0.0,
		0.0,
		0.0],
		"alphaMode":"OPAQUE",
		"doubleSided":false,
		"name":""
	}]
}