{
	"asset":{
		"version":"2.0",
		"generator":"Created using the official Cinema 4D glTF Exporter 1.000x290161"
	},
	"scenes":[{
		"nodes":[0]
	}],
	"nodes":[{
		"name":"1D0001",
		"mesh":0
	}],
	"meshes":[{
		"primitives":[{
			"attributes":{
				"POSITION":1,
				"TEXCOORD_0":2
			},
			"indices":0,
			"material":0
		}]
	}],
	"accessors":[{
		"bufferView":0,
		"type":"SCALAR",
		"componentType":5123,
		"count":14106,
		"byteOffset":0,
		"min":[0],
		"max":[8777]
	},
	{
		"bufferView":1,
		"type":"VEC3",
		"componentType":5126,
		"count":8778,
		"byteOffset":0,
		"min":[19.0,
		0.0,
		-1648.0],
		"max":[6153.75,
		300.0,
		-1.507070541381836]
	},
	{
		"bufferView":1,
		"type":"VEC2",
		"componentType":5126,
		"count":8778,
		"byteOffset":12,
		"min":[-430.76873779296877,
		-421.65496826171877],
		"max":[20.973743438720704,
		268.00335693359377]
	}],
	"bufferViews":[{
		"buffer":0,
		"byteOffset":0,
		"byteLength":28212,
		"target":34963
	},
	{
		"buffer":0,
		"byteOffset":28212,
		"byteLength":175560,
		"target":34962,
		"byteStride":20
	}],
	"buffers":[{
		"uri":"data:application/octet-stream;base64,",
		"byteLength":203772
	}],
	"materials":[{
		"pbrMetallicRoughness":{
			"baseColorFactor":[1.0,
			1.0,
			1.0,
			1.0],
			"metallicFactor":1.0,
			"roughnessFactor":1.0
		},
		"emissiveFactor":[0.0,
		0.0,
		0.0],
		"alphaMode":"OPAQUE",
		"doubleSided":false,
		"name":""
	}]
}