{
	"asset":{
		"version":"2.0",
		"generator":"Created using the official Cinema 4D glTF Exporter 1.000x290161"
	},
	"scenes":[{
		"nodes":[0]
	}],
	"nodes":[{
		"name":"1D0001",
		"mesh":0
	}],
	"meshes":[{
		"primitives":[{
			"attributes":{
				"POSITION":1,
				"TEXCOORD_0":2
			},
			"indices":0,
			"material":0
		}]
	}],
	"accessors":[{
		"bufferView":0,
		"type":"SCALAR",
		"componentType":5123,
		"count":10722,
		"byteOffset":0,
		"min":[0],
		"max":[6565]
	},
	{
		"bufferView":1,
		"type":"VEC3",
		"componentType":5126,
		"count":6566,
		"byteOffset":0,
		"min":[1.0,
		-1.3877787807814457e-16,
		-1719.5921630859376],
		"max":[5844.9931640625,
		300.0,
		256.5]
	},
	{
		"bufferView":1,
		"type":"VEC2",
		"componentType":5126,
		"count":6566,
		"byteOffset":12,
		"min":[-429.2249755859375,
		1.0],
		"max":[27.27750015258789,
		268.00335693359377]
	}],
	"bufferViews":[{
		"buffer":0,
		"byteOffset":0,
		"byteLength":21444,
		"target":34963
	},
	{
		"buffer":0,
		"byteOffset":21444,
		"byteLength":131320,
		"target":34962,
		"byteStride":20
	}],
	"buffers":[{
		"uri":"data:application/octet-stream;base64,",
		"byteLength":152764
	}],
	"materials":[{
		"pbrMetallicRoughness":{
			"baseColorFactor":[1.0,
			1.0,
			1.0,
			1.0],
			"metallicFactor":1.0,
			"roughnessFactor":1.0
		},
		"emissiveFactor":[0.0,
		0.0,
		0.0],
		"alphaMode":"OPAQUE",
		"doubleSided":false,
		"name":""
	}]
}