{
	"asset":{
		"version":"2.0",
		"generator":"Created using the official Cinema 4D glTF Exporter 1.000x290161"
	},
	"scenes":[{
		"nodes":[0]
	}],
	"nodes":[{
		"name":"1D0001",
		"mesh":0
	}],
	"meshes":[{
		"primitives":[{
			"attributes":{
				"POSITION":1,
				"TEXCOORD_0":2
			},
			"indices":0,
			"material":0
		}]
	}],
	"accessors":[{
		"bufferView":0,
		"type":"SCALAR",
		"componentType":5123,
		"count":3768,
		"byteOffset":0,
		"min":[0],
		"max":[2407]
	},
	{
		"bufferView":1,
		"type":"VEC3",
		"componentType":5126,
		"count":2408,
		"byteOffset":0,
		"min":[-12.492927551269532,
		0.0,
		-1677.492919921875],
		"max":[4352.4931640625,
		300.0,
		2.492929458618164]
	},
	{
		"bufferView":1,
		"type":"VEC2",
		"componentType":5126,
		"count":2408,
		"byteOffset":12,
		"min":[-421.762451171875,
		-407.159912109375],
		"max":[18.137500762939454,
		268.00335693359377]
	}],
	"bufferViews":[{
		"buffer":0,
		"byteOffset":0,
		"byteLength":7536,
		"target":34963
	},
	{
		"buffer":0,
		"byteOffset":7536,
		"byteLength":48160,
		"target":34962,
		"byteStride":20
	}],
	"buffers":[{
		"uri":"data:application/octet-stream;base64,",
		"byteLength":55696
	}],
	"materials":[{
		"pbrMetallicRoughness":{
			"baseColorFactor":[1.0,
			1.0,
			1.0,
			1.0],
			"metallicFactor":1.0,
			"roughnessFactor":1.0
		},
		"emissiveFactor":[0.0,
		0.0,
		0.0],
		"alphaMode":"OPAQUE",
		"doubleSided":false,
		"name":""
	}]
}