{
	"asset":{
		"version":"2.0",
		"generator":"Created using the official Cinema 4D glTF Exporter 1.000x290161"
	},
	"scenes":[{
		"nodes":[0]
	}],
	"nodes":[{
		"name":"1D0001",
		"mesh":0
	}],
	"meshes":[{
		"primitives":[{
			"attributes":{
				"POSITION":1,
				"TEXCOORD_0":2
			},
			"indices":0,
			"material":0
		}]
	}],
	"accessors":[{
		"bufferView":0,
		"type":"SCALAR",
		"componentType":5123,
		"count":6561,
		"byteOffset":0,
		"min":[0],
		"max":[4172]
	},
	{
		"bufferView":1,
		"type":"VEC3",
		"componentType":5126,
		"count":4173,
		"byteOffset":0,
		"min":[-12.492927551269532,
		0.0,
		-1674.12060546875],
		"max":[4674.5,
		300.0,
		-1.4173774719238282]
	},
	{
		"bufferView":1,
		"type":"VEC2",
		"componentType":5126,
		"count":4173,
		"byteOffset":12,
		"min":[-423.37249755859377,
		-422.2843017578125],
		"max":[21.5625,
		268.00335693359377]
	}],
	"bufferViews":[{
		"buffer":0,
		"byteOffset":0,
		"byteLength":13122,
		"target":34963
	},
	{
		"buffer":0,
		"byteOffset":13124,
		"byteLength":83460,
		"target":34962,
		"byteStride":20
	}],
	"buffers":[{
		"uri":"data:application/octet-stream;base64,",
		"byteLength":96584
	}],
	"materials":[{
		"pbrMetallicRoughness":{
			"baseColorFactor":[1.0,
			1.0,
			1.0,
			1.0],
			"metallicFactor":1.0,
			"roughnessFactor":1.0
		},
		"emissiveFactor":[0.0,
		0.0,
		0.0],
		"alphaMode":"OPAQUE",
		"doubleSided":false,
		"name":""
	}]
}