{
	"asset":{
		"version":"2.0",
		"generator":"Created using the official Cinema 4D glTF Exporter 1.000x290161"
	},
	"scenes":[{
		"nodes":[0]
	}],
	"nodes":[{
		"name":"1S0001",
		"mesh":0
	}],
	"meshes":[{
		"primitives":[{
			"attributes":{
				"POSITION":1,
				"TEXCOORD_0":2
			},
			"indices":0,
			"material":0
		}]
	}],
	"accessors":[{
		"bufferView":0,
		"type":"SCALAR",
		"componentType":5123,
		"count":1680,
		"byteOffset":0,
		"min":[0],
		"max":[1095]
	},
	{
		"bufferView":1,
		"type":"VEC3",
		"componentType":5126,
		"count":1096,
		"byteOffset":0,
		"min":[0.5070705413818359,
		0.0,
		-809.7613525390625],
		"max":[1260.3927001953126,
		300.0,
		-0.5070705413818359]
	},
	{
		"bufferView":1,
		"type":"VEC2",
		"componentType":5126,
		"count":1096,
		"byteOffset":12,
		"min":[-406.30194091796877,
		-402.759033203125],
		"max":[6.02449893951416,
		268.00335693359377]
	}],
	"bufferViews":[{
		"buffer":0,
		"byteOffset":0,
		"byteLength":3360,
		"target":34963
	},
	{
		"buffer":0,
		"byteOffset":3360,
		"byteLength":21920,
		"target":34962,
		"byteStride":20
	}],
	"buffers":[{
		"uri":"data:application/octet-stream;base64,",
		"byteLength":25280
	}],
	"materials":[{
		"pbrMetallicRoughness":{
			"baseColorFactor":[1.0,
			1.0,
			1.0,
			1.0],
			"metallicFactor":1.0,
			"roughnessFactor":1.0
		},
		"emissiveFactor":[0.0,
		0.0,
		0.0],
		"alphaMode":"OPAQUE",
		"doubleSided":false,
		"name":""
	}]
}