{
	"asset":{
		"version":"2.0",
		"generator":"Created using the official Cinema 4D glTF Exporter 1.000x290161"
	},
	"scenes":[{
		"nodes":[0]
	}],
	"nodes":[{
		"name":"1D0001",
		"mesh":0
	}],
	"meshes":[{
		"primitives":[{
			"attributes":{
				"POSITION":1,
				"TEXCOORD_0":2
			},
			"indices":0,
			"material":0
		}]
	}],
	"accessors":[{
		"bufferView":0,
		"type":"SCALAR",
		"componentType":5123,
		"count":7500,
		"byteOffset":0,
		"min":[0],
		"max":[4691]
	},
	{
		"bufferView":1,
		"type":"VEC3",
		"componentType":5126,
		"count":4692,
		"byteOffset":0,
		"min":[0.5070705413818359,
		0.0,
		-1727.2755126953126],
		"max":[2326.89990234375,
		300.0,
		192.03811645507813]
	},
	{
		"bufferView":1,
		"type":"VEC2",
		"componentType":5126,
		"count":4692,
		"byteOffset":12,
		"min":[-411.251953125,
		-406.30267333984377],
		"max":[10.974498748779297,
		268.00335693359377]
	}],
	"bufferViews":[{
		"buffer":0,
		"byteOffset":0,
		"byteLength":15000,
		"target":34963
	},
	{
		"buffer":0,
		"byteOffset":15000,
		"byteLength":93840,
		"target":34962,
		"byteStride":20
	}],
	"buffers":[{
		"uri":"data:application/octet-stream;base64,",
		"byteLength":108840
	}],
	"materials":[{
		"pbrMetallicRoughness":{
			"baseColorFactor":[1.0,
			1.0,
			1.0,
			1.0],
			"metallicFactor":1.0,
			"roughnessFactor":1.0
		},
		"emissiveFactor":[0.0,
		0.0,
		0.0],
		"alphaMode":"OPAQUE",
		"doubleSided":false,
		"name":""
	}]
}