{
	"asset":{
		"version":"2.0",
		"generator":"Created using the official Cinema 4D glTF Exporter 1.000x290161"
	},
	"scenes":[{
		"nodes":[0]
	}],
	"nodes":[{
		"name":"1D0001",
		"mesh":0
	}],
	"meshes":[{
		"primitives":[{
			"attributes":{
				"POSITION":1,
				"TEXCOORD_0":2
			},
			"indices":0,
			"material":0
		}]
	}],
	"accessors":[{
		"bufferView":0,
		"type":"SCALAR",
		"componentType":5123,
		"count":8814,
		"byteOffset":0,
		"min":[0],
		"max":[5519]
	},
	{
		"bufferView":1,
		"type":"VEC3",
		"componentType":5126,
		"count":5520,
		"byteOffset":0,
		"min":[0.5070705413818359,
		0.0,
		-1560.3203125],
		"max":[2250.392822265625,
		300.0,
		-0.5070705413818359]
	},
	{
		"bufferView":1,
		"type":"VEC2",
		"componentType":5126,
		"count":5520,
		"byteOffset":12,
		"min":[-411.251953125,
		-410.00531005859377],
		"max":[9.359222412109375,
		268.00335693359377]
	}],
	"bufferViews":[{
		"buffer":0,
		"byteOffset":0,
		"byteLength":17628,
		"target":34963
	},
	{
		"buffer":0,
		"byteOffset":17628,
		"byteLength":110400,
		"target":34962,
		"byteStride":20
	}],
	"buffers":[{
		"uri":"data:application/octet-stream;base64,",
		"byteLength":128028
	}],
	"materials":[{
		"pbrMetallicRoughness":{
			"baseColorFactor":[1.0,
			1.0,
			1.0,
			1.0],
			"metallicFactor":1.0,
			"roughnessFactor":1.0
		},
		"emissiveFactor":[0.0,
		0.0,
		0.0],
		"alphaMode":"OPAQUE",
		"doubleSided":false,
		"name":""
	}]
}