{
	"asset":{
		"version":"2.0",
		"generator":"Created using the official Cinema 4D glTF Exporter 1.000x290161"
	},
	"scenes":[{
		"nodes":[0]
	}],
	"nodes":[{
		"name":"1D0001",
		"mesh":0
	}],
	"meshes":[{
		"primitives":[{
			"attributes":{
				"POSITION":1,
				"TEXCOORD_0":2
			},
			"indices":0,
			"material":0
		}]
	}],
	"accessors":[{
		"bufferView":0,
		"type":"SCALAR",
		"componentType":5123,
		"count":3210,
		"byteOffset":0,
		"min":[0],
		"max":[2013]
	},
	{
		"bufferView":1,
		"type":"VEC3",
		"componentType":5126,
		"count":2014,
		"byteOffset":0,
		"min":[0.0644683837890625,
		0.0,
		-1492.9100341796876],
		"max":[2042.3472900390626,
		300.0,
		0.011555671691894532]
	},
	{
		"bufferView":1,
		"type":"VEC2",
		"componentType":5126,
		"count":2014,
		"byteOffset":12,
		"min":[-410.211669921875,
		-404.57073974609377],
		"max":[7.1304731369018559,
		268.00335693359377]
	}],
	"bufferViews":[{
		"buffer":0,
		"byteOffset":0,
		"byteLength":6420,
		"target":34963
	},
	{
		"buffer":0,
		"byteOffset":6420,
		"byteLength":40280,
		"target":34962,
		"byteStride":20
	}],
	"buffers":[{
		"uri":"data:application/octet-stream;base64,",
		"byteLength":46700
	}],
	"materials":[{
		"pbrMetallicRoughness":{
			"baseColorFactor":[1.0,
			1.0,
			1.0,
			1.0],
			"metallicFactor":1.0,
			"roughnessFactor":1.0
		},
		"emissiveFactor":[0.0,
		0.0,
		0.0],
		"alphaMode":"OPAQUE",
		"doubleSided":false,
		"name":""
	}]
}