{
	"asset":{
		"version":"2.0",
		"generator":"Created using the official Cinema 4D glTF Exporter 1.000x290161"
	},
	"scenes":[{
		"nodes":[0]
	}],
	"nodes":[{
		"name":"1D0001",
		"mesh":0
	}],
	"meshes":[{
		"primitives":[{
			"attributes":{
				"POSITION":1,
				"TEXCOORD_0":2
			},
			"indices":0,
			"material":0
		}]
	}],
	"accessors":[{
		"bufferView":0,
		"type":"SCALAR",
		"componentType":5123,
		"count":5268,
		"byteOffset":0,
		"min":[0],
		"max":[3245]
	},
	{
		"bufferView":1,
		"type":"VEC3",
		"componentType":5126,
		"count":3246,
		"byteOffset":0,
		"min":[-67.95100402832031,
		0.0,
		-1492.885009765625],
		"max":[2042.3472900390626,
		300.0,
		1.011993408203125]
	},
	{
		"bufferView":1,
		"type":"VEC2",
		"componentType":5126,
		"count":3246,
		"byteOffset":12,
		"min":[-410.211669921875,
		-403.4246826171875],
		"max":[6.106825828552246,
		268.00335693359377]
	}],
	"bufferViews":[{
		"buffer":0,
		"byteOffset":0,
		"byteLength":10536,
		"target":34963
	},
	{
		"buffer":0,
		"byteOffset":10536,
		"byteLength":64920,
		"target":34962,
		"byteStride":20
	}],
	"buffers":[{
		"uri":"data:application/octet-stream;base64,",
		"byteLength":75456
	}],
	"materials":[{
		"pbrMetallicRoughness":{
			"baseColorFactor":[1.0,
			1.0,
			1.0,
			1.0],
			"metallicFactor":1.0,
			"roughnessFactor":1.0
		},
		"emissiveFactor":[0.0,
		0.0,
		0.0],
		"alphaMode":"OPAQUE",
		"doubleSided":false,
		"name":""
	}]
}