{
	"asset":{
		"version":"2.0",
		"generator":"Created using the official Cinema 4D glTF Exporter 1.000x290161"
	},
	"scenes":[{
		"nodes":[0]
	}],
	"nodes":[{
		"name":"1D0001",
		"mesh":0
	}],
	"meshes":[{
		"primitives":[{
			"attributes":{
				"POSITION":1,
				"TEXCOORD_0":2
			},
			"indices":0,
			"material":0
		}]
	}],
	"accessors":[{
		"bufferView":0,
		"type":"SCALAR",
		"componentType":5123,
		"count":4428,
		"byteOffset":0,
		"min":[0],
		"max":[2815]
	},
	{
		"bufferView":1,
		"type":"VEC3",
		"componentType":5126,
		"count":2816,
		"byteOffset":0,
		"min":[-40.99292755126953,
		0.0,
		-2151.0],
		"max":[4953.9931640625,
		300.0,
		336.000244140625]
	},
	{
		"bufferView":1,
		"type":"VEC2",
		"componentType":5126,
		"count":2816,
		"byteOffset":12,
		"min":[-424.76995849609377,
		1.0],
		"max":[24.46500015258789,
		268.00335693359377]
	}],
	"bufferViews":[{
		"buffer":0,
		"byteOffset":0,
		"byteLength":8856,
		"target":34963
	},
	{
		"buffer":0,
		"byteOffset":8856,
		"byteLength":56320,
		"target":34962,
		"byteStride":20
	}],
	"buffers":[{
		"uri":"data:application/octet-stream;base64,",
		"byteLength":65176
	}],
	"materials":[{
		"pbrMetallicRoughness":{
			"baseColorFactor":[1.0,
			1.0,
			1.0,
			1.0],
			"metallicFactor":1.0,
			"roughnessFactor":1.0
		},
		"emissiveFactor":[0.0,
		0.0,
		0.0],
		"alphaMode":"OPAQUE",
		"doubleSided":false,
		"name":""
	}]
}