{
	"asset":{
		"version":"2.0",
		"generator":"Created using the official Cinema 4D glTF Exporter 1.000x290161"
	},
	"scenes":[{
		"nodes":[0]
	}],
	"nodes":[{
		"name":"1D0001",
		"mesh":0
	}],
	"meshes":[{
		"primitives":[{
			"attributes":{
				"POSITION":1,
				"TEXCOORD_0":2
			},
			"indices":0,
			"material":0
		}]
	}],
	"accessors":[{
		"bufferView":0,
		"type":"SCALAR",
		"componentType":5123,
		"count":6294,
		"byteOffset":0,
		"min":[0],
		"max":[3967]
	},
	{
		"bufferView":1,
		"type":"VEC3",
		"componentType":5126,
		"count":3968,
		"byteOffset":0,
		"min":[2.507070541381836,
		0.0,
		-2669.492919921875],
		"max":[2973.882568359375,
		300.0,
		58.000465393066409]
	},
	{
		"bufferView":1,
		"type":"VEC2",
		"componentType":5126,
		"count":3968,
		"byteOffset":12,
		"min":[-416.451416015625,
		-412.568603515625],
		"max":[9.734292984008789,
		268.00335693359377]
	}],
	"bufferViews":[{
		"buffer":0,
		"byteOffset":0,
		"byteLength":12588,
		"target":34963
	},
	{
		"buffer":0,
		"byteOffset":12588,
		"byteLength":79360,
		"target":34962,
		"byteStride":20
	}],
	"buffers":[{
		"uri":"data:application/octet-stream;base64,",
		"byteLength":91948
	}],
	"materials":[{
		"pbrMetallicRoughness":{
			"baseColorFactor":[1.0,
			1.0,
			1.0,
			1.0],
			"metallicFactor":1.0,
			"roughnessFactor":1.0
		},
		"emissiveFactor":[0.0,
		0.0,
		0.0],
		"alphaMode":"OPAQUE",
		"doubleSided":false,
		"name":""
	}]
}