{
	"asset":{
		"version":"2.0",
		"generator":"Created using the official Cinema 4D glTF Exporter 1.000x290161"
	},
	"scenes":[{
		"nodes":[0]
	}],
	"nodes":[{
		"name":"1D0001",
		"mesh":0
	}],
	"meshes":[{
		"primitives":[{
			"attributes":{
				"POSITION":1,
				"TEXCOORD_0":2
			},
			"indices":0,
			"material":0
		}]
	}],
	"accessors":[{
		"bufferView":0,
		"type":"SCALAR",
		"componentType":5123,
		"count":11154,
		"byteOffset":0,
		"min":[0],
		"max":[7059]
	},
	{
		"bufferView":1,
		"type":"VEC3",
		"componentType":5126,
		"count":7060,
		"byteOffset":0,
		"min":[0.0,
		0.0,
		-1212.0],
		"max":[5367.8642578125,
		300.0,
		14.992927551269532]
	},
	{
		"bufferView":1,
		"type":"VEC2",
		"componentType":5126,
		"count":7060,
		"byteOffset":12,
		"min":[-426.83935546875,
		-414.32769775390627],
		"max":[12.548749923706055,
		268.00335693359377]
	}],
	"bufferViews":[{
		"buffer":0,
		"byteOffset":0,
		"byteLength":22308,
		"target":34963
	},
	{
		"buffer":0,
		"byteOffset":22308,
		"byteLength":141200,
		"target":34962,
		"byteStride":20
	}],
	"buffers":[{
		"uri":"data:application/octet-stream;base64,",
		"byteLength":163508
	}],
	"materials":[{
		"pbrMetallicRoughness":{
			"baseColorFactor":[1.0,
			1.0,
			1.0,
			1.0],
			"metallicFactor":1.0,
			"roughnessFactor":1.0
		},
		"emissiveFactor":[0.0,
		0.0,
		0.0],
		"alphaMode":"OPAQUE",
		"doubleSided":false,
		"name":""
	}]
}