{
	"asset":{
		"version":"2.0",
		"generator":"Created using the official Cinema 4D glTF Exporter 1.000x290161"
	},
	"scenes":[{
		"nodes":[0]
	}],
	"nodes":[{
		"name":"1D0001",
		"mesh":0
	}],
	"meshes":[{
		"primitives":[{
			"attributes":{
				"POSITION":1,
				"TEXCOORD_0":2
			},
			"indices":0,
			"material":0
		}]
	}],
	"accessors":[{
		"bufferView":0,
		"type":"SCALAR",
		"componentType":5123,
		"count":8880,
		"byteOffset":0,
		"min":[0],
		"max":[5571]
	},
	{
		"bufferView":1,
		"type":"VEC3",
		"componentType":5126,
		"count":5572,
		"byteOffset":0,
		"min":[-4.992938995361328,
		0.0,
		-1142.0],
		"max":[4767.85693359375,
		300.0,
		2.992929458618164]
	},
	{
		"bufferView":1,
		"type":"VEC2",
		"componentType":5126,
		"count":5572,
		"byteOffset":12,
		"min":[-423.83929443359377,
		-411.80975341796877],
		"max":[21.67682647705078,
		268.00335693359377]
	}],
	"bufferViews":[{
		"buffer":0,
		"byteOffset":0,
		"byteLength":17760,
		"target":34963
	},
	{
		"buffer":0,
		"byteOffset":17760,
		"byteLength":111440,
		"target":34962,
		"byteStride":20
	}],
	"buffers":[{
		"uri":"data:application/octet-stream;base64,",
		"byteLength":129200
	}],
	"materials":[{
		"pbrMetallicRoughness":{
			"baseColorFactor":[1.0,
			1.0,
			1.0,
			1.0],
			"metallicFactor":1.0,
			"roughnessFactor":1.0
		},
		"emissiveFactor":[0.0,
		0.0,
		0.0],
		"alphaMode":"OPAQUE",
		"doubleSided":false,
		"name":""
	}]
}