{
	"asset":{
		"version":"2.0",
		"generator":"Created using the official Cinema 4D glTF Exporter 1.000x290161"
	},
	"scenes":[{
		"nodes":[0]
	}],
	"nodes":[{
		"name":"1D0001",
		"mesh":0
	}],
	"meshes":[{
		"primitives":[{
			"attributes":{
				"POSITION":1,
				"TEXCOORD_0":2
			},
			"indices":0,
			"material":0
		}]
	}],
	"accessors":[{
		"bufferView":0,
		"type":"SCALAR",
		"componentType":5123,
		"count":7536,
		"byteOffset":0,
		"min":[0],
		"max":[4675]
	},
	{
		"bufferView":1,
		"type":"VEC3",
		"componentType":5126,
		"count":4676,
		"byteOffset":0,
		"min":[-8.574941635131836,
		0.0,
		-1137.2142333984376],
		"max":[3848.290283203125,
		300.0,
		293.04296875]
	},
	{
		"bufferView":1,
		"type":"VEC2",
		"componentType":5126,
		"count":4676,
		"byteOffset":12,
		"min":[-419.24139404296877,
		1.0],
		"max":[12.481306076049805,
		268.00335693359377]
	}],
	"bufferViews":[{
		"buffer":0,
		"byteOffset":0,
		"byteLength":15072,
		"target":34963
	},
	{
		"buffer":0,
		"byteOffset":15072,
		"byteLength":93520,
		"target":34962,
		"byteStride":20
	}],
	"buffers":[{
		"uri":"data:application/octet-stream;base64,",
		"byteLength":108592
	}],
	"materials":[{
		"pbrMetallicRoughness":{
			"baseColorFactor":[1.0,
			1.0,
			1.0,
			1.0],
			"metallicFactor":1.0,
			"roughnessFactor":1.0
		},
		"emissiveFactor":[0.0,
		0.0,
		0.0],
		"alphaMode":"OPAQUE",
		"doubleSided":false,
		"name":""
	}]
}