{
	"asset":{
		"version":"2.0",
		"generator":"Created using the official Cinema 4D glTF Exporter 1.000x290161"
	},
	"scenes":[{
		"nodes":[0]
	}],
	"nodes":[{
		"name":"1D0001",
		"mesh":0
	}],
	"meshes":[{
		"primitives":[{
			"attributes":{
				"POSITION":1,
				"TEXCOORD_0":2
			},
			"indices":0,
			"material":0
		}]
	}],
	"accessors":[{
		"bufferView":0,
		"type":"SCALAR",
		"componentType":5123,
		"count":3927,
		"byteOffset":0,
		"min":[0],
		"max":[2430]
	},
	{
		"bufferView":1,
		"type":"VEC3",
		"componentType":5126,
		"count":2431,
		"byteOffset":0,
		"min":[-8.572492599487305,
		0.0,
		-1134.2216796875],
		"max":[3847.9072265625,
		300.0,
		5.715902328491211]
	},
	{
		"bufferView":1,
		"type":"VEC2",
		"componentType":5126,
		"count":2431,
		"byteOffset":12,
		"min":[-419.239501953125,
		1.0],
		"max":[15.090389251708985,
		268.00335693359377]
	}],
	"bufferViews":[{
		"buffer":0,
		"byteOffset":0,
		"byteLength":7854,
		"target":34963
	},
	{
		"buffer":0,
		"byteOffset":7856,
		"byteLength":48620,
		"target":34962,
		"byteStride":20
	}],
	"buffers":[{
		"uri":"data:application/octet-stream;base64,",
		"byteLength":56476
	}],
	"materials":[{
		"pbrMetallicRoughness":{
			"baseColorFactor":[1.0,
			1.0,
			1.0,
			1.0],
			"metallicFactor":1.0,
			"roughnessFactor":1.0
		},
		"emissiveFactor":[0.0,
		0.0,
		0.0],
		"alphaMode":"OPAQUE",
		"doubleSided":false,
		"name":""
	}]
}