{
	"asset":{
		"version":"2.0",
		"generator":"Created using the official Cinema 4D glTF Exporter 1.000x290161"
	},
	"scenes":[{
		"nodes":[0]
	}],
	"nodes":[{
		"name":"1D0001",
		"mesh":0
	}],
	"meshes":[{
		"primitives":[{
			"attributes":{
				"POSITION":1,
				"TEXCOORD_0":2
			},
			"indices":0,
			"material":0
		}]
	}],
	"accessors":[{
		"bufferView":0,
		"type":"SCALAR",
		"componentType":5123,
		"count":8388,
		"byteOffset":0,
		"min":[0],
		"max":[5299]
	},
	{
		"bufferView":1,
		"type":"VEC3",
		"componentType":5126,
		"count":5300,
		"byteOffset":0,
		"min":[-7.0,
		0.0,
		-870.0],
		"max":[2354.0,
		300.0,
		24.09490966796875]
	},
	{
		"bufferView":1,
		"type":"VEC2",
		"componentType":5126,
		"count":5300,
		"byteOffset":12,
		"min":[-411.77001953125,
		-403.01165771484377],
		"max":[9.75,
		268.00335693359377]
	}],
	"bufferViews":[{
		"buffer":0,
		"byteOffset":0,
		"byteLength":16776,
		"target":34963
	},
	{
		"buffer":0,
		"byteOffset":16776,
		"byteLength":106000,
		"target":34962,
		"byteStride":20
	}],
	"buffers":[{
		"uri":"data:application/octet-stream;base64,",
		"byteLength":122776
	}],
	"materials":[{
		"pbrMetallicRoughness":{
			"baseColorFactor":[1.0,
			1.0,
			1.0,
			1.0],
			"metallicFactor":1.0,
			"roughnessFactor":1.0
		},
		"emissiveFactor":[0.0,
		0.0,
		0.0],
		"alphaMode":"OPAQUE",
		"doubleSided":false,
		"name":""
	}]
}