{
	"asset":{
		"version":"2.0",
		"generator":"Created using the official Cinema 4D glTF Exporter 1.000x290161"
	},
	"scenes":[{
		"nodes":[0]
	}],
	"nodes":[{
		"name":"1D0001",
		"mesh":0
	}],
	"meshes":[{
		"primitives":[{
			"attributes":{
				"POSITION":1,
				"TEXCOORD_0":2
			},
			"indices":0,
			"material":0
		}]
	}],
	"accessors":[{
		"bufferView":0,
		"type":"SCALAR",
		"componentType":5123,
		"count":20670,
		"byteOffset":0,
		"min":[0],
		"max":[12803]
	},
	{
		"bufferView":1,
		"type":"VEC3",
		"componentType":5126,
		"count":12804,
		"byteOffset":0,
		"min":[5.507070541381836,
		0.0,
		-1724.992919921875],
		"max":[6191.0,
		300.0,
		-5.507070541381836]
	},
	{
		"bufferView":1,
		"type":"VEC2",
		"componentType":5126,
		"count":12804,
		"byteOffset":12,
		"min":[-430.9549560546875,
		-427.79010009765627],
		"max":[51.25,
		268.00335693359377]
	}],
	"bufferViews":[{
		"buffer":0,
		"byteOffset":0,
		"byteLength":41340,
		"target":34963
	},
	{
		"buffer":0,
		"byteOffset":41340,
		"byteLength":256080,
		"target":34962,
		"byteStride":20
	}],
	"buffers":[{
		"uri":"data:application/octet-stream;base64,",
		"byteLength":297420
	}],
	"materials":[{
		"pbrMetallicRoughness":{
			"baseColorFactor":[1.0,
			1.0,
			1.0,
			1.0],
			"metallicFactor":1.0,
			"roughnessFactor":1.0
		},
		"emissiveFactor":[0.0,
		0.0,
		0.0],
		"alphaMode":"OPAQUE",
		"doubleSided":false,
		"name":""
	}]
}