{
	"asset":{
		"version":"2.0",
		"generator":"Created using the official Cinema 4D glTF Exporter 1.000x290161"
	},
	"scenes":[{
		"nodes":[0]
	}],
	"nodes":[{
		"name":"1D0001",
		"mesh":0
	}],
	"meshes":[{
		"primitives":[{
			"attributes":{
				"POSITION":1,
				"TEXCOORD_0":2
			},
			"indices":0,
			"material":0
		}]
	}],
	"accessors":[{
		"bufferView":0,
		"type":"SCALAR",
		"componentType":5123,
		"count":15105,
		"byteOffset":0,
		"min":[0],
		"max":[9162]
	},
	{
		"bufferView":1,
		"type":"VEC3",
		"componentType":5126,
		"count":9163,
		"byteOffset":0,
		"min":[-17.496932983398439,
		0.0,
		-1878.8348388671876],
		"max":[5578.4697265625,
		300.0,
		-5.0859527587890629]
	},
	{
		"bufferView":1,
		"type":"VEC2",
		"componentType":5126,
		"count":9163,
		"byteOffset":12,
		"min":[-427.892333984375,
		-407.281005859375],
		"max":[33.75,
		268.00335693359377]
	}],
	"bufferViews":[{
		"buffer":0,
		"byteOffset":0,
		"byteLength":30210,
		"target":34963
	},
	{
		"buffer":0,
		"byteOffset":30212,
		"byteLength":183260,
		"target":34962,
		"byteStride":20
	}],
	"buffers":[{
		"uri":"data:application/octet-stream;base64,",
		"byteLength":213472
	}],
	"materials":[{
		"pbrMetallicRoughness":{
			"baseColorFactor":[1.0,
			1.0,
			1.0,
			1.0],
			"metallicFactor":1.0,
			"roughnessFactor":1.0
		},
		"emissiveFactor":[0.0,
		0.0,
		0.0],
		"alphaMode":"OPAQUE",
		"doubleSided":false,
		"name":""
	}]
}