{
	"asset":{
		"version":"2.0",
		"generator":"Created using the official Cinema 4D glTF Exporter 1.000x290161"
	},
	"scenes":[{
		"nodes":[0]
	}],
	"nodes":[{
		"name":"1D0001",
		"mesh":0
	}],
	"meshes":[{
		"primitives":[{
			"attributes":{
				"POSITION":1,
				"TEXCOORD_0":2
			},
			"indices":0,
			"material":0
		}]
	}],
	"accessors":[{
		"bufferView":0,
		"type":"SCALAR",
		"componentType":5123,
		"count":15492,
		"byteOffset":0,
		"min":[0],
		"max":[9677]
	},
	{
		"bufferView":1,
		"type":"VEC3",
		"componentType":5126,
		"count":9678,
		"byteOffset":0,
		"min":[-0.562652587890625,
		-7.887163686916276e-13,
		-2427.183349609375],
		"max":[5581.30517578125,
		300.0,
		215.73289489746095]
	},
	{
		"bufferView":1,
		"type":"VEC2",
		"componentType":5126,
		"count":9678,
		"byteOffset":12,
		"min":[-427.906494140625,
		-426.78973388671877],
		"max":[21.077381134033204,
		268.00335693359377]
	}],
	"bufferViews":[{
		"buffer":0,
		"byteOffset":0,
		"byteLength":30984,
		"target":34963
	},
	{
		"buffer":0,
		"byteOffset":30984,
		"byteLength":193560,
		"target":34962,
		"byteStride":20
	}],
	"buffers":[{
		"uri":"data:application/octet-stream;base64,",
		"byteLength":224544
	}],
	"materials":[{
		"pbrMetallicRoughness":{
			"baseColorFactor":[1.0,
			1.0,
			1.0,
			1.0],
			"metallicFactor":1.0,
			"roughnessFactor":1.0
		},
		"emissiveFactor":[0.0,
		0.0,
		0.0],
		"alphaMode":"OPAQUE",
		"doubleSided":false,
		"name":""
	}]
}