{
	"asset":{
		"version":"2.0",
		"generator":"Created using the official Cinema 4D glTF Exporter 1.000x290161"
	},
	"scenes":[{
		"nodes":[0]
	}],
	"nodes":[{
		"name":"1D0001",
		"mesh":0
	}],
	"meshes":[{
		"primitives":[{
			"attributes":{
				"POSITION":1,
				"TEXCOORD_0":2
			},
			"indices":0,
			"material":0
		}]
	}],
	"accessors":[{
		"bufferView":0,
		"type":"SCALAR",
		"componentType":5123,
		"count":8184,
		"byteOffset":0,
		"min":[0],
		"max":[5155]
	},
	{
		"bufferView":1,
		"type":"VEC3",
		"componentType":5126,
		"count":5156,
		"byteOffset":0,
		"min":[0.39584922790527346,
		0.0,
		-1869.992431640625],
		"max":[5578.47900390625,
		300.0,
		6.810691833496094]
	},
	{
		"bufferView":1,
		"type":"VEC2",
		"componentType":5126,
		"count":5156,
		"byteOffset":12,
		"min":[-427.89239501953127,
		-426.80279541015627],
		"max":[33.75,
		268.00335693359377]
	}],
	"bufferViews":[{
		"buffer":0,
		"byteOffset":0,
		"byteLength":16368,
		"target":34963
	},
	{
		"buffer":0,
		"byteOffset":16368,
		"byteLength":103120,
		"target":34962,
		"byteStride":20
	}],
	"buffers":[{
		"uri":"data:application/octet-stream;base64,",
		"byteLength":119488
	}],
	"materials":[{
		"pbrMetallicRoughness":{
			"baseColorFactor":[1.0,
			1.0,
			1.0,
			1.0],
			"metallicFactor":1.0,
			"roughnessFactor":1.0
		},
		"emissiveFactor":[0.0,
		0.0,
		0.0],
		"alphaMode":"OPAQUE",
		"doubleSided":false,
		"name":""
	}]
}