{
	"asset":{
		"version":"2.0",
		"generator":"Created using the official Cinema 4D glTF Exporter 1.000x290161"
	},
	"scenes":[{
		"nodes":[0]
	}],
	"nodes":[{
		"name":"1D0001",
		"mesh":0
	}],
	"meshes":[{
		"primitives":[{
			"attributes":{
				"POSITION":1,
				"TEXCOORD_0":2
			},
			"indices":0,
			"material":0
		}]
	}],
	"accessors":[{
		"bufferView":0,
		"type":"SCALAR",
		"componentType":5123,
		"count":16812,
		"byteOffset":0,
		"min":[0],
		"max":[10447]
	},
	{
		"bufferView":1,
		"type":"VEC3",
		"componentType":5126,
		"count":10448,
		"byteOffset":0,
		"min":[-1.6178627014160157,
		-1.5818894588334742e-12,
		-1877.3228759765626],
		"max":[5580.228515625,
		300.0,
		-1.058074951171875]
	},
	{
		"bufferView":1,
		"type":"VEC2",
		"componentType":5126,
		"count":10448,
		"byteOffset":12,
		"min":[-427.901123046875,
		-407.22650146484377],
		"max":[33.75,
		268.00335693359377]
	}],
	"bufferViews":[{
		"buffer":0,
		"byteOffset":0,
		"byteLength":33624,
		"target":34963
	},
	{
		"buffer":0,
		"byteOffset":33624,
		"byteLength":208960,
		"target":34962,
		"byteStride":20
	}],
	"buffers":[{
		"uri":"data:application/octet-stream;base64,",
		"byteLength":242584
	}],
	"materials":[{
		"pbrMetallicRoughness":{
			"baseColorFactor":[1.0,
			1.0,
			1.0,
			1.0],
			"metallicFactor":1.0,
			"roughnessFactor":1.0
		},
		"emissiveFactor":[0.0,
		0.0,
		0.0],
		"alphaMode":"OPAQUE",
		"doubleSided":false,
		"name":""
	}]
}