{
	"asset":{
		"version":"2.0",
		"generator":"Created using the official Cinema 4D glTF Exporter 1.000x290161"
	},
	"scenes":[{
		"nodes":[0]
	}],
	"nodes":[{
		"name":"1D0001",
		"mesh":0
	}],
	"meshes":[{
		"primitives":[{
			"attributes":{
				"POSITION":1,
				"TEXCOORD_0":2
			},
			"indices":0,
			"material":0
		}]
	}],
	"accessors":[{
		"bufferView":0,
		"type":"SCALAR",
		"componentType":5123,
		"count":12474,
		"byteOffset":0,
		"min":[0],
		"max":[7819]
	},
	{
		"bufferView":1,
		"type":"VEC3",
		"componentType":5126,
		"count":7820,
		"byteOffset":0,
		"min":[-0.37738037109375,
		0.0,
		-1871.2967529296876],
		"max":[5580.4609375,
		300.0,
		0.6497116088867188]
	},
	{
		"bufferView":1,
		"type":"VEC2",
		"componentType":5126,
		"count":7820,
		"byteOffset":12,
		"min":[-427.90228271484377,
		-426.74871826171877],
		"max":[15.163398742675782,
		268.00335693359377]
	}],
	"bufferViews":[{
		"buffer":0,
		"byteOffset":0,
		"byteLength":24948,
		"target":34963
	},
	{
		"buffer":0,
		"byteOffset":24948,
		"byteLength":156400,
		"target":34962,
		"byteStride":20
	}],
	"buffers":[{
		"uri":"data:application/octet-stream;base64,",
		"byteLength":181348
	}],
	"materials":[{
		"pbrMetallicRoughness":{
			"baseColorFactor":[1.0,
			1.0,
			1.0,
			1.0],
			"metallicFactor":1.0,
			"roughnessFactor":1.0
		},
		"emissiveFactor":[0.0,
		0.0,
		0.0],
		"alphaMode":"OPAQUE",
		"doubleSided":false,
		"name":""
	}]
}