{
	"asset":{
		"version":"2.0",
		"generator":"Created using the official Cinema 4D glTF Exporter 1.000x290161"
	},
	"scenes":[{
		"nodes":[0]
	}],
	"nodes":[{
		"name":"1D0001",
		"mesh":0
	}],
	"meshes":[{
		"primitives":[{
			"attributes":{
				"POSITION":1,
				"TEXCOORD_0":2
			},
			"indices":0,
			"material":0
		}]
	}],
	"accessors":[{
		"bufferView":0,
		"type":"SCALAR",
		"componentType":5123,
		"count":23406,
		"byteOffset":0,
		"min":[0],
		"max":[14003]
	},
	{
		"bufferView":1,
		"type":"VEC3",
		"componentType":5126,
		"count":14004,
		"byteOffset":0,
		"min":[0.03749847412109375,
		-1.6207862959735642e-13,
		-1922.5289306640626],
		"max":[5582.53662109375,
		300.0,
		-0.15393447875976563]
	},
	{
		"bufferView":1,
		"type":"VEC2",
		"componentType":5126,
		"count":14004,
		"byteOffset":12,
		"min":[-427.9127197265625,
		-426.85552978515627],
		"max":[33.75,
		268.00335693359377]
	}],
	"bufferViews":[{
		"buffer":0,
		"byteOffset":0,
		"byteLength":46812,
		"target":34963
	},
	{
		"buffer":0,
		"byteOffset":46812,
		"byteLength":280080,
		"target":34962,
		"byteStride":20
	}],
	"buffers":[{
		"uri":"data:application/octet-stream;base64,",
		"byteLength":326892
	}],
	"materials":[{
		"pbrMetallicRoughness":{
			"baseColorFactor":[1.0,
			1.0,
			1.0,
			1.0],
			"metallicFactor":1.0,
			"roughnessFactor":1.0
		},
		"emissiveFactor":[0.0,
		0.0,
		0.0],
		"alphaMode":"OPAQUE",
		"doubleSided":false,
		"name":""
	}]
}