{
	"asset":{
		"version":"2.0",
		"generator":"Created using the official Cinema 4D glTF Exporter 1.000x290161"
	},
	"scenes":[{
		"nodes":[0]
	}],
	"nodes":[{
		"name":"1D0001",
		"mesh":0
	}],
	"meshes":[{
		"primitives":[{
			"attributes":{
				"POSITION":1,
				"TEXCOORD_0":2
			},
			"indices":0,
			"material":0
		}]
	}],
	"accessors":[{
		"bufferView":0,
		"type":"SCALAR",
		"componentType":5123,
		"count":11640,
		"byteOffset":0,
		"min":[0],
		"max":[7307]
	},
	{
		"bufferView":1,
		"type":"VEC3",
		"componentType":5126,
		"count":7308,
		"byteOffset":0,
		"min":[-17.993492126464845,
		0.0,
		-1820.9627685546876],
		"max":[5507.99365234375,
		300.0,
		0.5467376708984375]
	},
	{
		"bufferView":1,
		"type":"VEC2",
		"componentType":5126,
		"count":7308,
		"byteOffset":12,
		"min":[-427.53997802734377,
		-407.1519775390625],
		"max":[11.799999237060547,
		268.00335693359377]
	}],
	"bufferViews":[{
		"buffer":0,
		"byteOffset":0,
		"byteLength":23280,
		"target":34963
	},
	{
		"buffer":0,
		"byteOffset":23280,
		"byteLength":146160,
		"target":34962,
		"byteStride":20
	}],
	"buffers":[{
		"uri":"data:application/octet-stream;base64,",
		"byteLength":169440
	}],
	"materials":[{
		"pbrMetallicRoughness":{
			"baseColorFactor":[1.0,
			1.0,
			1.0,
			1.0],
			"metallicFactor":1.0,
			"roughnessFactor":1.0
		},
		"emissiveFactor":[0.0,
		0.0,
		0.0],
		"alphaMode":"OPAQUE",
		"doubleSided":false,
		"name":""
	}]
}