{
	"asset":{
		"version":"2.0",
		"generator":"Created using the official Cinema 4D glTF Exporter 1.000x290161"
	},
	"scenes":[{
		"nodes":[0]
	}],
	"nodes":[{
		"name":"1D0001",
		"mesh":0
	}],
	"meshes":[{
		"primitives":[{
			"attributes":{
				"POSITION":1,
				"TEXCOORD_0":2
			},
			"indices":0,
			"material":0
		}]
	}],
	"accessors":[{
		"bufferView":0,
		"type":"SCALAR",
		"componentType":5123,
		"count":2172,
		"byteOffset":0,
		"min":[0],
		"max":[1383]
	},
	{
		"bufferView":1,
		"type":"VEC3",
		"componentType":5126,
		"count":1384,
		"byteOffset":0,
		"min":[-0.9929294586181641,
		0.0,
		-732.992919921875],
		"max":[2458.0,
		300.0,
		37.0]
	},
	{
		"bufferView":1,
		"type":"VEC2",
		"componentType":5126,
		"count":1384,
		"byteOffset":12,
		"min":[-412.28997802734377,
		-400.93011474609377],
		"max":[6.697500228881836,
		268.00335693359377]
	}],
	"bufferViews":[{
		"buffer":0,
		"byteOffset":0,
		"byteLength":4344,
		"target":34963
	},
	{
		"buffer":0,
		"byteOffset":4344,
		"byteLength":27680,
		"target":34962,
		"byteStride":20
	}],
	"buffers":[{
		"uri":"data:application/octet-stream;base64,",
		"byteLength":32024
	}],
	"materials":[{
		"pbrMetallicRoughness":{
			"baseColorFactor":[1.0,
			1.0,
			1.0,
			1.0],
			"metallicFactor":1.0,
			"roughnessFactor":1.0
		},
		"emissiveFactor":[0.0,
		0.0,
		0.0],
		"alphaMode":"OPAQUE",
		"doubleSided":false,
		"name":""
	}]
}