{
	"asset":{
		"version":"2.0",
		"generator":"Created using the official Cinema 4D glTF Exporter 1.000x290161"
	},
	"scenes":[{
		"nodes":[0]
	}],
	"nodes":[{
		"name":"1D0001",
		"mesh":0
	}],
	"meshes":[{
		"primitives":[{
			"attributes":{
				"POSITION":1,
				"TEXCOORD_0":2
			},
			"indices":0,
			"material":0
		}]
	}],
	"accessors":[{
		"bufferView":0,
		"type":"SCALAR",
		"componentType":5123,
		"count":8412,
		"byteOffset":0,
		"min":[0],
		"max":[5207]
	},
	{
		"bufferView":1,
		"type":"VEC3",
		"componentType":5126,
		"count":5208,
		"byteOffset":0,
		"min":[11.0,
		0.0,
		-2083.259765625],
		"max":[6196.48583984375,
		300.0,
		0.0]
	},
	{
		"bufferView":1,
		"type":"VEC2",
		"componentType":5126,
		"count":5208,
		"byteOffset":12,
		"min":[-430.9774169921875,
		-428.18182373046877],
		"max":[21.502300262451173,
		268.00335693359377]
	}],
	"bufferViews":[{
		"buffer":0,
		"byteOffset":0,
		"byteLength":16824,
		"target":34963
	},
	{
		"buffer":0,
		"byteOffset":16824,
		"byteLength":104160,
		"target":34962,
		"byteStride":20
	}],
	"buffers":[{
		"uri":"data:application/octet-stream;base64,",
		"byteLength":120984
	}],
	"materials":[{
		"pbrMetallicRoughness":{
			"baseColorFactor":[1.0,
			1.0,
			1.0,
			1.0],
			"metallicFactor":1.0,
			"roughnessFactor":1.0
		},
		"emissiveFactor":[0.0,
		0.0,
		0.0],
		"alphaMode":"OPAQUE",
		"doubleSided":false,
		"name":""
	}]
}