{
	"asset":{
		"version":"2.0",
		"generator":"Created using the official Cinema 4D glTF Exporter 1.000x290161"
	},
	"scenes":[{
		"nodes":[0]
	}],
	"nodes":[{
		"name":"1D0001",
		"mesh":0
	}],
	"meshes":[{
		"primitives":[{
			"attributes":{
				"POSITION":1,
				"TEXCOORD_0":2
			},
			"indices":0,
			"material":0
		}]
	}],
	"accessors":[{
		"bufferView":0,
		"type":"SCALAR",
		"componentType":5123,
		"count":19491,
		"byteOffset":0,
		"min":[0],
		"max":[11824]
	},
	{
		"bufferView":1,
		"type":"VEC3",
		"componentType":5126,
		"count":11825,
		"byteOffset":0,
		"min":[8.5,
		0.0,
		-3316.5],
		"max":[5497.5,
		300.0,
		-8.5]
	},
	{
		"bufferView":1,
		"type":"VEC2",
		"componentType":5126,
		"count":11825,
		"byteOffset":12,
		"min":[-427.48748779296877,
		-422.20947265625],
		"max":[19.58749771118164,
		268.00335693359377]
	}],
	"bufferViews":[{
		"buffer":0,
		"byteOffset":0,
		"byteLength":38982,
		"target":34963
	},
	{
		"buffer":0,
		"byteOffset":38984,
		"byteLength":236500,
		"target":34962,
		"byteStride":20
	}],
	"buffers":[{
		"uri":"data:application/octet-stream;base64,",
		"byteLength":275484
	}],
	"materials":[{
		"pbrMetallicRoughness":{
			"baseColorFactor":[1.0,
			1.0,
			1.0,
			1.0],
			"metallicFactor":1.0,
			"roughnessFactor":1.0
		},
		"emissiveFactor":[0.0,
		0.0,
		0.0],
		"alphaMode":"OPAQUE",
		"doubleSided":false,
		"name":""
	}]
}