{
	"asset":{
		"version":"2.0",
		"generator":"Created using the official Cinema 4D glTF Exporter 1.000x290161"
	},
	"scenes":[{
		"nodes":[0]
	}],
	"nodes":[{
		"name":"1D0001",
		"mesh":0
	}],
	"meshes":[{
		"primitives":[{
			"attributes":{
				"POSITION":1,
				"TEXCOORD_0":2
			},
			"indices":0,
			"material":0
		}]
	}],
	"accessors":[{
		"bufferView":0,
		"type":"SCALAR",
		"componentType":5123,
		"count":6564,
		"byteOffset":0,
		"min":[0],
		"max":[4155]
	},
	{
		"bufferView":1,
		"type":"VEC3",
		"componentType":5126,
		"count":4156,
		"byteOffset":0,
		"min":[-5.0,
		0.0,
		-912.5],
		"max":[5892.0,
		300.0,
		5.0]
	},
	{
		"bufferView":1,
		"type":"VEC2",
		"componentType":5126,
		"count":4156,
		"byteOffset":12,
		"min":[-429.4599609375,
		-421.8712158203125],
		"max":[29.28499984741211,
		268.00335693359377]
	}],
	"bufferViews":[{
		"buffer":0,
		"byteOffset":0,
		"byteLength":13128,
		"target":34963
	},
	{
		"buffer":0,
		"byteOffset":13128,
		"byteLength":83120,
		"target":34962,
		"byteStride":20
	}],
	"buffers":[{
		"uri":"data:application/octet-stream;base64,",
		"byteLength":96248
	}],
	"materials":[{
		"pbrMetallicRoughness":{
			"baseColorFactor":[1.0,
			1.0,
			1.0,
			1.0],
			"metallicFactor":1.0,
			"roughnessFactor":1.0
		},
		"emissiveFactor":[0.0,
		0.0,
		0.0],
		"alphaMode":"OPAQUE",
		"doubleSided":false,
		"name":""
	}]
}