{
	"asset":{
		"version":"2.0",
		"generator":"Created using the official Cinema 4D glTF Exporter 1.000x290161"
	},
	"scenes":[{
		"nodes":[0,
		2,
		4]
	}],
	"nodes":[{
		"name":"door",
		"children":[1]
	},
	{
		"name":"1St0053",
		"mesh":0
	},
	{
		"name":"floor",
		"children":[3]
	},
	{
		"name":"1S0001",
		"mesh":1
	},
	{
		"name":"wall",
		"children":[5]
	},
	{
		"name":"1W0002",
		"mesh":2
	}],
	"meshes":[{
		"primitives":[{
			"attributes":{
				"POSITION":1
			},
			"indices":0,
			"material":0
		}]
	},
	{
		"primitives":[{
			"attributes":{
				"POSITION":3
			},
			"indices":2,
			"material":1
		}]
	},
	{
		"primitives":[{
			"attributes":{
				"POSITION":5
			},
			"indices":4,
			"material":2
		}]
	}],
	"accessors":[{
		"bufferView":0,
		"componentType":5123,
		"type":"SCALAR",
		"min":[0],
		"count":828,
		"byteOffset":0,
		"max":[551]
	},
	{
		"bufferView":1,
		"componentType":5126,
		"type":"VEC3",
		"min":[55.826412200927737,
		0.0,
		-751.81640625],
		"count":552,
		"byteOffset":0,
		"max":[304.38397216796877,
		300.0,
		-383.4844055175781]
	},
	{
		"bufferView":2,
		"componentType":5123,
		"type":"SCALAR",
		"min":[0],
		"count":42,
		"byteOffset":0,
		"max":[15]
	},
	{
		"bufferView":3,
		"componentType":5126,
		"type":"VEC3",
		"min":[28.0,
		0.0,
		-782.2684326171875],
		"count":16,
		"byteOffset":0,
		"max":[1232.8997802734376,
		0.0,
		-28.0]
	},
	{
		"bufferView":4,
		"componentType":5123,
		"type":"SCALAR",
		"min":[0],
		"count":768,
		"byteOffset":0,
		"max":[511]
	},
	{
		"bufferView":5,
		"componentType":5126,
		"type":"VEC3",
		"min":[0.5070705413818359,
		0.0,
		-809.7613525390625],
		"count":512,
		"byteOffset":0,
		"max":[1260.3927001953126,
		300.0,
		-0.5070705413818359]
	}],
	"bufferViews":[{
		"buffer":0,
		"byteOffset":0,
		"byteLength":1656,
		"target":34963
	},
	{
		"buffer":0,
		"byteOffset":1656,
		"byteLength":6624,
		"target":34962
	},
	{
		"buffer":1,
		"byteOffset":0,
		"byteLength":84,
		"target":34963
	},
	{
		"buffer":1,
		"byteOffset":84,
		"byteLength":192,
		"target":34962
	},
	{
		"buffer":2,
		"byteOffset":0,
		"byteLength":1536,
		"target":34963
	},
	{
		"buffer":2,
		"byteOffset":1536,
		"byteLength":6144,
		"target":34962
	}],
	"buffers":[{
		"uri":"data:application/octet-stream;base64,",
		"byteLength":8280
	},
	{
		"uri":"data:application/octet-stream;base64,",
		"byteLength":276
	},
	{
		"uri":"data:application/octet-stream;base64,",
		"byteLength":7680
	}],
	"materials":[{
		"pbrMetallicRoughness":{
			"baseColorFactor":[1.0,
			1.0,
			1.0,
			1.0],
			"metallicFactor":1.0,
			"roughnessFactor":1.0
		},
		"emissiveFactor":[0.0,
		0.0,
		0.0],
		"alphaMode":"OPAQUE",
		"doubleSided":true,
		"name":""
	},
	{
		"pbrMetallicRoughness":{
			"baseColorFactor":[1.0,
			1.0,
			1.0,
			1.0],
			"metallicFactor":1.0,
			"roughnessFactor":1.0
		},
		"emissiveFactor":[0.0,
		0.0,
		0.0],
		"alphaMode":"OPAQUE",
		"doubleSided":true,
		"name":""
	},
	{
		"pbrMetallicRoughness":{
			"baseColorFactor":[1.0,
			1.0,
			1.0,
			1.0],
			"metallicFactor":1.0,
			"roughnessFactor":1.0
		},
		"emissiveFactor":[0.0,
		0.0,
		0.0],
		"alphaMode":"OPAQUE",
		"doubleSided":true,
		"name":""
	}]
}