{
	"asset":{
		"version":"2.0",
		"generator":"Created using the official Cinema 4D glTF Exporter 1.000x290161"
	},
	"scenes":[{
		"nodes":[0,
		2]
	}],
	"nodes":[{
		"name":"floor",
		"translation":[0.0,
		0.0,
		489.9601745605469],
		"rotation":[0.0,
		0.0,
		0.0,
		-1.0],
		"scale":[1.0,
		1.0,
		1.0],
		"children":[1]
	},
	{
		"name":"1D0009.1",
		"mesh":0
	},
	{
		"name":"wall",
		"translation":[0.0,
		0.0,
		489.9601745605469],
		"rotation":[0.0,
		0.0,
		0.0,
		-1.0],
		"scale":[1.0,
		1.0,
		1.0],
		"children":[3]
	},
	{
		"name":"1D0009",
		"mesh":1
	}],
	"meshes":[{
		"primitives":[{
			"attributes":{
				"POSITION":1,
				"NORMAL":2,
				"TEXCOORD_0":3
			},
			"indices":0,
			"material":0
		}]
	},
	{
		"primitives":[{
			"attributes":{
				"POSITION":5,
				"NORMAL":6,
				"TEXCOORD_0":7
			},
			"indices":4,
			"material":1
		}]
	}],
	"accessors":[{
		"bufferView":0,
		"type":"SCALAR",
		"componentType":5123,
		"count":696,
		"byteOffset":0,
		"min":[0],
		"max":[401]
	},
	{
		"bufferView":1,
		"type":"VEC3",
		"componentType":5126,
		"count":402,
		"byteOffset":0,
		"min":[670.223876953125,
		0.0,
		-2168.205322265625],
		"max":[1960.5616455078126,
		0.0,
		-491.4601745605469]
	},
	{
		"bufferView":1,
		"type":"VEC3",
		"componentType":5126,
		"count":402,
		"byteOffset":12,
		"min":[0.0,
		-1.0,
		0.0],
		"max":[0.0,
		1.0,
		0.0]
	},
	{
		"bufferView":1,
		"type":"VEC2",
		"componentType":5126,
		"count":402,
		"byteOffset":24,
		"min":[-408.0987548828125,
		-407.10186767578127],
		"max":[7.540343284606934,
		9.254999160766602]
	},
	{
		"bufferView":2,
		"type":"SCALAR",
		"componentType":5123,
		"count":3825,
		"byteOffset":0,
		"min":[0],
		"max":[2504]
	},
	{
		"bufferView":3,
		"type":"VEC3",
		"componentType":5126,
		"count":2505,
		"byteOffset":0,
		"min":[670.223876953125,
		0.0,
		-2168.205322265625],
		"max":[1960.5616455078126,
		300.0,
		-491.4601745605469]
	},
	{
		"bufferView":3,
		"type":"VEC3",
		"componentType":5126,
		"count":2505,
		"byteOffset":12,
		"min":[-1.0,
		-1.0,
		-1.0],
		"max":[1.0,
		1.0,
		1.0]
	},
	{
		"bufferView":3,
		"type":"VEC2",
		"componentType":5126,
		"count":2505,
		"byteOffset":24,
		"min":[-409.80279541015627,
		-407.10186767578127],
		"max":[33.75,
		268.00335693359377]
	}],
	"bufferViews":[{
		"buffer":0,
		"byteOffset":0,
		"byteLength":1392,
		"target":34963
	},
	{
		"buffer":0,
		"byteOffset":1392,
		"byteLength":12864,
		"target":34962,
		"byteStride":32
	},
	{
		"buffer":1,
		"byteOffset":0,
		"byteLength":7650,
		"target":34963
	},
	{
		"buffer":1,
		"byteOffset":7652,
		"byteLength":80160,
		"target":34962,
		"byteStride":32
	}],
	"buffers":[{
		"uri":"data:application/octet-stream;base64,",
		"byteLength":14256
	},
	{
		"uri":"data:application/octet-stream;base64,",
		"byteLength":87812
	}],
	"materials":[{
		"pbrMetallicRoughness":{
			"baseColorFactor":[1.0,
			1.0,
			1.0,
			1.0],
			"metallicFactor":1.0,
			"roughnessFactor":1.0
		},
		"emissiveFactor":[0.0,
		0.0,
		0.0],
		"alphaMode":"OPAQUE",
		"doubleSided":true,
		"name":""
	},
	{
		"pbrMetallicRoughness":{
			"baseColorFactor":[1.0,
			1.0,
			1.0,
			1.0],
			"metallicFactor":1.0,
			"roughnessFactor":1.0
		},
		"emissiveFactor":[0.0,
		0.0,
		0.0],
		"alphaMode":"OPAQUE",
		"doubleSided":true,
		"name":""
	}]
}