{
	"asset":{
		"version":"2.0",
		"generator":"Created using the official Cinema 4D glTF Exporter 1.000x290161"
	},
	"scenes":[{
		"nodes":[0,
		9,
		11]
	}],
	"nodes":[{
		"name":"door",
		"children":[1,
		2,
		3,
		4,
		5,
		6,
		7,
		8]
	},
	{
		"name":"1St0089",
		"mesh":0
	},
	{
		"name":"1St008a",
		"mesh":1
	},
	{
		"name":"1D0001",
		"mesh":2
	},
	{
		"name":"1D0002",
		"mesh":3
	},
	{
		"name":"1D0003",
		"mesh":4
	},
	{
		"name":"1D0004",
		"mesh":5
	},
	{
		"name":"1D0005",
		"mesh":6
	},
	{
		"name":"1D0006",
		"mesh":7
	},
	{
		"name":"floor",
		"children":[10]
	},
	{
		"name":"1S0007",
		"mesh":8
	},
	{
		"name":"wall",
		"children":[12]
	},
	{
		"name":"1W000a",
		"mesh":9
	}],
	"meshes":[{
		"primitives":[{
			"attributes":{
				"POSITION":1
			},
			"indices":0,
			"material":0
		}]
	},
	{
		"primitives":[{
			"attributes":{
				"POSITION":3
			},
			"indices":2,
			"material":1
		}]
	},
	{
		"primitives":[{
			"attributes":{
				"POSITION":5
			},
			"indices":4,
			"material":2
		}]
	},
	{
		"primitives":[{
			"attributes":{
				"POSITION":7
			},
			"indices":6,
			"material":3
		}]
	},
	{
		"primitives":[{
			"attributes":{
				"POSITION":9
			},
			"indices":8,
			"material":4
		}]
	},
	{
		"primitives":[{
			"attributes":{
				"POSITION":11
			},
			"indices":10,
			"material":5
		}]
	},
	{
		"primitives":[{
			"attributes":{
				"POSITION":13
			},
			"indices":12,
			"material":6
		}]
	},
	{
		"primitives":[{
			"attributes":{
				"POSITION":15
			},
			"indices":14,
			"material":7
		}]
	},
	{
		"primitives":[{
			"attributes":{
				"POSITION":17
			},
			"indices":16,
			"material":8
		}]
	},
	{
		"primitives":[{
			"attributes":{
				"POSITION":19
			},
			"indices":18,
			"material":9
		}]
	}],
	"accessors":[{
		"bufferView":0,
		"type":"SCALAR",
		"componentType":5123,
		"count":396,
		"byteOffset":0,
		"min":[0],
		"max":[263]
	},
	{
		"bufferView":1,
		"type":"VEC3",
		"componentType":5126,
		"count":264,
		"byteOffset":0,
		"min":[2158.25,
		0.0,
		-386.0312194824219],
		"max":[2258.25,
		300.0,
		-148.0]
	},
	{
		"bufferView":2,
		"type":"SCALAR",
		"componentType":5123,
		"count":396,
		"byteOffset":0,
		"min":[0],
		"max":[263]
	},
	{
		"bufferView":3,
		"type":"VEC3",
		"componentType":5126,
		"count":264,
		"byteOffset":0,
		"min":[2275.75,
		0.0,
		-361.0],
		"max":[2375.75,
		300.0,
		-115.73416900634766]
	},
	{
		"bufferView":4,
		"type":"SCALAR",
		"componentType":5123,
		"count":36,
		"byteOffset":0,
		"min":[0],
		"max":[23]
	},
	{
		"bufferView":5,
		"type":"VEC3",
		"componentType":5126,
		"count":24,
		"byteOffset":0,
		"min":[2151.000244140625,
		0.0,
		-511.3360595703125],
		"max":[2235.000244140625,
		205.0,
		-505.33599853515627]
	},
	{
		"bufferView":6,
		"type":"SCALAR",
		"componentType":5123,
		"count":36,
		"byteOffset":0,
		"min":[0],
		"max":[23]
	},
	{
		"bufferView":7,
		"type":"VEC3",
		"componentType":5126,
		"count":24,
		"byteOffset":0,
		"min":[2151.0,
		0.0,
		-397.3360290527344],
		"max":[2187.0,
		205.0,
		-391.33599853515627]
	},
	{
		"bufferView":8,
		"type":"SCALAR",
		"componentType":5123,
		"count":84,
		"byteOffset":0,
		"min":[0],
		"max":[47]
	},
	{
		"bufferView":9,
		"type":"VEC3",
		"componentType":5126,
		"count":48,
		"byteOffset":0,
		"min":[2145.0,
		0.0,
		-516.3363647460938],
		"max":[2151.0,
		210.0,
		-386.33636474609377]
	},
	{
		"bufferView":10,
		"type":"SCALAR",
		"componentType":5123,
		"count":36,
		"byteOffset":0,
		"min":[0],
		"max":[23]
	},
	{
		"bufferView":11,
		"type":"VEC3",
		"componentType":5126,
		"count":24,
		"byteOffset":0,
		"min":[811.5000610351563,
		0.0,
		-567.4661865234375],
		"max":[886.5000610351563,
		205.0,
		-561.4661254882813]
	},
	{
		"bufferView":12,
		"type":"SCALAR",
		"componentType":5123,
		"count":36,
		"byteOffset":0,
		"min":[0],
		"max":[23]
	},
	{
		"bufferView":13,
		"type":"VEC3",
		"componentType":5126,
		"count":24,
		"byteOffset":0,
		"min":[811.5001831054688,
		0.0,
		-423.4660949707031],
		"max":[886.5001831054688,
		205.0,
		-417.466064453125]
	},
	{
		"bufferView":14,
		"type":"SCALAR",
		"componentType":5123,
		"count":84,
		"byteOffset":0,
		"min":[0],
		"max":[47]
	},
	{
		"bufferView":15,
		"type":"VEC3",
		"componentType":5126,
		"count":48,
		"byteOffset":0,
		"min":[805.5000610351563,
		0.0,
		-572.466064453125],
		"max":[811.5001220703125,
		210.0,
		-412.466064453125]
	},
	{
		"bufferView":16,
		"type":"SCALAR",
		"componentType":5123,
		"count":114,
		"byteOffset":0,
		"min":[0],
		"max":[43]
	},
	{
		"bufferView":17,
		"type":"VEC3",
		"componentType":5126,
		"count":44,
		"byteOffset":0,
		"min":[20.0,
		0.0,
		-712.0],
		"max":[2438.0,
		0.0,
		17.0]
	},
	{
		"bufferView":18,
		"type":"SCALAR",
		"componentType":5123,
		"count":888,
		"byteOffset":0,
		"min":[0],
		"max":[591]
	},
	{
		"bufferView":19,
		"type":"VEC3",
		"componentType":5126,
		"count":592,
		"byteOffset":0,
		"min":[-0.9929294586181641,
		0.0,
		-732.992919921875],
		"max":[2458.0,
		300.0,
		37.0]
	}],
	"bufferViews":[{
		"buffer":0,
		"byteOffset":0,
		"byteLength":792,
		"target":34963
	},
	{
		"buffer":0,
		"byteOffset":792,
		"byteLength":3168,
		"target":34962
	},
	{
		"buffer":1,
		"byteOffset":0,
		"byteLength":792,
		"target":34963
	},
	{
		"buffer":1,
		"byteOffset":792,
		"byteLength":3168,
		"target":34962
	},
	{
		"buffer":2,
		"byteOffset":0,
		"byteLength":72,
		"target":34963
	},
	{
		"buffer":2,
		"byteOffset":72,
		"byteLength":288,
		"target":34962
	},
	{
		"buffer":3,
		"byteOffset":0,
		"byteLength":72,
		"target":34963
	},
	{
		"buffer":3,
		"byteOffset":72,
		"byteLength":288,
		"target":34962
	},
	{
		"buffer":4,
		"byteOffset":0,
		"byteLength":168,
		"target":34963
	},
	{
		"buffer":4,
		"byteOffset":168,
		"byteLength":576,
		"target":34962
	},
	{
		"buffer":5,
		"byteOffset":0,
		"byteLength":72,
		"target":34963
	},
	{
		"buffer":5,
		"byteOffset":72,
		"byteLength":288,
		"target":34962
	},
	{
		"buffer":6,
		"byteOffset":0,
		"byteLength":72,
		"target":34963
	},
	{
		"buffer":6,
		"byteOffset":72,
		"byteLength":288,
		"target":34962
	},
	{
		"buffer":7,
		"byteOffset":0,
		"byteLength":168,
		"target":34963
	},
	{
		"buffer":7,
		"byteOffset":168,
		"byteLength":576,
		"target":34962
	},
	{
		"buffer":8,
		"byteOffset":0,
		"byteLength":228,
		"target":34963
	},
	{
		"buffer":8,
		"byteOffset":228,
		"byteLength":528,
		"target":34962
	},
	{
		"buffer":9,
		"byteOffset":0,
		"byteLength":1776,
		"target":34963
	},
	{
		"buffer":9,
		"byteOffset":1776,
		"byteLength":7104,
		"target":34962
	}],
	"buffers":[{
		"uri":"data:application/octet-stream;base64,",
		"byteLength":3960
	},
	{
		"uri":"data:application/octet-stream;base64,",
		"byteLength":3960
	},
	{
		"uri":"data:application/octet-stream;base64,",
		"byteLength":360
	},
	{
		"uri":"data:application/octet-stream;base64,",
		"byteLength":360
	},
	{
		"uri":"data:application/octet-stream;base64,",
		"byteLength":744
	},
	{
		"uri":"data:application/octet-stream;base64,",
		"byteLength":360
	},
	{
		"uri":"data:application/octet-stream;base64,",
		"byteLength":360
	},
	{
		"uri":"data:application/octet-stream;base64,",
		"byteLength":744
	},
	{
		"uri":"data:application/octet-stream;base64,",
		"byteLength":756
	},
	{
		"uri":"data:application/octet-stream;base64,",
		"byteLength":8880
	}],
	"materials":[{
		"pbrMetallicRoughness":{
			"baseColorFactor":[1.0,
			1.0,
			1.0,
			1.0],
			"metallicFactor":1.0,
			"roughnessFactor":1.0
		},
		"emissiveFactor":[0.0,
		0.0,
		0.0],
		"alphaMode":"OPAQUE",
		"doubleSided":true,
		"name":""
	},
	{
		"pbrMetallicRoughness":{
			"baseColorFactor":[1.0,
			1.0,
			1.0,
			1.0],
			"metallicFactor":1.0,
			"roughnessFactor":1.0
		},
		"emissiveFactor":[0.0,
		0.0,
		0.0],
		"alphaMode":"OPAQUE",
		"doubleSided":true,
		"name":""
	},
	{
		"pbrMetallicRoughness":{
			"baseColorFactor":[1.0,
			1.0,
			1.0,
			1.0],
			"metallicFactor":1.0,
			"roughnessFactor":1.0
		},
		"emissiveFactor":[0.0,
		0.0,
		0.0],
		"alphaMode":"OPAQUE",
		"doubleSided":true,
		"name":""
	},
	{
		"pbrMetallicRoughness":{
			"baseColorFactor":[1.0,
			1.0,
			1.0,
			1.0],
			"metallicFactor":1.0,
			"roughnessFactor":1.0
		},
		"emissiveFactor":[0.0,
		0.0,
		0.0],
		"alphaMode":"OPAQUE",
		"doubleSided":true,
		"name":""
	},
	{
		"pbrMetallicRoughness":{
			"baseColorFactor":[1.0,
			1.0,
			1.0,
			1.0],
			"metallicFactor":1.0,
			"roughnessFactor":1.0
		},
		"emissiveFactor":[0.0,
		0.0,
		0.0],
		"alphaMode":"OPAQUE",
		"doubleSided":true,
		"name":""
	},
	{
		"pbrMetallicRoughness":{
			"baseColorFactor":[1.0,
			1.0,
			1.0,
			1.0],
			"metallicFactor":1.0,
			"roughnessFactor":1.0
		},
		"emissiveFactor":[0.0,
		0.0,
		0.0],
		"alphaMode":"OPAQUE",
		"doubleSided":true,
		"name":""
	},
	{
		"pbrMetallicRoughness":{
			"baseColorFactor":[1.0,
			1.0,
			1.0,
			1.0],
			"metallicFactor":1.0,
			"roughnessFactor":1.0
		},
		"emissiveFactor":[0.0,
		0.0,
		0.0],
		"alphaMode":"OPAQUE",
		"doubleSided":true,
		"name":""
	},
	{
		"pbrMetallicRoughness":{
			"baseColorFactor":[1.0,
			1.0,
			1.0,
			1.0],
			"metallicFactor":1.0,
			"roughnessFactor":1.0
		},
		"emissiveFactor":[0.0,
		0.0,
		0.0],
		"alphaMode":"OPAQUE",
		"doubleSided":true,
		"name":""
	},
	{
		"pbrMetallicRoughness":{
			"baseColorFactor":[1.0,
			1.0,
			1.0,
			1.0],
			"metallicFactor":1.0,
			"roughnessFactor":1.0
		},
		"emissiveFactor":[0.0,
		0.0,
		0.0],
		"alphaMode":"OPAQUE",
		"doubleSided":true,
		"name":""
	},
	{
		"pbrMetallicRoughness":{
			"baseColorFactor":[1.0,
			1.0,
			1.0,
			1.0],
			"metallicFactor":1.0,
			"roughnessFactor":1.0
		},
		"emissiveFactor":[0.0,
		0.0,
		0.0],
		"alphaMode":"OPAQUE",
		"doubleSided":true,
		"name":""
	}]
}