{
	"asset":{
		"version":"2.0",
		"generator":"Created using the official Cinema 4D glTF Exporter 1.000x290161"
	},
	"scenes":[{
		"nodes":[0,
		2]
	}],
	"nodes":[{
		"name":"floor",
		"children":[1]
	},
	{
		"name":"1S0001",
		"mesh":0
	},
	{
		"name":"wall",
		"children":[3]
	},
	{
		"name":"1W0005",
		"mesh":1
	}],
	"meshes":[{
		"primitives":[{
			"attributes":{
				"POSITION":1
			},
			"indices":0,
			"material":0
		}]
	},
	{
		"primitives":[{
			"attributes":{
				"POSITION":3
			},
			"indices":2,
			"material":1
		}]
	}],
	"accessors":[{
		"bufferView":0,
		"componentType":5123,
		"type":"SCALAR",
		"min":[0],
		"count":72,
		"byteOffset":0,
		"max":[31]
	},
	{
		"bufferView":1,
		"componentType":5126,
		"type":"VEC3",
		"min":[20.0,
		0.0,
		-966.9990234375],
		"count":32,
		"byteOffset":0,
		"max":[3024.59326171875,
		0.0,
		-20.0]
	},
	{
		"bufferView":2,
		"componentType":5123,
		"type":"SCALAR",
		"min":[0],
		"count":1338,
		"byteOffset":0,
		"max":[891]
	},
	{
		"bufferView":3,
		"componentType":5126,
		"type":"VEC3",
		"min":[0.0,
		0.0,
		-991.992919921875],
		"count":892,
		"byteOffset":0,
		"max":[3059.586181640625,
		300.0,
		0.0]
	}],
	"bufferViews":[{
		"buffer":0,
		"byteOffset":0,
		"byteLength":144,
		"target":34963
	},
	{
		"buffer":0,
		"byteOffset":144,
		"byteLength":384,
		"target":34962
	},
	{
		"buffer":1,
		"byteOffset":0,
		"byteLength":2676,
		"target":34963
	},
	{
		"buffer":1,
		"byteOffset":2676,
		"byteLength":10704,
		"target":34962
	}],
	"buffers":[{
		"uri":"data:application/octet-stream;base64,",
		"byteLength":528
	},
	{
		"uri":"data:application/octet-stream;base64,",
		"byteLength":13380
	}],
	"materials":[{
		"pbrMetallicRoughness":{
			"baseColorFactor":[1.0,
			1.0,
			1.0,
			1.0],
			"metallicFactor":1.0,
			"roughnessFactor":1.0
		},
		"emissiveFactor":[0.0,
		0.0,
		0.0],
		"alphaMode":"OPAQUE",
		"doubleSided":true,
		"name":""
	},
	{
		"pbrMetallicRoughness":{
			"baseColorFactor":[1.0,
			1.0,
			1.0,
			1.0],
			"metallicFactor":1.0,
			"roughnessFactor":1.0
		},
		"emissiveFactor":[0.0,
		0.0,
		0.0],
		"alphaMode":"OPAQUE",
		"doubleSided":true,
		"name":""
	}]
}