{
	"asset":{
		"version":"2.0",
		"generator":"Created using the official Cinema 4D glTF Exporter 1.000x290161"
	},
	"scenes":[{
		"nodes":[0,
		11,
		13]
	}],
	"nodes":[{
		"name":"door",
		"children":[1,
		2,
		3,
		4,
		5,
		6,
		7,
		8,
		9,
		10]
	},
	{
		"name":"1D0001",
		"mesh":0
	},
	{
		"name":"1D0002",
		"mesh":1
	},
	{
		"name":"1D0003",
		"mesh":2
	},
	{
		"name":"1D0004",
		"mesh":3
	},
	{
		"name":"1D0005",
		"mesh":4
	},
	{
		"name":"1D0006",
		"mesh":5
	},
	{
		"name":"1D0007",
		"mesh":6
	},
	{
		"name":"1D0008",
		"mesh":7
	},
	{
		"name":"1D0009",
		"mesh":8
	},
	{
		"name":"1D000a",
		"mesh":9
	},
	{
		"name":"floor",
		"children":[12]
	},
	{
		"name":"1S000b",
		"mesh":10
	},
	{
		"name":"wall",
		"children":[14]
	},
	{
		"name":"1W000e",
		"mesh":11
	}],
	"meshes":[{
		"primitives":[{
			"attributes":{
				"POSITION":1
			},
			"indices":0,
			"material":0
		}]
	},
	{
		"primitives":[{
			"attributes":{
				"POSITION":3
			},
			"indices":2,
			"material":1
		}]
	},
	{
		"primitives":[{
			"attributes":{
				"POSITION":5
			},
			"indices":4,
			"material":2
		}]
	},
	{
		"primitives":[{
			"attributes":{
				"POSITION":7
			},
			"indices":6,
			"material":3
		}]
	},
	{
		"primitives":[{
			"attributes":{
				"POSITION":9
			},
			"indices":8,
			"material":4
		}]
	},
	{
		"primitives":[{
			"attributes":{
				"POSITION":11
			},
			"indices":10,
			"material":5
		}]
	},
	{
		"primitives":[{
			"attributes":{
				"POSITION":13
			},
			"indices":12,
			"material":6
		}]
	},
	{
		"primitives":[{
			"attributes":{
				"POSITION":15
			},
			"indices":14,
			"material":7
		}]
	},
	{
		"primitives":[{
			"attributes":{
				"POSITION":17
			},
			"indices":16,
			"material":8
		}]
	},
	{
		"primitives":[{
			"attributes":{
				"POSITION":19
			},
			"indices":18,
			"material":9
		}]
	},
	{
		"primitives":[{
			"attributes":{
				"POSITION":21
			},
			"indices":20,
			"material":10
		}]
	},
	{
		"primitives":[{
			"attributes":{
				"POSITION":23
			},
			"indices":22,
			"material":11
		}]
	}],
	"accessors":[{
		"bufferView":0,
		"componentType":5123,
		"type":"SCALAR",
		"min":[0],
		"count":36,
		"byteOffset":0,
		"max":[23]
	},
	{
		"bufferView":1,
		"componentType":5126,
		"type":"VEC3",
		"min":[72.12747192382813,
		0.0,
		-1868.7138671875],
		"count":24,
		"byteOffset":0,
		"max":[152.12747192382813,
		205.0,
		-1862.7138671875]
	},
	{
		"bufferView":2,
		"componentType":5123,
		"type":"SCALAR",
		"min":[0],
		"count":84,
		"byteOffset":0,
		"max":[47]
	},
	{
		"bufferView":3,
		"componentType":5126,
		"type":"VEC3",
		"min":[67.1274642944336,
		0.0,
		-1868.7138671875],
		"count":48,
		"byteOffset":0,
		"max":[157.12747192382813,
		210.0,
		-1862.7138671875]
	},
	{
		"bufferView":4,
		"componentType":5123,
		"type":"SCALAR",
		"min":[0],
		"count":36,
		"byteOffset":0,
		"max":[23]
	},
	{
		"bufferView":5,
		"componentType":5126,
		"type":"VEC3",
		"min":[48.75599670410156,
		0.0,
		-687.2139892578125],
		"count":24,
		"byteOffset":0,
		"max":[128.75599670410157,
		205.0,
		-681.2139892578125]
	},
	{
		"bufferView":6,
		"componentType":5123,
		"type":"SCALAR",
		"min":[0],
		"count":84,
		"byteOffset":0,
		"max":[47]
	},
	{
		"bufferView":7,
		"componentType":5126,
		"type":"VEC3",
		"min":[43.75599670410156,
		0.0,
		-687.2139892578125],
		"count":48,
		"byteOffset":0,
		"max":[133.75599670410157,
		210.0,
		-681.2139892578125]
	},
	{
		"bufferView":8,
		"componentType":5123,
		"type":"SCALAR",
		"min":[0],
		"count":36,
		"byteOffset":0,
		"max":[23]
	},
	{
		"bufferView":9,
		"componentType":5126,
		"type":"VEC3",
		"min":[12.004008293151856,
		0.0,
		-1481.696044921875],
		"count":24,
		"byteOffset":0,
		"max":[18.004016876220704,
		205.0,
		-1401.696044921875]
	},
	{
		"bufferView":10,
		"componentType":5123,
		"type":"SCALAR",
		"min":[0],
		"count":84,
		"byteOffset":0,
		"max":[47]
	},
	{
		"bufferView":11,
		"componentType":5126,
		"type":"VEC3",
		"min":[12.004095077514649,
		0.0,
		-1486.6961669921876],
		"count":48,
		"byteOffset":0,
		"max":[18.004106521606447,
		210.0,
		-1396.6961669921876]
	},
	{
		"bufferView":12,
		"componentType":5123,
		"type":"SCALAR",
		"min":[0],
		"count":36,
		"byteOffset":0,
		"max":[23]
	},
	{
		"bufferView":13,
		"componentType":5126,
		"type":"VEC3",
		"min":[12.004406929016114,
		0.0,
		-649.1591796875],
		"count":24,
		"byteOffset":0,
		"max":[18.00441551208496,
		205.0,
		-569.1591796875]
	},
	{
		"bufferView":14,
		"componentType":5123,
		"type":"SCALAR",
		"min":[0],
		"count":84,
		"byteOffset":0,
		"max":[47]
	},
	{
		"bufferView":15,
		"componentType":5126,
		"type":"VEC3",
		"min":[12.004377365112305,
		0.0,
		-654.1592407226563],
		"count":48,
		"byteOffset":0,
		"max":[18.0043888092041,
		210.0,
		-564.1592407226563]
	},
	{
		"bufferView":16,
		"componentType":5123,
		"type":"SCALAR",
		"min":[0],
		"count":36,
		"byteOffset":0,
		"max":[23]
	},
	{
		"bufferView":17,
		"componentType":5126,
		"type":"VEC3",
		"min":[12.004417419433594,
		0.0,
		-142.18174743652345],
		"count":24,
		"byteOffset":0,
		"max":[18.004426956176759,
		205.0,
		-62.18174362182617]
	},
	{
		"bufferView":18,
		"componentType":5123,
		"type":"SCALAR",
		"min":[0],
		"count":84,
		"byteOffset":0,
		"max":[47]
	},
	{
		"bufferView":19,
		"componentType":5126,
		"type":"VEC3",
		"min":[12.004415512084961,
		0.0,
		-147.18174743652345],
		"count":48,
		"byteOffset":0,
		"max":[18.004425048828126,
		210.0,
		-57.18174743652344]
	},
	{
		"bufferView":20,
		"componentType":5123,
		"type":"SCALAR",
		"min":[0],
		"count":108,
		"byteOffset":0,
		"max":[41]
	},
	{
		"bufferView":21,
		"componentType":5126,
		"type":"VEC3",
		"min":[4.003997802734375,
		0.0,
		-1876.7139892578126],
		"count":42,
		"byteOffset":0,
		"max":[1680.5087890625,
		0.0,
		-26.48602294921875]
	},
	{
		"bufferView":22,
		"componentType":5123,
		"type":"SCALAR",
		"min":[0],
		"count":996,
		"byteOffset":0,
		"max":[663]
	},
	{
		"bufferView":23,
		"componentType":5126,
		"type":"VEC3",
		"min":[5.003999710083008,
		0.0,
		-1875.7139892578126],
		"count":664,
		"byteOffset":0,
		"max":[1700.8330078125,
		300.0,
		-5.007606506347656]
	}],
	"bufferViews":[{
		"buffer":0,
		"byteOffset":0,
		"byteLength":72,
		"target":34963
	},
	{
		"buffer":0,
		"byteOffset":72,
		"byteLength":288,
		"target":34962
	},
	{
		"buffer":1,
		"byteOffset":0,
		"byteLength":168,
		"target":34963
	},
	{
		"buffer":1,
		"byteOffset":168,
		"byteLength":576,
		"target":34962
	},
	{
		"buffer":2,
		"byteOffset":0,
		"byteLength":72,
		"target":34963
	},
	{
		"buffer":2,
		"byteOffset":72,
		"byteLength":288,
		"target":34962
	},
	{
		"buffer":3,
		"byteOffset":0,
		"byteLength":168,
		"target":34963
	},
	{
		"buffer":3,
		"byteOffset":168,
		"byteLength":576,
		"target":34962
	},
	{
		"buffer":4,
		"byteOffset":0,
		"byteLength":72,
		"target":34963
	},
	{
		"buffer":4,
		"byteOffset":72,
		"byteLength":288,
		"target":34962
	},
	{
		"buffer":5,
		"byteOffset":0,
		"byteLength":168,
		"target":34963
	},
	{
		"buffer":5,
		"byteOffset":168,
		"byteLength":576,
		"target":34962
	},
	{
		"buffer":6,
		"byteOffset":0,
		"byteLength":72,
		"target":34963
	},
	{
		"buffer":6,
		"byteOffset":72,
		"byteLength":288,
		"target":34962
	},
	{
		"buffer":7,
		"byteOffset":0,
		"byteLength":168,
		"target":34963
	},
	{
		"buffer":7,
		"byteOffset":168,
		"byteLength":576,
		"target":34962
	},
	{
		"buffer":8,
		"byteOffset":0,
		"byteLength":72,
		"target":34963
	},
	{
		"buffer":8,
		"byteOffset":72,
		"byteLength":288,
		"target":34962
	},
	{
		"buffer":9,
		"byteOffset":0,
		"byteLength":168,
		"target":34963
	},
	{
		"buffer":9,
		"byteOffset":168,
		"byteLength":576,
		"target":34962
	},
	{
		"buffer":10,
		"byteOffset":0,
		"byteLength":216,
		"target":34963
	},
	{
		"buffer":10,
		"byteOffset":216,
		"byteLength":504,
		"target":34962
	},
	{
		"buffer":11,
		"byteOffset":0,
		"byteLength":1992,
		"target":34963
	},
	{
		"buffer":11,
		"byteOffset":1992,
		"byteLength":7968,
		"target":34962
	}],
	"buffers":[{
		"uri":"data:application/octet-stream;base64,",
		"byteLength":360
	},
	{
		"uri":"data:application/octet-stream;base64,",
		"byteLength":744
	},
	{
		"uri":"data:application/octet-stream;base64,",
		"byteLength":360
	},
	{
		"uri":"data:application/octet-stream;base64,",
		"byteLength":744
	},
	{
		"uri":"data:application/octet-stream;base64,",
		"byteLength":360
	},
	{
		"uri":"data:application/octet-stream;base64,",
		"byteLength":744
	},
	{
		"uri":"data:application/octet-stream;base64,",
		"byteLength":360
	},
	{
		"uri":"data:application/octet-stream;base64,",
		"byteLength":744
	},
	{
		"uri":"data:application/octet-stream;base64,",
		"byteLength":360
	},
	{
		"uri":"data:application/octet-stream;base64,",
		"byteLength":744
	},
	{
		"uri":"data:application/octet-stream;base64,",
		"byteLength":720
	},
	{
		"uri":"data:application/octet-stream;base64,",
		"byteLength":9960
	}],
	"materials":[{
		"pbrMetallicRoughness":{
			"baseColorFactor":[1.0,
			1.0,
			1.0,
			1.0],
			"metallicFactor":1.0,
			"roughnessFactor":1.0
		},
		"emissiveFactor":[0.0,
		0.0,
		0.0],
		"alphaMode":"OPAQUE",
		"doubleSided":true,
		"name":""
	},
	{
		"pbrMetallicRoughness":{
			"baseColorFactor":[1.0,
			1.0,
			1.0,
			1.0],
			"metallicFactor":1.0,
			"roughnessFactor":1.0
		},
		"emissiveFactor":[0.0,
		0.0,
		0.0],
		"alphaMode":"OPAQUE",
		"doubleSided":true,
		"name":""
	},
	{
		"pbrMetallicRoughness":{
			"baseColorFactor":[1.0,
			1.0,
			1.0,
			1.0],
			"metallicFactor":1.0,
			"roughnessFactor":1.0
		},
		"emissiveFactor":[0.0,
		0.0,
		0.0],
		"alphaMode":"OPAQUE",
		"doubleSided":true,
		"name":""
	},
	{
		"pbrMetallicRoughness":{
			"baseColorFactor":[1.0,
			1.0,
			1.0,
			1.0],
			"metallicFactor":1.0,
			"roughnessFactor":1.0
		},
		"emissiveFactor":[0.0,
		0.0,
		0.0],
		"alphaMode":"OPAQUE",
		"doubleSided":true,
		"name":""
	},
	{
		"pbrMetallicRoughness":{
			"baseColorFactor":[1.0,
			1.0,
			1.0,
			1.0],
			"metallicFactor":1.0,
			"roughnessFactor":1.0
		},
		"emissiveFactor":[0.0,
		0.0,
		0.0],
		"alphaMode":"OPAQUE",
		"doubleSided":true,
		"name":""
	},
	{
		"pbrMetallicRoughness":{
			"baseColorFactor":[1.0,
			1.0,
			1.0,
			1.0],
			"metallicFactor":1.0,
			"roughnessFactor":1.0
		},
		"emissiveFactor":[0.0,
		0.0,
		0.0],
		"alphaMode":"OPAQUE",
		"doubleSided":true,
		"name":""
	},
	{
		"pbrMetallicRoughness":{
			"baseColorFactor":[1.0,
			1.0,
			1.0,
			1.0],
			"metallicFactor":1.0,
			"roughnessFactor":1.0
		},
		"emissiveFactor":[0.0,
		0.0,
		0.0],
		"alphaMode":"OPAQUE",
		"doubleSided":true,
		"name":""
	},
	{
		"pbrMetallicRoughness":{
			"baseColorFactor":[1.0,
			1.0,
			1.0,
			1.0],
			"metallicFactor":1.0,
			"roughnessFactor":1.0
		},
		"emissiveFactor":[0.0,
		0.0,
		0.0],
		"alphaMode":"OPAQUE",
		"doubleSided":true,
		"name":""
	},
	{
		"pbrMetallicRoughness":{
			"baseColorFactor":[1.0,
			1.0,
			1.0,
			1.0],
			"metallicFactor":1.0,
			"roughnessFactor":1.0
		},
		"emissiveFactor":[0.0,
		0.0,
		0.0],
		"alphaMode":"OPAQUE",
		"doubleSided":true,
		"name":""
	},
	{
		"pbrMetallicRoughness":{
			"baseColorFactor":[1.0,
			1.0,
			1.0,
			1.0],
			"metallicFactor":1.0,
			"roughnessFactor":1.0
		},
		"emissiveFactor":[0.0,
		0.0,
		0.0],
		"alphaMode":"OPAQUE",
		"doubleSided":true,
		"name":""
	},
	{
		"pbrMetallicRoughness":{
			"baseColorFactor":[1.0,
			1.0,
			1.0,
			1.0],
			"metallicFactor":1.0,
			"roughnessFactor":1.0
		},
		"emissiveFactor":[0.0,
		0.0,
		0.0],
		"alphaMode":"OPAQUE",
		"doubleSided":true,
		"name":""
	},
	{
		"pbrMetallicRoughness":{
			"baseColorFactor":[1.0,
			1.0,
			1.0,
			1.0],
			"metallicFactor":1.0,
			"roughnessFactor":1.0
		},
		"emissiveFactor":[0.0,
		0.0,
		0.0],
		"alphaMode":"OPAQUE",
		"doubleSided":true,
		"name":""
	}]
}