{
	"asset":{
		"version":"2.0",
		"generator":"Created using the official Cinema 4D glTF Exporter 1.000x290161"
	},
	"scenes":[{
		"nodes":[0,
		24,
		26]
	}],
	"nodes":[{
		"name":"door",
		"children":[1,
		2,
		3,
		4,
		5,
		6,
		7,
		8,
		9,
		10,
		11,
		12,
		13,
		14,
		15,
		16,
		17,
		18,
		19,
		20,
		21,
		22,
		23]
	},
	{
		"name":"1St0173",
		"mesh":0
	},
	{
		"name":"1St0174",
		"mesh":1
	},
	{
		"name":"1D0001",
		"mesh":2
	},
	{
		"name":"1D0002",
		"mesh":3
	},
	{
		"name":"1D0003",
		"mesh":4
	},
	{
		"name":"1D0004",
		"mesh":5
	},
	{
		"name":"1D0005",
		"mesh":6
	},
	{
		"name":"1D0006",
		"mesh":7
	},
	{
		"name":"1D0007",
		"mesh":8
	},
	{
		"name":"1D0008",
		"mesh":9
	},
	{
		"name":"1D0009",
		"mesh":10
	},
	{
		"name":"1D000a",
		"mesh":11
	},
	{
		"name":"1D000b",
		"mesh":12
	},
	{
		"name":"1D000c",
		"mesh":13
	},
	{
		"name":"1D000d",
		"mesh":14
	},
	{
		"name":"1D000e",
		"mesh":15
	},
	{
		"name":"1D000f",
		"mesh":16
	},
	{
		"name":"1D0010",
		"mesh":17
	},
	{
		"name":"1D0011",
		"mesh":18
	},
	{
		"name":"1D0012",
		"mesh":19
	},
	{
		"name":"1D0013",
		"mesh":20
	},
	{
		"name":"1D0014",
		"mesh":21
	},
	{
		"name":"1D0015",
		"mesh":22
	},
	{
		"name":"floor",
		"children":[25]
	},
	{
		"name":"1S0016",
		"mesh":23
	},
	{
		"name":"wall",
		"children":[27]
	},
	{
		"name":"1W0022",
		"mesh":24
	}],
	"meshes":[{
		"primitives":[{
			"attributes":{
				"POSITION":1
			},
			"indices":0,
			"material":0
		}]
	},
	{
		"primitives":[{
			"attributes":{
				"POSITION":3
			},
			"indices":2,
			"material":1
		}]
	},
	{
		"primitives":[{
			"attributes":{
				"POSITION":5
			},
			"indices":4,
			"material":2
		}]
	},
	{
		"primitives":[{
			"attributes":{
				"POSITION":7
			},
			"indices":6,
			"material":3
		}]
	},
	{
		"primitives":[{
			"attributes":{
				"POSITION":9
			},
			"indices":8,
			"material":4
		}]
	},
	{
		"primitives":[{
			"attributes":{
				"POSITION":11
			},
			"indices":10,
			"material":5
		}]
	},
	{
		"primitives":[{
			"attributes":{
				"POSITION":13
			},
			"indices":12,
			"material":6
		}]
	},
	{
		"primitives":[{
			"attributes":{
				"POSITION":15
			},
			"indices":14,
			"material":7
		}]
	},
	{
		"primitives":[{
			"attributes":{
				"POSITION":17
			},
			"indices":16,
			"material":8
		}]
	},
	{
		"primitives":[{
			"attributes":{
				"POSITION":19
			},
			"indices":18,
			"material":9
		}]
	},
	{
		"primitives":[{
			"attributes":{
				"POSITION":21
			},
			"indices":20,
			"material":10
		}]
	},
	{
		"primitives":[{
			"attributes":{
				"POSITION":23
			},
			"indices":22,
			"material":11
		}]
	},
	{
		"primitives":[{
			"attributes":{
				"POSITION":25
			},
			"indices":24,
			"material":12
		}]
	},
	{
		"primitives":[{
			"attributes":{
				"POSITION":27
			},
			"indices":26,
			"material":13
		}]
	},
	{
		"primitives":[{
			"attributes":{
				"POSITION":29
			},
			"indices":28,
			"material":14
		}]
	},
	{
		"primitives":[{
			"attributes":{
				"POSITION":31
			},
			"indices":30,
			"material":15
		}]
	},
	{
		"primitives":[{
			"attributes":{
				"POSITION":33
			},
			"indices":32,
			"material":16
		}]
	},
	{
		"primitives":[{
			"attributes":{
				"POSITION":35
			},
			"indices":34,
			"material":17
		}]
	},
	{
		"primitives":[{
			"attributes":{
				"POSITION":37
			},
			"indices":36,
			"material":18
		}]
	},
	{
		"primitives":[{
			"attributes":{
				"POSITION":39
			},
			"indices":38,
			"material":19
		}]
	},
	{
		"primitives":[{
			"attributes":{
				"POSITION":41
			},
			"indices":40,
			"material":20
		}]
	},
	{
		"primitives":[{
			"attributes":{
				"POSITION":43
			},
			"indices":42,
			"material":21
		}]
	},
	{
		"primitives":[{
			"attributes":{
				"POSITION":45
			},
			"indices":44,
			"material":22
		}]
	},
	{
		"primitives":[{
			"attributes":{
				"POSITION":47
			},
			"indices":46,
			"material":23
		}]
	},
	{
		"primitives":[{
			"attributes":{
				"POSITION":49
			},
			"indices":48,
			"material":24
		}]
	}],
	"accessors":[{
		"bufferView":0,
		"componentType":5123,
		"type":"SCALAR",
		"min":[0],
		"count":396,
		"byteOffset":0,
		"max":[263]
	},
	{
		"bufferView":1,
		"componentType":5126,
		"type":"VEC3",
		"min":[453.4260559082031,
		0.0,
		-946.7731323242188],
		"count":264,
		"byteOffset":0,
		"max":[593.9257202148438,
		300.0,
		-700.4609375]
	},
	{
		"bufferView":2,
		"componentType":5123,
		"type":"SCALAR",
		"min":[0],
		"count":396,
		"byteOffset":0,
		"max":[263]
	},
	{
		"bufferView":3,
		"componentType":5126,
		"type":"VEC3",
		"min":[40.01564025878906,
		0.0,
		-675.9072875976563],
		"count":264,
		"byteOffset":0,
		"max":[180.01564025878907,
		300.0,
		-39.5128173828125]
	},
	{
		"bufferView":4,
		"componentType":5123,
		"type":"SCALAR",
		"min":[0],
		"count":36,
		"byteOffset":0,
		"max":[23]
	},
	{
		"bufferView":5,
		"componentType":5126,
		"type":"VEC3",
		"min":[483.5655822753906,
		0.0,
		-495.2240295410156],
		"count":24,
		"byteOffset":0,
		"max":[563.5655517578125,
		205.0,
		-489.2239990234375]
	},
	{
		"bufferView":6,
		"componentType":5123,
		"type":"SCALAR",
		"min":[0],
		"count":84,
		"byteOffset":0,
		"max":[47]
	},
	{
		"bufferView":7,
		"componentType":5126,
		"type":"VEC3",
		"min":[478.5655212402344,
		0.0,
		-495.22406005859377],
		"count":48,
		"byteOffset":0,
		"max":[568.5654907226563,
		210.0,
		-489.2240295410156]
	},
	{
		"bufferView":8,
		"componentType":5123,
		"type":"SCALAR",
		"min":[0],
		"count":36,
		"byteOffset":0,
		"max":[23]
	},
	{
		"bufferView":9,
		"componentType":5126,
		"type":"VEC3",
		"min":[235.6728515625,
		0.0,
		-744.637939453125],
		"count":24,
		"byteOffset":0,
		"max":[315.6728515625,
		205.0,
		-738.6378784179688]
	},
	{
		"bufferView":10,
		"componentType":5123,
		"type":"SCALAR",
		"min":[0],
		"count":84,
		"byteOffset":0,
		"max":[47]
	},
	{
		"bufferView":11,
		"componentType":5126,
		"type":"VEC3",
		"min":[230.6728515625,
		0.0,
		-744.6378784179688],
		"count":48,
		"byteOffset":0,
		"max":[320.6728515625,
		210.0,
		-738.6378173828125]
	},
	{
		"bufferView":12,
		"componentType":5123,
		"type":"SCALAR",
		"min":[0],
		"count":36,
		"byteOffset":0,
		"max":[23]
	},
	{
		"bufferView":13,
		"componentType":5126,
		"type":"VEC3",
		"min":[2077.324951171875,
		0.0,
		-489.22406005859377],
		"count":24,
		"byteOffset":0,
		"max":[2083.324951171875,
		205.0,
		-414.22406005859377]
	},
	{
		"bufferView":14,
		"componentType":5123,
		"type":"SCALAR",
		"min":[0],
		"count":36,
		"byteOffset":0,
		"max":[23]
	},
	{
		"bufferView":15,
		"componentType":5126,
		"type":"VEC3",
		"min":[1933.324951171875,
		0.0,
		-489.2239685058594],
		"count":24,
		"byteOffset":0,
		"max":[1939.324951171875,
		205.0,
		-414.2239685058594]
	},
	{
		"bufferView":16,
		"componentType":5123,
		"type":"SCALAR",
		"min":[0],
		"count":84,
		"byteOffset":0,
		"max":[47]
	},
	{
		"bufferView":17,
		"componentType":5126,
		"type":"VEC3",
		"min":[1928.3250732421876,
		0.0,
		-495.2239990234375],
		"count":48,
		"byteOffset":0,
		"max":[2088.324951171875,
		210.0,
		-489.2239685058594]
	},
	{
		"bufferView":18,
		"componentType":5123,
		"type":"SCALAR",
		"min":[0],
		"count":36,
		"byteOffset":0,
		"max":[23]
	},
	{
		"bufferView":19,
		"componentType":5126,
		"type":"VEC3",
		"min":[1192.983642578125,
		0.0,
		-489.2235412597656],
		"count":24,
		"byteOffset":0,
		"max":[1198.983642578125,
		205.0,
		-414.2235412597656]
	},
	{
		"bufferView":20,
		"componentType":5123,
		"type":"SCALAR",
		"min":[0],
		"count":36,
		"byteOffset":0,
		"max":[23]
	},
	{
		"bufferView":21,
		"componentType":5126,
		"type":"VEC3",
		"min":[1048.9833984375,
		0.0,
		-489.2235412597656],
		"count":24,
		"byteOffset":0,
		"max":[1054.9833984375,
		205.0,
		-414.2235412597656]
	},
	{
		"bufferView":22,
		"componentType":5123,
		"type":"SCALAR",
		"min":[0],
		"count":84,
		"byteOffset":0,
		"max":[47]
	},
	{
		"bufferView":23,
		"componentType":5126,
		"type":"VEC3",
		"min":[1043.983642578125,
		0.0,
		-495.2235412597656],
		"count":48,
		"byteOffset":0,
		"max":[1203.983642578125,
		210.0,
		-489.2234802246094]
	},
	{
		"bufferView":24,
		"componentType":5123,
		"type":"SCALAR",
		"min":[0],
		"count":36,
		"byteOffset":0,
		"max":[23]
	},
	{
		"bufferView":25,
		"componentType":5126,
		"type":"VEC3",
		"min":[721.8688354492188,
		0.0,
		-688.6238403320313],
		"count":24,
		"byteOffset":0,
		"max":[801.8688354492188,
		205.0,
		-682.6238403320313]
	},
	{
		"bufferView":26,
		"componentType":5123,
		"type":"SCALAR",
		"min":[0],
		"count":84,
		"byteOffset":0,
		"max":[47]
	},
	{
		"bufferView":27,
		"componentType":5126,
		"type":"VEC3",
		"min":[716.868896484375,
		0.0,
		-688.623779296875],
		"count":48,
		"byteOffset":0,
		"max":[806.868896484375,
		210.0,
		-682.623779296875]
	},
	{
		"bufferView":28,
		"componentType":5123,
		"type":"SCALAR",
		"min":[0],
		"count":36,
		"byteOffset":0,
		"max":[23]
	},
	{
		"bufferView":29,
		"componentType":5126,
		"type":"VEC3",
		"min":[626.1412353515625,
		0.0,
		-495.2240905761719],
		"count":24,
		"byteOffset":0,
		"max":[706.1412353515625,
		205.0,
		-489.22406005859377]
	},
	{
		"bufferView":30,
		"componentType":5123,
		"type":"SCALAR",
		"min":[0],
		"count":84,
		"byteOffset":0,
		"max":[47]
	},
	{
		"bufferView":31,
		"componentType":5126,
		"type":"VEC3",
		"min":[621.1411743164063,
		0.0,
		-495.2240905761719],
		"count":48,
		"byteOffset":0,
		"max":[711.1411743164063,
		210.0,
		-489.22406005859377]
	},
	{
		"bufferView":32,
		"componentType":5123,
		"type":"SCALAR",
		"min":[0],
		"count":36,
		"byteOffset":0,
		"max":[23]
	},
	{
		"bufferView":33,
		"componentType":5126,
		"type":"VEC3",
		"min":[861.30029296875,
		0.0,
		-688.6239624023438],
		"count":24,
		"byteOffset":0,
		"max":[941.30029296875,
		205.0,
		-682.6239013671875]
	},
	{
		"bufferView":34,
		"componentType":5123,
		"type":"SCALAR",
		"min":[0],
		"count":84,
		"byteOffset":0,
		"max":[47]
	},
	{
		"bufferView":35,
		"componentType":5126,
		"type":"VEC3",
		"min":[856.3003540039063,
		0.0,
		-688.6239013671875],
		"count":48,
		"byteOffset":0,
		"max":[946.3003540039063,
		210.0,
		-682.6238403320313]
	},
	{
		"bufferView":36,
		"componentType":5123,
		"type":"SCALAR",
		"min":[0],
		"count":36,
		"byteOffset":0,
		"max":[23]
	},
	{
		"bufferView":37,
		"componentType":5126,
		"type":"VEC3",
		"min":[1194.2198486328126,
		0.0,
		-763.6239624023438],
		"count":24,
		"byteOffset":0,
		"max":[1200.2198486328126,
		205.0,
		-688.6239624023438]
	},
	{
		"bufferView":38,
		"componentType":5123,
		"type":"SCALAR",
		"min":[0],
		"count":36,
		"byteOffset":0,
		"max":[23]
	},
	{
		"bufferView":39,
		"componentType":5126,
		"type":"VEC3",
		"min":[1338.219970703125,
		0.0,
		-763.6239013671875],
		"count":24,
		"byteOffset":0,
		"max":[1344.2200927734376,
		205.0,
		-688.6239013671875]
	},
	{
		"bufferView":40,
		"componentType":5123,
		"type":"SCALAR",
		"min":[0],
		"count":84,
		"byteOffset":0,
		"max":[47]
	},
	{
		"bufferView":41,
		"componentType":5126,
		"type":"VEC3",
		"min":[1189.2198486328126,
		0.0,
		-688.6239013671875],
		"count":48,
		"byteOffset":0,
		"max":[1349.2198486328126,
		210.0,
		-682.6239013671875]
	},
	{
		"bufferView":42,
		"componentType":5123,
		"type":"SCALAR",
		"min":[0],
		"count":36,
		"byteOffset":0,
		"max":[23]
	},
	{
		"bufferView":43,
		"componentType":5126,
		"type":"VEC3",
		"min":[2906.678955078125,
		0.0,
		-688.6240234375],
		"count":24,
		"byteOffset":0,
		"max":[2986.678955078125,
		205.0,
		-682.6240234375]
	},
	{
		"bufferView":44,
		"componentType":5123,
		"type":"SCALAR",
		"min":[0],
		"count":84,
		"byteOffset":0,
		"max":[47]
	},
	{
		"bufferView":45,
		"componentType":5126,
		"type":"VEC3",
		"min":[2901.678955078125,
		0.0,
		-688.6240844726563],
		"count":48,
		"byteOffset":0,
		"max":[2991.678955078125,
		210.0,
		-682.6240844726563]
	},
	{
		"bufferView":46,
		"componentType":5123,
		"type":"SCALAR",
		"min":[0],
		"count":393,
		"byteOffset":0,
		"max":[154]
	},
	{
		"bufferView":47,
		"componentType":5126,
		"type":"VEC3",
		"min":[20.0,
		0.0,
		-958.0],
		"count":155,
		"byteOffset":0,
		"max":[3024.59326171875,
		0.0,
		-20.0]
	},
	{
		"bufferView":48,
		"componentType":5123,
		"type":"SCALAR",
		"min":[0],
		"count":2592,
		"byteOffset":0,
		"max":[1729]
	},
	{
		"bufferView":49,
		"componentType":5126,
		"type":"VEC3",
		"min":[0.0,
		0.0,
		-992.992919921875],
		"count":1730,
		"byteOffset":0,
		"max":[3059.586181640625,
		300.0,
		0.0]
	}],
	"bufferViews":[{
		"buffer":0,
		"byteOffset":0,
		"byteLength":792,
		"target":34963
	},
	{
		"buffer":0,
		"byteOffset":792,
		"byteLength":3168,
		"target":34962
	},
	{
		"buffer":1,
		"byteOffset":0,
		"byteLength":792,
		"target":34963
	},
	{
		"buffer":1,
		"byteOffset":792,
		"byteLength":3168,
		"target":34962
	},
	{
		"buffer":2,
		"byteOffset":0,
		"byteLength":72,
		"target":34963
	},
	{
		"buffer":2,
		"byteOffset":72,
		"byteLength":288,
		"target":34962
	},
	{
		"buffer":3,
		"byteOffset":0,
		"byteLength":168,
		"target":34963
	},
	{
		"buffer":3,
		"byteOffset":168,
		"byteLength":576,
		"target":34962
	},
	{
		"buffer":4,
		"byteOffset":0,
		"byteLength":72,
		"target":34963
	},
	{
		"buffer":4,
		"byteOffset":72,
		"byteLength":288,
		"target":34962
	},
	{
		"buffer":5,
		"byteOffset":0,
		"byteLength":168,
		"target":34963
	},
	{
		"buffer":5,
		"byteOffset":168,
		"byteLength":576,
		"target":34962
	},
	{
		"buffer":6,
		"byteOffset":0,
		"byteLength":72,
		"target":34963
	},
	{
		"buffer":6,
		"byteOffset":72,
		"byteLength":288,
		"target":34962
	},
	{
		"buffer":7,
		"byteOffset":0,
		"byteLength":72,
		"target":34963
	},
	{
		"buffer":7,
		"byteOffset":72,
		"byteLength":288,
		"target":34962
	},
	{
		"buffer":8,
		"byteOffset":0,
		"byteLength":168,
		"target":34963
	},
	{
		"buffer":8,
		"byteOffset":168,
		"byteLength":576,
		"target":34962
	},
	{
		"buffer":9,
		"byteOffset":0,
		"byteLength":72,
		"target":34963
	},
	{
		"buffer":9,
		"byteOffset":72,
		"byteLength":288,
		"target":34962
	},
	{
		"buffer":10,
		"byteOffset":0,
		"byteLength":72,
		"target":34963
	},
	{
		"buffer":10,
		"byteOffset":72,
		"byteLength":288,
		"target":34962
	},
	{
		"buffer":11,
		"byteOffset":0,
		"byteLength":168,
		"target":34963
	},
	{
		"buffer":11,
		"byteOffset":168,
		"byteLength":576,
		"target":34962
	},
	{
		"buffer":12,
		"byteOffset":0,
		"byteLength":72,
		"target":34963
	},
	{
		"buffer":12,
		"byteOffset":72,
		"byteLength":288,
		"target":34962
	},
	{
		"buffer":13,
		"byteOffset":0,
		"byteLength":168,
		"target":34963
	},
	{
		"buffer":13,
		"byteOffset":168,
		"byteLength":576,
		"target":34962
	},
	{
		"buffer":14,
		"byteOffset":0,
		"byteLength":72,
		"target":34963
	},
	{
		"buffer":14,
		"byteOffset":72,
		"byteLength":288,
		"target":34962
	},
	{
		"buffer":15,
		"byteOffset":0,
		"byteLength":168,
		"target":34963
	},
	{
		"buffer":15,
		"byteOffset":168,
		"byteLength":576,
		"target":34962
	},
	{
		"buffer":16,
		"byteOffset":0,
		"byteLength":72,
		"target":34963
	},
	{
		"buffer":16,
		"byteOffset":72,
		"byteLength":288,
		"target":34962
	},
	{
		"buffer":17,
		"byteOffset":0,
		"byteLength":168,
		"target":34963
	},
	{
		"buffer":17,
		"byteOffset":168,
		"byteLength":576,
		"target":34962
	},
	{
		"buffer":18,
		"byteOffset":0,
		"byteLength":72,
		"target":34963
	},
	{
		"buffer":18,
		"byteOffset":72,
		"byteLength":288,
		"target":34962
	},
	{
		"buffer":19,
		"byteOffset":0,
		"byteLength":72,
		"target":34963
	},
	{
		"buffer":19,
		"byteOffset":72,
		"byteLength":288,
		"target":34962
	},
	{
		"buffer":20,
		"byteOffset":0,
		"byteLength":168,
		"target":34963
	},
	{
		"buffer":20,
		"byteOffset":168,
		"byteLength":576,
		"target":34962
	},
	{
		"buffer":21,
		"byteOffset":0,
		"byteLength":72,
		"target":34963
	},
	{
		"buffer":21,
		"byteOffset":72,
		"byteLength":288,
		"target":34962
	},
	{
		"buffer":22,
		"byteOffset":0,
		"byteLength":168,
		"target":34963
	},
	{
		"buffer":22,
		"byteOffset":168,
		"byteLength":576,
		"target":34962
	},
	{
		"buffer":23,
		"byteOffset":0,
		"byteLength":786,
		"target":34963
	},
	{
		"buffer":23,
		"byteOffset":788,
		"byteLength":1860,
		"target":34962
	},
	{
		"buffer":24,
		"byteOffset":0,
		"byteLength":5184,
		"target":34963
	},
	{
		"buffer":24,
		"byteOffset":5184,
		"byteLength":20760,
		"target":34962
	}],
	"buffers":[{
		"uri":"data:application/octet-stream;base64,",
		"byteLength":3960
	},
	{
		"uri":"data:application/octet-stream;base64,",
		"byteLength":3960
	},
	{
		"uri":"data:application/octet-stream;base64,",
		"byteLength":360
	},
	{
		"uri":"data:application/octet-stream;base64,",
		"byteLength":744
	},
	{
		"uri":"data:application/octet-stream;base64,",
		"byteLength":360
	},
	{
		"uri":"data:application/octet-stream;base64,",
		"byteLength":744
	},
	{
		"uri":"data:application/octet-stream;base64,",
		"byteLength":360
	},
	{
		"uri":"data:application/octet-stream;base64,",
		"byteLength":360
	},
	{
		"uri":"data:application/octet-stream;base64,",
		"byteLength":744
	},
	{
		"uri":"data:application/octet-stream;base64,",
		"byteLength":360
	},
	{
		"uri":"data:application/octet-stream;base64,",
		"byteLength":360
	},
	{
		"uri":"data:application/octet-stream;base64,",
		"byteLength":744
	},
	{
		"uri":"data:application/octet-stream;base64,",
		"byteLength":360
	},
	{
		"uri":"data:application/octet-stream;base64,",
		"byteLength":744
	},
	{
		"uri":"data:application/octet-stream;base64,",
		"byteLength":360
	},
	{
		"uri":"data:application/octet-stream;base64,",
		"byteLength":744
	},
	{
		"uri":"data:application/octet-stream;base64,",
		"byteLength":360
	},
	{
		"uri":"data:application/octet-stream;base64,",
		"byteLength":744
	},
	{
		"uri":"data:application/octet-stream;base64,",
		"byteLength":360
	},
	{
		"uri":"data:application/octet-stream;base64,",
		"byteLength":360
	},
	{
		"uri":"data:application/octet-stream;base64,",
		"byteLength":744
	},
	{
		"uri":"data:application/octet-stream;base64,",
		"byteLength":360
	},
	{
		"uri":"data:application/octet-stream;base64,",
		"byteLength":744
	},
	{
		"uri":"data:application/octet-stream;base64,",
		"byteLength":2648
	},
	{
		"uri":"data:application/octet-stream;base64,",
		"byteLength":25944
	}],
	"materials":[{
		"pbrMetallicRoughness":{
			"baseColorFactor":[1.0,
			1.0,
			1.0,
			1.0],
			"metallicFactor":1.0,
			"roughnessFactor":1.0
		},
		"emissiveFactor":[0.0,
		0.0,
		0.0],
		"alphaMode":"OPAQUE",
		"doubleSided":true,
		"name":""
	},
	{
		"pbrMetallicRoughness":{
			"baseColorFactor":[1.0,
			1.0,
			1.0,
			1.0],
			"metallicFactor":1.0,
			"roughnessFactor":1.0
		},
		"emissiveFactor":[0.0,
		0.0,
		0.0],
		"alphaMode":"OPAQUE",
		"doubleSided":true,
		"name":""
	},
	{
		"pbrMetallicRoughness":{
			"baseColorFactor":[1.0,
			1.0,
			1.0,
			1.0],
			"metallicFactor":1.0,
			"roughnessFactor":1.0
		},
		"emissiveFactor":[0.0,
		0.0,
		0.0],
		"alphaMode":"OPAQUE",
		"doubleSided":true,
		"name":""
	},
	{
		"pbrMetallicRoughness":{
			"baseColorFactor":[1.0,
			1.0,
			1.0,
			1.0],
			"metallicFactor":1.0,
			"roughnessFactor":1.0
		},
		"emissiveFactor":[0.0,
		0.0,
		0.0],
		"alphaMode":"OPAQUE",
		"doubleSided":true,
		"name":""
	},
	{
		"pbrMetallicRoughness":{
			"baseColorFactor":[1.0,
			1.0,
			1.0,
			1.0],
			"metallicFactor":1.0,
			"roughnessFactor":1.0
		},
		"emissiveFactor":[0.0,
		0.0,
		0.0],
		"alphaMode":"OPAQUE",
		"doubleSided":true,
		"name":""
	},
	{
		"pbrMetallicRoughness":{
			"baseColorFactor":[1.0,
			1.0,
			1.0,
			1.0],
			"metallicFactor":1.0,
			"roughnessFactor":1.0
		},
		"emissiveFactor":[0.0,
		0.0,
		0.0],
		"alphaMode":"OPAQUE",
		"doubleSided":true,
		"name":""
	},
	{
		"pbrMetallicRoughness":{
			"baseColorFactor":[1.0,
			1.0,
			1.0,
			1.0],
			"metallicFactor":1.0,
			"roughnessFactor":1.0
		},
		"emissiveFactor":[0.0,
		0.0,
		0.0],
		"alphaMode":"OPAQUE",
		"doubleSided":true,
		"name":""
	},
	{
		"pbrMetallicRoughness":{
			"baseColorFactor":[1.0,
			1.0,
			1.0,
			1.0],
			"metallicFactor":1.0,
			"roughnessFactor":1.0
		},
		"emissiveFactor":[0.0,
		0.0,
		0.0],
		"alphaMode":"OPAQUE",
		"doubleSided":true,
		"name":""
	},
	{
		"pbrMetallicRoughness":{
			"baseColorFactor":[1.0,
			1.0,
			1.0,
			1.0],
			"metallicFactor":1.0,
			"roughnessFactor":1.0
		},
		"emissiveFactor":[0.0,
		0.0,
		0.0],
		"alphaMode":"OPAQUE",
		"doubleSided":true,
		"name":""
	},
	{
		"pbrMetallicRoughness":{
			"baseColorFactor":[1.0,
			1.0,
			1.0,
			1.0],
			"metallicFactor":1.0,
			"roughnessFactor":1.0
		},
		"emissiveFactor":[0.0,
		0.0,
		0.0],
		"alphaMode":"OPAQUE",
		"doubleSided":true,
		"name":""
	},
	{
		"pbrMetallicRoughness":{
			"baseColorFactor":[1.0,
			1.0,
			1.0,
			1.0],
			"metallicFactor":1.0,
			"roughnessFactor":1.0
		},
		"emissiveFactor":[0.0,
		0.0,
		0.0],
		"alphaMode":"OPAQUE",
		"doubleSided":true,
		"name":""
	},
	{
		"pbrMetallicRoughness":{
			"baseColorFactor":[1.0,
			1.0,
			1.0,
			1.0],
			"metallicFactor":1.0,
			"roughnessFactor":1.0
		},
		"emissiveFactor":[0.0,
		0.0,
		0.0],
		"alphaMode":"OPAQUE",
		"doubleSided":true,
		"name":""
	},
	{
		"pbrMetallicRoughness":{
			"baseColorFactor":[1.0,
			1.0,
			1.0,
			1.0],
			"metallicFactor":1.0,
			"roughnessFactor":1.0
		},
		"emissiveFactor":[0.0,
		0.0,
		0.0],
		"alphaMode":"OPAQUE",
		"doubleSided":true,
		"name":""
	},
	{
		"pbrMetallicRoughness":{
			"baseColorFactor":[1.0,
			1.0,
			1.0,
			1.0],
			"metallicFactor":1.0,
			"roughnessFactor":1.0
		},
		"emissiveFactor":[0.0,
		0.0,
		0.0],
		"alphaMode":"OPAQUE",
		"doubleSided":true,
		"name":""
	},
	{
		"pbrMetallicRoughness":{
			"baseColorFactor":[1.0,
			1.0,
			1.0,
			1.0],
			"metallicFactor":1.0,
			"roughnessFactor":1.0
		},
		"emissiveFactor":[0.0,
		0.0,
		0.0],
		"alphaMode":"OPAQUE",
		"doubleSided":true,
		"name":""
	},
	{
		"pbrMetallicRoughness":{
			"baseColorFactor":[1.0,
			1.0,
			1.0,
			1.0],
			"metallicFactor":1.0,
			"roughnessFactor":1.0
		},
		"emissiveFactor":[0.0,
		0.0,
		0.0],
		"alphaMode":"OPAQUE",
		"doubleSided":true,
		"name":""
	},
	{
		"pbrMetallicRoughness":{
			"baseColorFactor":[1.0,
			1.0,
			1.0,
			1.0],
			"metallicFactor":1.0,
			"roughnessFactor":1.0
		},
		"emissiveFactor":[0.0,
		0.0,
		0.0],
		"alphaMode":"OPAQUE",
		"doubleSided":true,
		"name":""
	},
	{
		"pbrMetallicRoughness":{
			"baseColorFactor":[1.0,
			1.0,
			1.0,
			1.0],
			"metallicFactor":1.0,
			"roughnessFactor":1.0
		},
		"emissiveFactor":[0.0,
		0.0,
		0.0],
		"alphaMode":"OPAQUE",
		"doubleSided":true,
		"name":""
	},
	{
		"pbrMetallicRoughness":{
			"baseColorFactor":[1.0,
			1.0,
			1.0,
			1.0],
			"metallicFactor":1.0,
			"roughnessFactor":1.0
		},
		"emissiveFactor":[0.0,
		0.0,
		0.0],
		"alphaMode":"OPAQUE",
		"doubleSided":true,
		"name":""
	},
	{
		"pbrMetallicRoughness":{
			"baseColorFactor":[1.0,
			1.0,
			1.0,
			1.0],
			"metallicFactor":1.0,
			"roughnessFactor":1.0
		},
		"emissiveFactor":[0.0,
		0.0,
		0.0],
		"alphaMode":"OPAQUE",
		"doubleSided":true,
		"name":""
	},
	{
		"pbrMetallicRoughness":{
			"baseColorFactor":[1.0,
			1.0,
			1.0,
			1.0],
			"metallicFactor":1.0,
			"roughnessFactor":1.0
		},
		"emissiveFactor":[0.0,
		0.0,
		0.0],
		"alphaMode":"OPAQUE",
		"doubleSided":true,
		"name":""
	},
	{
		"pbrMetallicRoughness":{
			"baseColorFactor":[1.0,
			1.0,
			1.0,
			1.0],
			"metallicFactor":1.0,
			"roughnessFactor":1.0
		},
		"emissiveFactor":[0.0,
		0.0,
		0.0],
		"alphaMode":"OPAQUE",
		"doubleSided":true,
		"name":""
	},
	{
		"pbrMetallicRoughness":{
			"baseColorFactor":[1.0,
			1.0,
			1.0,
			1.0],
			"metallicFactor":1.0,
			"roughnessFactor":1.0
		},
		"emissiveFactor":[0.0,
		0.0,
		0.0],
		"alphaMode":"OPAQUE",
		"doubleSided":true,
		"name":""
	},
	{
		"pbrMetallicRoughness":{
			"baseColorFactor":[1.0,
			1.0,
			1.0,
			1.0],
			"metallicFactor":1.0,
			"roughnessFactor":1.0
		},
		"emissiveFactor":[0.0,
		0.0,
		0.0],
		"alphaMode":"OPAQUE",
		"doubleSided":true,
		"name":""
	},
	{
		"pbrMetallicRoughness":{
			"baseColorFactor":[1.0,
			1.0,
			1.0,
			1.0],
			"metallicFactor":1.0,
			"roughnessFactor":1.0
		},
		"emissiveFactor":[0.0,
		0.0,
		0.0],
		"alphaMode":"OPAQUE",
		"doubleSided":true,
		"name":""
	}]
}