{
	"asset":{
		"version":"2.0",
		"generator":"Created using the official Cinema 4D glTF Exporter 1.000x290161"
	},
	"scenes":[{
		"nodes":[0,
		5,
		7]
	}],
	"nodes":[{
		"name":"door",
		"children":[1,
		2,
		3,
		4]
	},
	{
		"name":"1St003e",
		"mesh":0
	},
	{
		"name":"1D0001",
		"mesh":1
	},
	{
		"name":"1D0002",
		"mesh":2
	},
	{
		"name":"1D0003",
		"mesh":3
	},
	{
		"name":"floor",
		"children":[6]
	},
	{
		"name":"1S0004",
		"mesh":4
	},
	{
		"name":"wall",
		"children":[8]
	},
	{
		"name":"1W0006",
		"mesh":5
	}],
	"meshes":[{
		"primitives":[{
			"attributes":{
				"POSITION":1
			},
			"indices":0,
			"material":0
		}]
	},
	{
		"primitives":[{
			"attributes":{
				"POSITION":3
			},
			"indices":2,
			"material":1
		}]
	},
	{
		"primitives":[{
			"attributes":{
				"POSITION":5
			},
			"indices":4,
			"material":2
		}]
	},
	{
		"primitives":[{
			"attributes":{
				"POSITION":7
			},
			"indices":6,
			"material":3
		}]
	},
	{
		"primitives":[{
			"attributes":{
				"POSITION":9
			},
			"indices":8,
			"material":4
		}]
	},
	{
		"primitives":[{
			"attributes":{
				"POSITION":11
			},
			"indices":10,
			"material":5
		}]
	}],
	"accessors":[{
		"bufferView":0,
		"type":"SCALAR",
		"componentType":5123,
		"count":1260,
		"byteOffset":0,
		"min":[0],
		"max":[839]
	},
	{
		"bufferView":1,
		"type":"VEC3",
		"componentType":5126,
		"count":840,
		"byteOffset":0,
		"min":[47.35434341430664,
		0.0,
		-1670.6763916015626],
		"max":[470.0000305175781,
		300.0,
		-1067.0018310546876]
	},
	{
		"bufferView":2,
		"type":"SCALAR",
		"componentType":5123,
		"count":36,
		"byteOffset":0,
		"min":[0],
		"max":[23]
	},
	{
		"bufferView":3,
		"type":"VEC3",
		"componentType":5126,
		"count":24,
		"byteOffset":0,
		"min":[542.0000610351563,
		0.0,
		-1299.130126953125],
		"max":[617.0000610351563,
		205.0,
		-1293.130126953125]
	},
	{
		"bufferView":4,
		"type":"SCALAR",
		"componentType":5123,
		"count":36,
		"byteOffset":0,
		"min":[0],
		"max":[23]
	},
	{
		"bufferView":5,
		"type":"VEC3",
		"componentType":5126,
		"count":24,
		"byteOffset":0,
		"min":[542.0000610351563,
		0.0,
		-1443.130126953125],
		"max":[617.0000610351563,
		205.0,
		-1437.130126953125]
	},
	{
		"bufferView":6,
		"type":"SCALAR",
		"componentType":5123,
		"count":84,
		"byteOffset":0,
		"min":[0],
		"max":[47]
	},
	{
		"bufferView":7,
		"type":"VEC3",
		"componentType":5126,
		"count":48,
		"byteOffset":0,
		"min":[616.9999389648438,
		0.0,
		-1448.130126953125],
		"max":[622.9999389648438,
		210.0,
		-1288.130126953125]
	},
	{
		"bufferView":8,
		"type":"SCALAR",
		"componentType":5123,
		"count":42,
		"byteOffset":0,
		"min":[0],
		"max":[17]
	},
	{
		"bufferView":9,
		"type":"VEC3",
		"componentType":5126,
		"count":18,
		"byteOffset":0,
		"min":[47.5,
		0.0,
		-1687.5],
		"max":[1304.0821533203126,
		0.0,
		-40.0]
	},
	{
		"bufferView":10,
		"type":"SCALAR",
		"componentType":5123,
		"count":324,
		"byteOffset":0,
		"min":[0],
		"max":[215]
	},
	{
		"bufferView":11,
		"type":"VEC3",
		"componentType":5126,
		"count":216,
		"byteOffset":0,
		"min":[27.5,
		0.0,
		-1707.5],
		"max":[1324.0821533203126,
		300.0,
		-20.0]
	}],
	"bufferViews":[{
		"buffer":0,
		"byteOffset":0,
		"byteLength":2520,
		"target":34963
	},
	{
		"buffer":0,
		"byteOffset":2520,
		"byteLength":10080,
		"target":34962
	},
	{
		"buffer":1,
		"byteOffset":0,
		"byteLength":72,
		"target":34963
	},
	{
		"buffer":1,
		"byteOffset":72,
		"byteLength":288,
		"target":34962
	},
	{
		"buffer":2,
		"byteOffset":0,
		"byteLength":72,
		"target":34963
	},
	{
		"buffer":2,
		"byteOffset":72,
		"byteLength":288,
		"target":34962
	},
	{
		"buffer":3,
		"byteOffset":0,
		"byteLength":168,
		"target":34963
	},
	{
		"buffer":3,
		"byteOffset":168,
		"byteLength":576,
		"target":34962
	},
	{
		"buffer":4,
		"byteOffset":0,
		"byteLength":84,
		"target":34963
	},
	{
		"buffer":4,
		"byteOffset":84,
		"byteLength":216,
		"target":34962
	},
	{
		"buffer":5,
		"byteOffset":0,
		"byteLength":648,
		"target":34963
	},
	{
		"buffer":5,
		"byteOffset":648,
		"byteLength":2592,
		"target":34962
	}],
	"buffers":[{
		"uri":"data:application/octet-stream;base64,",
		"byteLength":12600
	},
	{
		"uri":"data:application/octet-stream;base64,",
		"byteLength":360
	},
	{
		"uri":"data:application/octet-stream;base64,",
		"byteLength":360
	},
	{
		"uri":"data:application/octet-stream;base64,",
		"byteLength":744
	},
	{
		"uri":"data:application/octet-stream;base64,",
		"byteLength":300
	},
	{
		"uri":"data:application/octet-stream;base64,",
		"byteLength":3240
	}],
	"materials":[{
		"pbrMetallicRoughness":{
			"baseColorFactor":[1.0,
			1.0,
			1.0,
			1.0],
			"metallicFactor":1.0,
			"roughnessFactor":1.0
		},
		"emissiveFactor":[0.0,
		0.0,
		0.0],
		"alphaMode":"OPAQUE",
		"doubleSided":true,
		"name":""
	},
	{
		"pbrMetallicRoughness":{
			"baseColorFactor":[1.0,
			1.0,
			1.0,
			1.0],
			"metallicFactor":1.0,
			"roughnessFactor":1.0
		},
		"emissiveFactor":[0.0,
		0.0,
		0.0],
		"alphaMode":"OPAQUE",
		"doubleSided":true,
		"name":""
	},
	{
		"pbrMetallicRoughness":{
			"baseColorFactor":[1.0,
			1.0,
			1.0,
			1.0],
			"metallicFactor":1.0,
			"roughnessFactor":1.0
		},
		"emissiveFactor":[0.0,
		0.0,
		0.0],
		"alphaMode":"OPAQUE",
		"doubleSided":true,
		"name":""
	},
	{
		"pbrMetallicRoughness":{
			"baseColorFactor":[1.0,
			1.0,
			1.0,
			1.0],
			"metallicFactor":1.0,
			"roughnessFactor":1.0
		},
		"emissiveFactor":[0.0,
		0.0,
		0.0],
		"alphaMode":"OPAQUE",
		"doubleSided":true,
		"name":""
	},
	{
		"pbrMetallicRoughness":{
			"baseColorFactor":[1.0,
			1.0,
			1.0,
			1.0],
			"metallicFactor":1.0,
			"roughnessFactor":1.0
		},
		"emissiveFactor":[0.0,
		0.0,
		0.0],
		"alphaMode":"OPAQUE",
		"doubleSided":true,
		"name":""
	},
	{
		"pbrMetallicRoughness":{
			"baseColorFactor":[1.0,
			1.0,
			1.0,
			1.0],
			"metallicFactor":1.0,
			"roughnessFactor":1.0
		},
		"emissiveFactor":[0.0,
		0.0,
		0.0],
		"alphaMode":"OPAQUE",
		"doubleSided":true,
		"name":""
	}]
}