{
	"asset":{
		"version":"2.0",
		"generator":"Created using the official Cinema 4D glTF Exporter 1.000x290161"
	},
	"scenes":[{
		"nodes":[0,
		23,
		25]
	}],
	"nodes":[{
		"name":"door",
		"children":[1,
		2,
		3,
		4,
		5,
		6,
		7,
		8,
		9,
		10,
		11,
		12,
		13,
		14,
		15,
		16,
		17,
		18,
		19,
		20,
		21,
		22]
	},
	{
		"name":"1St01ca",
		"mesh":0
	},
	{
		"name":"1D0001",
		"mesh":1
	},
	{
		"name":"1D0002",
		"mesh":2
	},
	{
		"name":"1D0003",
		"mesh":3
	},
	{
		"name":"1D0004",
		"mesh":4
	},
	{
		"name":"1D0005",
		"mesh":5
	},
	{
		"name":"1D0006",
		"mesh":6
	},
	{
		"name":"1D0007",
		"mesh":7
	},
	{
		"name":"1D0008",
		"mesh":8
	},
	{
		"name":"1D0009",
		"mesh":9
	},
	{
		"name":"1D000a",
		"mesh":10
	},
	{
		"name":"1D000b",
		"mesh":11
	},
	{
		"name":"1D000c",
		"mesh":12
	},
	{
		"name":"1D000d",
		"mesh":13
	},
	{
		"name":"1D000e",
		"mesh":14
	},
	{
		"name":"1D000f",
		"mesh":15
	},
	{
		"name":"1D0010",
		"mesh":16
	},
	{
		"name":"1D0011",
		"mesh":17
	},
	{
		"name":"1D0012",
		"mesh":18
	},
	{
		"name":"1D0013",
		"mesh":19
	},
	{
		"name":"1D0014",
		"mesh":20
	},
	{
		"name":"1D0015",
		"mesh":21
	},
	{
		"name":"floor",
		"children":[24]
	},
	{
		"name":"1S0016",
		"mesh":22
	},
	{
		"name":"wall",
		"children":[26]
	},
	{
		"name":"1W0020",
		"mesh":23
	}],
	"meshes":[{
		"primitives":[{
			"attributes":{
				"POSITION":1
			},
			"indices":0,
			"material":0
		}]
	},
	{
		"primitives":[{
			"attributes":{
				"POSITION":3
			},
			"indices":2,
			"material":1
		}]
	},
	{
		"primitives":[{
			"attributes":{
				"POSITION":5
			},
			"indices":4,
			"material":2
		}]
	},
	{
		"primitives":[{
			"attributes":{
				"POSITION":7
			},
			"indices":6,
			"material":3
		}]
	},
	{
		"primitives":[{
			"attributes":{
				"POSITION":9
			},
			"indices":8,
			"material":4
		}]
	},
	{
		"primitives":[{
			"attributes":{
				"POSITION":11
			},
			"indices":10,
			"material":5
		}]
	},
	{
		"primitives":[{
			"attributes":{
				"POSITION":13
			},
			"indices":12,
			"material":6
		}]
	},
	{
		"primitives":[{
			"attributes":{
				"POSITION":15
			},
			"indices":14,
			"material":7
		}]
	},
	{
		"primitives":[{
			"attributes":{
				"POSITION":17
			},
			"indices":16,
			"material":8
		}]
	},
	{
		"primitives":[{
			"attributes":{
				"POSITION":19
			},
			"indices":18,
			"material":9
		}]
	},
	{
		"primitives":[{
			"attributes":{
				"POSITION":21
			},
			"indices":20,
			"material":10
		}]
	},
	{
		"primitives":[{
			"attributes":{
				"POSITION":23
			},
			"indices":22,
			"material":11
		}]
	},
	{
		"primitives":[{
			"attributes":{
				"POSITION":25
			},
			"indices":24,
			"material":12
		}]
	},
	{
		"primitives":[{
			"attributes":{
				"POSITION":27
			},
			"indices":26,
			"material":13
		}]
	},
	{
		"primitives":[{
			"attributes":{
				"POSITION":29
			},
			"indices":28,
			"material":14
		}]
	},
	{
		"primitives":[{
			"attributes":{
				"POSITION":31
			},
			"indices":30,
			"material":15
		}]
	},
	{
		"primitives":[{
			"attributes":{
				"POSITION":33
			},
			"indices":32,
			"material":16
		}]
	},
	{
		"primitives":[{
			"attributes":{
				"POSITION":35
			},
			"indices":34,
			"material":17
		}]
	},
	{
		"primitives":[{
			"attributes":{
				"POSITION":37
			},
			"indices":36,
			"material":18
		}]
	},
	{
		"primitives":[{
			"attributes":{
				"POSITION":39
			},
			"indices":38,
			"material":19
		}]
	},
	{
		"primitives":[{
			"attributes":{
				"POSITION":41
			},
			"indices":40,
			"material":20
		}]
	},
	{
		"primitives":[{
			"attributes":{
				"POSITION":43
			},
			"indices":42,
			"material":21
		}]
	},
	{
		"primitives":[{
			"attributes":{
				"POSITION":45
			},
			"indices":44,
			"material":22
		}]
	},
	{
		"primitives":[{
			"attributes":{
				"POSITION":47
			},
			"indices":46,
			"material":23
		}]
	}],
	"accessors":[{
		"bufferView":0,
		"type":"SCALAR",
		"componentType":5123,
		"count":1260,
		"byteOffset":0,
		"min":[0],
		"max":[839]
	},
	{
		"bufferView":1,
		"type":"VEC3",
		"componentType":5126,
		"count":840,
		"byteOffset":0,
		"min":[1166.684814453125,
		0.0,
		-1996.875],
		"max":[1494.484130859375,
		300.0,
		-1769.5833740234376]
	},
	{
		"bufferView":2,
		"type":"SCALAR",
		"componentType":5123,
		"count":36,
		"byteOffset":0,
		"min":[0],
		"max":[23]
	},
	{
		"bufferView":3,
		"type":"VEC3",
		"componentType":5126,
		"count":24,
		"byteOffset":0,
		"min":[975.0000610351563,
		0.0,
		-1603.7713623046876],
		"max":[981.0000610351563,
		205.0,
		-1543.7713623046876]
	},
	{
		"bufferView":4,
		"type":"SCALAR",
		"componentType":5123,
		"count":84,
		"byteOffset":0,
		"min":[0],
		"max":[47]
	},
	{
		"bufferView":5,
		"type":"VEC3",
		"componentType":5126,
		"count":48,
		"byteOffset":0,
		"min":[975.0000610351563,
		0.0,
		-1608.7713623046876],
		"max":[981.0000610351563,
		210.0,
		-1538.7713623046876]
	},
	{
		"bufferView":6,
		"type":"SCALAR",
		"componentType":5123,
		"count":36,
		"byteOffset":0,
		"min":[0],
		"max":[23]
	},
	{
		"bufferView":7,
		"type":"VEC3",
		"componentType":5126,
		"count":24,
		"byteOffset":0,
		"min":[488.78997802734377,
		0.0,
		-544.0],
		"max":[568.7899780273438,
		205.0,
		-538.0]
	},
	{
		"bufferView":8,
		"type":"SCALAR",
		"componentType":5123,
		"count":84,
		"byteOffset":0,
		"min":[0],
		"max":[47]
	},
	{
		"bufferView":9,
		"type":"VEC3",
		"componentType":5126,
		"count":48,
		"byteOffset":0,
		"min":[483.78997802734377,
		0.0,
		-544.0],
		"max":[573.7899780273438,
		210.0,
		-538.0]
	},
	{
		"bufferView":10,
		"type":"SCALAR",
		"componentType":5123,
		"count":36,
		"byteOffset":0,
		"min":[0],
		"max":[23]
	},
	{
		"bufferView":11,
		"type":"VEC3",
		"componentType":5126,
		"count":24,
		"byteOffset":0,
		"min":[1304.1300048828126,
		0.0,
		-1604.5460205078126],
		"max":[1364.1300048828126,
		205.0,
		-1598.5458984375]
	},
	{
		"bufferView":12,
		"type":"SCALAR",
		"componentType":5123,
		"count":84,
		"byteOffset":0,
		"min":[0],
		"max":[47]
	},
	{
		"bufferView":13,
		"type":"VEC3",
		"componentType":5126,
		"count":48,
		"byteOffset":0,
		"min":[1299.130126953125,
		0.0,
		-1604.546142578125],
		"max":[1369.130126953125,
		210.0,
		-1598.5460205078126]
	},
	{
		"bufferView":14,
		"type":"SCALAR",
		"componentType":5123,
		"count":36,
		"byteOffset":0,
		"min":[0],
		"max":[23]
	},
	{
		"bufferView":15,
		"type":"VEC3",
		"componentType":5126,
		"count":24,
		"byteOffset":0,
		"min":[975.0000610351563,
		0.0,
		-1491.6824951171876],
		"max":[981.0000610351563,
		205.0,
		-1431.6824951171876]
	},
	{
		"bufferView":16,
		"type":"SCALAR",
		"componentType":5123,
		"count":84,
		"byteOffset":0,
		"min":[0],
		"max":[47]
	},
	{
		"bufferView":17,
		"type":"VEC3",
		"componentType":5126,
		"count":48,
		"byteOffset":0,
		"min":[974.9998168945313,
		0.0,
		-1496.6826171875],
		"max":[980.9998168945313,
		210.0,
		-1426.6826171875]
	},
	{
		"bufferView":18,
		"type":"SCALAR",
		"componentType":5123,
		"count":36,
		"byteOffset":0,
		"min":[0],
		"max":[23]
	},
	{
		"bufferView":19,
		"type":"VEC3",
		"componentType":5126,
		"count":24,
		"byteOffset":0,
		"min":[339.3299865722656,
		0.0,
		-997.1610107421875],
		"max":[419.3299865722656,
		205.0,
		-991.1610107421875]
	},
	{
		"bufferView":20,
		"type":"SCALAR",
		"componentType":5123,
		"count":84,
		"byteOffset":0,
		"min":[0],
		"max":[47]
	},
	{
		"bufferView":21,
		"type":"VEC3",
		"componentType":5126,
		"count":48,
		"byteOffset":0,
		"min":[334.3299865722656,
		0.0,
		-997.1610107421875],
		"max":[424.3299865722656,
		210.0,
		-991.1610107421875]
	},
	{
		"bufferView":22,
		"type":"SCALAR",
		"componentType":5123,
		"count":36,
		"byteOffset":0,
		"min":[0],
		"max":[23]
	},
	{
		"bufferView":23,
		"type":"VEC3",
		"componentType":5126,
		"count":24,
		"byteOffset":0,
		"min":[486.3030090332031,
		0.0,
		-851.302001953125],
		"max":[566.302978515625,
		205.0,
		-845.302001953125]
	},
	{
		"bufferView":24,
		"type":"SCALAR",
		"componentType":5123,
		"count":84,
		"byteOffset":0,
		"min":[0],
		"max":[47]
	},
	{
		"bufferView":25,
		"type":"VEC3",
		"componentType":5126,
		"count":48,
		"byteOffset":0,
		"min":[481.3029479980469,
		0.0,
		-851.302001953125],
		"max":[571.3029174804688,
		210.0,
		-845.302001953125]
	},
	{
		"bufferView":26,
		"type":"SCALAR",
		"componentType":5123,
		"count":36,
		"byteOffset":0,
		"min":[0],
		"max":[23]
	},
	{
		"bufferView":27,
		"type":"VEC3",
		"componentType":5126,
		"count":24,
		"byteOffset":0,
		"min":[1190.5,
		0.0,
		-834.9260864257813],
		"max":[1196.5001220703126,
		205.0,
		-754.926025390625]
	},
	{
		"bufferView":28,
		"type":"SCALAR",
		"componentType":5123,
		"count":84,
		"byteOffset":0,
		"min":[0],
		"max":[47]
	},
	{
		"bufferView":29,
		"type":"VEC3",
		"componentType":5126,
		"count":48,
		"byteOffset":0,
		"min":[1190.5,
		0.0,
		-839.9259643554688],
		"max":[1196.5001220703126,
		210.0,
		-749.9259033203125]
	},
	{
		"bufferView":30,
		"type":"SCALAR",
		"componentType":5123,
		"count":36,
		"byteOffset":0,
		"min":[0],
		"max":[23]
	},
	{
		"bufferView":31,
		"type":"VEC3",
		"componentType":5126,
		"count":24,
		"byteOffset":0,
		"min":[1422.2330322265626,
		0.0,
		-1604.5460205078126],
		"max":[1482.2330322265626,
		205.0,
		-1598.5460205078126]
	},
	{
		"bufferView":32,
		"type":"SCALAR",
		"componentType":5123,
		"count":84,
		"byteOffset":0,
		"min":[0],
		"max":[47]
	},
	{
		"bufferView":33,
		"type":"VEC3",
		"componentType":5126,
		"count":48,
		"byteOffset":0,
		"min":[1417.233154296875,
		0.0,
		-1604.5460205078126],
		"max":[1487.233154296875,
		210.0,
		-1598.5460205078126]
	},
	{
		"bufferView":34,
		"type":"SCALAR",
		"componentType":5123,
		"count":36,
		"byteOffset":0,
		"min":[0],
		"max":[23]
	},
	{
		"bufferView":35,
		"type":"VEC3",
		"componentType":5126,
		"count":24,
		"byteOffset":0,
		"min":[1124.2640380859376,
		0.0,
		-1744.0001220703126],
		"max":[1130.2640380859376,
		205.0,
		-1660.0001220703126]
	},
	{
		"bufferView":36,
		"type":"SCALAR",
		"componentType":5123,
		"count":36,
		"byteOffset":0,
		"min":[0],
		"max":[23]
	},
	{
		"bufferView":37,
		"type":"VEC3",
		"componentType":5126,
		"count":24,
		"byteOffset":0,
		"min":[1010.2640991210938,
		0.0,
		-1744.0001220703126],
		"max":[1016.2640991210938,
		205.0,
		-1708.0001220703126]
	},
	{
		"bufferView":38,
		"type":"SCALAR",
		"componentType":5123,
		"count":84,
		"byteOffset":0,
		"min":[0],
		"max":[47]
	},
	{
		"bufferView":39,
		"type":"VEC3",
		"componentType":5126,
		"count":48,
		"byteOffset":0,
		"min":[1005.2639770507813,
		0.0,
		-1750.0],
		"max":[1135.263916015625,
		210.0,
		-1744.0]
	},
	{
		"bufferView":40,
		"type":"SCALAR",
		"componentType":5123,
		"count":36,
		"byteOffset":0,
		"min":[0],
		"max":[23]
	},
	{
		"bufferView":41,
		"type":"VEC3",
		"componentType":5126,
		"count":24,
		"byteOffset":0,
		"min":[1146.5069580078126,
		0.0,
		-1606.552001953125],
		"max":[1152.5069580078126,
		205.0,
		-1526.552001953125]
	},
	{
		"bufferView":42,
		"type":"SCALAR",
		"componentType":5123,
		"count":84,
		"byteOffset":0,
		"min":[0],
		"max":[47]
	},
	{
		"bufferView":43,
		"type":"VEC3",
		"componentType":5126,
		"count":48,
		"byteOffset":0,
		"min":[1146.5069580078126,
		0.0,
		-1611.5523681640626],
		"max":[1152.5069580078126,
		210.0,
		-1521.5523681640626]
	},
	{
		"bufferView":44,
		"type":"SCALAR",
		"componentType":5123,
		"count":474,
		"byteOffset":0,
		"min":[0],
		"max":[177]
	},
	{
		"bufferView":45,
		"type":"VEC3",
		"componentType":5126,
		"count":178,
		"byteOffset":0,
		"min":[14.0,
		0.0,
		-1992.272705078125],
		"max":[1521.060546875,
		0.0,
		-14.0]
	},
	{
		"bufferView":46,
		"type":"SCALAR",
		"componentType":5123,
		"count":2496,
		"byteOffset":0,
		"min":[0],
		"max":[1663]
	},
	{
		"bufferView":47,
		"type":"VEC3",
		"componentType":5126,
		"count":1664,
		"byteOffset":0,
		"min":[-6.0,
		0.0,
		-2012.272705078125],
		"max":[1541.060546875,
		300.0,
		6.0]
	}],
	"bufferViews":[{
		"buffer":0,
		"byteOffset":0,
		"byteLength":2520,
		"target":34963
	},
	{
		"buffer":0,
		"byteOffset":2520,
		"byteLength":10080,
		"target":34962
	},
	{
		"buffer":1,
		"byteOffset":0,
		"byteLength":72,
		"target":34963
	},
	{
		"buffer":1,
		"byteOffset":72,
		"byteLength":288,
		"target":34962
	},
	{
		"buffer":2,
		"byteOffset":0,
		"byteLength":168,
		"target":34963
	},
	{
		"buffer":2,
		"byteOffset":168,
		"byteLength":576,
		"target":34962
	},
	{
		"buffer":3,
		"byteOffset":0,
		"byteLength":72,
		"target":34963
	},
	{
		"buffer":3,
		"byteOffset":72,
		"byteLength":288,
		"target":34962
	},
	{
		"buffer":4,
		"byteOffset":0,
		"byteLength":168,
		"target":34963
	},
	{
		"buffer":4,
		"byteOffset":168,
		"byteLength":576,
		"target":34962
	},
	{
		"buffer":5,
		"byteOffset":0,
		"byteLength":72,
		"target":34963
	},
	{
		"buffer":5,
		"byteOffset":72,
		"byteLength":288,
		"target":34962
	},
	{
		"buffer":6,
		"byteOffset":0,
		"byteLength":168,
		"target":34963
	},
	{
		"buffer":6,
		"byteOffset":168,
		"byteLength":576,
		"target":34962
	},
	{
		"buffer":7,
		"byteOffset":0,
		"byteLength":72,
		"target":34963
	},
	{
		"buffer":7,
		"byteOffset":72,
		"byteLength":288,
		"target":34962
	},
	{
		"buffer":8,
		"byteOffset":0,
		"byteLength":168,
		"target":34963
	},
	{
		"buffer":8,
		"byteOffset":168,
		"byteLength":576,
		"target":34962
	},
	{
		"buffer":9,
		"byteOffset":0,
		"byteLength":72,
		"target":34963
	},
	{
		"buffer":9,
		"byteOffset":72,
		"byteLength":288,
		"target":34962
	},
	{
		"buffer":10,
		"byteOffset":0,
		"byteLength":168,
		"target":34963
	},
	{
		"buffer":10,
		"byteOffset":168,
		"byteLength":576,
		"target":34962
	},
	{
		"buffer":11,
		"byteOffset":0,
		"byteLength":72,
		"target":34963
	},
	{
		"buffer":11,
		"byteOffset":72,
		"byteLength":288,
		"target":34962
	},
	{
		"buffer":12,
		"byteOffset":0,
		"byteLength":168,
		"target":34963
	},
	{
		"buffer":12,
		"byteOffset":168,
		"byteLength":576,
		"target":34962
	},
	{
		"buffer":13,
		"byteOffset":0,
		"byteLength":72,
		"target":34963
	},
	{
		"buffer":13,
		"byteOffset":72,
		"byteLength":288,
		"target":34962
	},
	{
		"buffer":14,
		"byteOffset":0,
		"byteLength":168,
		"target":34963
	},
	{
		"buffer":14,
		"byteOffset":168,
		"byteLength":576,
		"target":34962
	},
	{
		"buffer":15,
		"byteOffset":0,
		"byteLength":72,
		"target":34963
	},
	{
		"buffer":15,
		"byteOffset":72,
		"byteLength":288,
		"target":34962
	},
	{
		"buffer":16,
		"byteOffset":0,
		"byteLength":168,
		"target":34963
	},
	{
		"buffer":16,
		"byteOffset":168,
		"byteLength":576,
		"target":34962
	},
	{
		"buffer":17,
		"byteOffset":0,
		"byteLength":72,
		"target":34963
	},
	{
		"buffer":17,
		"byteOffset":72,
		"byteLength":288,
		"target":34962
	},
	{
		"buffer":18,
		"byteOffset":0,
		"byteLength":72,
		"target":34963
	},
	{
		"buffer":18,
		"byteOffset":72,
		"byteLength":288,
		"target":34962
	},
	{
		"buffer":19,
		"byteOffset":0,
		"byteLength":168,
		"target":34963
	},
	{
		"buffer":19,
		"byteOffset":168,
		"byteLength":576,
		"target":34962
	},
	{
		"buffer":20,
		"byteOffset":0,
		"byteLength":72,
		"target":34963
	},
	{
		"buffer":20,
		"byteOffset":72,
		"byteLength":288,
		"target":34962
	},
	{
		"buffer":21,
		"byteOffset":0,
		"byteLength":168,
		"target":34963
	},
	{
		"buffer":21,
		"byteOffset":168,
		"byteLength":576,
		"target":34962
	},
	{
		"buffer":22,
		"byteOffset":0,
		"byteLength":948,
		"target":34963
	},
	{
		"buffer":22,
		"byteOffset":948,
		"byteLength":2136,
		"target":34962
	},
	{
		"buffer":23,
		"byteOffset":0,
		"byteLength":4992,
		"target":34963
	},
	{
		"buffer":23,
		"byteOffset":4992,
		"byteLength":19968,
		"target":34962
	}],
	"buffers":[{
		"uri":"data:application/octet-stream;base64,",
		"byteLength":12600
	},
	{
		"uri":"data:application/octet-stream;base64,",
		"byteLength":360
	},
	{
		"uri":"data:application/octet-stream;base64,",
		"byteLength":744
	},
	{
		"uri":"data:application/octet-stream;base64,",
		"byteLength":360
	},
	{
		"uri":"data:application/octet-stream;base64,",
		"byteLength":744
	},
	{
		"uri":"data:application/octet-stream;base64,",
		"byteLength":360
	},
	{
		"uri":"data:application/octet-stream;base64,",
		"byteLength":744
	},
	{
		"uri":"data:application/octet-stream;base64,",
		"byteLength":360
	},
	{
		"uri":"data:application/octet-stream;base64,",
		"byteLength":744
	},
	{
		"uri":"data:application/octet-stream;base64,",
		"byteLength":360
	},
	{
		"uri":"data:application/octet-stream;base64,",
		"byteLength":744
	},
	{
		"uri":"data:application/octet-stream;base64,",
		"byteLength":360
	},
	{
		"uri":"data:application/octet-stream;base64,",
		"byteLength":744
	},
	{
		"uri":"data:application/octet-stream;base64,",
		"byteLength":360
	},
	{
		"uri":"data:application/octet-stream;base64,",
		"byteLength":744
	},
	{
		"uri":"data:application/octet-stream;base64,",
		"byteLength":360
	},
	{
		"uri":"data:application/octet-stream;base64,",
		"byteLength":744
	},
	{
		"uri":"data:application/octet-stream;base64,",
		"byteLength":360
	},
	{
		"uri":"data:application/octet-stream;base64,",
		"byteLength":360
	},
	{
		"uri":"data:application/octet-stream;base64,",
		"byteLength":744
	},
	{
		"uri":"data:application/octet-stream;base64,",
		"byteLength":360
	},
	{
		"uri":"data:application/octet-stream;base64,",
		"byteLength":744
	},
	{
		"uri":"data:application/octet-stream;base64,",
		"byteLength":3084
	},
	{
		"uri":"data:application/octet-stream;base64,",
		"byteLength":24960
	}],
	"materials":[{
		"pbrMetallicRoughness":{
			"baseColorFactor":[1.0,
			1.0,
			1.0,
			1.0],
			"metallicFactor":1.0,
			"roughnessFactor":1.0
		},
		"emissiveFactor":[0.0,
		0.0,
		0.0],
		"alphaMode":"OPAQUE",
		"doubleSided":true,
		"name":""
	},
	{
		"pbrMetallicRoughness":{
			"baseColorFactor":[1.0,
			1.0,
			1.0,
			1.0],
			"metallicFactor":1.0,
			"roughnessFactor":1.0
		},
		"emissiveFactor":[0.0,
		0.0,
		0.0],
		"alphaMode":"OPAQUE",
		"doubleSided":true,
		"name":""
	},
	{
		"pbrMetallicRoughness":{
			"baseColorFactor":[1.0,
			1.0,
			1.0,
			1.0],
			"metallicFactor":1.0,
			"roughnessFactor":1.0
		},
		"emissiveFactor":[0.0,
		0.0,
		0.0],
		"alphaMode":"OPAQUE",
		"doubleSided":true,
		"name":""
	},
	{
		"pbrMetallicRoughness":{
			"baseColorFactor":[1.0,
			1.0,
			1.0,
			1.0],
			"metallicFactor":1.0,
			"roughnessFactor":1.0
		},
		"emissiveFactor":[0.0,
		0.0,
		0.0],
		"alphaMode":"OPAQUE",
		"doubleSided":true,
		"name":""
	},
	{
		"pbrMetallicRoughness":{
			"baseColorFactor":[1.0,
			1.0,
			1.0,
			1.0],
			"metallicFactor":1.0,
			"roughnessFactor":1.0
		},
		"emissiveFactor":[0.0,
		0.0,
		0.0],
		"alphaMode":"OPAQUE",
		"doubleSided":true,
		"name":""
	},
	{
		"pbrMetallicRoughness":{
			"baseColorFactor":[1.0,
			1.0,
			1.0,
			1.0],
			"metallicFactor":1.0,
			"roughnessFactor":1.0
		},
		"emissiveFactor":[0.0,
		0.0,
		0.0],
		"alphaMode":"OPAQUE",
		"doubleSided":true,
		"name":""
	},
	{
		"pbrMetallicRoughness":{
			"baseColorFactor":[1.0,
			1.0,
			1.0,
			1.0],
			"metallicFactor":1.0,
			"roughnessFactor":1.0
		},
		"emissiveFactor":[0.0,
		0.0,
		0.0],
		"alphaMode":"OPAQUE",
		"doubleSided":true,
		"name":""
	},
	{
		"pbrMetallicRoughness":{
			"baseColorFactor":[1.0,
			1.0,
			1.0,
			1.0],
			"metallicFactor":1.0,
			"roughnessFactor":1.0
		},
		"emissiveFactor":[0.0,
		0.0,
		0.0],
		"alphaMode":"OPAQUE",
		"doubleSided":true,
		"name":""
	},
	{
		"pbrMetallicRoughness":{
			"baseColorFactor":[1.0,
			1.0,
			1.0,
			1.0],
			"metallicFactor":1.0,
			"roughnessFactor":1.0
		},
		"emissiveFactor":[0.0,
		0.0,
		0.0],
		"alphaMode":"OPAQUE",
		"doubleSided":true,
		"name":""
	},
	{
		"pbrMetallicRoughness":{
			"baseColorFactor":[1.0,
			1.0,
			1.0,
			1.0],
			"metallicFactor":1.0,
			"roughnessFactor":1.0
		},
		"emissiveFactor":[0.0,
		0.0,
		0.0],
		"alphaMode":"OPAQUE",
		"doubleSided":true,
		"name":""
	},
	{
		"pbrMetallicRoughness":{
			"baseColorFactor":[1.0,
			1.0,
			1.0,
			1.0],
			"metallicFactor":1.0,
			"roughnessFactor":1.0
		},
		"emissiveFactor":[0.0,
		0.0,
		0.0],
		"alphaMode":"OPAQUE",
		"doubleSided":true,
		"name":""
	},
	{
		"pbrMetallicRoughness":{
			"baseColorFactor":[1.0,
			1.0,
			1.0,
			1.0],
			"metallicFactor":1.0,
			"roughnessFactor":1.0
		},
		"emissiveFactor":[0.0,
		0.0,
		0.0],
		"alphaMode":"OPAQUE",
		"doubleSided":true,
		"name":""
	},
	{
		"pbrMetallicRoughness":{
			"baseColorFactor":[1.0,
			1.0,
			1.0,
			1.0],
			"metallicFactor":1.0,
			"roughnessFactor":1.0
		},
		"emissiveFactor":[0.0,
		0.0,
		0.0],
		"alphaMode":"OPAQUE",
		"doubleSided":true,
		"name":""
	},
	{
		"pbrMetallicRoughness":{
			"baseColorFactor":[1.0,
			1.0,
			1.0,
			1.0],
			"metallicFactor":1.0,
			"roughnessFactor":1.0
		},
		"emissiveFactor":[0.0,
		0.0,
		0.0],
		"alphaMode":"OPAQUE",
		"doubleSided":true,
		"name":""
	},
	{
		"pbrMetallicRoughness":{
			"baseColorFactor":[1.0,
			1.0,
			1.0,
			1.0],
			"metallicFactor":1.0,
			"roughnessFactor":1.0
		},
		"emissiveFactor":[0.0,
		0.0,
		0.0],
		"alphaMode":"OPAQUE",
		"doubleSided":true,
		"name":""
	},
	{
		"pbrMetallicRoughness":{
			"baseColorFactor":[1.0,
			1.0,
			1.0,
			1.0],
			"metallicFactor":1.0,
			"roughnessFactor":1.0
		},
		"emissiveFactor":[0.0,
		0.0,
		0.0],
		"alphaMode":"OPAQUE",
		"doubleSided":true,
		"name":""
	},
	{
		"pbrMetallicRoughness":{
			"baseColorFactor":[1.0,
			1.0,
			1.0,
			1.0],
			"metallicFactor":1.0,
			"roughnessFactor":1.0
		},
		"emissiveFactor":[0.0,
		0.0,
		0.0],
		"alphaMode":"OPAQUE",
		"doubleSided":true,
		"name":""
	},
	{
		"pbrMetallicRoughness":{
			"baseColorFactor":[1.0,
			1.0,
			1.0,
			1.0],
			"metallicFactor":1.0,
			"roughnessFactor":1.0
		},
		"emissiveFactor":[0.0,
		0.0,
		0.0],
		"alphaMode":"OPAQUE",
		"doubleSided":true,
		"name":""
	},
	{
		"pbrMetallicRoughness":{
			"baseColorFactor":[1.0,
			1.0,
			1.0,
			1.0],
			"metallicFactor":1.0,
			"roughnessFactor":1.0
		},
		"emissiveFactor":[0.0,
		0.0,
		0.0],
		"alphaMode":"OPAQUE",
		"doubleSided":true,
		"name":""
	},
	{
		"pbrMetallicRoughness":{
			"baseColorFactor":[1.0,
			1.0,
			1.0,
			1.0],
			"metallicFactor":1.0,
			"roughnessFactor":1.0
		},
		"emissiveFactor":[0.0,
		0.0,
		0.0],
		"alphaMode":"OPAQUE",
		"doubleSided":true,
		"name":""
	},
	{
		"pbrMetallicRoughness":{
			"baseColorFactor":[1.0,
			1.0,
			1.0,
			1.0],
			"metallicFactor":1.0,
			"roughnessFactor":1.0
		},
		"emissiveFactor":[0.0,
		0.0,
		0.0],
		"alphaMode":"OPAQUE",
		"doubleSided":true,
		"name":""
	},
	{
		"pbrMetallicRoughness":{
			"baseColorFactor":[1.0,
			1.0,
			1.0,
			1.0],
			"metallicFactor":1.0,
			"roughnessFactor":1.0
		},
		"emissiveFactor":[0.0,
		0.0,
		0.0],
		"alphaMode":"OPAQUE",
		"doubleSided":true,
		"name":""
	},
	{
		"pbrMetallicRoughness":{
			"baseColorFactor":[1.0,
			1.0,
			1.0,
			1.0],
			"metallicFactor":1.0,
			"roughnessFactor":1.0
		},
		"emissiveFactor":[0.0,
		0.0,
		0.0],
		"alphaMode":"OPAQUE",
		"doubleSided":true,
		"name":""
	},
	{
		"pbrMetallicRoughness":{
			"baseColorFactor":[1.0,
			1.0,
			1.0,
			1.0],
			"metallicFactor":1.0,
			"roughnessFactor":1.0
		},
		"emissiveFactor":[0.0,
		0.0,
		0.0],
		"alphaMode":"OPAQUE",
		"doubleSided":true,
		"name":""
	}]
}