{
	"asset":{
		"version":"2.0",
		"generator":"Created using the official Cinema 4D glTF Exporter 1.000x290161"
	},
	"scenes":[{
		"nodes":[0,
		15,
		17]
	}],
	"nodes":[{
		"name":"door",
		"children":[1,
		2,
		3,
		4,
		5,
		6,
		7,
		8,
		9,
		10,
		11,
		12,
		13,
		14]
	},
	{
		"name":"1St0075",
		"mesh":0
	},
	{
		"name":"1St0076",
		"mesh":1
	},
	{
		"name":"1D0001",
		"mesh":2
	},
	{
		"name":"1D0002",
		"mesh":3
	},
	{
		"name":"1D0003",
		"mesh":4
	},
	{
		"name":"1D0004",
		"mesh":5
	},
	{
		"name":"1D0005",
		"mesh":6
	},
	{
		"name":"1D0006",
		"mesh":7
	},
	{
		"name":"1D0007",
		"mesh":8
	},
	{
		"name":"1D0008",
		"mesh":9
	},
	{
		"name":"1D0009",
		"mesh":10
	},
	{
		"name":"1D000a",
		"mesh":11
	},
	{
		"name":"1D000b",
		"mesh":12
	},
	{
		"name":"1D000c",
		"mesh":13
	},
	{
		"name":"floor",
		"children":[16]
	},
	{
		"name":"1S000d",
		"mesh":14
	},
	{
		"name":"wall",
		"children":[18]
	},
	{
		"name":"1W0010",
		"mesh":15
	}],
	"meshes":[{
		"primitives":[{
			"attributes":{
				"POSITION":1
			},
			"indices":0,
			"material":0
		}]
	},
	{
		"primitives":[{
			"attributes":{
				"POSITION":3
			},
			"indices":2,
			"material":1
		}]
	},
	{
		"primitives":[{
			"attributes":{
				"POSITION":5
			},
			"indices":4,
			"material":2
		}]
	},
	{
		"primitives":[{
			"attributes":{
				"POSITION":7
			},
			"indices":6,
			"material":3
		}]
	},
	{
		"primitives":[{
			"attributes":{
				"POSITION":9
			},
			"indices":8,
			"material":4
		}]
	},
	{
		"primitives":[{
			"attributes":{
				"POSITION":11
			},
			"indices":10,
			"material":5
		}]
	},
	{
		"primitives":[{
			"attributes":{
				"POSITION":13
			},
			"indices":12,
			"material":6
		}]
	},
	{
		"primitives":[{
			"attributes":{
				"POSITION":15
			},
			"indices":14,
			"material":7
		}]
	},
	{
		"primitives":[{
			"attributes":{
				"POSITION":17
			},
			"indices":16,
			"material":8
		}]
	},
	{
		"primitives":[{
			"attributes":{
				"POSITION":19
			},
			"indices":18,
			"material":9
		}]
	},
	{
		"primitives":[{
			"attributes":{
				"POSITION":21
			},
			"indices":20,
			"material":10
		}]
	},
	{
		"primitives":[{
			"attributes":{
				"POSITION":23
			},
			"indices":22,
			"material":11
		}]
	},
	{
		"primitives":[{
			"attributes":{
				"POSITION":25
			},
			"indices":24,
			"material":12
		}]
	},
	{
		"primitives":[{
			"attributes":{
				"POSITION":27
			},
			"indices":26,
			"material":13
		}]
	},
	{
		"primitives":[{
			"attributes":{
				"POSITION":29
			},
			"indices":28,
			"material":14
		}]
	},
	{
		"primitives":[{
			"attributes":{
				"POSITION":31
			},
			"indices":30,
			"material":15
		}]
	}],
	"accessors":[{
		"bufferView":0,
		"type":"SCALAR",
		"componentType":5123,
		"count":396,
		"byteOffset":0,
		"min":[0],
		"max":[263]
	},
	{
		"bufferView":1,
		"type":"VEC3",
		"componentType":5126,
		"count":264,
		"byteOffset":0,
		"min":[2138.5,
		0.0,
		-363.0],
		"max":[2238.5,
		300.0,
		-113.0]
	},
	{
		"bufferView":2,
		"type":"SCALAR",
		"componentType":5123,
		"count":396,
		"byteOffset":0,
		"min":[0],
		"max":[263]
	},
	{
		"bufferView":3,
		"type":"VEC3",
		"componentType":5126,
		"count":264,
		"byteOffset":0,
		"min":[2255.75,
		0.0,
		-340.0],
		"max":[2355.75,
		300.0,
		-88.46284484863281]
	},
	{
		"bufferView":4,
		"type":"SCALAR",
		"componentType":5123,
		"count":36,
		"byteOffset":0,
		"min":[0],
		"max":[23]
	},
	{
		"bufferView":5,
		"type":"VEC3",
		"componentType":5126,
		"count":24,
		"byteOffset":0,
		"min":[2131.000244140625,
		0.0,
		-499.7181396484375],
		"max":[2222.000244140625,
		205.0,
		-493.71807861328127]
	},
	{
		"bufferView":6,
		"type":"SCALAR",
		"componentType":5123,
		"count":36,
		"byteOffset":0,
		"min":[0],
		"max":[23]
	},
	{
		"bufferView":7,
		"type":"VEC3",
		"componentType":5126,
		"count":24,
		"byteOffset":0,
		"min":[2131.0,
		0.0,
		-375.71807861328127],
		"max":[2170.0,
		205.0,
		-369.7180480957031]
	},
	{
		"bufferView":8,
		"type":"SCALAR",
		"componentType":5123,
		"count":84,
		"byteOffset":0,
		"min":[0],
		"max":[47]
	},
	{
		"bufferView":9,
		"type":"VEC3",
		"componentType":5126,
		"count":48,
		"byteOffset":0,
		"min":[2125.0,
		0.0,
		-504.7184143066406],
		"max":[2131.0,
		210.0,
		-364.7184143066406]
	},
	{
		"bufferView":10,
		"type":"SCALAR",
		"componentType":5123,
		"count":36,
		"byteOffset":0,
		"min":[0],
		"max":[23]
	},
	{
		"bufferView":11,
		"type":"VEC3",
		"componentType":5126,
		"count":24,
		"byteOffset":0,
		"min":[2176.84814453125,
		0.0,
		-637.9999389648438],
		"max":[2182.84814453125,
		205.0,
		-582.9998779296875]
	},
	{
		"bufferView":12,
		"type":"SCALAR",
		"componentType":5123,
		"count":36,
		"byteOffset":0,
		"min":[0],
		"max":[23]
	},
	{
		"bufferView":13,
		"type":"VEC3",
		"componentType":5126,
		"count":24,
		"byteOffset":0,
		"min":[2280.84814453125,
		0.0,
		-638.0001220703125],
		"max":[2286.84814453125,
		205.0,
		-583.0001220703125]
	},
	{
		"bufferView":14,
		"type":"SCALAR",
		"componentType":5123,
		"count":84,
		"byteOffset":0,
		"min":[0],
		"max":[47]
	},
	{
		"bufferView":15,
		"type":"VEC3",
		"componentType":5126,
		"count":48,
		"byteOffset":0,
		"min":[2171.847900390625,
		0.0,
		-583.0],
		"max":[2291.847900390625,
		210.0,
		-576.9999389648438]
	},
	{
		"bufferView":16,
		"type":"SCALAR",
		"componentType":5123,
		"count":36,
		"byteOffset":0,
		"min":[0],
		"max":[23]
	},
	{
		"bufferView":17,
		"type":"VEC3",
		"componentType":5126,
		"count":24,
		"byteOffset":0,
		"min":[2296.84814453125,
		0.0,
		-637.9998779296875],
		"max":[2302.84814453125,
		205.0,
		-582.9998779296875]
	},
	{
		"bufferView":18,
		"type":"SCALAR",
		"componentType":5123,
		"count":36,
		"byteOffset":0,
		"min":[0],
		"max":[23]
	},
	{
		"bufferView":19,
		"type":"VEC3",
		"componentType":5126,
		"count":24,
		"byteOffset":0,
		"min":[2400.84814453125,
		0.0,
		-638.0000610351563],
		"max":[2406.84814453125,
		205.0,
		-583.0000610351563]
	},
	{
		"bufferView":20,
		"type":"SCALAR",
		"componentType":5123,
		"count":84,
		"byteOffset":0,
		"min":[0],
		"max":[47]
	},
	{
		"bufferView":21,
		"type":"VEC3",
		"componentType":5126,
		"count":48,
		"byteOffset":0,
		"min":[2291.847900390625,
		0.0,
		-583.0],
		"max":[2411.847900390625,
		210.0,
		-576.9998779296875]
	},
	{
		"bufferView":22,
		"type":"SCALAR",
		"componentType":5123,
		"count":36,
		"byteOffset":0,
		"min":[0],
		"max":[23]
	},
	{
		"bufferView":23,
		"type":"VEC3",
		"componentType":5126,
		"count":24,
		"byteOffset":0,
		"min":[791.5000610351563,
		0.0,
		-283.3863220214844],
		"max":[866.5000610351563,
		205.0,
		-277.3862609863281]
	},
	{
		"bufferView":24,
		"type":"SCALAR",
		"componentType":5123,
		"count":36,
		"byteOffset":0,
		"min":[0],
		"max":[23]
	},
	{
		"bufferView":25,
		"type":"VEC3",
		"componentType":5126,
		"count":24,
		"byteOffset":0,
		"min":[791.5001831054688,
		0.0,
		-139.38632202148438],
		"max":[866.5001831054688,
		205.0,
		-133.38629150390626]
	},
	{
		"bufferView":26,
		"type":"SCALAR",
		"componentType":5123,
		"count":84,
		"byteOffset":0,
		"min":[0],
		"max":[47]
	},
	{
		"bufferView":27,
		"type":"VEC3",
		"componentType":5126,
		"count":48,
		"byteOffset":0,
		"min":[785.5,
		0.0,
		-288.38623046875],
		"max":[791.5001220703125,
		210.0,
		-128.38623046875]
	},
	{
		"bufferView":28,
		"type":"SCALAR",
		"componentType":5123,
		"count":78,
		"byteOffset":0,
		"min":[0],
		"max":[31]
	},
	{
		"bufferView":29,
		"type":"VEC3",
		"componentType":5126,
		"count":32,
		"byteOffset":0,
		"min":[32.0,
		0.0,
		-675.5],
		"max":[2418.0,
		0.0,
		45.0]
	},
	{
		"bufferView":30,
		"type":"SCALAR",
		"componentType":5123,
		"count":732,
		"byteOffset":0,
		"min":[0],
		"max":[487]
	},
	{
		"bufferView":31,
		"type":"VEC3",
		"componentType":5126,
		"count":488,
		"byteOffset":0,
		"min":[11.007072448730469,
		0.0,
		-696.492919921875],
		"max":[2438.0,
		300.0,
		65.0]
	}],
	"bufferViews":[{
		"buffer":0,
		"byteOffset":0,
		"byteLength":792,
		"target":34963
	},
	{
		"buffer":0,
		"byteOffset":792,
		"byteLength":3168,
		"target":34962
	},
	{
		"buffer":1,
		"byteOffset":0,
		"byteLength":792,
		"target":34963
	},
	{
		"buffer":1,
		"byteOffset":792,
		"byteLength":3168,
		"target":34962
	},
	{
		"buffer":2,
		"byteOffset":0,
		"byteLength":72,
		"target":34963
	},
	{
		"buffer":2,
		"byteOffset":72,
		"byteLength":288,
		"target":34962
	},
	{
		"buffer":3,
		"byteOffset":0,
		"byteLength":72,
		"target":34963
	},
	{
		"buffer":3,
		"byteOffset":72,
		"byteLength":288,
		"target":34962
	},
	{
		"buffer":4,
		"byteOffset":0,
		"byteLength":168,
		"target":34963
	},
	{
		"buffer":4,
		"byteOffset":168,
		"byteLength":576,
		"target":34962
	},
	{
		"buffer":5,
		"byteOffset":0,
		"byteLength":72,
		"target":34963
	},
	{
		"buffer":5,
		"byteOffset":72,
		"byteLength":288,
		"target":34962
	},
	{
		"buffer":6,
		"byteOffset":0,
		"byteLength":72,
		"target":34963
	},
	{
		"buffer":6,
		"byteOffset":72,
		"byteLength":288,
		"target":34962
	},
	{
		"buffer":7,
		"byteOffset":0,
		"byteLength":168,
		"target":34963
	},
	{
		"buffer":7,
		"byteOffset":168,
		"byteLength":576,
		"target":34962
	},
	{
		"buffer":8,
		"byteOffset":0,
		"byteLength":72,
		"target":34963
	},
	{
		"buffer":8,
		"byteOffset":72,
		"byteLength":288,
		"target":34962
	},
	{
		"buffer":9,
		"byteOffset":0,
		"byteLength":72,
		"target":34963
	},
	{
		"buffer":9,
		"byteOffset":72,
		"byteLength":288,
		"target":34962
	},
	{
		"buffer":10,
		"byteOffset":0,
		"byteLength":168,
		"target":34963
	},
	{
		"buffer":10,
		"byteOffset":168,
		"byteLength":576,
		"target":34962
	},
	{
		"buffer":11,
		"byteOffset":0,
		"byteLength":72,
		"target":34963
	},
	{
		"buffer":11,
		"byteOffset":72,
		"byteLength":288,
		"target":34962
	},
	{
		"buffer":12,
		"byteOffset":0,
		"byteLength":72,
		"target":34963
	},
	{
		"buffer":12,
		"byteOffset":72,
		"byteLength":288,
		"target":34962
	},
	{
		"buffer":13,
		"byteOffset":0,
		"byteLength":168,
		"target":34963
	},
	{
		"buffer":13,
		"byteOffset":168,
		"byteLength":576,
		"target":34962
	},
	{
		"buffer":14,
		"byteOffset":0,
		"byteLength":156,
		"target":34963
	},
	{
		"buffer":14,
		"byteOffset":156,
		"byteLength":384,
		"target":34962
	},
	{
		"buffer":15,
		"byteOffset":0,
		"byteLength":1464,
		"target":34963
	},
	{
		"buffer":15,
		"byteOffset":1464,
		"byteLength":5856,
		"target":34962
	}],
	"buffers":[{
		"uri":"data:application/octet-stream;base64,",
		"byteLength":3960
	},
	{
		"uri":"data:application/octet-stream;base64,",
		"byteLength":3960
	},
	{
		"uri":"data:application/octet-stream;base64,",
		"byteLength":360
	},
	{
		"uri":"data:application/octet-stream;base64,",
		"byteLength":360
	},
	{
		"uri":"data:application/octet-stream;base64,",
		"byteLength":744
	},
	{
		"uri":"data:application/octet-stream;base64,",
		"byteLength":360
	},
	{
		"uri":"data:application/octet-stream;base64,",
		"byteLength":360
	},
	{
		"uri":"data:application/octet-stream;base64,",
		"byteLength":744
	},
	{
		"uri":"data:application/octet-stream;base64,",
		"byteLength":360
	},
	{
		"uri":"data:application/octet-stream;base64,",
		"byteLength":360
	},
	{
		"uri":"data:application/octet-stream;base64,",
		"byteLength":744
	},
	{
		"uri":"data:application/octet-stream;base64,",
		"byteLength":360
	},
	{
		"uri":"data:application/octet-stream;base64,",
		"byteLength":360
	},
	{
		"uri":"data:application/octet-stream;base64,",
		"byteLength":744
	},
	{
		"uri":"data:application/octet-stream;base64,",
		"byteLength":540
	},
	{
		"uri":"data:application/octet-stream;base64,",
		"byteLength":7320
	}],
	"materials":[{
		"pbrMetallicRoughness":{
			"baseColorFactor":[1.0,
			1.0,
			1.0,
			1.0],
			"metallicFactor":1.0,
			"roughnessFactor":1.0
		},
		"emissiveFactor":[0.0,
		0.0,
		0.0],
		"alphaMode":"OPAQUE",
		"doubleSided":true,
		"name":""
	},
	{
		"pbrMetallicRoughness":{
			"baseColorFactor":[1.0,
			1.0,
			1.0,
			1.0],
			"metallicFactor":1.0,
			"roughnessFactor":1.0
		},
		"emissiveFactor":[0.0,
		0.0,
		0.0],
		"alphaMode":"OPAQUE",
		"doubleSided":true,
		"name":""
	},
	{
		"pbrMetallicRoughness":{
			"baseColorFactor":[1.0,
			1.0,
			1.0,
			1.0],
			"metallicFactor":1.0,
			"roughnessFactor":1.0
		},
		"emissiveFactor":[0.0,
		0.0,
		0.0],
		"alphaMode":"OPAQUE",
		"doubleSided":true,
		"name":""
	},
	{
		"pbrMetallicRoughness":{
			"baseColorFactor":[1.0,
			1.0,
			1.0,
			1.0],
			"metallicFactor":1.0,
			"roughnessFactor":1.0
		},
		"emissiveFactor":[0.0,
		0.0,
		0.0],
		"alphaMode":"OPAQUE",
		"doubleSided":true,
		"name":""
	},
	{
		"pbrMetallicRoughness":{
			"baseColorFactor":[1.0,
			1.0,
			1.0,
			1.0],
			"metallicFactor":1.0,
			"roughnessFactor":1.0
		},
		"emissiveFactor":[0.0,
		0.0,
		0.0],
		"alphaMode":"OPAQUE",
		"doubleSided":true,
		"name":""
	},
	{
		"pbrMetallicRoughness":{
			"baseColorFactor":[1.0,
			1.0,
			1.0,
			1.0],
			"metallicFactor":1.0,
			"roughnessFactor":1.0
		},
		"emissiveFactor":[0.0,
		0.0,
		0.0],
		"alphaMode":"OPAQUE",
		"doubleSided":true,
		"name":""
	},
	{
		"pbrMetallicRoughness":{
			"baseColorFactor":[1.0,
			1.0,
			1.0,
			1.0],
			"metallicFactor":1.0,
			"roughnessFactor":1.0
		},
		"emissiveFactor":[0.0,
		0.0,
		0.0],
		"alphaMode":"OPAQUE",
		"doubleSided":true,
		"name":""
	},
	{
		"pbrMetallicRoughness":{
			"baseColorFactor":[1.0,
			1.0,
			1.0,
			1.0],
			"metallicFactor":1.0,
			"roughnessFactor":1.0
		},
		"emissiveFactor":[0.0,
		0.0,
		0.0],
		"alphaMode":"OPAQUE",
		"doubleSided":true,
		"name":""
	},
	{
		"pbrMetallicRoughness":{
			"baseColorFactor":[1.0,
			1.0,
			1.0,
			1.0],
			"metallicFactor":1.0,
			"roughnessFactor":1.0
		},
		"emissiveFactor":[0.0,
		0.0,
		0.0],
		"alphaMode":"OPAQUE",
		"doubleSided":true,
		"name":""
	},
	{
		"pbrMetallicRoughness":{
			"baseColorFactor":[1.0,
			1.0,
			1.0,
			1.0],
			"metallicFactor":1.0,
			"roughnessFactor":1.0
		},
		"emissiveFactor":[0.0,
		0.0,
		0.0],
		"alphaMode":"OPAQUE",
		"doubleSided":true,
		"name":""
	},
	{
		"pbrMetallicRoughness":{
			"baseColorFactor":[1.0,
			1.0,
			1.0,
			1.0],
			"metallicFactor":1.0,
			"roughnessFactor":1.0
		},
		"emissiveFactor":[0.0,
		0.0,
		0.0],
		"alphaMode":"OPAQUE",
		"doubleSided":true,
		"name":""
	},
	{
		"pbrMetallicRoughness":{
			"baseColorFactor":[1.0,
			1.0,
			1.0,
			1.0],
			"metallicFactor":1.0,
			"roughnessFactor":1.0
		},
		"emissiveFactor":[0.0,
		0.0,
		0.0],
		"alphaMode":"OPAQUE",
		"doubleSided":true,
		"name":""
	},
	{
		"pbrMetallicRoughness":{
			"baseColorFactor":[1.0,
			1.0,
			1.0,
			1.0],
			"metallicFactor":1.0,
			"roughnessFactor":1.0
		},
		"emissiveFactor":[0.0,
		0.0,
		0.0],
		"alphaMode":"OPAQUE",
		"doubleSided":true,
		"name":""
	},
	{
		"pbrMetallicRoughness":{
			"baseColorFactor":[1.0,
			1.0,
			1.0,
			1.0],
			"metallicFactor":1.0,
			"roughnessFactor":1.0
		},
		"emissiveFactor":[0.0,
		0.0,
		0.0],
		"alphaMode":"OPAQUE",
		"doubleSided":true,
		"name":""
	},
	{
		"pbrMetallicRoughness":{
			"baseColorFactor":[1.0,
			1.0,
			1.0,
			1.0],
			"metallicFactor":1.0,
			"roughnessFactor":1.0
		},
		"emissiveFactor":[0.0,
		0.0,
		0.0],
		"alphaMode":"OPAQUE",
		"doubleSided":true,
		"name":""
	},
	{
		"pbrMetallicRoughness":{
			"baseColorFactor":[1.0,
			1.0,
			1.0,
			1.0],
			"metallicFactor":1.0,
			"roughnessFactor":1.0
		},
		"emissiveFactor":[0.0,
		0.0,
		0.0],
		"alphaMode":"OPAQUE",
		"doubleSided":true,
		"name":""
	}]
}