{
	"asset":{
		"version":"2.0",
		"generator":"Created using the official Cinema 4D glTF Exporter 1.000x290161"
	},
	"scenes":[{
		"nodes":[0,
		7,
		9]
	}],
	"nodes":[{
		"name":"door",
		"children":[1,
		2,
		3,
		4,
		5,
		6]
	},
	{
		"name":"1St00b3",
		"mesh":0
	},
	{
		"name":"1St00b4",
		"mesh":1
	},
	{
		"name":"1D0001",
		"mesh":2
	},
	{
		"name":"1D0002",
		"mesh":3
	},
	{
		"name":"1D0003",
		"mesh":4
	},
	{
		"name":"1D0004",
		"mesh":5
	},
	{
		"name":"floor",
		"children":[8]
	},
	{
		"name":"1S0005",
		"mesh":6
	},
	{
		"name":"wall",
		"children":[10]
	},
	{
		"name":"1W0008",
		"mesh":7
	}],
	"meshes":[{
		"primitives":[{
			"attributes":{
				"POSITION":1
			},
			"indices":0,
			"material":0
		}]
	},
	{
		"primitives":[{
			"attributes":{
				"POSITION":3
			},
			"indices":2,
			"material":1
		}]
	},
	{
		"primitives":[{
			"attributes":{
				"POSITION":5
			},
			"indices":4,
			"material":2
		}]
	},
	{
		"primitives":[{
			"attributes":{
				"POSITION":7
			},
			"indices":6,
			"material":3
		}]
	},
	{
		"primitives":[{
			"attributes":{
				"POSITION":9
			},
			"indices":8,
			"material":4
		}]
	},
	{
		"primitives":[{
			"attributes":{
				"POSITION":11
			},
			"indices":10,
			"material":5
		}]
	},
	{
		"primitives":[{
			"attributes":{
				"POSITION":13
			},
			"indices":12,
			"material":6
		}]
	},
	{
		"primitives":[{
			"attributes":{
				"POSITION":15
			},
			"indices":14,
			"material":7
		}]
	}],
	"accessors":[{
		"bufferView":0,
		"componentType":5123,
		"type":"SCALAR",
		"min":[0],
		"count":1260,
		"byteOffset":0,
		"max":[839]
	},
	{
		"bufferView":1,
		"componentType":5126,
		"type":"VEC3",
		"min":[1965.9244384765626,
		0.0,
		-1453.290771484375],
		"count":840,
		"byteOffset":0,
		"max":[2206.8896484375,
		300.0,
		-1021.0817260742188]
	},
	{
		"bufferView":2,
		"componentType":5123,
		"type":"SCALAR",
		"min":[0],
		"count":396,
		"byteOffset":0,
		"max":[263]
	},
	{
		"bufferView":3,
		"componentType":5126,
		"type":"VEC3",
		"min":[50.63505554199219,
		0.0,
		-1452.413818359375],
		"count":264,
		"byteOffset":0,
		"max":[150.6350860595703,
		300.0,
		-1144.413818359375]
	},
	{
		"bufferView":4,
		"componentType":5123,
		"type":"SCALAR",
		"min":[0],
		"count":36,
		"byteOffset":0,
		"max":[23]
	},
	{
		"bufferView":5,
		"componentType":5126,
		"type":"VEC3",
		"min":[1605.900146484375,
		0.0,
		-1374.9139404296876],
		"count":24,
		"byteOffset":0,
		"max":[1611.900146484375,
		205.0,
		-1324.9139404296876]
	},
	{
		"bufferView":6,
		"componentType":5123,
		"type":"SCALAR",
		"min":[0],
		"count":84,
		"byteOffset":0,
		"max":[47]
	},
	{
		"bufferView":7,
		"componentType":5126,
		"type":"VEC3",
		"min":[1605.9000244140626,
		0.0,
		-1379.9140625],
		"count":48,
		"byteOffset":0,
		"max":[1611.9000244140626,
		210.0,
		-1319.9140625]
	},
	{
		"bufferView":8,
		"componentType":5123,
		"type":"SCALAR",
		"min":[0],
		"count":36,
		"byteOffset":0,
		"max":[23]
	},
	{
		"bufferView":9,
		"componentType":5126,
		"type":"VEC3",
		"min":[1605.900146484375,
		0.0,
		-1161.3690185546876],
		"count":24,
		"byteOffset":0,
		"max":[1611.900146484375,
		205.0,
		-1111.3690185546876]
	},
	{
		"bufferView":10,
		"componentType":5123,
		"type":"SCALAR",
		"min":[0],
		"count":84,
		"byteOffset":0,
		"max":[47]
	},
	{
		"bufferView":11,
		"componentType":5126,
		"type":"VEC3",
		"min":[1605.900146484375,
		0.0,
		-1166.369140625],
		"count":48,
		"byteOffset":0,
		"max":[1611.900146484375,
		210.0,
		-1106.369140625]
	},
	{
		"bufferView":12,
		"componentType":5123,
		"type":"SCALAR",
		"min":[0],
		"count":168,
		"byteOffset":0,
		"max":[61]
	},
	{
		"bufferView":13,
		"componentType":5126,
		"type":"VEC3",
		"min":[28.0,
		0.0,
		-1532.827392578125],
		"count":62,
		"byteOffset":0,
		"max":[2222.899658203125,
		0.0,
		-28.0]
	},
	{
		"bufferView":14,
		"componentType":5123,
		"type":"SCALAR",
		"min":[0],
		"count":1524,
		"byteOffset":0,
		"max":[1011]
	},
	{
		"bufferView":15,
		"componentType":5126,
		"type":"VEC3",
		"min":[0.5070705413818359,
		0.0,
		-1560.3203125],
		"count":1012,
		"byteOffset":0,
		"max":[2250.392822265625,
		300.0,
		-0.5070705413818359]
	}],
	"bufferViews":[{
		"buffer":0,
		"byteOffset":0,
		"byteLength":2520,
		"target":34963
	},
	{
		"buffer":0,
		"byteOffset":2520,
		"byteLength":10080,
		"target":34962
	},
	{
		"buffer":1,
		"byteOffset":0,
		"byteLength":792,
		"target":34963
	},
	{
		"buffer":1,
		"byteOffset":792,
		"byteLength":3168,
		"target":34962
	},
	{
		"buffer":2,
		"byteOffset":0,
		"byteLength":72,
		"target":34963
	},
	{
		"buffer":2,
		"byteOffset":72,
		"byteLength":288,
		"target":34962
	},
	{
		"buffer":3,
		"byteOffset":0,
		"byteLength":168,
		"target":34963
	},
	{
		"buffer":3,
		"byteOffset":168,
		"byteLength":576,
		"target":34962
	},
	{
		"buffer":4,
		"byteOffset":0,
		"byteLength":72,
		"target":34963
	},
	{
		"buffer":4,
		"byteOffset":72,
		"byteLength":288,
		"target":34962
	},
	{
		"buffer":5,
		"byteOffset":0,
		"byteLength":168,
		"target":34963
	},
	{
		"buffer":5,
		"byteOffset":168,
		"byteLength":576,
		"target":34962
	},
	{
		"buffer":6,
		"byteOffset":0,
		"byteLength":336,
		"target":34963
	},
	{
		"buffer":6,
		"byteOffset":336,
		"byteLength":744,
		"target":34962
	},
	{
		"buffer":7,
		"byteOffset":0,
		"byteLength":3048,
		"target":34963
	},
	{
		"buffer":7,
		"byteOffset":3048,
		"byteLength":12144,
		"target":34962
	}],
	"buffers":[{
		"uri":"data:application/octet-stream;base64,",
		"byteLength":12600
	},
	{
		"uri":"data:application/octet-stream;base64,",
		"byteLength":3960
	},
	{
		"uri":"data:application/octet-stream;base64,",
		"byteLength":360
	},
	{
		"uri":"data:application/octet-stream;base64,",
		"byteLength":744
	},
	{
		"uri":"data:application/octet-stream;base64,",
		"byteLength":360
	},
	{
		"uri":"data:application/octet-stream;base64,",
		"byteLength":744
	},
	{
		"uri":"data:application/octet-stream;base64,",
		"byteLength":1080
	},
	{
		"uri":"data:application/octet-stream;base64,",
		"byteLength":15192
	}],
	"materials":[{
		"pbrMetallicRoughness":{
			"baseColorFactor":[1.0,
			1.0,
			1.0,
			1.0],
			"metallicFactor":1.0,
			"roughnessFactor":1.0
		},
		"emissiveFactor":[0.0,
		0.0,
		0.0],
		"alphaMode":"OPAQUE",
		"doubleSided":true,
		"name":""
	},
	{
		"pbrMetallicRoughness":{
			"baseColorFactor":[1.0,
			1.0,
			1.0,
			1.0],
			"metallicFactor":1.0,
			"roughnessFactor":1.0
		},
		"emissiveFactor":[0.0,
		0.0,
		0.0],
		"alphaMode":"OPAQUE",
		"doubleSided":true,
		"name":""
	},
	{
		"pbrMetallicRoughness":{
			"baseColorFactor":[1.0,
			1.0,
			1.0,
			1.0],
			"metallicFactor":1.0,
			"roughnessFactor":1.0
		},
		"emissiveFactor":[0.0,
		0.0,
		0.0],
		"alphaMode":"OPAQUE",
		"doubleSided":true,
		"name":""
	},
	{
		"pbrMetallicRoughness":{
			"baseColorFactor":[1.0,
			1.0,
			1.0,
			1.0],
			"metallicFactor":1.0,
			"roughnessFactor":1.0
		},
		"emissiveFactor":[0.0,
		0.0,
		0.0],
		"alphaMode":"OPAQUE",
		"doubleSided":true,
		"name":""
	},
	{
		"pbrMetallicRoughness":{
			"baseColorFactor":[1.0,
			1.0,
			1.0,
			1.0],
			"metallicFactor":1.0,
			"roughnessFactor":1.0
		},
		"emissiveFactor":[0.0,
		0.0,
		0.0],
		"alphaMode":"OPAQUE",
		"doubleSided":true,
		"name":""
	},
	{
		"pbrMetallicRoughness":{
			"baseColorFactor":[1.0,
			1.0,
			1.0,
			1.0],
			"metallicFactor":1.0,
			"roughnessFactor":1.0
		},
		"emissiveFactor":[0.0,
		0.0,
		0.0],
		"alphaMode":"OPAQUE",
		"doubleSided":true,
		"name":""
	},
	{
		"pbrMetallicRoughness":{
			"baseColorFactor":[1.0,
			1.0,
			1.0,
			1.0],
			"metallicFactor":1.0,
			"roughnessFactor":1.0
		},
		"emissiveFactor":[0.0,
		0.0,
		0.0],
		"alphaMode":"OPAQUE",
		"doubleSided":true,
		"name":""
	},
	{
		"pbrMetallicRoughness":{
			"baseColorFactor":[1.0,
			1.0,
			1.0,
			1.0],
			"metallicFactor":1.0,
			"roughnessFactor":1.0
		},
		"emissiveFactor":[0.0,
		0.0,
		0.0],
		"alphaMode":"OPAQUE",
		"doubleSided":true,
		"name":""
	}]
}