{
	"asset":{
		"version":"2.0",
		"generator":"Created using the official Cinema 4D glTF Exporter 1.000x290161"
	},
	"scenes":[{
		"nodes":[0,
		12,
		14]
	}],
	"nodes":[{
		"name":"door",
		"children":[1,
		2,
		3,
		4,
		5,
		6,
		7,
		8,
		9,
		10,
		11]
	},
	{
		"name":"0D0001",
		"mesh":0
	},
	{
		"name":"0D0002",
		"mesh":1
	},
	{
		"name":"0S0003",
		"mesh":2
	},
	{
		"name":"0S0004",
		"mesh":3
	},
	{
		"name":"1St00da",
		"mesh":4
	},
	{
		"name":"1St00db",
		"mesh":5
	},
	{
		"name":"1St00dc",
		"mesh":6
	},
	{
		"name":"1D0001",
		"mesh":7
	},
	{
		"name":"1D0002",
		"mesh":8
	},
	{
		"name":"1D0003",
		"mesh":9
	},
	{
		"name":"1D0004",
		"mesh":10
	},
	{
		"name":"floor",
		"children":[13]
	},
	{
		"name":"1S0005",
		"mesh":11
	},
	{
		"name":"wall",
		"children":[15]
	},
	{
		"name":"1W000a",
		"mesh":12
	}],
	"meshes":[{
		"primitives":[{
			"attributes":{
				"POSITION":1
			},
			"indices":0,
			"material":0
		}]
	},
	{
		"primitives":[{
			"attributes":{
				"POSITION":3
			},
			"indices":2,
			"material":1
		}]
	},
	{
		"primitives":[{
			"attributes":{
				"POSITION":5
			},
			"indices":4,
			"material":2
		}]
	},
	{
		"primitives":[{
			"attributes":{
				"POSITION":7
			},
			"indices":6,
			"material":3
		}]
	},
	{
		"primitives":[{
			"attributes":{
				"POSITION":9
			},
			"indices":8,
			"material":4
		}]
	},
	{
		"primitives":[{
			"attributes":{
				"POSITION":11
			},
			"indices":10,
			"material":5
		}]
	},
	{
		"primitives":[{
			"attributes":{
				"POSITION":13
			},
			"indices":12,
			"material":6
		}]
	},
	{
		"primitives":[{
			"attributes":{
				"POSITION":15
			},
			"indices":14,
			"material":7
		}]
	},
	{
		"primitives":[{
			"attributes":{
				"POSITION":17
			},
			"indices":16,
			"material":8
		}]
	},
	{
		"primitives":[{
			"attributes":{
				"POSITION":19
			},
			"indices":18,
			"material":9
		}]
	},
	{
		"primitives":[{
			"attributes":{
				"POSITION":21
			},
			"indices":20,
			"material":10
		}]
	},
	{
		"primitives":[{
			"attributes":{
				"POSITION":23
			},
			"indices":22,
			"material":11
		}]
	},
	{
		"primitives":[{
			"attributes":{
				"POSITION":25
			},
			"indices":24,
			"material":12
		}]
	}],
	"accessors":[{
		"bufferView":0,
		"componentType":5123,
		"type":"SCALAR",
		"min":[0],
		"count":36,
		"byteOffset":0,
		"max":[23]
	},
	{
		"bufferView":1,
		"componentType":5126,
		"type":"VEC3",
		"min":[224.40818786621095,
		1.0,
		-383.5921936035156],
		"count":24,
		"byteOffset":0,
		"max":[284.4081726074219,
		241.0,
		-378.3421630859375]
	},
	{
		"bufferView":2,
		"componentType":5123,
		"type":"SCALAR",
		"min":[0],
		"count":36,
		"byteOffset":0,
		"max":[23]
	},
	{
		"bufferView":3,
		"componentType":5126,
		"type":"VEC3",
		"min":[164.40818786621095,
		1.0,
		-383.5921630859375],
		"count":24,
		"byteOffset":0,
		"max":[224.40818786621095,
		241.0,
		-378.3421630859375]
	},
	{
		"bufferView":4,
		"componentType":5123,
		"type":"SCALAR",
		"min":[0],
		"count":48,
		"byteOffset":0,
		"max":[31]
	},
	{
		"bufferView":5,
		"componentType":5126,
		"type":"VEC3",
		"min":[159.5081787109375,
		0.0,
		-405.5921630859375],
		"count":32,
		"byteOffset":0,
		"max":[289.30816650390627,
		251.0,
		-377.3421325683594]
	},
	{
		"bufferView":6,
		"componentType":5123,
		"type":"SCALAR",
		"min":[0],
		"count":6,
		"byteOffset":0,
		"max":[3]
	},
	{
		"bufferView":7,
		"componentType":5126,
		"type":"VEC3",
		"min":[174.40817260742188,
		219.89999389648438,
		-405.6921691894531],
		"count":4,
		"byteOffset":0,
		"max":[274.4081726074219,
		229.89999389648438,
		-405.692138671875]
	},
	{
		"bufferView":8,
		"componentType":5123,
		"type":"SCALAR",
		"min":[0],
		"count":828,
		"byteOffset":0,
		"max":[551]
	},
	{
		"bufferView":9,
		"componentType":5126,
		"type":"VEC3",
		"min":[3500.0,
		0.0,
		-1035.0],
		"count":552,
		"byteOffset":0,
		"max":[3773.99267578125,
		300.0,
		-835.0]
	},
	{
		"bufferView":10,
		"componentType":5123,
		"type":"SCALAR",
		"min":[0],
		"count":1260,
		"byteOffset":0,
		"max":[839]
	},
	{
		"bufferView":11,
		"componentType":5126,
		"type":"VEC3",
		"min":[45.40336608886719,
		0.0,
		-1631.98828125],
		"count":840,
		"byteOffset":0,
		"max":[380.0,
		300.0,
		-1154.450439453125]
	},
	{
		"bufferView":12,
		"componentType":5123,
		"type":"SCALAR",
		"min":[0],
		"count":1260,
		"byteOffset":0,
		"max":[839]
	},
	{
		"bufferView":13,
		"componentType":5126,
		"type":"VEC3",
		"min":[4361.513671875,
		0.0,
		-1317.552490234375],
		"count":840,
		"byteOffset":0,
		"max":[4656.5,
		300.0,
		-823.8799438476563]
	},
	{
		"bufferView":14,
		"componentType":5123,
		"type":"SCALAR",
		"min":[0],
		"count":36,
		"byteOffset":0,
		"max":[23]
	},
	{
		"bufferView":15,
		"componentType":5126,
		"type":"VEC3",
		"min":[449.10693359375,
		0.0,
		-1043.0],
		"count":24,
		"byteOffset":0,
		"max":[529.10693359375,
		205.0,
		-1037.0]
	},
	{
		"bufferView":16,
		"componentType":5123,
		"type":"SCALAR",
		"min":[0],
		"count":84,
		"byteOffset":0,
		"max":[47]
	},
	{
		"bufferView":17,
		"componentType":5126,
		"type":"VEC3",
		"min":[444.1069641113281,
		0.0,
		-1043.0],
		"count":48,
		"byteOffset":0,
		"max":[534.10693359375,
		210.0,
		-1037.0]
	},
	{
		"bufferView":18,
		"componentType":5123,
		"type":"SCALAR",
		"min":[0],
		"count":36,
		"byteOffset":0,
		"max":[23]
	},
	{
		"bufferView":19,
		"componentType":5126,
		"type":"VEC3",
		"min":[456.1425476074219,
		0.0,
		-633.0],
		"count":24,
		"byteOffset":0,
		"max":[536.142578125,
		205.0,
		-626.9999389648438]
	},
	{
		"bufferView":20,
		"componentType":5123,
		"type":"SCALAR",
		"min":[0],
		"count":84,
		"byteOffset":0,
		"max":[47]
	},
	{
		"bufferView":21,
		"componentType":5126,
		"type":"VEC3",
		"min":[451.14251708984377,
		0.0,
		-633.0000610351563],
		"count":48,
		"byteOffset":0,
		"max":[541.1425170898438,
		210.0,
		-627.0]
	},
	{
		"bufferView":22,
		"componentType":5123,
		"type":"SCALAR",
		"min":[0],
		"count":138,
		"byteOffset":0,
		"max":[55]
	},
	{
		"bufferView":23,
		"componentType":5126,
		"type":"VEC3",
		"min":[25.0,
		0.0,
		-1652.5],
		"count":56,
		"byteOffset":0,
		"max":[4654.5,
		0.0,
		-22.5]
	},
	{
		"bufferView":24,
		"componentType":5123,
		"type":"SCALAR",
		"min":[0],
		"count":2184,
		"byteOffset":0,
		"max":[1455]
	},
	{
		"bufferView":25,
		"componentType":5126,
		"type":"VEC3",
		"min":[-12.492927551269532,
		0.0,
		-1677.492919921875],
		"count":1456,
		"byteOffset":0,
		"max":[4674.5,
		300.0,
		2.492929458618164]
	}],
	"bufferViews":[{
		"buffer":0,
		"byteOffset":0,
		"byteLength":72,
		"target":34963
	},
	{
		"buffer":0,
		"byteOffset":72,
		"byteLength":288,
		"target":34962
	},
	{
		"buffer":1,
		"byteOffset":0,
		"byteLength":72,
		"target":34963
	},
	{
		"buffer":1,
		"byteOffset":72,
		"byteLength":288,
		"target":34962
	},
	{
		"buffer":2,
		"byteOffset":0,
		"byteLength":96,
		"target":34963
	},
	{
		"buffer":2,
		"byteOffset":96,
		"byteLength":384,
		"target":34962
	},
	{
		"buffer":3,
		"byteOffset":0,
		"byteLength":12,
		"target":34963
	},
	{
		"buffer":3,
		"byteOffset":12,
		"byteLength":48,
		"target":34962
	},
	{
		"buffer":4,
		"byteOffset":0,
		"byteLength":1656,
		"target":34963
	},
	{
		"buffer":4,
		"byteOffset":1656,
		"byteLength":6624,
		"target":34962
	},
	{
		"buffer":5,
		"byteOffset":0,
		"byteLength":2520,
		"target":34963
	},
	{
		"buffer":5,
		"byteOffset":2520,
		"byteLength":10080,
		"target":34962
	},
	{
		"buffer":6,
		"byteOffset":0,
		"byteLength":2520,
		"target":34963
	},
	{
		"buffer":6,
		"byteOffset":2520,
		"byteLength":10080,
		"target":34962
	},
	{
		"buffer":7,
		"byteOffset":0,
		"byteLength":72,
		"target":34963
	},
	{
		"buffer":7,
		"byteOffset":72,
		"byteLength":288,
		"target":34962
	},
	{
		"buffer":8,
		"byteOffset":0,
		"byteLength":168,
		"target":34963
	},
	{
		"buffer":8,
		"byteOffset":168,
		"byteLength":576,
		"target":34962
	},
	{
		"buffer":9,
		"byteOffset":0,
		"byteLength":72,
		"target":34963
	},
	{
		"buffer":9,
		"byteOffset":72,
		"byteLength":288,
		"target":34962
	},
	{
		"buffer":10,
		"byteOffset":0,
		"byteLength":168,
		"target":34963
	},
	{
		"buffer":10,
		"byteOffset":168,
		"byteLength":576,
		"target":34962
	},
	{
		"buffer":11,
		"byteOffset":0,
		"byteLength":276,
		"target":34963
	},
	{
		"buffer":11,
		"byteOffset":276,
		"byteLength":672,
		"target":34962
	},
	{
		"buffer":12,
		"byteOffset":0,
		"byteLength":4368,
		"target":34963
	},
	{
		"buffer":12,
		"byteOffset":4368,
		"byteLength":17472,
		"target":34962
	}],
	"buffers":[{
		"uri":"data:application/octet-stream;base64,",
		"byteLength":360
	},
	{
		"uri":"data:application/octet-stream;base64,",
		"byteLength":360
	},
	{
		"uri":"data:application/octet-stream;base64,",
		"byteLength":480
	},
	{
		"uri":"data:application/octet-stream;base64,",
		"byteLength":60
	},
	{
		"uri":"data:application/octet-stream;base64,",
		"byteLength":8280
	},
	{
		"uri":"data:application/octet-stream;base64,",
		"byteLength":12600
	},
	{
		"uri":"data:application/octet-stream;base64,",
		"byteLength":12600
	},
	{
		"uri":"data:application/octet-stream;base64,",
		"byteLength":360
	},
	{
		"uri":"data:application/octet-stream;base64,",
		"byteLength":744
	},
	{
		"uri":"data:application/octet-stream;base64,",
		"byteLength":360
	},
	{
		"uri":"data:application/octet-stream;base64,",
		"byteLength":744
	},
	{
		"uri":"data:application/octet-stream;base64,",
		"byteLength":948
	},
	{
		"uri":"data:application/octet-stream;base64,",
		"byteLength":21840
	}],
	"materials":[{
		"pbrMetallicRoughness":{
			"baseColorFactor":[1.0,
			1.0,
			1.0,
			1.0],
			"metallicFactor":1.0,
			"roughnessFactor":1.0
		},
		"emissiveFactor":[0.0,
		0.0,
		0.0],
		"alphaMode":"OPAQUE",
		"doubleSided":true,
		"name":""
	},
	{
		"pbrMetallicRoughness":{
			"baseColorFactor":[1.0,
			1.0,
			1.0,
			1.0],
			"metallicFactor":1.0,
			"roughnessFactor":1.0
		},
		"emissiveFactor":[0.0,
		0.0,
		0.0],
		"alphaMode":"OPAQUE",
		"doubleSided":true,
		"name":""
	},
	{
		"pbrMetallicRoughness":{
			"baseColorFactor":[1.0,
			1.0,
			1.0,
			1.0],
			"metallicFactor":1.0,
			"roughnessFactor":1.0
		},
		"emissiveFactor":[0.0,
		0.0,
		0.0],
		"alphaMode":"OPAQUE",
		"doubleSided":true,
		"name":""
	},
	{
		"pbrMetallicRoughness":{
			"baseColorFactor":[1.0,
			1.0,
			1.0,
			1.0],
			"metallicFactor":1.0,
			"roughnessFactor":1.0
		},
		"emissiveFactor":[0.0,
		0.0,
		0.0],
		"alphaMode":"OPAQUE",
		"doubleSided":true,
		"name":""
	},
	{
		"pbrMetallicRoughness":{
			"baseColorFactor":[1.0,
			1.0,
			1.0,
			1.0],
			"metallicFactor":1.0,
			"roughnessFactor":1.0
		},
		"emissiveFactor":[0.0,
		0.0,
		0.0],
		"alphaMode":"OPAQUE",
		"doubleSided":true,
		"name":""
	},
	{
		"pbrMetallicRoughness":{
			"baseColorFactor":[1.0,
			1.0,
			1.0,
			1.0],
			"metallicFactor":1.0,
			"roughnessFactor":1.0
		},
		"emissiveFactor":[0.0,
		0.0,
		0.0],
		"alphaMode":"OPAQUE",
		"doubleSided":true,
		"name":""
	},
	{
		"pbrMetallicRoughness":{
			"baseColorFactor":[1.0,
			1.0,
			1.0,
			1.0],
			"metallicFactor":1.0,
			"roughnessFactor":1.0
		},
		"emissiveFactor":[0.0,
		0.0,
		0.0],
		"alphaMode":"OPAQUE",
		"doubleSided":true,
		"name":""
	},
	{
		"pbrMetallicRoughness":{
			"baseColorFactor":[1.0,
			1.0,
			1.0,
			1.0],
			"metallicFactor":1.0,
			"roughnessFactor":1.0
		},
		"emissiveFactor":[0.0,
		0.0,
		0.0],
		"alphaMode":"OPAQUE",
		"doubleSided":true,
		"name":""
	},
	{
		"pbrMetallicRoughness":{
			"baseColorFactor":[1.0,
			1.0,
			1.0,
			1.0],
			"metallicFactor":1.0,
			"roughnessFactor":1.0
		},
		"emissiveFactor":[0.0,
		0.0,
		0.0],
		"alphaMode":"OPAQUE",
		"doubleSided":true,
		"name":""
	},
	{
		"pbrMetallicRoughness":{
			"baseColorFactor":[1.0,
			1.0,
			1.0,
			1.0],
			"metallicFactor":1.0,
			"roughnessFactor":1.0
		},
		"emissiveFactor":[0.0,
		0.0,
		0.0],
		"alphaMode":"OPAQUE",
		"doubleSided":true,
		"name":""
	},
	{
		"pbrMetallicRoughness":{
			"baseColorFactor":[1.0,
			1.0,
			1.0,
			1.0],
			"metallicFactor":1.0,
			"roughnessFactor":1.0
		},
		"emissiveFactor":[0.0,
		0.0,
		0.0],
		"alphaMode":"OPAQUE",
		"doubleSided":true,
		"name":""
	},
	{
		"pbrMetallicRoughness":{
			"baseColorFactor":[1.0,
			1.0,
			1.0,
			1.0],
			"metallicFactor":1.0,
			"roughnessFactor":1.0
		},
		"emissiveFactor":[0.0,
		0.0,
		0.0],
		"alphaMode":"OPAQUE",
		"doubleSided":true,
		"name":""
	},
	{
		"pbrMetallicRoughness":{
			"baseColorFactor":[1.0,
			1.0,
			1.0,
			1.0],
			"metallicFactor":1.0,
			"roughnessFactor":1.0
		},
		"emissiveFactor":[0.0,
		0.0,
		0.0],
		"alphaMode":"OPAQUE",
		"doubleSided":true,
		"name":""
	}]
}