{
	"asset":{
		"version":"2.0",
		"generator":"Created using the official Cinema 4D glTF Exporter 1.000x290161"
	},
	"scenes":[{
		"nodes":[0,
		19,
		21]
	}],
	"nodes":[{
		"name":"door",
		"children":[1,
		2,
		3,
		4,
		5,
		6,
		7,
		8,
		9,
		10,
		11,
		12,
		13,
		14,
		15,
		16,
		17,
		18]
	},
	{
		"name":"1D0001",
		"mesh":0
	},
	{
		"name":"1D0002",
		"mesh":1
	},
	{
		"name":"1D0003",
		"mesh":2
	},
	{
		"name":"1D0004",
		"mesh":3
	},
	{
		"name":"1D0005",
		"mesh":4
	},
	{
		"name":"1D0006",
		"mesh":5
	},
	{
		"name":"1D0007",
		"mesh":6
	},
	{
		"name":"1D0008",
		"mesh":7
	},
	{
		"name":"1D0009",
		"mesh":8
	},
	{
		"name":"1D000a",
		"mesh":9
	},
	{
		"name":"1D000b",
		"mesh":10
	},
	{
		"name":"1D000c",
		"mesh":11
	},
	{
		"name":"1D000d",
		"mesh":12
	},
	{
		"name":"1D000e",
		"mesh":13
	},
	{
		"name":"1D000f",
		"mesh":14
	},
	{
		"name":"1D0010",
		"mesh":15
	},
	{
		"name":"1D0011",
		"mesh":16
	},
	{
		"name":"1D0012",
		"mesh":17
	},
	{
		"name":"wall",
		"children":[20]
	},
	{
		"name":"1W001d",
		"mesh":18
	},
	{
		"name":"floor",
		"children":[22]
	},
	{
		"name":"1S0013",
		"mesh":19
	}],
	"meshes":[{
		"primitives":[{
			"attributes":{
				"POSITION":1
			},
			"indices":0,
			"material":0
		}]
	},
	{
		"primitives":[{
			"attributes":{
				"POSITION":3
			},
			"indices":2,
			"material":1
		}]
	},
	{
		"primitives":[{
			"attributes":{
				"POSITION":5
			},
			"indices":4,
			"material":2
		}]
	},
	{
		"primitives":[{
			"attributes":{
				"POSITION":7
			},
			"indices":6,
			"material":3
		}]
	},
	{
		"primitives":[{
			"attributes":{
				"POSITION":9
			},
			"indices":8,
			"material":4
		}]
	},
	{
		"primitives":[{
			"attributes":{
				"POSITION":11
			},
			"indices":10,
			"material":5
		}]
	},
	{
		"primitives":[{
			"attributes":{
				"POSITION":13
			},
			"indices":12,
			"material":6
		}]
	},
	{
		"primitives":[{
			"attributes":{
				"POSITION":15
			},
			"indices":14,
			"material":7
		}]
	},
	{
		"primitives":[{
			"attributes":{
				"POSITION":17
			},
			"indices":16,
			"material":8
		}]
	},
	{
		"primitives":[{
			"attributes":{
				"POSITION":19
			},
			"indices":18,
			"material":9
		}]
	},
	{
		"primitives":[{
			"attributes":{
				"POSITION":21
			},
			"indices":20,
			"material":10
		}]
	},
	{
		"primitives":[{
			"attributes":{
				"POSITION":23
			},
			"indices":22,
			"material":11
		}]
	},
	{
		"primitives":[{
			"attributes":{
				"POSITION":25
			},
			"indices":24,
			"material":12
		}]
	},
	{
		"primitives":[{
			"attributes":{
				"POSITION":27
			},
			"indices":26,
			"material":13
		}]
	},
	{
		"primitives":[{
			"attributes":{
				"POSITION":29
			},
			"indices":28,
			"material":14
		}]
	},
	{
		"primitives":[{
			"attributes":{
				"POSITION":31
			},
			"indices":30,
			"material":15
		}]
	},
	{
		"primitives":[{
			"attributes":{
				"POSITION":33
			},
			"indices":32,
			"material":16
		}]
	},
	{
		"primitives":[{
			"attributes":{
				"POSITION":35
			},
			"indices":34,
			"material":17
		}]
	},
	{
		"primitives":[{
			"attributes":{
				"POSITION":37
			},
			"indices":36,
			"material":18
		}]
	},
	{
		"primitives":[{
			"attributes":{
				"POSITION":39
			},
			"indices":38,
			"material":19
		}]
	}],
	"accessors":[{
		"bufferView":0,
		"componentType":5123,
		"type":"SCALAR",
		"min":[0],
		"count":36,
		"byteOffset":0,
		"max":[23]
	},
	{
		"bufferView":1,
		"componentType":5126,
		"type":"VEC3",
		"min":[254.38198852539063,
		0.0,
		-690.3159790039063],
		"count":24,
		"byteOffset":0,
		"max":[260.4382629394531,
		205.0,
		-610.311767578125]
	},
	{
		"bufferView":2,
		"componentType":5123,
		"type":"SCALAR",
		"min":[0],
		"count":84,
		"byteOffset":0,
		"max":[47]
	},
	{
		"bufferView":3,
		"componentType":5126,
		"type":"VEC3",
		"min":[254.37841796875,
		0.0,
		-695.3159790039063],
		"count":48,
		"byteOffset":0,
		"max":[260.44171142578127,
		210.0,
		-605.311767578125]
	},
	{
		"bufferView":4,
		"componentType":5123,
		"type":"SCALAR",
		"min":[0],
		"count":36,
		"byteOffset":0,
		"max":[23]
	},
	{
		"bufferView":5,
		"componentType":5126,
		"type":"VEC3",
		"min":[283.5669860839844,
		0.0,
		-710.9267578125],
		"count":24,
		"byteOffset":0,
		"max":[363.5669860839844,
		205.0,
		-704.9267578125]
	},
	{
		"bufferView":6,
		"componentType":5123,
		"type":"SCALAR",
		"min":[0],
		"count":84,
		"byteOffset":0,
		"max":[47]
	},
	{
		"bufferView":7,
		"componentType":5126,
		"type":"VEC3",
		"min":[278.56695556640627,
		0.0,
		-710.9267578125],
		"count":48,
		"byteOffset":0,
		"max":[368.56695556640627,
		210.0,
		-704.9267578125]
	},
	{
		"bufferView":8,
		"componentType":5123,
		"type":"SCALAR",
		"min":[0],
		"count":36,
		"byteOffset":0,
		"max":[23]
	},
	{
		"bufferView":9,
		"componentType":5126,
		"type":"VEC3",
		"min":[351.22637939453127,
		0.0,
		-203.09031677246095],
		"count":24,
		"byteOffset":0,
		"max":[357.28265380859377,
		205.0,
		-123.08611297607422]
	},
	{
		"bufferView":10,
		"componentType":5123,
		"type":"SCALAR",
		"min":[0],
		"count":84,
		"byteOffset":0,
		"max":[47]
	},
	{
		"bufferView":11,
		"componentType":5126,
		"type":"VEC3",
		"min":[351.2228698730469,
		0.0,
		-208.0902862548828],
		"count":48,
		"byteOffset":0,
		"max":[357.2861633300781,
		210.0,
		-118.08609008789063]
	},
	{
		"bufferView":12,
		"componentType":5123,
		"type":"SCALAR",
		"min":[0],
		"count":36,
		"byteOffset":0,
		"max":[23]
	},
	{
		"bufferView":13,
		"componentType":5126,
		"type":"VEC3",
		"min":[288.48052978515627,
		0.0,
		-888.0038452148438],
		"count":24,
		"byteOffset":0,
		"max":[368.48052978515627,
		205.0,
		-882.0038452148438]
	},
	{
		"bufferView":14,
		"componentType":5123,
		"type":"SCALAR",
		"min":[0],
		"count":84,
		"byteOffset":0,
		"max":[47]
	},
	{
		"bufferView":15,
		"componentType":5126,
		"type":"VEC3",
		"min":[283.4805603027344,
		0.0,
		-888.0038452148438],
		"count":48,
		"byteOffset":0,
		"max":[373.4805603027344,
		210.0,
		-882.0038452148438]
	},
	{
		"bufferView":16,
		"componentType":5123,
		"type":"SCALAR",
		"min":[0],
		"count":36,
		"byteOffset":0,
		"max":[23]
	},
	{
		"bufferView":17,
		"componentType":5126,
		"type":"VEC3",
		"min":[107.6822509765625,
		0.0,
		-604.1611328125],
		"count":24,
		"byteOffset":0,
		"max":[113.73851013183594,
		205.0,
		-524.1569213867188]
	},
	{
		"bufferView":18,
		"componentType":5123,
		"type":"SCALAR",
		"min":[0],
		"count":84,
		"byteOffset":0,
		"max":[47]
	},
	{
		"bufferView":19,
		"componentType":5126,
		"type":"VEC3",
		"min":[107.67874145507813,
		0.0,
		-609.1610717773438],
		"count":48,
		"byteOffset":0,
		"max":[113.74203491210938,
		210.0,
		-519.1568603515625]
	},
	{
		"bufferView":20,
		"componentType":5123,
		"type":"SCALAR",
		"min":[0],
		"count":36,
		"byteOffset":0,
		"max":[23]
	},
	{
		"bufferView":21,
		"componentType":5126,
		"type":"VEC3",
		"min":[107.60042572021485,
		0.0,
		-492.7287292480469],
		"count":24,
		"byteOffset":0,
		"max":[113.65668487548828,
		205.0,
		-412.72454833984377]
	},
	{
		"bufferView":22,
		"componentType":5123,
		"type":"SCALAR",
		"min":[0],
		"count":84,
		"byteOffset":0,
		"max":[47]
	},
	{
		"bufferView":23,
		"componentType":5126,
		"type":"VEC3",
		"min":[107.5969009399414,
		0.0,
		-497.72869873046877],
		"count":48,
		"byteOffset":0,
		"max":[113.66019439697266,
		210.0,
		-407.7244873046875]
	},
	{
		"bufferView":24,
		"componentType":5123,
		"type":"SCALAR",
		"min":[0],
		"count":36,
		"byteOffset":0,
		"max":[23]
	},
	{
		"bufferView":25,
		"componentType":5126,
		"type":"VEC3",
		"min":[3272.28466796875,
		0.0,
		-759.2298583984375],
		"count":24,
		"byteOffset":0,
		"max":[3278.3408203125,
		205.0,
		-679.2256469726563]
	},
	{
		"bufferView":26,
		"componentType":5123,
		"type":"SCALAR",
		"min":[0],
		"count":84,
		"byteOffset":0,
		"max":[47]
	},
	{
		"bufferView":27,
		"componentType":5126,
		"type":"VEC3",
		"min":[3272.281005859375,
		0.0,
		-764.2295532226563],
		"count":48,
		"byteOffset":0,
		"max":[3278.34423828125,
		210.0,
		-674.2254028320313]
	},
	{
		"bufferView":28,
		"componentType":5123,
		"type":"SCALAR",
		"min":[0],
		"count":36,
		"byteOffset":0,
		"max":[23]
	},
	{
		"bufferView":29,
		"componentType":5126,
		"type":"VEC3",
		"min":[3272.395751953125,
		0.0,
		-917.10791015625],
		"count":24,
		"byteOffset":0,
		"max":[3278.4521484375,
		205.0,
		-837.1036987304688]
	},
	{
		"bufferView":30,
		"componentType":5123,
		"type":"SCALAR",
		"min":[0],
		"count":84,
		"byteOffset":0,
		"max":[47]
	},
	{
		"bufferView":31,
		"componentType":5126,
		"type":"VEC3",
		"min":[3272.392333984375,
		0.0,
		-922.1079711914063],
		"count":48,
		"byteOffset":0,
		"max":[3278.45556640625,
		210.0,
		-832.103759765625]
	},
	{
		"bufferView":32,
		"componentType":5123,
		"type":"SCALAR",
		"min":[0],
		"count":36,
		"byteOffset":0,
		"max":[23]
	},
	{
		"bufferView":33,
		"componentType":5126,
		"type":"VEC3",
		"min":[3271.848388671875,
		0.0,
		-142.5740966796875],
		"count":24,
		"byteOffset":0,
		"max":[3277.90478515625,
		205.0,
		-62.56989669799805]
	},
	{
		"bufferView":34,
		"componentType":5123,
		"type":"SCALAR",
		"min":[0],
		"count":84,
		"byteOffset":0,
		"max":[47]
	},
	{
		"bufferView":35,
		"componentType":5126,
		"type":"VEC3",
		"min":[3271.8447265625,
		0.0,
		-147.57394409179688],
		"count":48,
		"byteOffset":0,
		"max":[3277.907958984375,
		210.0,
		-57.569740295410159]
	},
	{
		"bufferView":36,
		"componentType":5123,
		"type":"SCALAR",
		"min":[0],
		"count":2382,
		"byteOffset":0,
		"max":[1587]
	},
	{
		"bufferView":37,
		"componentType":5126,
		"type":"VEC3",
		"min":[-8.572492599487305,
		0.0,
		-1134.2216796875],
		"count":1588,
		"byteOffset":0,
		"max":[3847.9072265625,
		300.0,
		5.715902328491211]
	},
	{
		"bufferView":38,
		"componentType":5123,
		"type":"SCALAR",
		"min":[0],
		"count":339,
		"byteOffset":0,
		"max":[132]
	},
	{
		"bufferView":39,
		"componentType":5126,
		"type":"VEC3",
		"min":[26.427459716796876,
		0.0,
		-1102.5252685546876],
		"count":133,
		"byteOffset":0,
		"max":[3812.914306640625,
		0.0,
		-29.291107177734376]
	}],
	"bufferViews":[{
		"buffer":0,
		"byteOffset":0,
		"byteLength":72,
		"target":34963
	},
	{
		"buffer":0,
		"byteOffset":72,
		"byteLength":288,
		"target":34962
	},
	{
		"buffer":1,
		"byteOffset":0,
		"byteLength":168,
		"target":34963
	},
	{
		"buffer":1,
		"byteOffset":168,
		"byteLength":576,
		"target":34962
	},
	{
		"buffer":2,
		"byteOffset":0,
		"byteLength":72,
		"target":34963
	},
	{
		"buffer":2,
		"byteOffset":72,
		"byteLength":288,
		"target":34962
	},
	{
		"buffer":3,
		"byteOffset":0,
		"byteLength":168,
		"target":34963
	},
	{
		"buffer":3,
		"byteOffset":168,
		"byteLength":576,
		"target":34962
	},
	{
		"buffer":4,
		"byteOffset":0,
		"byteLength":72,
		"target":34963
	},
	{
		"buffer":4,
		"byteOffset":72,
		"byteLength":288,
		"target":34962
	},
	{
		"buffer":5,
		"byteOffset":0,
		"byteLength":168,
		"target":34963
	},
	{
		"buffer":5,
		"byteOffset":168,
		"byteLength":576,
		"target":34962
	},
	{
		"buffer":6,
		"byteOffset":0,
		"byteLength":72,
		"target":34963
	},
	{
		"buffer":6,
		"byteOffset":72,
		"byteLength":288,
		"target":34962
	},
	{
		"buffer":7,
		"byteOffset":0,
		"byteLength":168,
		"target":34963
	},
	{
		"buffer":7,
		"byteOffset":168,
		"byteLength":576,
		"target":34962
	},
	{
		"buffer":8,
		"byteOffset":0,
		"byteLength":72,
		"target":34963
	},
	{
		"buffer":8,
		"byteOffset":72,
		"byteLength":288,
		"target":34962
	},
	{
		"buffer":9,
		"byteOffset":0,
		"byteLength":168,
		"target":34963
	},
	{
		"buffer":9,
		"byteOffset":168,
		"byteLength":576,
		"target":34962
	},
	{
		"buffer":10,
		"byteOffset":0,
		"byteLength":72,
		"target":34963
	},
	{
		"buffer":10,
		"byteOffset":72,
		"byteLength":288,
		"target":34962
	},
	{
		"buffer":11,
		"byteOffset":0,
		"byteLength":168,
		"target":34963
	},
	{
		"buffer":11,
		"byteOffset":168,
		"byteLength":576,
		"target":34962
	},
	{
		"buffer":12,
		"byteOffset":0,
		"byteLength":72,
		"target":34963
	},
	{
		"buffer":12,
		"byteOffset":72,
		"byteLength":288,
		"target":34962
	},
	{
		"buffer":13,
		"byteOffset":0,
		"byteLength":168,
		"target":34963
	},
	{
		"buffer":13,
		"byteOffset":168,
		"byteLength":576,
		"target":34962
	},
	{
		"buffer":14,
		"byteOffset":0,
		"byteLength":72,
		"target":34963
	},
	{
		"buffer":14,
		"byteOffset":72,
		"byteLength":288,
		"target":34962
	},
	{
		"buffer":15,
		"byteOffset":0,
		"byteLength":168,
		"target":34963
	},
	{
		"buffer":15,
		"byteOffset":168,
		"byteLength":576,
		"target":34962
	},
	{
		"buffer":16,
		"byteOffset":0,
		"byteLength":72,
		"target":34963
	},
	{
		"buffer":16,
		"byteOffset":72,
		"byteLength":288,
		"target":34962
	},
	{
		"buffer":17,
		"byteOffset":0,
		"byteLength":168,
		"target":34963
	},
	{
		"buffer":17,
		"byteOffset":168,
		"byteLength":576,
		"target":34962
	},
	{
		"buffer":18,
		"byteOffset":0,
		"byteLength":4764,
		"target":34963
	},
	{
		"buffer":18,
		"byteOffset":4764,
		"byteLength":19056,
		"target":34962
	},
	{
		"buffer":19,
		"byteOffset":0,
		"byteLength":678,
		"target":34963
	},
	{
		"buffer":19,
		"byteOffset":680,
		"byteLength":1596,
		"target":34962
	}],
	"buffers":[{
		"uri":"data:application/octet-stream;base64,",
		"byteLength":360
	},
	{
		"uri":"data:application/octet-stream;base64,",
		"byteLength":744
	},
	{
		"uri":"data:application/octet-stream;base64,",
		"byteLength":360
	},
	{
		"uri":"data:application/octet-stream;base64,",
		"byteLength":744
	},
	{
		"uri":"data:application/octet-stream;base64,",
		"byteLength":360
	},
	{
		"uri":"data:application/octet-stream;base64,",
		"byteLength":744
	},
	{
		"uri":"data:application/octet-stream;base64,",
		"byteLength":360
	},
	{
		"uri":"data:application/octet-stream;base64,",
		"byteLength":744
	},
	{
		"uri":"data:application/octet-stream;base64,",
		"byteLength":360
	},
	{
		"uri":"data:application/octet-stream;base64,",
		"byteLength":744
	},
	{
		"uri":"data:application/octet-stream;base64,",
		"byteLength":360
	},
	{
		"uri":"data:application/octet-stream;base64,",
		"byteLength":744
	},
	{
		"uri":"data:application/octet-stream;base64,",
		"byteLength":360
	},
	{
		"uri":"data:application/octet-stream;base64,",
		"byteLength":744
	},
	{
		"uri":"data:application/octet-stream;base64,",
		"byteLength":360
	},
	{
		"uri":"data:application/octet-stream;base64,",
		"byteLength":744
	},
	{
		"uri":"data:application/octet-stream;base64,",
		"byteLength":360
	},
	{
		"uri":"data:application/octet-stream;base64,",
		"byteLength":744
	},
	{
		"uri":"data:application/octet-stream;base64,",
		"byteLength":23820
	},
	{
		"uri":"data:application/octet-stream;base64,",
		"byteLength":2276
	}],
	"materials":[{
		"pbrMetallicRoughness":{
			"baseColorFactor":[1.0,
			1.0,
			1.0,
			1.0],
			"metallicFactor":1.0,
			"roughnessFactor":1.0
		},
		"emissiveFactor":[0.0,
		0.0,
		0.0],
		"alphaMode":"OPAQUE",
		"doubleSided":true,
		"name":""
	},
	{
		"pbrMetallicRoughness":{
			"baseColorFactor":[1.0,
			1.0,
			1.0,
			1.0],
			"metallicFactor":1.0,
			"roughnessFactor":1.0
		},
		"emissiveFactor":[0.0,
		0.0,
		0.0],
		"alphaMode":"OPAQUE",
		"doubleSided":true,
		"name":""
	},
	{
		"pbrMetallicRoughness":{
			"baseColorFactor":[1.0,
			1.0,
			1.0,
			1.0],
			"metallicFactor":1.0,
			"roughnessFactor":1.0
		},
		"emissiveFactor":[0.0,
		0.0,
		0.0],
		"alphaMode":"OPAQUE",
		"doubleSided":true,
		"name":""
	},
	{
		"pbrMetallicRoughness":{
			"baseColorFactor":[1.0,
			1.0,
			1.0,
			1.0],
			"metallicFactor":1.0,
			"roughnessFactor":1.0
		},
		"emissiveFactor":[0.0,
		0.0,
		0.0],
		"alphaMode":"OPAQUE",
		"doubleSided":true,
		"name":""
	},
	{
		"pbrMetallicRoughness":{
			"baseColorFactor":[1.0,
			1.0,
			1.0,
			1.0],
			"metallicFactor":1.0,
			"roughnessFactor":1.0
		},
		"emissiveFactor":[0.0,
		0.0,
		0.0],
		"alphaMode":"OPAQUE",
		"doubleSided":true,
		"name":""
	},
	{
		"pbrMetallicRoughness":{
			"baseColorFactor":[1.0,
			1.0,
			1.0,
			1.0],
			"metallicFactor":1.0,
			"roughnessFactor":1.0
		},
		"emissiveFactor":[0.0,
		0.0,
		0.0],
		"alphaMode":"OPAQUE",
		"doubleSided":true,
		"name":""
	},
	{
		"pbrMetallicRoughness":{
			"baseColorFactor":[1.0,
			1.0,
			1.0,
			1.0],
			"metallicFactor":1.0,
			"roughnessFactor":1.0
		},
		"emissiveFactor":[0.0,
		0.0,
		0.0],
		"alphaMode":"OPAQUE",
		"doubleSided":true,
		"name":""
	},
	{
		"pbrMetallicRoughness":{
			"baseColorFactor":[1.0,
			1.0,
			1.0,
			1.0],
			"metallicFactor":1.0,
			"roughnessFactor":1.0
		},
		"emissiveFactor":[0.0,
		0.0,
		0.0],
		"alphaMode":"OPAQUE",
		"doubleSided":true,
		"name":""
	},
	{
		"pbrMetallicRoughness":{
			"baseColorFactor":[1.0,
			1.0,
			1.0,
			1.0],
			"metallicFactor":1.0,
			"roughnessFactor":1.0
		},
		"emissiveFactor":[0.0,
		0.0,
		0.0],
		"alphaMode":"OPAQUE",
		"doubleSided":true,
		"name":""
	},
	{
		"pbrMetallicRoughness":{
			"baseColorFactor":[1.0,
			1.0,
			1.0,
			1.0],
			"metallicFactor":1.0,
			"roughnessFactor":1.0
		},
		"emissiveFactor":[0.0,
		0.0,
		0.0],
		"alphaMode":"OPAQUE",
		"doubleSided":true,
		"name":""
	},
	{
		"pbrMetallicRoughness":{
			"baseColorFactor":[1.0,
			1.0,
			1.0,
			1.0],
			"metallicFactor":1.0,
			"roughnessFactor":1.0
		},
		"emissiveFactor":[0.0,
		0.0,
		0.0],
		"alphaMode":"OPAQUE",
		"doubleSided":true,
		"name":""
	},
	{
		"pbrMetallicRoughness":{
			"baseColorFactor":[1.0,
			1.0,
			1.0,
			1.0],
			"metallicFactor":1.0,
			"roughnessFactor":1.0
		},
		"emissiveFactor":[0.0,
		0.0,
		0.0],
		"alphaMode":"OPAQUE",
		"doubleSided":true,
		"name":""
	},
	{
		"pbrMetallicRoughness":{
			"baseColorFactor":[1.0,
			1.0,
			1.0,
			1.0],
			"metallicFactor":1.0,
			"roughnessFactor":1.0
		},
		"emissiveFactor":[0.0,
		0.0,
		0.0],
		"alphaMode":"OPAQUE",
		"doubleSided":true,
		"name":""
	},
	{
		"pbrMetallicRoughness":{
			"baseColorFactor":[1.0,
			1.0,
			1.0,
			1.0],
			"metallicFactor":1.0,
			"roughnessFactor":1.0
		},
		"emissiveFactor":[0.0,
		0.0,
		0.0],
		"alphaMode":"OPAQUE",
		"doubleSided":true,
		"name":""
	},
	{
		"pbrMetallicRoughness":{
			"baseColorFactor":[1.0,
			1.0,
			1.0,
			1.0],
			"metallicFactor":1.0,
			"roughnessFactor":1.0
		},
		"emissiveFactor":[0.0,
		0.0,
		0.0],
		"alphaMode":"OPAQUE",
		"doubleSided":true,
		"name":""
	},
	{
		"pbrMetallicRoughness":{
			"baseColorFactor":[1.0,
			1.0,
			1.0,
			1.0],
			"metallicFactor":1.0,
			"roughnessFactor":1.0
		},
		"emissiveFactor":[0.0,
		0.0,
		0.0],
		"alphaMode":"OPAQUE",
		"doubleSided":true,
		"name":""
	},
	{
		"pbrMetallicRoughness":{
			"baseColorFactor":[1.0,
			1.0,
			1.0,
			1.0],
			"metallicFactor":1.0,
			"roughnessFactor":1.0
		},
		"emissiveFactor":[0.0,
		0.0,
		0.0],
		"alphaMode":"OPAQUE",
		"doubleSided":true,
		"name":""
	},
	{
		"pbrMetallicRoughness":{
			"baseColorFactor":[1.0,
			1.0,
			1.0,
			1.0],
			"metallicFactor":1.0,
			"roughnessFactor":1.0
		},
		"emissiveFactor":[0.0,
		0.0,
		0.0],
		"alphaMode":"OPAQUE",
		"doubleSided":true,
		"name":""
	},
	{
		"pbrMetallicRoughness":{
			"baseColorFactor":[1.0,
			1.0,
			1.0,
			1.0],
			"metallicFactor":1.0,
			"roughnessFactor":1.0
		},
		"emissiveFactor":[0.0,
		0.0,
		0.0],
		"alphaMode":"OPAQUE",
		"doubleSided":true,
		"name":""
	},
	{
		"pbrMetallicRoughness":{
			"baseColorFactor":[1.0,
			1.0,
			1.0,
			1.0],
			"metallicFactor":1.0,
			"roughnessFactor":1.0
		},
		"emissiveFactor":[0.0,
		0.0,
		0.0],
		"alphaMode":"OPAQUE",
		"doubleSided":true,
		"name":""
	}]
}