{
	"asset":{
		"version":"2.0",
		"generator":"Created using the official Cinema 4D glTF Exporter 1.000x290161"
	},
	"scenes":[{
		"nodes":[0,
		11,
		13]
	}],
	"nodes":[{
		"name":"door",
		"children":[1,
		2,
		3,
		4,
		5,
		6,
		7,
		8,
		9,
		10]
	},
	{
		"name":"1St011d",
		"mesh":0
	},
	{
		"name":"1St011e",
		"mesh":1
	},
	{
		"name":"1D0001",
		"mesh":2
	},
	{
		"name":"1D0002",
		"mesh":3
	},
	{
		"name":"1D0003",
		"mesh":4
	},
	{
		"name":"1D0004",
		"mesh":5
	},
	{
		"name":"1D0005",
		"mesh":6
	},
	{
		"name":"1D0006",
		"mesh":7
	},
	{
		"name":"1D0007",
		"mesh":8
	},
	{
		"name":"1D0008",
		"mesh":9
	},
	{
		"name":"floor",
		"children":[12]
	},
	{
		"name":"1S0009",
		"mesh":10
	},
	{
		"name":"wall",
		"children":[14]
	},
	{
		"name":"1W0014",
		"mesh":11
	}],
	"meshes":[{
		"primitives":[{
			"attributes":{
				"POSITION":1
			},
			"indices":0,
			"material":0
		}]
	},
	{
		"primitives":[{
			"attributes":{
				"POSITION":3
			},
			"indices":2,
			"material":1
		}]
	},
	{
		"primitives":[{
			"attributes":{
				"POSITION":5
			},
			"indices":4,
			"material":2
		}]
	},
	{
		"primitives":[{
			"attributes":{
				"POSITION":7
			},
			"indices":6,
			"material":3
		}]
	},
	{
		"primitives":[{
			"attributes":{
				"POSITION":9
			},
			"indices":8,
			"material":4
		}]
	},
	{
		"primitives":[{
			"attributes":{
				"POSITION":11
			},
			"indices":10,
			"material":5
		}]
	},
	{
		"primitives":[{
			"attributes":{
				"POSITION":13
			},
			"indices":12,
			"material":6
		}]
	},
	{
		"primitives":[{
			"attributes":{
				"POSITION":15
			},
			"indices":14,
			"material":7
		}]
	},
	{
		"primitives":[{
			"attributes":{
				"POSITION":17
			},
			"indices":16,
			"material":8
		}]
	},
	{
		"primitives":[{
			"attributes":{
				"POSITION":19
			},
			"indices":18,
			"material":9
		}]
	},
	{
		"primitives":[{
			"attributes":{
				"POSITION":21
			},
			"indices":20,
			"material":10
		}]
	},
	{
		"primitives":[{
			"attributes":{
				"POSITION":23
			},
			"indices":22,
			"material":11
		}]
	}],
	"accessors":[{
		"bufferView":0,
		"componentType":5123,
		"type":"SCALAR",
		"min":[0],
		"count":396,
		"byteOffset":0,
		"max":[263]
	},
	{
		"bufferView":1,
		"componentType":5126,
		"type":"VEC3",
		"min":[29.562088012695314,
		0.0,
		-674.5173950195313],
		"count":264,
		"byteOffset":0,
		"max":[170.89321899414063,
		300.0,
		-36.9332275390625]
	},
	{
		"bufferView":2,
		"componentType":5123,
		"type":"SCALAR",
		"min":[0],
		"count":396,
		"byteOffset":0,
		"max":[263]
	},
	{
		"bufferView":3,
		"componentType":5126,
		"type":"VEC3",
		"min":[561.385009765625,
		0.0,
		-922.4181518554688],
		"count":264,
		"byteOffset":0,
		"max":[662.7166748046875,
		300.0,
		-697.9015502929688]
	},
	{
		"bufferView":4,
		"componentType":5123,
		"type":"SCALAR",
		"min":[0],
		"count":36,
		"byteOffset":0,
		"max":[23]
	},
	{
		"bufferView":5,
		"componentType":5126,
		"type":"VEC3",
		"min":[741.071044921875,
		0.0,
		-453.38104248046877],
		"count":24,
		"byteOffset":0,
		"max":[747.071044921875,
		205.0,
		-373.38104248046877]
	},
	{
		"bufferView":6,
		"componentType":5123,
		"type":"SCALAR",
		"min":[0],
		"count":84,
		"byteOffset":0,
		"max":[47]
	},
	{
		"bufferView":7,
		"componentType":5126,
		"type":"VEC3",
		"min":[741.0709838867188,
		0.0,
		-458.3810119628906],
		"count":48,
		"byteOffset":0,
		"max":[747.0709838867188,
		210.0,
		-368.3810119628906]
	},
	{
		"bufferView":8,
		"componentType":5123,
		"type":"SCALAR",
		"min":[0],
		"count":36,
		"byteOffset":0,
		"max":[23]
	},
	{
		"bufferView":9,
		"componentType":5126,
		"type":"VEC3",
		"min":[752.0009765625,
		0.0,
		-700.239990234375],
		"count":24,
		"byteOffset":0,
		"max":[832.0009765625,
		205.0,
		-694.239990234375]
	},
	{
		"bufferView":10,
		"componentType":5123,
		"type":"SCALAR",
		"min":[0],
		"count":84,
		"byteOffset":0,
		"max":[47]
	},
	{
		"bufferView":11,
		"componentType":5126,
		"type":"VEC3",
		"min":[747.0009155273438,
		0.0,
		-700.239990234375],
		"count":48,
		"byteOffset":0,
		"max":[837.0009155273438,
		210.0,
		-694.239990234375]
	},
	{
		"bufferView":12,
		"componentType":5123,
		"type":"SCALAR",
		"min":[0],
		"count":36,
		"byteOffset":0,
		"max":[23]
	},
	{
		"bufferView":13,
		"componentType":5126,
		"type":"VEC3",
		"min":[1819.17529296875,
		0.0,
		-1093.5157470703126],
		"count":24,
		"byteOffset":0,
		"max":[1825.17529296875,
		205.0,
		-1013.5157470703125]
	},
	{
		"bufferView":14,
		"componentType":5123,
		"type":"SCALAR",
		"min":[0],
		"count":84,
		"byteOffset":0,
		"max":[47]
	},
	{
		"bufferView":15,
		"componentType":5126,
		"type":"VEC3",
		"min":[1819.17529296875,
		0.0,
		-1098.5157470703126],
		"count":48,
		"byteOffset":0,
		"max":[1825.17529296875,
		210.0,
		-1008.5157470703125]
	},
	{
		"bufferView":16,
		"componentType":5123,
		"type":"SCALAR",
		"min":[0],
		"count":36,
		"byteOffset":0,
		"max":[23]
	},
	{
		"bufferView":17,
		"componentType":5126,
		"type":"VEC3",
		"min":[752.7459716796875,
		0.0,
		-302.613037109375],
		"count":24,
		"byteOffset":0,
		"max":[832.7459716796875,
		205.0,
		-296.6130065917969]
	},
	{
		"bufferView":18,
		"componentType":5123,
		"type":"SCALAR",
		"min":[0],
		"count":84,
		"byteOffset":0,
		"max":[47]
	},
	{
		"bufferView":19,
		"componentType":5126,
		"type":"VEC3",
		"min":[747.7459106445313,
		0.0,
		-302.6130065917969],
		"count":48,
		"byteOffset":0,
		"max":[837.7459106445313,
		210.0,
		-296.61297607421877]
	},
	{
		"bufferView":20,
		"componentType":5123,
		"type":"SCALAR",
		"min":[0],
		"count":291,
		"byteOffset":0,
		"max":[118]
	},
	{
		"bufferView":21,
		"componentType":5126,
		"type":"VEC3",
		"min":[10.0,
		0.0,
		-1155.9454345703126],
		"count":119,
		"byteOffset":0,
		"max":[3014.59326171875,
		0.0,
		-10.0]
	},
	{
		"bufferView":22,
		"componentType":5123,
		"type":"SCALAR",
		"min":[0],
		"count":2187,
		"byteOffset":0,
		"max":[1458]
	},
	{
		"bufferView":23,
		"componentType":5126,
		"type":"VEC3",
		"min":[-10.0,
		0.0,
		-1175.9454345703126],
		"count":1459,
		"byteOffset":0,
		"max":[3049.586181640625,
		300.0,
		10.0]
	}],
	"bufferViews":[{
		"buffer":0,
		"byteOffset":0,
		"byteLength":792,
		"target":34963
	},
	{
		"buffer":0,
		"byteOffset":792,
		"byteLength":3168,
		"target":34962
	},
	{
		"buffer":1,
		"byteOffset":0,
		"byteLength":792,
		"target":34963
	},
	{
		"buffer":1,
		"byteOffset":792,
		"byteLength":3168,
		"target":34962
	},
	{
		"buffer":2,
		"byteOffset":0,
		"byteLength":72,
		"target":34963
	},
	{
		"buffer":2,
		"byteOffset":72,
		"byteLength":288,
		"target":34962
	},
	{
		"buffer":3,
		"byteOffset":0,
		"byteLength":168,
		"target":34963
	},
	{
		"buffer":3,
		"byteOffset":168,
		"byteLength":576,
		"target":34962
	},
	{
		"buffer":4,
		"byteOffset":0,
		"byteLength":72,
		"target":34963
	},
	{
		"buffer":4,
		"byteOffset":72,
		"byteLength":288,
		"target":34962
	},
	{
		"buffer":5,
		"byteOffset":0,
		"byteLength":168,
		"target":34963
	},
	{
		"buffer":5,
		"byteOffset":168,
		"byteLength":576,
		"target":34962
	},
	{
		"buffer":6,
		"byteOffset":0,
		"byteLength":72,
		"target":34963
	},
	{
		"buffer":6,
		"byteOffset":72,
		"byteLength":288,
		"target":34962
	},
	{
		"buffer":7,
		"byteOffset":0,
		"byteLength":168,
		"target":34963
	},
	{
		"buffer":7,
		"byteOffset":168,
		"byteLength":576,
		"target":34962
	},
	{
		"buffer":8,
		"byteOffset":0,
		"byteLength":72,
		"target":34963
	},
	{
		"buffer":8,
		"byteOffset":72,
		"byteLength":288,
		"target":34962
	},
	{
		"buffer":9,
		"byteOffset":0,
		"byteLength":168,
		"target":34963
	},
	{
		"buffer":9,
		"byteOffset":168,
		"byteLength":576,
		"target":34962
	},
	{
		"buffer":10,
		"byteOffset":0,
		"byteLength":582,
		"target":34963
	},
	{
		"buffer":10,
		"byteOffset":584,
		"byteLength":1428,
		"target":34962
	},
	{
		"buffer":11,
		"byteOffset":0,
		"byteLength":4374,
		"target":34963
	},
	{
		"buffer":11,
		"byteOffset":4376,
		"byteLength":17508,
		"target":34962
	}],
	"buffers":[{
		"uri":"data:application/octet-stream;base64,",
		"byteLength":3960
	},
	{
		"uri":"data:application/octet-stream;base64,",
		"byteLength":3960
	},
	{
		"uri":"data:application/octet-stream;base64,",
		"byteLength":360
	},
	{
		"uri":"data:application/octet-stream;base64,",
		"byteLength":744
	},
	{
		"uri":"data:application/octet-stream;base64,",
		"byteLength":360
	},
	{
		"uri":"data:application/octet-stream;base64,",
		"byteLength":744
	},
	{
		"uri":"data:application/octet-stream;base64,",
		"byteLength":360
	},
	{
		"uri":"data:application/octet-stream;base64,",
		"byteLength":744
	},
	{
		"uri":"data:application/octet-stream;base64,",
		"byteLength":360
	},
	{
		"uri":"data:application/octet-stream;base64,",
		"byteLength":744
	},
	{
		"uri":"data:application/octet-stream;base64,",
		"byteLength":2012
	},
	{
		"uri":"data:application/octet-stream;base64,",
		"byteLength":21884
	}],
	"materials":[{
		"pbrMetallicRoughness":{
			"baseColorFactor":[1.0,
			1.0,
			1.0,
			1.0],
			"metallicFactor":1.0,
			"roughnessFactor":1.0
		},
		"emissiveFactor":[0.0,
		0.0,
		0.0],
		"alphaMode":"OPAQUE",
		"doubleSided":true,
		"name":""
	},
	{
		"pbrMetallicRoughness":{
			"baseColorFactor":[1.0,
			1.0,
			1.0,
			1.0],
			"metallicFactor":1.0,
			"roughnessFactor":1.0
		},
		"emissiveFactor":[0.0,
		0.0,
		0.0],
		"alphaMode":"OPAQUE",
		"doubleSided":true,
		"name":""
	},
	{
		"pbrMetallicRoughness":{
			"baseColorFactor":[1.0,
			1.0,
			1.0,
			1.0],
			"metallicFactor":1.0,
			"roughnessFactor":1.0
		},
		"emissiveFactor":[0.0,
		0.0,
		0.0],
		"alphaMode":"OPAQUE",
		"doubleSided":true,
		"name":""
	},
	{
		"pbrMetallicRoughness":{
			"baseColorFactor":[1.0,
			1.0,
			1.0,
			1.0],
			"metallicFactor":1.0,
			"roughnessFactor":1.0
		},
		"emissiveFactor":[0.0,
		0.0,
		0.0],
		"alphaMode":"OPAQUE",
		"doubleSided":true,
		"name":""
	},
	{
		"pbrMetallicRoughness":{
			"baseColorFactor":[1.0,
			1.0,
			1.0,
			1.0],
			"metallicFactor":1.0,
			"roughnessFactor":1.0
		},
		"emissiveFactor":[0.0,
		0.0,
		0.0],
		"alphaMode":"OPAQUE",
		"doubleSided":true,
		"name":""
	},
	{
		"pbrMetallicRoughness":{
			"baseColorFactor":[1.0,
			1.0,
			1.0,
			1.0],
			"metallicFactor":1.0,
			"roughnessFactor":1.0
		},
		"emissiveFactor":[0.0,
		0.0,
		0.0],
		"alphaMode":"OPAQUE",
		"doubleSided":true,
		"name":""
	},
	{
		"pbrMetallicRoughness":{
			"baseColorFactor":[1.0,
			1.0,
			1.0,
			1.0],
			"metallicFactor":1.0,
			"roughnessFactor":1.0
		},
		"emissiveFactor":[0.0,
		0.0,
		0.0],
		"alphaMode":"OPAQUE",
		"doubleSided":true,
		"name":""
	},
	{
		"pbrMetallicRoughness":{
			"baseColorFactor":[1.0,
			1.0,
			1.0,
			1.0],
			"metallicFactor":1.0,
			"roughnessFactor":1.0
		},
		"emissiveFactor":[0.0,
		0.0,
		0.0],
		"alphaMode":"OPAQUE",
		"doubleSided":true,
		"name":""
	},
	{
		"pbrMetallicRoughness":{
			"baseColorFactor":[1.0,
			1.0,
			1.0,
			1.0],
			"metallicFactor":1.0,
			"roughnessFactor":1.0
		},
		"emissiveFactor":[0.0,
		0.0,
		0.0],
		"alphaMode":"OPAQUE",
		"doubleSided":true,
		"name":""
	},
	{
		"pbrMetallicRoughness":{
			"baseColorFactor":[1.0,
			1.0,
			1.0,
			1.0],
			"metallicFactor":1.0,
			"roughnessFactor":1.0
		},
		"emissiveFactor":[0.0,
		0.0,
		0.0],
		"alphaMode":"OPAQUE",
		"doubleSided":true,
		"name":""
	},
	{
		"pbrMetallicRoughness":{
			"baseColorFactor":[1.0,
			1.0,
			1.0,
			1.0],
			"metallicFactor":1.0,
			"roughnessFactor":1.0
		},
		"emissiveFactor":[0.0,
		0.0,
		0.0],
		"alphaMode":"OPAQUE",
		"doubleSided":true,
		"name":""
	},
	{
		"pbrMetallicRoughness":{
			"baseColorFactor":[1.0,
			1.0,
			1.0,
			1.0],
			"metallicFactor":1.0,
			"roughnessFactor":1.0
		},
		"emissiveFactor":[0.0,
		0.0,
		0.0],
		"alphaMode":"OPAQUE",
		"doubleSided":true,
		"name":""
	}]
}