{
	"asset":{
		"version":"2.0",
		"generator":"Created using the official Cinema 4D glTF Exporter 1.000x290161"
	},
	"scenes":[{
		"nodes":[0,
		19,
		21]
	}],
	"nodes":[{
		"name":"door",
		"children":[1,
		2,
		3,
		4,
		5,
		6,
		7,
		8,
		9,
		10,
		11,
		12,
		13,
		14,
		15,
		16,
		17,
		18]
	},
	{
		"name":"1D0001",
		"mesh":0
	},
	{
		"name":"1D0002",
		"mesh":1
	},
	{
		"name":"1D0003",
		"mesh":2
	},
	{
		"name":"1D0004",
		"mesh":3
	},
	{
		"name":"1D0005",
		"mesh":4
	},
	{
		"name":"1D0006",
		"mesh":5
	},
	{
		"name":"1D0007",
		"mesh":6
	},
	{
		"name":"1D0008",
		"mesh":7
	},
	{
		"name":"1D0009",
		"mesh":8
	},
	{
		"name":"1D000a",
		"mesh":9
	},
	{
		"name":"1D000b",
		"mesh":10
	},
	{
		"name":"1D000c",
		"mesh":11
	},
	{
		"name":"1D000d",
		"mesh":12
	},
	{
		"name":"1D000e",
		"mesh":13
	},
	{
		"name":"1D000f",
		"mesh":14
	},
	{
		"name":"1D0010",
		"mesh":15
	},
	{
		"name":"1D0011",
		"mesh":16
	},
	{
		"name":"1D0012",
		"mesh":17
	},
	{
		"name":"floor",
		"children":[20]
	},
	{
		"name":"1S0013",
		"mesh":18
	},
	{
		"name":"wall",
		"children":[22]
	},
	{
		"name":"1W001a",
		"mesh":19
	}],
	"meshes":[{
		"primitives":[{
			"attributes":{
				"POSITION":1
			},
			"indices":0,
			"material":0
		}]
	},
	{
		"primitives":[{
			"attributes":{
				"POSITION":3
			},
			"indices":2,
			"material":1
		}]
	},
	{
		"primitives":[{
			"attributes":{
				"POSITION":5
			},
			"indices":4,
			"material":2
		}]
	},
	{
		"primitives":[{
			"attributes":{
				"POSITION":7
			},
			"indices":6,
			"material":3
		}]
	},
	{
		"primitives":[{
			"attributes":{
				"POSITION":9
			},
			"indices":8,
			"material":4
		}]
	},
	{
		"primitives":[{
			"attributes":{
				"POSITION":11
			},
			"indices":10,
			"material":5
		}]
	},
	{
		"primitives":[{
			"attributes":{
				"POSITION":13
			},
			"indices":12,
			"material":6
		}]
	},
	{
		"primitives":[{
			"attributes":{
				"POSITION":15
			},
			"indices":14,
			"material":7
		}]
	},
	{
		"primitives":[{
			"attributes":{
				"POSITION":17
			},
			"indices":16,
			"material":8
		}]
	},
	{
		"primitives":[{
			"attributes":{
				"POSITION":19
			},
			"indices":18,
			"material":9
		}]
	},
	{
		"primitives":[{
			"attributes":{
				"POSITION":21
			},
			"indices":20,
			"material":10
		}]
	},
	{
		"primitives":[{
			"attributes":{
				"POSITION":23
			},
			"indices":22,
			"material":11
		}]
	},
	{
		"primitives":[{
			"attributes":{
				"POSITION":25
			},
			"indices":24,
			"material":12
		}]
	},
	{
		"primitives":[{
			"attributes":{
				"POSITION":27
			},
			"indices":26,
			"material":13
		}]
	},
	{
		"primitives":[{
			"attributes":{
				"POSITION":29
			},
			"indices":28,
			"material":14
		}]
	},
	{
		"primitives":[{
			"attributes":{
				"POSITION":31
			},
			"indices":30,
			"material":15
		}]
	},
	{
		"primitives":[{
			"attributes":{
				"POSITION":33
			},
			"indices":32,
			"material":16
		}]
	},
	{
		"primitives":[{
			"attributes":{
				"POSITION":35
			},
			"indices":34,
			"material":17
		}]
	},
	{
		"primitives":[{
			"attributes":{
				"POSITION":37
			},
			"indices":36,
			"material":18
		}]
	},
	{
		"primitives":[{
			"attributes":{
				"POSITION":39
			},
			"indices":38,
			"material":19
		}]
	}],
	"accessors":[{
		"bufferView":0,
		"type":"SCALAR",
		"componentType":5123,
		"count":36,
		"byteOffset":0,
		"min":[0],
		"max":[23]
	},
	{
		"bufferView":1,
		"type":"VEC3",
		"componentType":5126,
		"count":24,
		"byteOffset":0,
		"min":[4899.0,
		0.0,
		-1927.60791015625],
		"max":[4905.0,
		205.0,
		-1847.60791015625]
	},
	{
		"bufferView":2,
		"type":"SCALAR",
		"componentType":5123,
		"count":84,
		"byteOffset":0,
		"min":[0],
		"max":[47]
	},
	{
		"bufferView":3,
		"type":"VEC3",
		"componentType":5126,
		"count":48,
		"byteOffset":0,
		"min":[4899.0,
		0.0,
		-1932.607666015625],
		"max":[4905.0,
		210.0,
		-1842.607666015625]
	},
	{
		"bufferView":4,
		"type":"SCALAR",
		"componentType":5123,
		"count":36,
		"byteOffset":0,
		"min":[0],
		"max":[23]
	},
	{
		"bufferView":5,
		"type":"VEC3",
		"componentType":5126,
		"count":24,
		"byteOffset":0,
		"min":[1878.5,
		0.0,
		150.0701904296875],
		"max":[1884.5,
		205.0,
		230.0701904296875]
	},
	{
		"bufferView":6,
		"type":"SCALAR",
		"componentType":5123,
		"count":84,
		"byteOffset":0,
		"min":[0],
		"max":[47]
	},
	{
		"bufferView":7,
		"type":"VEC3",
		"componentType":5126,
		"count":48,
		"byteOffset":0,
		"min":[1878.4998779296876,
		0.0,
		145.07020568847657],
		"max":[1884.4998779296876,
		210.0,
		235.07020568847657]
	},
	{
		"bufferView":8,
		"type":"SCALAR",
		"componentType":5123,
		"count":36,
		"byteOffset":0,
		"min":[0],
		"max":[23]
	},
	{
		"bufferView":9,
		"type":"VEC3",
		"componentType":5126,
		"count":24,
		"byteOffset":0,
		"min":[4422.11669921875,
		0.0,
		-90.99982452392578],
		"max":[4428.11669921875,
		205.0,
		-15.999824523925782]
	},
	{
		"bufferView":10,
		"type":"SCALAR",
		"componentType":5123,
		"count":36,
		"byteOffset":0,
		"min":[0],
		"max":[23]
	},
	{
		"bufferView":11,
		"type":"VEC3",
		"componentType":5126,
		"count":24,
		"byteOffset":0,
		"min":[4278.11669921875,
		0.0,
		-90.99980926513672],
		"max":[4284.11669921875,
		205.0,
		-15.999808311462403]
	},
	{
		"bufferView":12,
		"type":"SCALAR",
		"componentType":5123,
		"count":84,
		"byteOffset":0,
		"min":[0],
		"max":[47]
	},
	{
		"bufferView":13,
		"type":"VEC3",
		"componentType":5126,
		"count":48,
		"byteOffset":0,
		"min":[4273.11669921875,
		0.0,
		-96.99982452392578],
		"max":[4433.11669921875,
		210.0,
		-90.99977111816406]
	},
	{
		"bufferView":14,
		"type":"SCALAR",
		"componentType":5123,
		"count":36,
		"byteOffset":0,
		"min":[0],
		"max":[23]
	},
	{
		"bufferView":15,
		"type":"VEC3",
		"componentType":5126,
		"count":24,
		"byteOffset":0,
		"min":[166.51792907714845,
		0.0,
		-96.99981689453125],
		"max":[246.51792907714845,
		205.0,
		-90.99978637695313]
	},
	{
		"bufferView":16,
		"type":"SCALAR",
		"componentType":5123,
		"count":84,
		"byteOffset":0,
		"min":[0],
		"max":[47]
	},
	{
		"bufferView":17,
		"type":"VEC3",
		"componentType":5126,
		"count":48,
		"byteOffset":0,
		"min":[161.51792907714845,
		0.0,
		-96.99981689453125],
		"max":[251.51792907714845,
		210.0,
		-90.99978637695313]
	},
	{
		"bufferView":18,
		"type":"SCALAR",
		"componentType":5123,
		"count":36,
		"byteOffset":0,
		"min":[0],
		"max":[23]
	},
	{
		"bufferView":19,
		"type":"VEC3",
		"componentType":5126,
		"count":24,
		"byteOffset":0,
		"min":[4770.48779296875,
		0.0,
		-1804.999755859375],
		"max":[4850.48779296875,
		205.0,
		-1798.999755859375]
	},
	{
		"bufferView":20,
		"type":"SCALAR",
		"componentType":5123,
		"count":84,
		"byteOffset":0,
		"min":[0],
		"max":[47]
	},
	{
		"bufferView":21,
		"type":"VEC3",
		"componentType":5126,
		"count":48,
		"byteOffset":0,
		"min":[4765.48779296875,
		0.0,
		-1804.99951171875],
		"max":[4855.48779296875,
		210.0,
		-1798.99951171875]
	},
	{
		"bufferView":22,
		"type":"SCALAR",
		"componentType":5123,
		"count":36,
		"byteOffset":0,
		"min":[0],
		"max":[23]
	},
	{
		"bufferView":23,
		"type":"VEC3",
		"componentType":5126,
		"count":24,
		"byteOffset":0,
		"min":[1502.5,
		0.0,
		151.60418701171876],
		"max":[1508.5,
		205.0,
		231.60418701171876]
	},
	{
		"bufferView":24,
		"type":"SCALAR",
		"componentType":5123,
		"count":84,
		"byteOffset":0,
		"min":[0],
		"max":[47]
	},
	{
		"bufferView":25,
		"type":"VEC3",
		"componentType":5126,
		"count":48,
		"byteOffset":0,
		"min":[1502.500244140625,
		0.0,
		146.60418701171876],
		"max":[1508.500244140625,
		210.0,
		236.60418701171876]
	},
	{
		"bufferView":26,
		"type":"SCALAR",
		"componentType":5123,
		"count":36,
		"byteOffset":0,
		"min":[0],
		"max":[23]
	},
	{
		"bufferView":27,
		"type":"VEC3",
		"componentType":5126,
		"count":24,
		"byteOffset":0,
		"min":[4769.26513671875,
		0.0,
		-351.9938049316406],
		"max":[4849.26513671875,
		205.0,
		-345.9938049316406]
	},
	{
		"bufferView":28,
		"type":"SCALAR",
		"componentType":5123,
		"count":84,
		"byteOffset":0,
		"min":[0],
		"max":[47]
	},
	{
		"bufferView":29,
		"type":"VEC3",
		"componentType":5126,
		"count":48,
		"byteOffset":0,
		"min":[4764.26513671875,
		0.0,
		-351.9938049316406],
		"max":[4854.26513671875,
		210.0,
		-345.9938049316406]
	},
	{
		"bufferView":30,
		"type":"SCALAR",
		"componentType":5123,
		"count":36,
		"byteOffset":0,
		"min":[0],
		"max":[23]
	},
	{
		"bufferView":31,
		"type":"VEC3",
		"componentType":5126,
		"count":24,
		"byteOffset":0,
		"min":[2159.10888671875,
		0.0,
		261.00018310546877],
		"max":[2165.109130859375,
		205.0,
		336.0002136230469]
	},
	{
		"bufferView":32,
		"type":"SCALAR",
		"componentType":5123,
		"count":36,
		"byteOffset":0,
		"min":[0],
		"max":[23]
	},
	{
		"bufferView":33,
		"type":"VEC3",
		"componentType":5126,
		"count":24,
		"byteOffset":0,
		"min":[2015.1090087890626,
		0.0,
		261.000244140625],
		"max":[2021.109130859375,
		205.0,
		336.000244140625]
	},
	{
		"bufferView":34,
		"type":"SCALAR",
		"componentType":5123,
		"count":84,
		"byteOffset":0,
		"min":[0],
		"max":[47]
	},
	{
		"bufferView":35,
		"type":"VEC3",
		"componentType":5126,
		"count":48,
		"byteOffset":0,
		"min":[2010.1087646484376,
		0.0,
		255.00021362304688],
		"max":[2170.108642578125,
		210.0,
		261.0002746582031]
	},
	{
		"bufferView":36,
		"type":"SCALAR",
		"componentType":5123,
		"count":222,
		"byteOffset":0,
		"min":[0],
		"max":[87]
	},
	{
		"bufferView":37,
		"type":"VEC3",
		"componentType":5126,
		"count":88,
		"byteOffset":0,
		"min":[20.0,
		0.0,
		-2043.5],
		"max":[4913.0,
		0.0,
		269.0]
	},
	{
		"bufferView":38,
		"type":"SCALAR",
		"componentType":5123,
		"count":3072,
		"byteOffset":0,
		"min":[0],
		"max":[2047]
	},
	{
		"bufferView":39,
		"type":"VEC3",
		"componentType":5126,
		"count":2048,
		"byteOffset":0,
		"min":[-40.99292755126953,
		0.0,
		-2151.0],
		"max":[4953.9931640625,
		300.0,
		282.992919921875]
	}],
	"bufferViews":[{
		"buffer":0,
		"byteOffset":0,
		"byteLength":72,
		"target":34963
	},
	{
		"buffer":0,
		"byteOffset":72,
		"byteLength":288,
		"target":34962
	},
	{
		"buffer":1,
		"byteOffset":0,
		"byteLength":168,
		"target":34963
	},
	{
		"buffer":1,
		"byteOffset":168,
		"byteLength":576,
		"target":34962
	},
	{
		"buffer":2,
		"byteOffset":0,
		"byteLength":72,
		"target":34963
	},
	{
		"buffer":2,
		"byteOffset":72,
		"byteLength":288,
		"target":34962
	},
	{
		"buffer":3,
		"byteOffset":0,
		"byteLength":168,
		"target":34963
	},
	{
		"buffer":3,
		"byteOffset":168,
		"byteLength":576,
		"target":34962
	},
	{
		"buffer":4,
		"byteOffset":0,
		"byteLength":72,
		"target":34963
	},
	{
		"buffer":4,
		"byteOffset":72,
		"byteLength":288,
		"target":34962
	},
	{
		"buffer":5,
		"byteOffset":0,
		"byteLength":72,
		"target":34963
	},
	{
		"buffer":5,
		"byteOffset":72,
		"byteLength":288,
		"target":34962
	},
	{
		"buffer":6,
		"byteOffset":0,
		"byteLength":168,
		"target":34963
	},
	{
		"buffer":6,
		"byteOffset":168,
		"byteLength":576,
		"target":34962
	},
	{
		"buffer":7,
		"byteOffset":0,
		"byteLength":72,
		"target":34963
	},
	{
		"buffer":7,
		"byteOffset":72,
		"byteLength":288,
		"target":34962
	},
	{
		"buffer":8,
		"byteOffset":0,
		"byteLength":168,
		"target":34963
	},
	{
		"buffer":8,
		"byteOffset":168,
		"byteLength":576,
		"target":34962
	},
	{
		"buffer":9,
		"byteOffset":0,
		"byteLength":72,
		"target":34963
	},
	{
		"buffer":9,
		"byteOffset":72,
		"byteLength":288,
		"target":34962
	},
	{
		"buffer":10,
		"byteOffset":0,
		"byteLength":168,
		"target":34963
	},
	{
		"buffer":10,
		"byteOffset":168,
		"byteLength":576,
		"target":34962
	},
	{
		"buffer":11,
		"byteOffset":0,
		"byteLength":72,
		"target":34963
	},
	{
		"buffer":11,
		"byteOffset":72,
		"byteLength":288,
		"target":34962
	},
	{
		"buffer":12,
		"byteOffset":0,
		"byteLength":168,
		"target":34963
	},
	{
		"buffer":12,
		"byteOffset":168,
		"byteLength":576,
		"target":34962
	},
	{
		"buffer":13,
		"byteOffset":0,
		"byteLength":72,
		"target":34963
	},
	{
		"buffer":13,
		"byteOffset":72,
		"byteLength":288,
		"target":34962
	},
	{
		"buffer":14,
		"byteOffset":0,
		"byteLength":168,
		"target":34963
	},
	{
		"buffer":14,
		"byteOffset":168,
		"byteLength":576,
		"target":34962
	},
	{
		"buffer":15,
		"byteOffset":0,
		"byteLength":72,
		"target":34963
	},
	{
		"buffer":15,
		"byteOffset":72,
		"byteLength":288,
		"target":34962
	},
	{
		"buffer":16,
		"byteOffset":0,
		"byteLength":72,
		"target":34963
	},
	{
		"buffer":16,
		"byteOffset":72,
		"byteLength":288,
		"target":34962
	},
	{
		"buffer":17,
		"byteOffset":0,
		"byteLength":168,
		"target":34963
	},
	{
		"buffer":17,
		"byteOffset":168,
		"byteLength":576,
		"target":34962
	},
	{
		"buffer":18,
		"byteOffset":0,
		"byteLength":444,
		"target":34963
	},
	{
		"buffer":18,
		"byteOffset":444,
		"byteLength":1056,
		"target":34962
	},
	{
		"buffer":19,
		"byteOffset":0,
		"byteLength":6144,
		"target":34963
	},
	{
		"buffer":19,
		"byteOffset":6144,
		"byteLength":24576,
		"target":34962
	}],
	"buffers":[{
		"uri":"data:application/octet-stream;base64,",
		"byteLength":360
	},
	{
		"uri":"data:application/octet-stream;base64,",
		"byteLength":744
	},
	{
		"uri":"data:application/octet-stream;base64,",
		"byteLength":360
	},
	{
		"uri":"data:application/octet-stream;base64,",
		"byteLength":744
	},
	{
		"uri":"data:application/octet-stream;base64,",
		"byteLength":360
	},
	{
		"uri":"data:application/octet-stream;base64,",
		"byteLength":360
	},
	{
		"uri":"data:application/octet-stream;base64,",
		"byteLength":744
	},
	{
		"uri":"data:application/octet-stream;base64,",
		"byteLength":360
	},
	{
		"uri":"data:application/octet-stream;base64,",
		"byteLength":744
	},
	{
		"uri":"data:application/octet-stream;base64,",
		"byteLength":360
	},
	{
		"uri":"data:application/octet-stream;base64,",
		"byteLength":744
	},
	{
		"uri":"data:application/octet-stream;base64,",
		"byteLength":360
	},
	{
		"uri":"data:application/octet-stream;base64,",
		"byteLength":744
	},
	{
		"uri":"data:application/octet-stream;base64,",
		"byteLength":360
	},
	{
		"uri":"data:application/octet-stream;base64,",
		"byteLength":744
	},
	{
		"uri":"data:application/octet-stream;base64,",
		"byteLength":360
	},
	{
		"uri":"data:application/octet-stream;base64,",
		"byteLength":360
	},
	{
		"uri":"data:application/octet-stream;base64,",
		"byteLength":744
	},
	{
		"uri":"data:application/octet-stream;base64,",
		"byteLength":1500
	},
	{
		"uri":"data:application/octet-stream;base64,",
		"byteLength":30720
	}],
	"materials":[{
		"pbrMetallicRoughness":{
			"baseColorFactor":[1.0,
			1.0,
			1.0,
			1.0],
			"metallicFactor":1.0,
			"roughnessFactor":1.0
		},
		"emissiveFactor":[0.0,
		0.0,
		0.0],
		"alphaMode":"OPAQUE",
		"doubleSided":true,
		"name":""
	},
	{
		"pbrMetallicRoughness":{
			"baseColorFactor":[1.0,
			1.0,
			1.0,
			1.0],
			"metallicFactor":1.0,
			"roughnessFactor":1.0
		},
		"emissiveFactor":[0.0,
		0.0,
		0.0],
		"alphaMode":"OPAQUE",
		"doubleSided":true,
		"name":""
	},
	{
		"pbrMetallicRoughness":{
			"baseColorFactor":[1.0,
			1.0,
			1.0,
			1.0],
			"metallicFactor":1.0,
			"roughnessFactor":1.0
		},
		"emissiveFactor":[0.0,
		0.0,
		0.0],
		"alphaMode":"OPAQUE",
		"doubleSided":true,
		"name":""
	},
	{
		"pbrMetallicRoughness":{
			"baseColorFactor":[1.0,
			1.0,
			1.0,
			1.0],
			"metallicFactor":1.0,
			"roughnessFactor":1.0
		},
		"emissiveFactor":[0.0,
		0.0,
		0.0],
		"alphaMode":"OPAQUE",
		"doubleSided":true,
		"name":""
	},
	{
		"pbrMetallicRoughness":{
			"baseColorFactor":[1.0,
			1.0,
			1.0,
			1.0],
			"metallicFactor":1.0,
			"roughnessFactor":1.0
		},
		"emissiveFactor":[0.0,
		0.0,
		0.0],
		"alphaMode":"OPAQUE",
		"doubleSided":true,
		"name":""
	},
	{
		"pbrMetallicRoughness":{
			"baseColorFactor":[1.0,
			1.0,
			1.0,
			1.0],
			"metallicFactor":1.0,
			"roughnessFactor":1.0
		},
		"emissiveFactor":[0.0,
		0.0,
		0.0],
		"alphaMode":"OPAQUE",
		"doubleSided":true,
		"name":""
	},
	{
		"pbrMetallicRoughness":{
			"baseColorFactor":[1.0,
			1.0,
			1.0,
			1.0],
			"metallicFactor":1.0,
			"roughnessFactor":1.0
		},
		"emissiveFactor":[0.0,
		0.0,
		0.0],
		"alphaMode":"OPAQUE",
		"doubleSided":true,
		"name":""
	},
	{
		"pbrMetallicRoughness":{
			"baseColorFactor":[1.0,
			1.0,
			1.0,
			1.0],
			"metallicFactor":1.0,
			"roughnessFactor":1.0
		},
		"emissiveFactor":[0.0,
		0.0,
		0.0],
		"alphaMode":"OPAQUE",
		"doubleSided":true,
		"name":""
	},
	{
		"pbrMetallicRoughness":{
			"baseColorFactor":[1.0,
			1.0,
			1.0,
			1.0],
			"metallicFactor":1.0,
			"roughnessFactor":1.0
		},
		"emissiveFactor":[0.0,
		0.0,
		0.0],
		"alphaMode":"OPAQUE",
		"doubleSided":true,
		"name":""
	},
	{
		"pbrMetallicRoughness":{
			"baseColorFactor":[1.0,
			1.0,
			1.0,
			1.0],
			"metallicFactor":1.0,
			"roughnessFactor":1.0
		},
		"emissiveFactor":[0.0,
		0.0,
		0.0],
		"alphaMode":"OPAQUE",
		"doubleSided":true,
		"name":""
	},
	{
		"pbrMetallicRoughness":{
			"baseColorFactor":[1.0,
			1.0,
			1.0,
			1.0],
			"metallicFactor":1.0,
			"roughnessFactor":1.0
		},
		"emissiveFactor":[0.0,
		0.0,
		0.0],
		"alphaMode":"OPAQUE",
		"doubleSided":true,
		"name":""
	},
	{
		"pbrMetallicRoughness":{
			"baseColorFactor":[1.0,
			1.0,
			1.0,
			1.0],
			"metallicFactor":1.0,
			"roughnessFactor":1.0
		},
		"emissiveFactor":[0.0,
		0.0,
		0.0],
		"alphaMode":"OPAQUE",
		"doubleSided":true,
		"name":""
	},
	{
		"pbrMetallicRoughness":{
			"baseColorFactor":[1.0,
			1.0,
			1.0,
			1.0],
			"metallicFactor":1.0,
			"roughnessFactor":1.0
		},
		"emissiveFactor":[0.0,
		0.0,
		0.0],
		"alphaMode":"OPAQUE",
		"doubleSided":true,
		"name":""
	},
	{
		"pbrMetallicRoughness":{
			"baseColorFactor":[1.0,
			1.0,
			1.0,
			1.0],
			"metallicFactor":1.0,
			"roughnessFactor":1.0
		},
		"emissiveFactor":[0.0,
		0.0,
		0.0],
		"alphaMode":"OPAQUE",
		"doubleSided":true,
		"name":""
	},
	{
		"pbrMetallicRoughness":{
			"baseColorFactor":[1.0,
			1.0,
			1.0,
			1.0],
			"metallicFactor":1.0,
			"roughnessFactor":1.0
		},
		"emissiveFactor":[0.0,
		0.0,
		0.0],
		"alphaMode":"OPAQUE",
		"doubleSided":true,
		"name":""
	},
	{
		"pbrMetallicRoughness":{
			"baseColorFactor":[1.0,
			1.0,
			1.0,
			1.0],
			"metallicFactor":1.0,
			"roughnessFactor":1.0
		},
		"emissiveFactor":[0.0,
		0.0,
		0.0],
		"alphaMode":"OPAQUE",
		"doubleSided":true,
		"name":""
	},
	{
		"pbrMetallicRoughness":{
			"baseColorFactor":[1.0,
			1.0,
			1.0,
			1.0],
			"metallicFactor":1.0,
			"roughnessFactor":1.0
		},
		"emissiveFactor":[0.0,
		0.0,
		0.0],
		"alphaMode":"OPAQUE",
		"doubleSided":true,
		"name":""
	},
	{
		"pbrMetallicRoughness":{
			"baseColorFactor":[1.0,
			1.0,
			1.0,
			1.0],
			"metallicFactor":1.0,
			"roughnessFactor":1.0
		},
		"emissiveFactor":[0.0,
		0.0,
		0.0],
		"alphaMode":"OPAQUE",
		"doubleSided":true,
		"name":""
	},
	{
		"pbrMetallicRoughness":{
			"baseColorFactor":[1.0,
			1.0,
			1.0,
			1.0],
			"metallicFactor":1.0,
			"roughnessFactor":1.0
		},
		"emissiveFactor":[0.0,
		0.0,
		0.0],
		"alphaMode":"OPAQUE",
		"doubleSided":true,
		"name":""
	},
	{
		"pbrMetallicRoughness":{
			"baseColorFactor":[1.0,
			1.0,
			1.0,
			1.0],
			"metallicFactor":1.0,
			"roughnessFactor":1.0
		},
		"emissiveFactor":[0.0,
		0.0,
		0.0],
		"alphaMode":"OPAQUE",
		"doubleSided":true,
		"name":""
	}]
}