{
	"asset":{
		"version":"2.0",
		"generator":"Created using the official Cinema 4D glTF Exporter 1.000x290161"
	},
	"scenes":[{
		"nodes":[0,
		19,
		21]
	}],
	"nodes":[{
		"name":"door",
		"children":[1,
		2,
		3,
		4,
		5,
		6,
		7,
		8,
		9,
		10,
		11,
		12,
		13,
		14,
		15,
		16,
		17,
		18]
	},
	{
		"name":"1St018f",
		"mesh":0
	},
	{
		"name":"1D0001",
		"mesh":1
	},
	{
		"name":"1D0002",
		"mesh":2
	},
	{
		"name":"1D0003",
		"mesh":3
	},
	{
		"name":"1D0004",
		"mesh":4
	},
	{
		"name":"1D0005",
		"mesh":5
	},
	{
		"name":"1D0006",
		"mesh":6
	},
	{
		"name":"1D0007",
		"mesh":7
	},
	{
		"name":"1D0008",
		"mesh":8
	},
	{
		"name":"1D0009",
		"mesh":9
	},
	{
		"name":"1D000a",
		"mesh":10
	},
	{
		"name":"1D000b",
		"mesh":11
	},
	{
		"name":"1D000c",
		"mesh":12
	},
	{
		"name":"1D000d",
		"mesh":13
	},
	{
		"name":"1D000e",
		"mesh":14
	},
	{
		"name":"1D000f",
		"mesh":15
	},
	{
		"name":"1D0010",
		"mesh":16
	},
	{
		"name":"1D0011",
		"mesh":17
	},
	{
		"name":"floor",
		"children":[20]
	},
	{
		"name":"1S0012",
		"mesh":18
	},
	{
		"name":"wall",
		"children":[22]
	},
	{
		"name":"1W001a",
		"mesh":19
	}],
	"meshes":[{
		"primitives":[{
			"attributes":{
				"POSITION":1
			},
			"indices":0,
			"material":0
		}]
	},
	{
		"primitives":[{
			"attributes":{
				"POSITION":3
			},
			"indices":2,
			"material":1
		}]
	},
	{
		"primitives":[{
			"attributes":{
				"POSITION":5
			},
			"indices":4,
			"material":2
		}]
	},
	{
		"primitives":[{
			"attributes":{
				"POSITION":7
			},
			"indices":6,
			"material":3
		}]
	},
	{
		"primitives":[{
			"attributes":{
				"POSITION":9
			},
			"indices":8,
			"material":4
		}]
	},
	{
		"primitives":[{
			"attributes":{
				"POSITION":11
			},
			"indices":10,
			"material":5
		}]
	},
	{
		"primitives":[{
			"attributes":{
				"POSITION":13
			},
			"indices":12,
			"material":6
		}]
	},
	{
		"primitives":[{
			"attributes":{
				"POSITION":15
			},
			"indices":14,
			"material":7
		}]
	},
	{
		"primitives":[{
			"attributes":{
				"POSITION":17
			},
			"indices":16,
			"material":8
		}]
	},
	{
		"primitives":[{
			"attributes":{
				"POSITION":19
			},
			"indices":18,
			"material":9
		}]
	},
	{
		"primitives":[{
			"attributes":{
				"POSITION":21
			},
			"indices":20,
			"material":10
		}]
	},
	{
		"primitives":[{
			"attributes":{
				"POSITION":23
			},
			"indices":22,
			"material":11
		}]
	},
	{
		"primitives":[{
			"attributes":{
				"POSITION":25
			},
			"indices":24,
			"material":12
		}]
	},
	{
		"primitives":[{
			"attributes":{
				"POSITION":27
			},
			"indices":26,
			"material":13
		}]
	},
	{
		"primitives":[{
			"attributes":{
				"POSITION":29
			},
			"indices":28,
			"material":14
		}]
	},
	{
		"primitives":[{
			"attributes":{
				"POSITION":31
			},
			"indices":30,
			"material":15
		}]
	},
	{
		"primitives":[{
			"attributes":{
				"POSITION":33
			},
			"indices":32,
			"material":16
		}]
	},
	{
		"primitives":[{
			"attributes":{
				"POSITION":35
			},
			"indices":34,
			"material":17
		}]
	},
	{
		"primitives":[{
			"attributes":{
				"POSITION":37
			},
			"indices":36,
			"material":18
		}]
	},
	{
		"primitives":[{
			"attributes":{
				"POSITION":39
			},
			"indices":38,
			"material":19
		}]
	}],
	"accessors":[{
		"bufferView":0,
		"componentType":5123,
		"type":"SCALAR",
		"min":[0],
		"count":1260,
		"byteOffset":0,
		"max":[839]
	},
	{
		"bufferView":1,
		"componentType":5126,
		"type":"VEC3",
		"min":[2393.141357421875,
		0.0,
		-1832.891845703125],
		"count":840,
		"byteOffset":0,
		"max":[2703.37841796875,
		300.0,
		-1549.049560546875]
	},
	{
		"bufferView":2,
		"componentType":5123,
		"type":"SCALAR",
		"min":[0],
		"count":36,
		"byteOffset":0,
		"max":[23]
	},
	{
		"bufferView":3,
		"componentType":5126,
		"type":"VEC3",
		"min":[2840.256591796875,
		0.0,
		-1511.7574462890626],
		"count":24,
		"byteOffset":0,
		"max":[2920.256591796875,
		205.0,
		-1505.7574462890626]
	},
	{
		"bufferView":4,
		"componentType":5123,
		"type":"SCALAR",
		"min":[0],
		"count":84,
		"byteOffset":0,
		"max":[47]
	},
	{
		"bufferView":5,
		"componentType":5126,
		"type":"VEC3",
		"min":[2835.256591796875,
		0.0,
		-1511.757568359375],
		"count":48,
		"byteOffset":0,
		"max":[2925.256591796875,
		210.0,
		-1505.757568359375]
	},
	{
		"bufferView":6,
		"componentType":5123,
		"type":"SCALAR",
		"min":[0],
		"count":36,
		"byteOffset":0,
		"max":[23]
	},
	{
		"bufferView":7,
		"componentType":5126,
		"type":"VEC3",
		"min":[439.1866149902344,
		0.0,
		-16.99958038330078],
		"count":24,
		"byteOffset":0,
		"max":[445.1866455078125,
		205.0,
		58.000423431396487]
	},
	{
		"bufferView":8,
		"componentType":5123,
		"type":"SCALAR",
		"min":[0],
		"count":36,
		"byteOffset":0,
		"max":[23]
	},
	{
		"bufferView":9,
		"componentType":5126,
		"type":"VEC3",
		"min":[295.1865539550781,
		0.0,
		-16.999536514282228],
		"count":24,
		"byteOffset":0,
		"max":[301.1865539550781,
		205.0,
		58.000465393066409]
	},
	{
		"bufferView":10,
		"componentType":5123,
		"type":"SCALAR",
		"min":[0],
		"count":84,
		"byteOffset":0,
		"max":[47]
	},
	{
		"bufferView":11,
		"componentType":5126,
		"type":"VEC3",
		"min":[290.1865539550781,
		0.0,
		-22.999576568603517],
		"count":48,
		"byteOffset":0,
		"max":[450.1865539550781,
		210.0,
		-16.99952507019043]
	},
	{
		"bufferView":12,
		"componentType":5123,
		"type":"SCALAR",
		"min":[0],
		"count":36,
		"byteOffset":0,
		"max":[23]
	},
	{
		"bufferView":13,
		"componentType":5126,
		"type":"VEC3",
		"min":[1712.4344482421876,
		0.0,
		-393.00006103515627],
		"count":24,
		"byteOffset":0,
		"max":[1718.4344482421876,
		205.0,
		-318.00006103515627]
	},
	{
		"bufferView":14,
		"componentType":5123,
		"type":"SCALAR",
		"min":[0],
		"count":36,
		"byteOffset":0,
		"max":[23]
	},
	{
		"bufferView":15,
		"componentType":5126,
		"type":"VEC3",
		"min":[1568.4342041015626,
		0.0,
		-393.0000305175781],
		"count":24,
		"byteOffset":0,
		"max":[1574.4342041015626,
		205.0,
		-318.0000305175781]
	},
	{
		"bufferView":16,
		"componentType":5123,
		"type":"SCALAR",
		"min":[0],
		"count":84,
		"byteOffset":0,
		"max":[47]
	},
	{
		"bufferView":17,
		"componentType":5126,
		"type":"VEC3",
		"min":[1563.434326171875,
		0.0,
		-399.0000305175781],
		"count":48,
		"byteOffset":0,
		"max":[1723.434326171875,
		210.0,
		-393.0]
	},
	{
		"bufferView":18,
		"componentType":5123,
		"type":"SCALAR",
		"min":[0],
		"count":36,
		"byteOffset":0,
		"max":[23]
	},
	{
		"bufferView":19,
		"componentType":5126,
		"type":"VEC3",
		"min":[2953.3896484375,
		0.0,
		-502.0566101074219],
		"count":24,
		"byteOffset":0,
		"max":[2959.3896484375,
		205.0,
		-422.0566101074219]
	},
	{
		"bufferView":20,
		"componentType":5123,
		"type":"SCALAR",
		"min":[0],
		"count":84,
		"byteOffset":0,
		"max":[47]
	},
	{
		"bufferView":21,
		"componentType":5126,
		"type":"VEC3",
		"min":[2953.389892578125,
		0.0,
		-507.0565185546875],
		"count":48,
		"byteOffset":0,
		"max":[2959.389892578125,
		210.0,
		-417.0565185546875]
	},
	{
		"bufferView":22,
		"componentType":5123,
		"type":"SCALAR",
		"min":[0],
		"count":36,
		"byteOffset":0,
		"max":[23]
	},
	{
		"bufferView":23,
		"componentType":5126,
		"type":"VEC3",
		"min":[2830.379638671875,
		0.0,
		-1857.530517578125],
		"count":24,
		"byteOffset":0,
		"max":[2910.379638671875,
		205.0,
		-1851.530517578125]
	},
	{
		"bufferView":24,
		"componentType":5123,
		"type":"SCALAR",
		"min":[0],
		"count":84,
		"byteOffset":0,
		"max":[47]
	},
	{
		"bufferView":25,
		"componentType":5126,
		"type":"VEC3",
		"min":[2825.3798828125,
		0.0,
		-1857.5306396484376],
		"count":48,
		"byteOffset":0,
		"max":[2915.3798828125,
		210.0,
		-1851.5306396484376]
	},
	{
		"bufferView":26,
		"componentType":5123,
		"type":"SCALAR",
		"min":[0],
		"count":36,
		"byteOffset":0,
		"max":[23]
	},
	{
		"bufferView":27,
		"componentType":5126,
		"type":"VEC3",
		"min":[1904.1473388671876,
		0.0,
		-2115.8837890625],
		"count":24,
		"byteOffset":0,
		"max":[1910.1473388671876,
		205.0,
		-2035.8837890625]
	},
	{
		"bufferView":28,
		"componentType":5123,
		"type":"SCALAR",
		"min":[0],
		"count":84,
		"byteOffset":0,
		"max":[47]
	},
	{
		"bufferView":29,
		"componentType":5126,
		"type":"VEC3",
		"min":[1904.1474609375,
		0.0,
		-2120.8837890625],
		"count":48,
		"byteOffset":0,
		"max":[1910.1474609375,
		210.0,
		-2030.8837890625]
	},
	{
		"bufferView":30,
		"componentType":5123,
		"type":"SCALAR",
		"min":[0],
		"count":36,
		"byteOffset":0,
		"max":[23]
	},
	{
		"bufferView":31,
		"componentType":5126,
		"type":"VEC3",
		"min":[2878.39013671875,
		0.0,
		-2311.902099609375],
		"count":24,
		"byteOffset":0,
		"max":[2953.39013671875,
		205.0,
		-2305.902099609375]
	},
	{
		"bufferView":32,
		"componentType":5123,
		"type":"SCALAR",
		"min":[0],
		"count":36,
		"byteOffset":0,
		"max":[23]
	},
	{
		"bufferView":33,
		"componentType":5126,
		"type":"VEC3",
		"min":[2878.39013671875,
		0.0,
		-2455.90234375],
		"count":24,
		"byteOffset":0,
		"max":[2953.39013671875,
		205.0,
		-2449.90234375]
	},
	{
		"bufferView":34,
		"componentType":5123,
		"type":"SCALAR",
		"min":[0],
		"count":84,
		"byteOffset":0,
		"max":[47]
	},
	{
		"bufferView":35,
		"componentType":5126,
		"type":"VEC3",
		"min":[2953.390625,
		0.0,
		-2460.901611328125],
		"count":48,
		"byteOffset":0,
		"max":[2959.390625,
		210.0,
		-2300.901611328125]
	},
	{
		"bufferView":36,
		"componentType":5123,
		"type":"SCALAR",
		"min":[0],
		"count":366,
		"byteOffset":0,
		"max":[139]
	},
	{
		"bufferView":37,
		"componentType":5126,
		"type":"VEC3",
		"min":[30.04998779296875,
		0.0,
		-2642.0],
		"count":140,
		"byteOffset":0,
		"max":[2967.389892578125,
		0.0,
		-9.0]
	},
	{
		"bufferView":38,
		"componentType":5123,
		"type":"SCALAR",
		"min":[0],
		"count":3462,
		"byteOffset":0,
		"max":[2303]
	},
	{
		"bufferView":39,
		"componentType":5126,
		"type":"VEC3",
		"min":[2.507070541381836,
		0.0,
		-2669.492919921875],
		"count":2304,
		"byteOffset":0,
		"max":[2973.882568359375,
		300.0,
		-2.507070541381836]
	}],
	"bufferViews":[{
		"buffer":0,
		"byteOffset":0,
		"byteLength":2520,
		"target":34963
	},
	{
		"buffer":0,
		"byteOffset":2520,
		"byteLength":10080,
		"target":34962
	},
	{
		"buffer":1,
		"byteOffset":0,
		"byteLength":72,
		"target":34963
	},
	{
		"buffer":1,
		"byteOffset":72,
		"byteLength":288,
		"target":34962
	},
	{
		"buffer":2,
		"byteOffset":0,
		"byteLength":168,
		"target":34963
	},
	{
		"buffer":2,
		"byteOffset":168,
		"byteLength":576,
		"target":34962
	},
	{
		"buffer":3,
		"byteOffset":0,
		"byteLength":72,
		"target":34963
	},
	{
		"buffer":3,
		"byteOffset":72,
		"byteLength":288,
		"target":34962
	},
	{
		"buffer":4,
		"byteOffset":0,
		"byteLength":72,
		"target":34963
	},
	{
		"buffer":4,
		"byteOffset":72,
		"byteLength":288,
		"target":34962
	},
	{
		"buffer":5,
		"byteOffset":0,
		"byteLength":168,
		"target":34963
	},
	{
		"buffer":5,
		"byteOffset":168,
		"byteLength":576,
		"target":34962
	},
	{
		"buffer":6,
		"byteOffset":0,
		"byteLength":72,
		"target":34963
	},
	{
		"buffer":6,
		"byteOffset":72,
		"byteLength":288,
		"target":34962
	},
	{
		"buffer":7,
		"byteOffset":0,
		"byteLength":72,
		"target":34963
	},
	{
		"buffer":7,
		"byteOffset":72,
		"byteLength":288,
		"target":34962
	},
	{
		"buffer":8,
		"byteOffset":0,
		"byteLength":168,
		"target":34963
	},
	{
		"buffer":8,
		"byteOffset":168,
		"byteLength":576,
		"target":34962
	},
	{
		"buffer":9,
		"byteOffset":0,
		"byteLength":72,
		"target":34963
	},
	{
		"buffer":9,
		"byteOffset":72,
		"byteLength":288,
		"target":34962
	},
	{
		"buffer":10,
		"byteOffset":0,
		"byteLength":168,
		"target":34963
	},
	{
		"buffer":10,
		"byteOffset":168,
		"byteLength":576,
		"target":34962
	},
	{
		"buffer":11,
		"byteOffset":0,
		"byteLength":72,
		"target":34963
	},
	{
		"buffer":11,
		"byteOffset":72,
		"byteLength":288,
		"target":34962
	},
	{
		"buffer":12,
		"byteOffset":0,
		"byteLength":168,
		"target":34963
	},
	{
		"buffer":12,
		"byteOffset":168,
		"byteLength":576,
		"target":34962
	},
	{
		"buffer":13,
		"byteOffset":0,
		"byteLength":72,
		"target":34963
	},
	{
		"buffer":13,
		"byteOffset":72,
		"byteLength":288,
		"target":34962
	},
	{
		"buffer":14,
		"byteOffset":0,
		"byteLength":168,
		"target":34963
	},
	{
		"buffer":14,
		"byteOffset":168,
		"byteLength":576,
		"target":34962
	},
	{
		"buffer":15,
		"byteOffset":0,
		"byteLength":72,
		"target":34963
	},
	{
		"buffer":15,
		"byteOffset":72,
		"byteLength":288,
		"target":34962
	},
	{
		"buffer":16,
		"byteOffset":0,
		"byteLength":72,
		"target":34963
	},
	{
		"buffer":16,
		"byteOffset":72,
		"byteLength":288,
		"target":34962
	},
	{
		"buffer":17,
		"byteOffset":0,
		"byteLength":168,
		"target":34963
	},
	{
		"buffer":17,
		"byteOffset":168,
		"byteLength":576,
		"target":34962
	},
	{
		"buffer":18,
		"byteOffset":0,
		"byteLength":732,
		"target":34963
	},
	{
		"buffer":18,
		"byteOffset":732,
		"byteLength":1680,
		"target":34962
	},
	{
		"buffer":19,
		"byteOffset":0,
		"byteLength":6924,
		"target":34963
	},
	{
		"buffer":19,
		"byteOffset":6924,
		"byteLength":27648,
		"target":34962
	}],
	"buffers":[{
		"uri":"data:application/octet-stream;base64,",
		"byteLength":12600
	},
	{
		"uri":"data:application/octet-stream;base64,",
		"byteLength":360
	},
	{
		"uri":"data:application/octet-stream;base64,",
		"byteLength":744
	},
	{
		"uri":"data:application/octet-stream;base64,",
		"byteLength":360
	},
	{
		"uri":"data:application/octet-stream;base64,",
		"byteLength":360
	},
	{
		"uri":"data:application/octet-stream;base64,",
		"byteLength":744
	},
	{
		"uri":"data:application/octet-stream;base64,",
		"byteLength":360
	},
	{
		"uri":"data:application/octet-stream;base64,",
		"byteLength":360
	},
	{
		"uri":"data:application/octet-stream;base64,",
		"byteLength":744
	},
	{
		"uri":"data:application/octet-stream;base64,",
		"byteLength":360
	},
	{
		"uri":"data:application/octet-stream;base64,",
		"byteLength":744
	},
	{
		"uri":"data:application/octet-stream;base64,",
		"byteLength":360
	},
	{
		"uri":"data:application/octet-stream;base64,",
		"byteLength":744
	},
	{
		"uri":"data:application/octet-stream;base64,",
		"byteLength":360
	},
	{
		"uri":"data:application/octet-stream;base64,",
		"byteLength":744
	},
	{
		"uri":"data:application/octet-stream;base64,",
		"byteLength":360
	},
	{
		"uri":"data:application/octet-stream;base64,",
		"byteLength":360
	},
	{
		"uri":"data:application/octet-stream;base64,",
		"byteLength":744
	},
	{
		"uri":"data:application/octet-stream;base64,",
		"byteLength":2412
	},
	{
		"uri":"data:application/octet-stream;base64,",
		"byteLength":34572
	}],
	"materials":[{
		"pbrMetallicRoughness":{
			"baseColorFactor":[1.0,
			1.0,
			1.0,
			1.0],
			"metallicFactor":1.0,
			"roughnessFactor":1.0
		},
		"emissiveFactor":[0.0,
		0.0,
		0.0],
		"alphaMode":"OPAQUE",
		"doubleSided":true,
		"name":""
	},
	{
		"pbrMetallicRoughness":{
			"baseColorFactor":[1.0,
			1.0,
			1.0,
			1.0],
			"metallicFactor":1.0,
			"roughnessFactor":1.0
		},
		"emissiveFactor":[0.0,
		0.0,
		0.0],
		"alphaMode":"OPAQUE",
		"doubleSided":true,
		"name":""
	},
	{
		"pbrMetallicRoughness":{
			"baseColorFactor":[1.0,
			1.0,
			1.0,
			1.0],
			"metallicFactor":1.0,
			"roughnessFactor":1.0
		},
		"emissiveFactor":[0.0,
		0.0,
		0.0],
		"alphaMode":"OPAQUE",
		"doubleSided":true,
		"name":""
	},
	{
		"pbrMetallicRoughness":{
			"baseColorFactor":[1.0,
			1.0,
			1.0,
			1.0],
			"metallicFactor":1.0,
			"roughnessFactor":1.0
		},
		"emissiveFactor":[0.0,
		0.0,
		0.0],
		"alphaMode":"OPAQUE",
		"doubleSided":true,
		"name":""
	},
	{
		"pbrMetallicRoughness":{
			"baseColorFactor":[1.0,
			1.0,
			1.0,
			1.0],
			"metallicFactor":1.0,
			"roughnessFactor":1.0
		},
		"emissiveFactor":[0.0,
		0.0,
		0.0],
		"alphaMode":"OPAQUE",
		"doubleSided":true,
		"name":""
	},
	{
		"pbrMetallicRoughness":{
			"baseColorFactor":[1.0,
			1.0,
			1.0,
			1.0],
			"metallicFactor":1.0,
			"roughnessFactor":1.0
		},
		"emissiveFactor":[0.0,
		0.0,
		0.0],
		"alphaMode":"OPAQUE",
		"doubleSided":true,
		"name":""
	},
	{
		"pbrMetallicRoughness":{
			"baseColorFactor":[1.0,
			1.0,
			1.0,
			1.0],
			"metallicFactor":1.0,
			"roughnessFactor":1.0
		},
		"emissiveFactor":[0.0,
		0.0,
		0.0],
		"alphaMode":"OPAQUE",
		"doubleSided":true,
		"name":""
	},
	{
		"pbrMetallicRoughness":{
			"baseColorFactor":[1.0,
			1.0,
			1.0,
			1.0],
			"metallicFactor":1.0,
			"roughnessFactor":1.0
		},
		"emissiveFactor":[0.0,
		0.0,
		0.0],
		"alphaMode":"OPAQUE",
		"doubleSided":true,
		"name":""
	},
	{
		"pbrMetallicRoughness":{
			"baseColorFactor":[1.0,
			1.0,
			1.0,
			1.0],
			"metallicFactor":1.0,
			"roughnessFactor":1.0
		},
		"emissiveFactor":[0.0,
		0.0,
		0.0],
		"alphaMode":"OPAQUE",
		"doubleSided":true,
		"name":""
	},
	{
		"pbrMetallicRoughness":{
			"baseColorFactor":[1.0,
			1.0,
			1.0,
			1.0],
			"metallicFactor":1.0,
			"roughnessFactor":1.0
		},
		"emissiveFactor":[0.0,
		0.0,
		0.0],
		"alphaMode":"OPAQUE",
		"doubleSided":true,
		"name":""
	},
	{
		"pbrMetallicRoughness":{
			"baseColorFactor":[1.0,
			1.0,
			1.0,
			1.0],
			"metallicFactor":1.0,
			"roughnessFactor":1.0
		},
		"emissiveFactor":[0.0,
		0.0,
		0.0],
		"alphaMode":"OPAQUE",
		"doubleSided":true,
		"name":""
	},
	{
		"pbrMetallicRoughness":{
			"baseColorFactor":[1.0,
			1.0,
			1.0,
			1.0],
			"metallicFactor":1.0,
			"roughnessFactor":1.0
		},
		"emissiveFactor":[0.0,
		0.0,
		0.0],
		"alphaMode":"OPAQUE",
		"doubleSided":true,
		"name":""
	},
	{
		"pbrMetallicRoughness":{
			"baseColorFactor":[1.0,
			1.0,
			1.0,
			1.0],
			"metallicFactor":1.0,
			"roughnessFactor":1.0
		},
		"emissiveFactor":[0.0,
		0.0,
		0.0],
		"alphaMode":"OPAQUE",
		"doubleSided":true,
		"name":""
	},
	{
		"pbrMetallicRoughness":{
			"baseColorFactor":[1.0,
			1.0,
			1.0,
			1.0],
			"metallicFactor":1.0,
			"roughnessFactor":1.0
		},
		"emissiveFactor":[0.0,
		0.0,
		0.0],
		"alphaMode":"OPAQUE",
		"doubleSided":true,
		"name":""
	},
	{
		"pbrMetallicRoughness":{
			"baseColorFactor":[1.0,
			1.0,
			1.0,
			1.0],
			"metallicFactor":1.0,
			"roughnessFactor":1.0
		},
		"emissiveFactor":[0.0,
		0.0,
		0.0],
		"alphaMode":"OPAQUE",
		"doubleSided":true,
		"name":""
	},
	{
		"pbrMetallicRoughness":{
			"baseColorFactor":[1.0,
			1.0,
			1.0,
			1.0],
			"metallicFactor":1.0,
			"roughnessFactor":1.0
		},
		"emissiveFactor":[0.0,
		0.0,
		0.0],
		"alphaMode":"OPAQUE",
		"doubleSided":true,
		"name":""
	},
	{
		"pbrMetallicRoughness":{
			"baseColorFactor":[1.0,
			1.0,
			1.0,
			1.0],
			"metallicFactor":1.0,
			"roughnessFactor":1.0
		},
		"emissiveFactor":[0.0,
		0.0,
		0.0],
		"alphaMode":"OPAQUE",
		"doubleSided":true,
		"name":""
	},
	{
		"pbrMetallicRoughness":{
			"baseColorFactor":[1.0,
			1.0,
			1.0,
			1.0],
			"metallicFactor":1.0,
			"roughnessFactor":1.0
		},
		"emissiveFactor":[0.0,
		0.0,
		0.0],
		"alphaMode":"OPAQUE",
		"doubleSided":true,
		"name":""
	},
	{
		"pbrMetallicRoughness":{
			"baseColorFactor":[1.0,
			1.0,
			1.0,
			1.0],
			"metallicFactor":1.0,
			"roughnessFactor":1.0
		},
		"emissiveFactor":[0.0,
		0.0,
		0.0],
		"alphaMode":"OPAQUE",
		"doubleSided":true,
		"name":""
	},
	{
		"pbrMetallicRoughness":{
			"baseColorFactor":[1.0,
			1.0,
			1.0,
			1.0],
			"metallicFactor":1.0,
			"roughnessFactor":1.0
		},
		"emissiveFactor":[0.0,
		0.0,
		0.0],
		"alphaMode":"OPAQUE",
		"doubleSided":true,
		"name":""
	}]
}