{
	"asset":{
		"version":"2.0",
		"generator":"Created using the official Cinema 4D glTF Exporter 1.000x290161"
	},
	"scenes":[{
		"nodes":[0,
		11,
		13]
	}],
	"nodes":[{
		"name":"door",
		"children":[1,
		2,
		3,
		4,
		5,
		6,
		7,
		8,
		9,
		10]
	},
	{
		"name":"1St00c0",
		"mesh":0
	},
	{
		"name":"1D0001",
		"mesh":1
	},
	{
		"name":"1D0002",
		"mesh":2
	},
	{
		"name":"1D0003",
		"mesh":3
	},
	{
		"name":"1D0004",
		"mesh":4
	},
	{
		"name":"1D0005",
		"mesh":5
	},
	{
		"name":"1D0006",
		"mesh":6
	},
	{
		"name":"1D0007",
		"mesh":7
	},
	{
		"name":"1D0008",
		"mesh":8
	},
	{
		"name":"1D0009",
		"mesh":9
	},
	{
		"name":"floor",
		"children":[12]
	},
	{
		"name":"1S000a",
		"mesh":10
	},
	{
		"name":"wall",
		"children":[14]
	},
	{
		"name":"1W000f",
		"mesh":11
	}],
	"meshes":[{
		"primitives":[{
			"attributes":{
				"POSITION":1
			},
			"indices":0,
			"material":0
		}]
	},
	{
		"primitives":[{
			"attributes":{
				"POSITION":3
			},
			"indices":2,
			"material":1
		}]
	},
	{
		"primitives":[{
			"attributes":{
				"POSITION":5
			},
			"indices":4,
			"material":2
		}]
	},
	{
		"primitives":[{
			"attributes":{
				"POSITION":7
			},
			"indices":6,
			"material":3
		}]
	},
	{
		"primitives":[{
			"attributes":{
				"POSITION":9
			},
			"indices":8,
			"material":4
		}]
	},
	{
		"primitives":[{
			"attributes":{
				"POSITION":11
			},
			"indices":10,
			"material":5
		}]
	},
	{
		"primitives":[{
			"attributes":{
				"POSITION":13
			},
			"indices":12,
			"material":6
		}]
	},
	{
		"primitives":[{
			"attributes":{
				"POSITION":15
			},
			"indices":14,
			"material":7
		}]
	},
	{
		"primitives":[{
			"attributes":{
				"POSITION":17
			},
			"indices":16,
			"material":8
		}]
	},
	{
		"primitives":[{
			"attributes":{
				"POSITION":19
			},
			"indices":18,
			"material":9
		}]
	},
	{
		"primitives":[{
			"attributes":{
				"POSITION":21
			},
			"indices":20,
			"material":10
		}]
	},
	{
		"primitives":[{
			"attributes":{
				"POSITION":23
			},
			"indices":22,
			"material":11
		}]
	}],
	"accessors":[{
		"bufferView":0,
		"componentType":5123,
		"type":"SCALAR",
		"min":[0],
		"count":1260,
		"byteOffset":0,
		"max":[839]
	},
	{
		"bufferView":1,
		"componentType":5126,
		"type":"VEC3",
		"min":[45.40336608886719,
		0.0,
		-1631.98828125],
		"count":840,
		"byteOffset":0,
		"max":[380.0,
		300.0,
		-1154.450439453125]
	},
	{
		"bufferView":2,
		"componentType":5123,
		"type":"SCALAR",
		"min":[0],
		"count":36,
		"byteOffset":0,
		"max":[23]
	},
	{
		"bufferView":3,
		"componentType":5126,
		"type":"VEC3",
		"min":[723.0,
		0.0,
		-918.887939453125],
		"count":24,
		"byteOffset":0,
		"max":[798.0,
		205.0,
		-912.8878784179688]
	},
	{
		"bufferView":4,
		"componentType":5123,
		"type":"SCALAR",
		"min":[0],
		"count":36,
		"byteOffset":0,
		"max":[23]
	},
	{
		"bufferView":5,
		"componentType":5126,
		"type":"VEC3",
		"min":[723.0001831054688,
		0.0,
		-774.8878784179688],
		"count":24,
		"byteOffset":0,
		"max":[798.0001831054688,
		205.0,
		-768.8878784179688]
	},
	{
		"bufferView":6,
		"componentType":5123,
		"type":"SCALAR",
		"min":[0],
		"count":84,
		"byteOffset":0,
		"max":[47]
	},
	{
		"bufferView":7,
		"componentType":5126,
		"type":"VEC3",
		"min":[717.0,
		0.0,
		-923.8876953125],
		"count":48,
		"byteOffset":0,
		"max":[723.0000610351563,
		210.0,
		-763.8876953125]
	},
	{
		"bufferView":8,
		"componentType":5123,
		"type":"SCALAR",
		"min":[0],
		"count":36,
		"byteOffset":0,
		"max":[23]
	},
	{
		"bufferView":9,
		"componentType":5126,
		"type":"VEC3",
		"min":[540.7049560546875,
		0.0,
		-1316.4178466796876],
		"count":24,
		"byteOffset":0,
		"max":[546.7050170898438,
		205.0,
		-1236.4178466796876]
	},
	{
		"bufferView":10,
		"componentType":5123,
		"type":"SCALAR",
		"min":[0],
		"count":84,
		"byteOffset":0,
		"max":[47]
	},
	{
		"bufferView":11,
		"componentType":5126,
		"type":"VEC3",
		"min":[540.7048950195313,
		0.0,
		-1321.4178466796876],
		"count":48,
		"byteOffset":0,
		"max":[546.7049560546875,
		210.0,
		-1231.4178466796876]
	},
	{
		"bufferView":12,
		"componentType":5123,
		"type":"SCALAR",
		"min":[0],
		"count":36,
		"byteOffset":0,
		"max":[23]
	},
	{
		"bufferView":13,
		"componentType":5126,
		"type":"VEC3",
		"min":[540.7048950195313,
		0.0,
		-1473.7886962890626],
		"count":24,
		"byteOffset":0,
		"max":[546.7049560546875,
		205.0,
		-1393.7886962890626]
	},
	{
		"bufferView":14,
		"componentType":5123,
		"type":"SCALAR",
		"min":[0],
		"count":84,
		"byteOffset":0,
		"max":[47]
	},
	{
		"bufferView":15,
		"componentType":5126,
		"type":"VEC3",
		"min":[540.7048950195313,
		0.0,
		-1478.788818359375],
		"count":48,
		"byteOffset":0,
		"max":[546.7049560546875,
		210.0,
		-1388.788818359375]
	},
	{
		"bufferView":16,
		"componentType":5123,
		"type":"SCALAR",
		"min":[0],
		"count":36,
		"byteOffset":0,
		"max":[23]
	},
	{
		"bufferView":17,
		"componentType":5126,
		"type":"VEC3",
		"min":[540.70458984375,
		0.0,
		-1164.2353515625],
		"count":24,
		"byteOffset":0,
		"max":[546.70458984375,
		205.0,
		-1084.2353515625]
	},
	{
		"bufferView":18,
		"componentType":5123,
		"type":"SCALAR",
		"min":[0],
		"count":84,
		"byteOffset":0,
		"max":[47]
	},
	{
		"bufferView":19,
		"componentType":5126,
		"type":"VEC3",
		"min":[540.7045288085938,
		0.0,
		-1169.2353515625],
		"count":48,
		"byteOffset":0,
		"max":[546.70458984375,
		210.0,
		-1079.2353515625]
	},
	{
		"bufferView":20,
		"componentType":5123,
		"type":"SCALAR",
		"min":[0],
		"count":186,
		"byteOffset":0,
		"max":[71]
	},
	{
		"bufferView":21,
		"componentType":5126,
		"type":"VEC3",
		"min":[25.0,
		0.0,
		-1652.5],
		"count":72,
		"byteOffset":0,
		"max":[4327.5,
		0.0,
		-22.5]
	},
	{
		"bufferView":22,
		"componentType":5123,
		"type":"SCALAR",
		"min":[0],
		"count":1716,
		"byteOffset":0,
		"max":[1143]
	},
	{
		"bufferView":23,
		"componentType":5126,
		"type":"VEC3",
		"min":[-12.492927551269532,
		0.0,
		-1677.492919921875],
		"count":1144,
		"byteOffset":0,
		"max":[4352.4931640625,
		300.0,
		2.492929458618164]
	}],
	"bufferViews":[{
		"buffer":0,
		"byteOffset":0,
		"byteLength":2520,
		"target":34963
	},
	{
		"buffer":0,
		"byteOffset":2520,
		"byteLength":10080,
		"target":34962
	},
	{
		"buffer":1,
		"byteOffset":0,
		"byteLength":72,
		"target":34963
	},
	{
		"buffer":1,
		"byteOffset":72,
		"byteLength":288,
		"target":34962
	},
	{
		"buffer":2,
		"byteOffset":0,
		"byteLength":72,
		"target":34963
	},
	{
		"buffer":2,
		"byteOffset":72,
		"byteLength":288,
		"target":34962
	},
	{
		"buffer":3,
		"byteOffset":0,
		"byteLength":168,
		"target":34963
	},
	{
		"buffer":3,
		"byteOffset":168,
		"byteLength":576,
		"target":34962
	},
	{
		"buffer":4,
		"byteOffset":0,
		"byteLength":72,
		"target":34963
	},
	{
		"buffer":4,
		"byteOffset":72,
		"byteLength":288,
		"target":34962
	},
	{
		"buffer":5,
		"byteOffset":0,
		"byteLength":168,
		"target":34963
	},
	{
		"buffer":5,
		"byteOffset":168,
		"byteLength":576,
		"target":34962
	},
	{
		"buffer":6,
		"byteOffset":0,
		"byteLength":72,
		"target":34963
	},
	{
		"buffer":6,
		"byteOffset":72,
		"byteLength":288,
		"target":34962
	},
	{
		"buffer":7,
		"byteOffset":0,
		"byteLength":168,
		"target":34963
	},
	{
		"buffer":7,
		"byteOffset":168,
		"byteLength":576,
		"target":34962
	},
	{
		"buffer":8,
		"byteOffset":0,
		"byteLength":72,
		"target":34963
	},
	{
		"buffer":8,
		"byteOffset":72,
		"byteLength":288,
		"target":34962
	},
	{
		"buffer":9,
		"byteOffset":0,
		"byteLength":168,
		"target":34963
	},
	{
		"buffer":9,
		"byteOffset":168,
		"byteLength":576,
		"target":34962
	},
	{
		"buffer":10,
		"byteOffset":0,
		"byteLength":372,
		"target":34963
	},
	{
		"buffer":10,
		"byteOffset":372,
		"byteLength":864,
		"target":34962
	},
	{
		"buffer":11,
		"byteOffset":0,
		"byteLength":3432,
		"target":34963
	},
	{
		"buffer":11,
		"byteOffset":3432,
		"byteLength":13728,
		"target":34962
	}],
	"buffers":[{
		"uri":"data:application/octet-stream;base64,",
		"byteLength":12600
	},
	{
		"uri":"data:application/octet-stream;base64,",
		"byteLength":360
	},
	{
		"uri":"data:application/octet-stream;base64,",
		"byteLength":360
	},
	{
		"uri":"data:application/octet-stream;base64,",
		"byteLength":744
	},
	{
		"uri":"data:application/octet-stream;base64,",
		"byteLength":360
	},
	{
		"uri":"data:application/octet-stream;base64,",
		"byteLength":744
	},
	{
		"uri":"data:application/octet-stream;base64,",
		"byteLength":360
	},
	{
		"uri":"data:application/octet-stream;base64,",
		"byteLength":744
	},
	{
		"uri":"data:application/octet-stream;base64,",
		"byteLength":360
	},
	{
		"uri":"data:application/octet-stream;base64,",
		"byteLength":744
	},
	{
		"uri":"data:application/octet-stream;base64,",
		"byteLength":1236
	},
	{
		"uri":"data:application/octet-stream;base64,",
		"byteLength":17160
	}],
	"materials":[{
		"pbrMetallicRoughness":{
			"baseColorFactor":[1.0,
			1.0,
			1.0,
			1.0],
			"metallicFactor":1.0,
			"roughnessFactor":1.0
		},
		"emissiveFactor":[0.0,
		0.0,
		0.0],
		"alphaMode":"OPAQUE",
		"doubleSided":true,
		"name":""
	},
	{
		"pbrMetallicRoughness":{
			"baseColorFactor":[1.0,
			1.0,
			1.0,
			1.0],
			"metallicFactor":1.0,
			"roughnessFactor":1.0
		},
		"emissiveFactor":[0.0,
		0.0,
		0.0],
		"alphaMode":"OPAQUE",
		"doubleSided":true,
		"name":""
	},
	{
		"pbrMetallicRoughness":{
			"baseColorFactor":[1.0,
			1.0,
			1.0,
			1.0],
			"metallicFactor":1.0,
			"roughnessFactor":1.0
		},
		"emissiveFactor":[0.0,
		0.0,
		0.0],
		"alphaMode":"OPAQUE",
		"doubleSided":true,
		"name":""
	},
	{
		"pbrMetallicRoughness":{
			"baseColorFactor":[1.0,
			1.0,
			1.0,
			1.0],
			"metallicFactor":1.0,
			"roughnessFactor":1.0
		},
		"emissiveFactor":[0.0,
		0.0,
		0.0],
		"alphaMode":"OPAQUE",
		"doubleSided":true,
		"name":""
	},
	{
		"pbrMetallicRoughness":{
			"baseColorFactor":[1.0,
			1.0,
			1.0,
			1.0],
			"metallicFactor":1.0,
			"roughnessFactor":1.0
		},
		"emissiveFactor":[0.0,
		0.0,
		0.0],
		"alphaMode":"OPAQUE",
		"doubleSided":true,
		"name":""
	},
	{
		"pbrMetallicRoughness":{
			"baseColorFactor":[1.0,
			1.0,
			1.0,
			1.0],
			"metallicFactor":1.0,
			"roughnessFactor":1.0
		},
		"emissiveFactor":[0.0,
		0.0,
		0.0],
		"alphaMode":"OPAQUE",
		"doubleSided":true,
		"name":""
	},
	{
		"pbrMetallicRoughness":{
			"baseColorFactor":[1.0,
			1.0,
			1.0,
			1.0],
			"metallicFactor":1.0,
			"roughnessFactor":1.0
		},
		"emissiveFactor":[0.0,
		0.0,
		0.0],
		"alphaMode":"OPAQUE",
		"doubleSided":true,
		"name":""
	},
	{
		"pbrMetallicRoughness":{
			"baseColorFactor":[1.0,
			1.0,
			1.0,
			1.0],
			"metallicFactor":1.0,
			"roughnessFactor":1.0
		},
		"emissiveFactor":[0.0,
		0.0,
		0.0],
		"alphaMode":"OPAQUE",
		"doubleSided":true,
		"name":""
	},
	{
		"pbrMetallicRoughness":{
			"baseColorFactor":[1.0,
			1.0,
			1.0,
			1.0],
			"metallicFactor":1.0,
			"roughnessFactor":1.0
		},
		"emissiveFactor":[0.0,
		0.0,
		0.0],
		"alphaMode":"OPAQUE",
		"doubleSided":true,
		"name":""
	},
	{
		"pbrMetallicRoughness":{
			"baseColorFactor":[1.0,
			1.0,
			1.0,
			1.0],
			"metallicFactor":1.0,
			"roughnessFactor":1.0
		},
		"emissiveFactor":[0.0,
		0.0,
		0.0],
		"alphaMode":"OPAQUE",
		"doubleSided":true,
		"name":""
	},
	{
		"pbrMetallicRoughness":{
			"baseColorFactor":[1.0,
			1.0,
			1.0,
			1.0],
			"metallicFactor":1.0,
			"roughnessFactor":1.0
		},
		"emissiveFactor":[0.0,
		0.0,
		0.0],
		"alphaMode":"OPAQUE",
		"doubleSided":true,
		"name":""
	},
	{
		"pbrMetallicRoughness":{
			"baseColorFactor":[1.0,
			1.0,
			1.0,
			1.0],
			"metallicFactor":1.0,
			"roughnessFactor":1.0
		},
		"emissiveFactor":[0.0,
		0.0,
		0.0],
		"alphaMode":"OPAQUE",
		"doubleSided":true,
		"name":""
	}]
}