{
	"asset":{
		"version":"2.0",
		"generator":"Created using the official Cinema 4D glTF Exporter 1.000x290161"
	},
	"scenes":[{
		"nodes":[0]
	}],
	"nodes":[{
		"name":"1D0001",
		"mesh":0
	}],
	"meshes":[{
		"primitives":[{
			"attributes":{
				"POSITION":1,
				"TEXCOORD_0":2
			},
			"indices":0,
			"material":0
		}]
	}],
	"accessors":[{
		"bufferView":0,
		"type":"SCALAR",
		"componentType":5123,
		"count":1764,
		"byteOffset":0,
		"min":[0],
		"max":[1099]
	},
	{
		"bufferView":1,
		"type":"VEC3",
		"componentType":5126,
		"count":1100,
		"byteOffset":0,
		"min":[4.003997802734375,
		0.0,
		-1876.7139892578126],
		"max":[1700.8330078125,
		300.0,
		-5.007606506347656]
	},
	{
		"bufferView":1,
		"type":"VEC2",
		"componentType":5126,
		"count":1100,
		"byteOffset":12,
		"min":[-409.3785400390625,
		1.0],
		"max":[8.382522583007813,
		268.00335693359377]
	}],
	"bufferViews":[{
		"buffer":0,
		"byteOffset":0,
		"byteLength":3528,
		"target":34963
	},
	{
		"buffer":0,
		"byteOffset":3528,
		"byteLength":22000,
		"target":34962,
		"byteStride":20
	}],
	"buffers":[{
		"uri":"data:application/octet-stream;base64,",
		"byteLength":25528
	}],
	"materials":[{
		"pbrMetallicRoughness":{
			"baseColorFactor":[1.0,
			1.0,
			1.0,
			1.0],
			"metallicFactor":1.0,
			"roughnessFactor":1.0
		},
		"emissiveFactor":[0.0,
		0.0,
		0.0],
		"alphaMode":"OPAQUE",
		"doubleSided":false,
		"name":""
	}]
}